<svg xmlns="http://www.w3.org/2000/svg" viewBox="0 0 1024 1024" version="1.1">
<g id="Parent-Group"><g id="Group-rgba(0,0,0,0)" fill="rgba(0,0,0,0)">
<path fill="rgba(0,0,0,0)" opacity="1.00" d=" M 0.00 0.00 L 1024.00 0.00 L 1024.00 1024.00 L 0.00 1024.00 L 0.00 0.00 M 525.55 137.08 C 525.54 177.68 525.54 218.27 525.68 258.87 C 512.14 261.00 498.53 262.61 485.04 265.00 C 484.55 276.35 485.05 287.73 484.85 299.09 C 484.77 301.39 485.20 303.66 485.52 305.92 C 474.01 308.15 462.47 310.37 451.03 312.89 C 451.76 318.25 450.96 323.60 451.18 328.97 C 451.18 355.92 451.07 382.84 451.28 409.80 C 443.68 410.90 436.03 411.89 428.60 413.88 C 428.17 440.57 428.57 467.28 428.39 493.98 C 428.53 568.01 428.37 642.01 428.42 716.05 C 428.32 799.74 428.62 883.43 428.32 967.11 C 420.87 967.18 413.43 967.04 405.99 967.18 C 404.55 966.98 402.81 967.60 401.67 966.44 C 404.49 962.36 407.32 957.96 408.14 953.00 C 409.01 948.55 404.07 944.84 399.96 946.36 C 393.69 948.42 388.60 953.03 384.23 957.82 C 384.00 955.81 383.77 953.83 383.33 951.87 C 378.08 950.56 377.09 956.54 375.44 960.03 C 375.20 959.95 374.72 959.80 374.48 959.72 L 374.45 959.33 C 375.09 957.97 375.03 956.42 375.11 954.97 C 375.23 941.22 375.31 927.47 375.17 913.72 C 374.72 913.66 373.83 913.55 373.39 913.50 C 372.50 910.23 372.63 906.79 372.03 903.48 C 369.69 904.09 367.44 903.50 366.16 901.39 C 367.84 902.73 370.07 902.75 372.11 902.88 C 372.08 899.58 372.47 896.25 371.72 893.01 C 372.03 891.50 372.56 889.81 371.75 888.39 C 367.99 884.88 363.36 882.25 360.10 878.26 C 361.01 877.61 361.94 877.00 362.89 876.43 C 365.85 879.02 368.82 881.62 371.94 884.04 C 371.64 880.08 371.38 876.11 371.44 872.14 C 370.69 872.40 369.31 874.48 368.84 872.92 C 368.03 871.18 370.58 871.70 371.52 871.39 C 371.25 866.55 371.19 861.70 371.22 856.85 C 371.69 856.54 372.65 855.90 373.12 855.59 C 375.83 859.61 374.12 864.74 374.20 869.25 C 378.15 865.02 380.30 859.05 385.13 855.55 L 385.89 856.19 C 385.86 856.78 385.82 857.96 385.79 858.54 C 383.65 862.23 380.88 865.52 378.89 869.29 C 375.12 873.38 372.93 879.72 375.45 884.94 C 375.77 884.52 376.43 883.69 376.76 883.27 C 376.55 884.41 376.17 885.45 374.80 885.33 C 374.87 887.17 374.94 889.06 375.60 890.83 C 378.63 888.72 381.16 885.54 385.03 884.98 C 385.24 885.46 385.67 886.41 385.88 886.89 C 382.96 890.04 379.09 892.06 375.67 894.60 C 375.66 900.41 374.60 906.38 375.61 912.09 L 375.71 911.22 C 386.76 910.17 397.64 903.62 402.52 893.46 C 404.79 888.93 405.17 882.48 400.99 878.93 C 396.83 875.37 390.95 875.50 385.90 876.61 C 393.19 871.38 399.50 863.98 401.24 854.97 C 402.10 851.55 400.65 847.22 397.04 846.11 C 393.35 844.74 389.70 846.64 386.52 848.35 C 391.26 840.28 396.26 831.65 396.24 822.01 C 396.24 818.19 395.86 813.75 392.73 811.13 C 389.70 808.67 385.09 809.89 382.65 812.62 C 375.54 819.86 373.09 830.02 369.60 839.24 C 367.93 834.67 365.76 830.16 362.33 826.65 C 360.32 824.55 356.90 823.85 354.33 825.31 C 352.25 826.78 351.96 829.61 351.75 831.96 C 351.89 838.25 354.08 844.34 356.99 849.86 C 359.86 855.26 365.75 858.85 366.97 865.11 C 363.21 863.26 359.23 861.59 354.96 861.65 C 351.19 861.62 346.46 861.50 344.06 864.97 C 342.61 866.64 342.59 868.95 342.55 871.06 C 345.16 881.52 354.59 888.82 364.31 892.44 C 361.45 893.84 358.05 894.37 355.76 896.75 C 353.32 899.19 352.05 903.56 354.72 906.32 C 358.79 911.41 365.78 911.82 371.78 912.09 C 371.41 928.41 371.70 944.74 371.50 961.06 C 371.24 963.90 374.19 966.42 376.89 964.98 C 378.94 962.07 379.52 958.32 382.01 955.67 C 382.66 958.88 380.43 961.72 380.47 964.89 C 380.22 966.87 383.96 966.90 384.12 964.99 C 387.24 958.52 392.96 953.55 399.28 950.32 C 401.16 949.15 404.75 949.17 404.74 952.09 C 404.02 957.24 400.73 961.53 398.20 965.93 C 397.60 967.17 396.37 968.51 397.03 970.00 C 398.01 970.88 399.37 970.94 400.61 971.24 C 425.80 970.56 451.04 971.25 476.26 970.81 C 484.06 970.70 491.93 971.21 499.69 970.64 C 503.50 967.10 497.48 960.51 501.90 957.09 C 504.70 955.86 505.44 959.94 505.76 961.96 C 506.14 964.12 506.30 968.80 509.70 967.70 C 512.34 964.40 513.15 959.93 516.02 956.74 C 516.40 956.90 517.15 957.21 517.53 957.37 C 518.57 961.74 514.48 965.64 515.75 970.05 C 521.00 971.54 526.54 970.60 531.92 970.74 C 566.63 970.96 601.32 970.80 636.02 970.80 C 645.69 971.09 655.38 970.32 665.04 971.12 C 666.49 971.48 667.07 969.80 668.01 969.07 C 666.26 965.61 662.52 963.45 661.55 959.57 C 661.49 957.91 663.38 956.38 665.00 957.05 C 667.35 959.61 668.45 963.01 670.21 965.97 C 670.67 967.77 674.24 967.15 673.05 965.05 C 671.38 960.11 669.05 955.27 668.83 949.98 C 668.84 948.65 670.53 947.08 671.77 948.18 C 674.45 954.28 675.86 960.98 679.35 966.72 C 680.39 968.54 683.32 967.35 683.47 965.50 C 684.37 961.72 683.99 957.79 684.57 953.97 C 685.10 951.14 684.45 947.81 686.50 945.48 C 687.40 944.36 689.56 945.51 688.96 946.92 C 688.46 951.96 688.24 957.02 688.15 962.09 C 688.14 963.34 688.57 965.24 690.16 965.32 C 691.84 966.33 692.67 964.22 693.21 963.08 C 695.60 958.26 697.41 952.93 701.21 949.00 C 702.30 946.96 705.36 949.08 704.56 950.78 C 702.39 956.29 698.81 961.23 697.40 967.05 C 697.77 970.67 702.25 970.84 705.04 970.67 C 745.96 970.98 786.89 970.02 827.79 970.81 C 828.02 968.74 827.40 966.92 825.33 966.17 C 827.00 963.57 826.48 960.00 828.50 957.69 C 829.14 959.69 829.69 961.74 830.40 963.74 C 831.24 964.95 834.33 965.06 833.93 963.02 C 833.66 959.69 833.83 955.84 837.30 954.18 C 839.17 957.51 836.98 961.77 839.15 964.84 C 839.61 964.87 840.55 964.95 841.02 964.99 C 842.19 961.91 841.79 958.02 845.10 956.13 C 847.81 955.83 845.35 959.52 846.23 960.63 C 847.36 960.46 848.51 960.32 849.67 960.20 C 848.95 957.69 849.23 954.69 847.56 952.56 C 844.96 951.16 842.69 953.76 841.21 955.56 C 840.58 954.13 840.77 951.85 839.05 951.19 C 835.45 949.97 832.37 953.52 831.45 956.64 C 830.88 955.68 830.30 954.72 829.76 953.79 C 828.39 953.95 826.52 953.26 825.56 954.53 C 823.57 957.75 823.33 961.66 822.87 965.32 C 818.31 964.55 815.13 960.63 810.58 959.77 C 810.27 963.41 813.66 965.16 815.86 967.35 C 814.04 967.15 812.21 967.08 810.49 966.49 C 807.73 960.85 808.86 954.25 808.21 948.19 C 813.17 949.43 819.04 947.01 820.60 941.92 C 821.19 938.80 817.74 937.50 815.29 937.11 C 819.62 933.11 816.11 925.43 810.82 924.44 C 808.32 924.06 806.46 925.96 804.87 927.58 C 804.69 928.18 804.32 929.38 804.13 929.98 C 802.20 928.86 799.60 929.46 798.42 931.36 C 796.82 933.90 797.36 937.04 798.37 939.69 C 797.16 940.58 794.64 940.96 794.89 942.95 C 795.25 946.10 799.08 947.04 801.54 947.99 C 801.86 946.71 801.51 945.46 801.17 944.25 C 802.52 945.08 802.78 946.59 803.03 948.06 C 806.25 947.20 804.12 944.08 804.36 941.99 C 804.16 938.61 804.78 935.18 805.85 931.99 L 805.92 932.78 C 806.58 933.94 807.37 935.05 808.69 935.56 C 808.20 935.47 807.20 935.30 806.70 935.21 C 807.23 937.46 807.68 939.71 808.23 941.98 C 810.32 940.21 811.55 936.67 814.84 937.07 C 813.29 940.51 810.47 943.06 808.26 946.02 C 807.81 947.78 805.20 948.05 805.31 949.99 C 805.03 955.69 805.49 961.47 806.75 967.05 C 784.92 967.16 763.08 966.99 741.24 967.16 C 741.07 874.46 741.31 781.76 741.28 689.06 C 741.32 687.12 740.85 684.90 739.07 683.83 C 728.46 684.28 717.87 685.18 707.27 685.88 C 707.13 673.60 707.58 661.28 707.13 649.02 C 705.73 649.17 703.46 648.79 703.77 650.97 C 703.89 662.70 703.75 674.43 703.83 686.17 C 696.45 686.44 689.07 686.95 681.75 687.90 C 681.24 705.26 682.06 722.65 681.85 740.03 C 681.98 762.02 682.06 784.01 682.34 806.00 C 673.54 806.47 664.71 806.45 655.91 806.98 C 654.14 807.49 654.84 809.55 654.68 810.92 C 654.90 844.83 655.05 878.74 655.00 912.65 C 652.31 912.01 649.52 911.62 646.88 912.64 C 649.39 904.98 653.72 897.26 652.26 888.93 C 651.84 885.78 649.27 882.92 645.98 882.89 C 640.86 882.92 636.70 887.16 635.47 891.91 C 634.31 886.93 632.27 880.80 627.01 878.91 C 622.32 877.38 618.89 882.03 617.76 885.96 C 616.22 891.72 617.77 897.91 620.27 903.18 C 620.81 904.20 621.37 905.24 621.94 906.28 C 618.99 904.63 615.51 901.64 612.07 903.89 C 612.27 903.62 612.68 903.09 612.88 902.83 C 613.28 848.55 613.12 794.26 613.14 739.97 C 613.30 633.93 613.02 527.88 613.29 421.84 C 611.66 420.88 609.96 419.90 608.01 419.94 C 603.10 419.66 598.21 419.06 593.30 418.76 C 592.96 397.75 592.97 376.83 592.27 355.86 C 585.82 350.51 577.51 348.08 570.33 343.87 C 570.32 327.77 570.13 311.68 570.26 295.58 C 569.31 295.58 567.41 295.59 566.45 295.59 C 566.31 311.24 566.71 326.88 567.09 342.52 C 561.06 339.71 555.26 336.45 549.27 333.54 C 547.03 332.39 544.49 331.92 541.99 332.25 C 536.81 332.88 531.59 333.28 526.47 334.34 C 526.12 324.70 525.92 315.04 526.16 305.41 C 528.00 306.43 529.96 307.20 532.11 307.15 C 532.01 291.81 531.37 276.45 530.65 261.12 C 537.46 261.87 544.68 262.61 550.41 266.74 C 555.71 270.33 561.44 273.39 566.42 277.41 C 566.38 283.42 566.09 289.43 566.47 295.43 C 567.40 295.43 569.25 295.43 570.18 295.43 C 570.20 288.90 570.37 282.38 570.21 275.85 C 564.38 270.81 557.68 266.90 551.22 262.72 C 546.77 259.64 541.22 259.61 536.18 258.17 C 536.81 249.47 536.22 240.72 536.41 232.00 C 536.54 200.37 536.39 168.74 536.41 137.12 C 536.75 131.20 525.07 130.98 525.55 137.08 M 231.57 141.36 C 226.20 142.64 220.63 146.28 219.64 152.09 C 218.25 158.77 222.55 164.90 226.66 169.71 C 222.37 167.79 217.97 165.31 213.11 165.69 C 206.73 166.07 200.48 171.32 200.62 178.04 C 200.57 184.67 206.29 189.04 210.57 193.29 C 205.41 193.19 200.17 192.62 195.08 193.77 C 188.78 195.16 182.32 196.07 176.19 198.10 C 173.06 199.94 175.93 203.46 176.90 205.76 C 171.20 205.57 165.49 205.38 159.81 205.87 C 159.77 206.71 159.69 208.40 159.65 209.25 C 175.26 209.51 190.90 209.38 206.50 209.18 C 206.49 208.34 206.47 206.65 206.46 205.80 C 198.46 205.07 190.43 206.02 182.43 205.52 C 180.14 205.54 178.96 203.38 178.94 201.34 C 183.56 199.91 188.34 199.14 193.04 198.02 C 200.60 196.35 208.38 196.87 216.04 197.23 C 217.92 197.25 218.68 194.04 216.88 193.21 C 212.07 189.20 206.11 185.52 204.26 179.16 C 203.62 174.21 208.36 169.93 213.04 169.50 C 218.84 169.12 223.71 172.85 229.13 174.21 C 231.11 175.16 233.48 172.61 232.29 170.78 C 229.80 166.67 225.83 163.53 224.10 158.95 C 222.60 155.83 222.55 151.70 225.12 149.12 C 229.18 144.83 235.46 144.17 241.03 143.90 C 254.59 143.84 267.58 149.73 278.06 158.05 C 285.13 163.47 288.62 172.16 290.58 180.59 C 291.39 183.26 291.71 186.21 293.32 188.56 C 295.03 190.56 298.22 188.28 297.62 185.96 C 296.84 178.84 295.40 171.40 297.47 164.37 C 298.22 161.50 301.68 160.85 304.15 161.77 C 309.22 163.46 313.29 167.14 317.49 170.33 C 322.00 174.19 326.78 177.92 330.25 182.80 C 333.32 187.19 334.29 192.73 334.03 198.00 C 334.01 199.74 333.60 202.49 335.98 202.81 C 349.99 202.68 364.01 202.65 378.03 202.74 C 380.29 203.00 380.39 199.16 378.07 199.24 C 364.69 199.34 351.31 199.12 337.93 199.30 C 338.48 190.91 335.96 182.10 329.77 176.19 C 323.46 170.07 316.78 164.14 309.09 159.80 C 305.25 157.75 299.91 155.77 296.27 159.25 C 292.56 162.50 292.92 167.72 292.71 172.18 C 290.77 169.59 289.93 166.40 288.24 163.67 C 283.63 156.30 276.17 151.36 268.64 147.35 C 257.42 141.42 244.11 138.24 231.57 141.36 M 635.42 161.45 C 632.08 163.88 630.78 168.06 630.20 171.97 C 627.37 170.38 624.62 167.09 621.03 168.40 C 617.97 169.26 616.59 172.44 615.65 175.18 C 613.17 174.23 610.66 173.23 607.99 173.08 C 602.43 173.63 598.15 178.52 597.45 183.93 C 596.50 187.09 598.22 190.03 599.34 192.86 C 594.51 193.30 589.37 192.06 584.77 193.73 C 581.72 194.68 583.28 198.89 586.00 198.87 C 591.64 198.63 597.30 198.52 602.95 198.50 C 604.86 198.74 607.06 197.17 606.79 195.11 C 605.29 191.78 602.60 188.83 602.64 184.97 C 603.25 181.98 605.58 178.75 608.85 178.56 C 611.73 179.10 613.89 181.20 616.30 182.72 C 617.48 183.70 619.63 184.04 620.44 182.39 C 621.93 179.88 619.40 175.12 623.13 174.08 C 627.36 175.22 628.56 180.82 633.02 181.57 C 635.19 181.26 635.69 178.85 635.64 177.03 C 635.62 173.34 635.89 169.33 638.44 166.40 C 641.07 163.76 645.42 164.88 648.12 166.84 C 653.73 171.22 657.23 177.76 659.52 184.38 C 660.56 187.05 660.08 190.12 661.40 192.68 C 663.27 194.25 665.79 193.67 668.03 193.64 C 674.38 193.68 680.72 193.66 687.07 193.91 C 688.87 193.83 691.30 194.44 692.40 192.53 C 693.86 190.74 691.91 188.19 689.88 188.21 C 682.06 187.51 674.19 187.84 666.35 187.72 C 664.34 177.63 659.27 167.34 650.38 161.66 C 646.04 158.61 639.75 158.18 635.42 161.45 M 274.30 657.23 C 274.09 658.45 273.97 659.69 273.93 660.95 C 274.29 673.78 274.00 686.62 274.09 699.46 C 266.03 698.66 258.01 697.50 249.94 696.83 C 244.55 696.68 239.28 698.09 233.91 698.28 C 230.67 698.27 227.80 699.93 224.85 701.04 C 225.02 727.12 225.53 753.21 226.14 779.29 C 220.38 778.48 214.67 777.29 208.94 776.36 C 199.64 776.38 190.34 776.48 181.04 776.50 C 179.66 776.69 177.25 776.05 176.88 777.97 C 176.44 783.33 177.38 788.68 177.25 794.05 C 179.27 838.01 178.05 882.05 178.38 926.05 C 178.14 939.75 178.88 953.50 178.02 967.16 C 170.02 967.45 161.99 967.11 153.98 967.26 C 152.75 968.18 153.56 969.73 153.51 970.99 C 157.48 971.21 161.47 971.22 165.43 970.83 C 172.62 971.45 179.84 970.98 187.05 971.11 C 205.71 970.87 224.38 971.12 243.04 971.01 C 245.89 970.62 250.66 972.63 252.03 969.12 C 250.06 964.49 246.13 960.27 246.71 954.92 C 247.48 954.96 249.02 955.03 249.79 955.07 C 252.89 958.59 254.35 963.20 257.04 967.01 C 257.73 966.95 259.12 966.84 259.81 966.79 C 260.21 959.76 254.26 952.95 257.16 946.05 C 258.44 946.09 260.38 945.21 260.89 946.98 C 263.38 953.10 264.04 959.81 266.24 966.03 C 266.86 968.25 270.20 968.02 270.95 966.02 C 273.91 960.94 273.04 954.67 275.53 949.41 C 276.29 947.70 279.36 948.10 279.44 950.10 C 280.26 954.17 278.13 958.09 277.89 962.12 C 277.55 963.88 280.61 965.32 281.22 963.27 C 282.95 960.69 283.85 957.14 286.97 955.85 C 286.48 959.53 283.64 962.36 283.06 966.03 C 283.68 969.60 287.81 971.19 291.05 971.09 C 296.35 970.99 301.64 970.95 306.94 971.10 C 323.30 971.28 339.65 970.60 355.99 971.52 C 359.87 970.84 356.39 966.47 355.76 964.31 L 355.65 964.31 C 355.68 962.14 354.68 958.00 357.59 957.36 C 360.56 959.71 360.08 965.26 364.01 966.48 C 365.66 967.44 366.87 965.31 365.99 963.93 C 364.79 960.50 362.98 957.18 360.36 954.65 C 359.02 953.48 356.61 952.55 355.27 954.23 C 352.54 956.78 352.42 960.75 352.36 964.23 C 352.37 965.57 352.66 967.19 350.73 967.41 C 349.65 961.07 350.99 954.62 350.09 948.27 C 346.51 947.79 343.69 945.34 340.91 943.24 C 339.72 942.39 339.35 941.24 339.81 939.78 C 342.19 941.01 344.57 942.28 347.11 943.18 C 346.97 938.29 346.86 933.38 346.62 928.50 C 344.68 927.92 342.47 927.64 341.77 925.40 C 343.45 925.31 345.16 925.20 346.84 924.95 C 346.79 924.15 346.69 922.57 346.64 921.78 C 348.57 921.49 350.46 920.96 352.32 920.36 C 351.65 921.36 350.97 922.36 350.32 923.39 C 350.91 924.56 351.51 925.75 352.11 926.94 C 351.61 927.13 350.61 927.50 350.10 927.68 C 350.16 933.18 350.07 938.69 350.12 944.20 C 351.25 945.01 352.33 946.30 353.92 945.99 C 359.96 945.86 366.41 941.29 366.90 934.96 C 366.64 931.21 363.18 929.09 359.97 928.02 C 362.13 926.72 364.95 924.93 364.10 921.94 C 364.12 917.50 358.48 913.34 354.65 916.45 C 353.86 911.72 349.00 907.94 344.21 909.32 C 339.82 909.73 337.84 914.18 337.04 917.95 C 334.15 919.92 332.30 923.49 333.07 927.00 C 334.07 930.12 337.54 931.06 339.43 933.45 C 334.38 934.50 329.89 939.66 332.18 944.94 C 335.09 950.30 342.16 949.16 347.15 948.18 C 346.99 954.49 346.83 960.81 346.94 967.13 C 332.81 967.38 318.66 966.97 304.52 967.30 C 304.61 880.21 305.47 793.12 305.40 706.03 C 306.12 702.76 302.37 702.81 300.19 702.44 C 292.63 701.84 285.15 700.67 277.60 699.99 C 277.29 686.33 277.59 672.67 277.45 659.01 C 277.79 656.97 275.59 657.24 274.30 657.23 M 843.84 823.59 C 837.36 824.21 835.32 831.67 834.72 837.08 C 834.10 847.44 835.25 858.05 838.69 867.88 C 835.18 866.42 831.02 867.87 829.32 871.27 C 824.35 879.92 824.87 890.43 825.28 900.05 C 826.50 909.39 828.47 919.61 835.70 926.30 C 839.56 930.30 845.49 931.03 850.76 930.61 C 852.40 936.28 850.96 942.27 851.40 948.08 C 851.87 953.05 850.24 957.83 849.22 962.63 L 849.05 962.60 L 849.07 961.37 C 848.27 961.42 846.68 961.50 845.88 961.55 C 845.92 963.55 845.38 966.48 847.81 967.38 C 850.69 968.28 853.83 968.00 856.83 968.25 C 858.03 963.25 856.38 956.75 861.12 953.32 C 864.42 955.46 862.31 959.82 862.93 963.02 C 862.74 964.84 864.81 967.02 866.55 965.54 C 869.50 960.03 872.66 954.41 877.41 950.22 C 878.32 949.28 879.65 949.20 880.86 948.93 C 881.81 955.28 878.40 961.05 876.88 967.00 C 876.18 969.92 880.00 970.44 882.06 970.52 C 895.39 970.31 908.73 970.58 922.06 970.39 C 924.31 970.62 924.15 966.73 921.98 967.15 C 908.15 967.14 894.31 966.75 880.47 967.07 C 881.85 961.44 884.67 956.02 884.47 950.10 C 884.43 946.57 880.17 944.26 877.22 946.26 C 872.31 949.21 869.33 954.37 865.92 958.83 C 865.47 955.89 865.81 952.42 863.93 949.98 C 861.13 947.64 858.54 950.93 856.66 952.74 C 857.34 945.51 856.52 938.26 857.12 931.03 C 864.15 930.92 870.78 927.52 876.58 923.67 C 886.08 916.51 891.66 904.83 892.24 893.05 C 892.30 886.90 891.80 880.19 887.83 875.18 C 885.19 871.26 879.53 870.05 875.57 872.68 C 880.17 862.13 882.23 849.89 878.34 838.81 C 876.33 833.38 872.29 827.85 866.11 827.16 C 861.00 826.56 857.44 831.10 855.28 835.10 C 854.33 831.48 853.24 827.27 849.79 825.24 C 847.98 824.21 846.00 822.71 843.84 823.59 M 105.46 868.92 C 104.74 872.02 103.21 875.49 104.27 878.66 C 103.75 880.68 103.80 882.78 103.87 884.86 C 103.89 887.00 103.94 889.14 104.01 891.29 L 104.68 891.27 C 104.59 891.66 104.41 892.45 104.32 892.85 C 102.92 888.57 98.94 884.47 94.06 885.97 C 90.34 889.31 91.19 894.94 92.57 899.20 C 95.00 905.73 98.56 911.93 103.47 916.93 L 101.98 917.08 L 102.10 915.58 L 100.80 916.34 L 100.72 915.46 C 97.90 913.03 94.71 910.81 91.05 909.89 C 89.06 909.33 87.26 910.77 86.49 912.52 C 84.38 916.72 87.07 921.29 88.97 925.06 C 95.20 933.20 104.43 939.69 114.89 940.47 C 115.63 944.17 114.38 948.02 114.94 951.65 C 114.78 956.84 114.72 962.03 114.77 967.23 C 111.49 967.80 108.17 967.14 104.87 967.31 C 105.12 964.94 106.11 961.77 103.86 960.07 C 101.62 959.15 99.25 959.81 97.24 960.95 C 97.55 958.26 97.09 954.74 94.01 953.95 C 89.18 953.37 85.91 958.15 84.01 961.95 C 82.84 964.49 81.28 969.61 85.48 969.80 C 86.67 965.12 88.06 957.84 94.12 957.69 C 94.28 960.33 93.58 963.13 94.40 965.70 C 97.23 969.12 99.28 963.31 102.14 962.86 C 101.84 965.61 99.53 968.32 101.01 971.08 C 118.22 971.14 135.44 971.13 152.64 971.02 C 152.48 969.69 152.36 968.36 152.28 967.04 C 141.51 967.40 130.71 967.28 119.93 967.14 C 119.94 965.37 120.04 963.61 120.23 961.88 C 119.60 961.75 118.97 961.64 118.34 961.54 C 121.31 960.41 119.30 956.43 119.78 954.04 C 119.90 949.52 119.64 945.00 119.52 940.48 C 124.81 942.84 129.39 938.21 132.92 934.86 C 139.67 928.53 142.62 918.96 142.04 909.87 C 141.36 906.35 140.61 901.47 136.41 900.63 C 133.19 899.83 130.62 902.48 128.12 904.06 C 134.94 895.13 137.54 882.40 132.83 871.94 C 131.69 868.98 127.49 867.08 124.94 869.02 C 120.87 872.29 120.16 877.71 118.45 882.32 C 117.91 878.15 118.20 873.78 116.34 869.90 C 115.48 867.38 113.00 866.08 110.98 864.62 C 108.86 865.59 105.96 866.24 105.46 868.92 Z" />
<path fill="rgba(0,0,0,0)" opacity="1.00" d=" M 432.77 416.13 C 448.32 413.59 463.88 411.04 479.41 408.36 C 479.77 479.24 479.34 550.11 479.51 620.99 C 479.51 720.00 479.55 819.01 479.53 918.02 C 479.53 934.40 479.80 950.79 479.28 967.16 C 473.73 966.99 468.17 967.18 462.62 967.15 C 462.10 889.10 462.21 811.05 462.33 733.00 C 462.09 681.33 462.65 629.66 462.25 577.99 C 462.26 548.31 462.47 518.63 462.21 488.96 C 461.36 484.04 462.59 479.11 461.99 474.19 C 461.62 469.48 462.51 464.74 461.79 460.04 C 461.86 458.49 459.92 458.33 458.99 457.65 C 458.65 459.40 458.37 461.16 458.34 462.94 C 458.63 540.31 458.48 617.67 458.64 695.04 C 458.81 785.75 458.66 876.46 458.75 967.17 C 457.19 967.13 455.64 967.11 454.10 967.09 C 453.83 819.06 454.04 671.02 454.01 522.99 C 454.03 497.99 454.13 473.00 453.94 448.00 C 453.85 446.01 454.38 441.83 451.06 443.14 C 450.56 444.70 450.54 446.34 450.49 447.97 C 449.96 475.61 450.35 503.26 450.13 530.91 C 450.00 532.22 450.37 533.47 451.13 534.55 C 450.47 535.60 450.02 536.77 450.19 538.05 C 450.32 618.46 450.09 698.88 450.06 779.28 C 450.54 779.33 451.51 779.43 451.99 779.48 C 451.48 779.51 450.46 779.56 449.95 779.58 C 450.27 828.71 450.04 877.85 450.18 926.99 C 449.91 940.35 450.67 953.75 449.84 967.09 C 444.13 967.05 438.42 967.08 432.71 967.13 C 432.41 893.09 432.67 819.05 432.55 745.01 C 432.63 635.38 432.47 525.75 432.77 416.13 Z" />
</g>
<g id="Group-000000" fill="#272525">
<path fill="#272525" opacity="1.00" d=" M 525.55 137.08 C 525.07 130.98 536.75 131.20 536.41 137.12 C 536.39 168.74 536.54 200.37 536.41 232.00 C 536.22 240.72 536.81 249.47 536.18 258.17 C 541.22 259.61 546.77 259.64 551.22 262.72 C 557.68 266.90 564.38 270.81 570.21 275.85 C 570.37 282.38 570.20 288.90 570.18 295.43 C 569.25 295.43 567.40 295.43 566.47 295.43 C 566.09 289.43 566.38 283.42 566.42 277.41 C 561.44 273.39 555.71 270.33 550.41 266.74 C 544.68 262.61 537.46 261.87 530.65 261.12 C 531.37 276.45 532.01 291.81 532.11 307.15 C 529.96 307.20 528.00 306.43 526.16 305.41 C 525.92 315.04 526.12 324.70 526.47 334.34 C 531.59 333.28 536.81 332.88 541.99 332.25 C 544.49 331.92 547.03 332.39 549.27 333.54 C 555.26 336.45 561.06 339.71 567.09 342.52 C 566.71 326.88 566.31 311.24 566.45 295.59 C 567.41 295.59 569.31 295.58 570.26 295.58 C 570.13 311.68 570.32 327.77 570.33 343.87 C 577.51 348.08 585.82 350.51 592.27 355.86 C 592.97 376.83 592.96 397.75 593.30 418.76 C 598.21 419.06 603.10 419.66 608.01 419.94 C 609.96 419.90 611.66 420.88 613.29 421.84 C 613.02 527.88 613.30 633.93 613.14 739.97 C 613.12 794.26 613.28 848.55 612.88 902.83 C 612.68 903.09 612.27 903.62 612.07 903.89 C 609.66 906.39 609.39 909.92 609.66 913.22 C 610.32 913.15 611.64 913.01 612.31 912.94 C 611.17 913.27 610.56 913.89 610.46 914.80 C 610.81 914.90 611.50 915.08 611.84 915.17 C 609.54 915.66 609.77 917.42 611.20 918.88 C 611.90 920.03 612.58 921.23 613.24 922.44 C 613.19 923.56 613.14 924.69 613.19 925.84 C 614.58 925.93 615.48 924.57 616.59 923.93 C 616.56 924.35 616.49 925.20 616.46 925.63 C 616.74 926.05 617.30 926.90 617.58 927.32 L 617.29 927.42 C 616.93 927.50 616.21 927.66 615.85 927.74 C 617.19 929.92 618.33 932.22 619.10 934.67 C 618.35 934.79 616.84 935.02 616.08 935.14 C 614.95 933.59 613.93 931.96 612.91 930.35 C 612.68 942.62 612.97 954.89 612.87 967.17 C 619.82 966.96 626.76 967.03 633.71 967.13 C 633.75 960.56 633.83 953.97 633.39 947.43 C 634.19 948.22 635.00 948.97 635.85 949.75 C 636.50 946.72 636.73 943.63 636.89 940.55 C 636.92 939.99 637.00 938.87 637.04 938.30 C 637.86 937.75 638.69 937.21 639.53 936.68 C 640.63 934.98 641.87 933.38 643.13 931.80 C 643.60 932.29 644.56 933.27 645.03 933.76 C 644.70 933.28 644.03 932.34 643.69 931.87 C 644.77 930.61 645.88 929.39 646.99 928.17 C 646.38 927.30 645.78 926.44 645.19 925.59 C 642.41 928.14 639.47 930.52 636.40 932.71 C 636.04 925.48 636.59 918.27 637.41 911.10 C 637.84 907.19 638.77 903.15 637.50 899.30 L 636.08 900.02 C 631.39 900.24 631.15 893.68 627.20 892.38 C 625.90 892.14 625.10 893.54 624.10 894.12 C 623.17 894.52 622.26 894.96 621.38 895.44 C 620.92 896.43 621.86 897.46 622.04 898.47 C 622.46 898.50 623.31 898.58 623.74 898.61 C 624.06 899.20 624.39 899.79 624.73 900.40 C 622.58 900.17 620.83 900.91 620.27 903.18 C 617.77 897.91 616.22 891.72 617.76 885.96 C 618.89 882.03 622.32 877.38 627.01 878.91 C 632.27 880.80 634.31 886.93 635.47 891.91 C 636.70 887.16 640.86 882.92 645.98 882.89 C 649.27 882.92 651.84 885.78 652.26 888.93 C 653.72 897.26 649.39 904.98 646.88 912.64 C 649.52 911.62 652.31 912.01 655.00 912.65 C 655.05 878.74 654.90 844.83 654.68 810.92 C 654.84 809.55 654.14 807.49 655.91 806.98 C 664.71 806.45 673.54 806.47 682.34 806.00 C 682.06 784.01 681.98 762.02 681.85 740.03 C 682.06 722.65 681.24 705.26 681.75 687.90 C 689.07 686.95 696.45 686.44 703.83 686.17 C 703.75 674.43 703.89 662.70 703.77 650.97 C 703.46 648.79 705.73 649.17 707.13 649.02 C 707.58 661.28 707.13 673.60 707.27 685.88 C 717.87 685.18 728.46 684.28 739.07 683.83 C 740.85 684.90 741.32 687.12 741.28 689.06 C 741.31 781.76 741.07 874.46 741.24 967.16 C 763.08 966.99 784.92 967.16 806.75 967.05 C 805.49 961.47 805.03 955.69 805.31 949.99 C 805.20 948.05 807.81 947.78 808.26 946.02 C 810.47 943.06 813.29 940.51 814.84 937.07 L 815.29 937.11 C 817.74 937.50 821.19 938.80 820.60 941.92 C 819.04 947.01 813.17 949.43 808.21 948.19 C 808.86 954.25 807.73 960.85 810.49 966.49 C 812.21 967.08 814.04 967.15 815.86 967.35 C 813.66 965.16 810.27 963.41 810.58 959.77 C 815.13 960.63 818.31 964.55 822.87 965.32 C 823.33 961.66 823.57 957.75 825.56 954.53 C 826.52 953.26 828.39 953.95 829.76 953.79 C 830.30 954.72 830.88 955.68 831.45 956.64 C 832.37 953.52 835.45 949.97 839.05 951.19 C 840.77 951.85 840.58 954.13 841.21 955.56 C 842.69 953.76 844.96 951.16 847.56 952.56 C 849.23 954.69 848.95 957.69 849.67 960.20 C 848.51 960.32 847.36 960.46 846.23 960.63 C 845.35 959.52 847.81 955.83 845.10 956.13 C 841.79 958.02 842.19 961.91 841.02 964.99 C 840.55 964.95 839.61 964.87 839.15 964.84 C 836.98 961.77 839.17 957.51 837.30 954.18 C 833.83 955.84 833.66 959.69 833.93 963.02 C 834.33 965.06 831.24 964.95 830.40 963.74 C 829.69 961.74 829.14 959.69 828.50 957.69 C 826.48 960.00 827.00 963.57 825.33 966.17 C 827.40 966.92 828.02 968.74 827.79 970.81 C 786.89 970.02 745.96 970.98 705.04 970.67 C 702.25 970.84 697.77 970.67 697.40 967.05 C 698.81 961.23 702.39 956.29 704.56 950.78 C 705.36 949.08 702.30 946.96 701.21 949.00 C 697.41 952.93 695.60 958.26 693.21 963.08 C 692.67 964.22 691.84 966.33 690.16 965.32 C 688.57 965.24 688.14 963.34 688.15 962.09 C 688.24 957.02 688.46 951.96 688.96 946.92 C 689.56 945.51 687.40 944.36 686.50 945.48 C 684.45 947.81 685.10 951.14 684.57 953.97 C 683.99 957.79 684.37 961.72 683.47 965.50 C 683.32 967.35 680.39 968.54 679.35 966.72 C 675.86 960.98 674.45 954.28 671.77 948.18 C 670.53 947.08 668.84 948.65 668.83 949.98 C 669.05 955.27 671.38 960.11 673.05 965.05 C 674.24 967.15 670.67 967.77 670.21 965.97 C 668.45 963.01 667.35 959.61 665.00 957.05 C 663.38 956.38 661.49 957.91 661.55 959.57 C 662.52 963.45 666.26 965.61 668.01 969.07 C 667.07 969.80 666.49 971.48 665.04 971.12 C 655.38 970.32 645.69 971.09 636.02 970.80 C 601.32 970.80 566.63 970.96 531.92 970.74 C 526.54 970.60 521.00 971.54 515.75 970.05 C 514.48 965.64 518.57 961.74 517.53 957.37 C 517.15 957.21 516.40 956.90 516.02 956.74 C 513.15 959.93 512.34 964.40 509.70 967.70 C 506.30 968.80 506.14 964.12 505.76 961.96 C 505.44 959.94 504.70 955.86 501.90 957.09 C 497.48 960.51 503.50 967.10 499.69 970.64 C 491.93 971.21 484.06 970.70 476.26 970.81 C 473.17 967.23 468.05 967.51 464.04 969.24 C 461.99 970.29 460.35 968.10 458.75 967.17 C 458.66 876.46 458.81 785.75 458.64 695.04 C 458.48 617.67 458.63 540.31 458.34 462.94 C 458.37 461.16 458.65 459.40 458.99 457.65 C 459.92 458.33 461.86 458.49 461.79 460.04 C 462.51 464.74 461.62 469.48 461.99 474.19 C 462.59 479.11 461.36 484.04 462.21 488.96 C 462.47 518.63 462.26 548.31 462.25 577.99 C 462.65 629.66 462.09 681.33 462.33 733.00 C 462.21 811.05 462.10 889.10 462.62 967.15 C 468.17 967.18 473.73 966.99 479.28 967.16 C 479.80 950.79 479.53 934.40 479.53 918.02 C 479.55 819.01 479.51 720.00 479.51 620.99 C 479.34 550.11 479.77 479.24 479.41 408.36 C 463.88 411.04 448.32 413.59 432.77 416.13 C 432.47 525.75 432.63 635.38 432.55 745.01 C 432.67 819.05 432.41 893.09 432.71 967.13 C 432.73 967.77 432.76 969.06 432.78 969.71 C 431.40 968.66 430.00 967.59 428.32 967.11 C 428.62 883.43 428.32 799.74 428.42 716.05 C 428.37 642.01 428.53 568.01 428.39 493.98 C 428.57 467.28 428.17 440.57 428.60 413.88 C 436.03 411.89 443.68 410.90 451.28 409.80 C 451.07 382.84 451.18 355.92 451.18 328.97 C 450.96 323.60 451.76 318.25 451.03 312.89 C 462.47 310.37 474.01 308.15 485.52 305.92 C 485.20 303.66 484.77 301.39 484.85 299.09 C 485.05 287.73 484.55 276.35 485.04 265.00 C 498.53 262.61 512.14 261.00 525.68 258.87 C 525.54 218.27 525.54 177.68 525.55 137.08 M 488.63 268.00 C 488.31 280.33 489.04 292.69 488.35 305.01 C 499.34 303.79 510.07 300.80 520.98 299.05 C 524.11 298.20 526.18 301.22 528.73 302.43 C 527.69 289.17 527.57 275.86 527.10 262.57 C 514.22 263.97 501.48 266.37 488.63 268.00 M 461.08 313.96 C 458.98 314.32 456.93 314.94 454.92 315.63 C 455.27 321.41 455.12 327.20 455.17 332.99 C 455.10 358.31 455.27 383.63 455.09 408.95 C 459.88 408.27 464.62 407.19 469.46 406.81 C 469.45 380.20 469.40 353.60 469.59 327.00 C 469.38 324.80 470.20 322.67 472.00 321.36 C 474.65 323.47 473.76 327.07 473.82 330.01 C 473.61 355.41 473.23 380.80 473.07 406.20 C 475.34 405.90 477.62 405.55 479.86 405.01 C 479.89 378.66 479.47 352.30 479.73 325.95 C 480.00 323.77 479.23 320.35 482.02 319.55 C 485.36 320.18 483.63 324.64 483.93 327.01 C 483.95 353.13 483.53 379.25 483.68 405.36 C 488.50 405.84 493.34 406.25 498.15 406.91 C 499.42 406.45 500.71 406.05 502.02 405.68 L 502.09 407.35 C 503.91 407.55 505.74 407.70 507.59 407.83 C 507.13 397.91 507.12 387.98 506.95 378.05 C 506.75 359.03 505.92 339.99 506.29 320.97 C 506.47 319.61 508.15 316.40 509.58 318.29 C 510.75 323.41 510.08 328.73 510.30 333.94 C 510.65 358.67 510.37 383.41 511.06 408.12 C 521.94 409.30 532.84 410.38 543.67 411.94 C 543.91 386.63 544.76 361.34 544.82 336.03 C 537.51 336.45 530.30 338.64 522.94 337.83 C 521.47 326.09 522.90 314.16 521.85 302.39 C 501.51 305.79 481.34 310.12 461.08 313.96 M 573.27 481.35 C 571.78 482.88 572.11 485.13 571.85 487.08 C 571.56 490.69 570.75 494.28 570.77 497.92 C 570.54 500.05 573.32 499.76 573.43 498.00 C 574.01 493.33 574.37 488.65 575.12 484.01 C 575.44 482.75 574.97 480.56 573.27 481.35 M 481.87 519.78 C 480.97 522.50 484.28 522.41 485.95 522.68 C 527.80 526.46 569.62 530.31 611.48 533.89 C 611.35 533.21 611.09 531.84 610.96 531.16 C 607.38 530.15 603.61 530.18 599.93 529.89 C 566.30 526.86 532.67 523.72 499.01 520.86 C 493.32 520.38 487.57 519.30 481.87 519.78 M 504.30 562.17 C 503.39 566.28 504.03 570.91 504.98 575.04 C 508.53 575.59 506.85 571.06 507.11 569.00 C 506.53 566.52 508.12 562.49 505.18 561.31 L 504.30 562.17 M 482.60 604.93 C 482.57 605.70 482.51 607.25 482.48 608.02 C 487.87 607.91 493.18 608.85 498.54 609.13 C 535.68 612.38 572.85 615.47 610.02 618.32 C 612.34 618.67 611.42 615.37 609.60 615.69 C 567.26 612.24 524.91 608.80 482.60 604.93 M 570.18 659.89 C 569.80 663.13 568.85 666.36 569.32 669.66 C 570.12 669.42 570.94 669.18 571.76 668.94 C 572.25 664.95 573.14 661.03 573.58 657.04 C 573.20 656.56 572.42 655.59 572.04 655.11 C 570.83 656.43 570.35 658.14 570.18 659.89 M 482.86 693.54 C 482.83 694.13 482.79 695.31 482.76 695.89 C 524.85 699.25 566.97 702.26 609.07 705.50 C 610.89 706.50 612.44 702.83 610.14 702.83 C 600.19 701.46 590.09 701.58 580.12 700.39 C 549.40 698.35 518.71 695.63 487.98 693.57 C 486.27 693.53 484.51 692.95 482.86 693.54 M 508.71 727.98 C 508.61 731.63 508.92 735.29 509.19 738.93 C 509.63 739.15 510.50 739.57 510.94 739.78 C 511.62 738.59 511.90 737.28 511.70 735.94 C 511.37 732.53 512.21 728.98 510.78 725.77 C 509.50 726.00 508.82 726.74 508.71 727.98 M 584.76 747.96 C 583.79 753.59 584.90 759.41 584.93 765.11 C 585.43 764.99 586.43 764.75 586.93 764.64 C 587.98 759.25 587.19 753.45 586.84 747.96 C 586.32 747.96 585.28 747.96 584.76 747.96 M 716.03 756.06 C 716.35 758.37 715.23 761.33 717.19 763.11 C 719.12 762.70 718.56 760.46 718.74 759.05 C 718.52 755.25 719.51 751.25 717.95 747.66 C 714.76 749.29 716.26 753.22 716.03 756.06 M 482.78 788.79 C 482.77 789.58 482.74 791.15 482.73 791.94 C 495.01 792.94 507.32 793.50 519.62 794.16 C 550.16 796.00 580.69 797.84 611.25 799.30 C 611.23 798.53 611.18 796.98 611.16 796.20 C 604.46 795.42 597.71 795.31 590.99 794.85 C 554.91 792.93 518.86 790.67 482.78 788.79 M 586.39 838.30 C 584.40 841.44 582.84 844.86 581.39 848.29 C 581.56 848.72 581.91 849.59 582.09 850.02 C 585.38 849.26 585.71 844.96 587.56 842.58 C 588.59 841.11 590.56 836.79 587.03 837.61 L 586.39 838.30 M 714.36 840.92 C 714.11 843.65 714.15 846.40 714.12 849.15 C 714.80 849.14 716.18 849.12 716.87 849.11 C 716.99 846.04 716.79 842.91 717.75 839.95 C 717.46 839.49 716.88 838.57 716.59 838.11 C 714.94 837.85 714.59 839.70 714.36 840.92 M 682.43 840.26 C 680.28 842.04 681.70 845.37 681.27 847.83 C 681.39 850.11 684.73 849.03 683.90 847.03 C 683.78 844.93 685.48 840.94 682.43 840.26 M 724.22 869.08 C 723.17 871.59 723.87 874.36 723.76 877.00 C 723.95 879.60 723.36 882.33 724.19 884.87 C 727.08 885.38 726.23 881.75 726.38 880.01 C 726.10 876.32 727.00 872.57 726.11 868.95 C 725.64 868.99 724.69 869.05 724.22 869.08 M 482.45 881.29 C 482.52 881.93 482.66 883.22 482.73 883.86 C 491.45 884.90 500.28 884.64 509.04 885.13 C 543.06 886.15 577.06 887.94 611.09 888.60 C 611.00 887.97 610.81 886.71 610.72 886.08 C 605.92 885.10 600.93 885.65 596.06 885.38 C 558.19 884.10 520.32 882.38 482.45 881.29 M 639.28 894.02 C 639.60 895.58 640.03 897.13 640.74 898.59 C 641.37 897.26 641.99 895.93 642.61 894.61 C 641.49 894.40 640.38 894.20 639.28 894.02 M 703.19 908.96 C 702.95 912.97 702.81 917.01 703.11 921.03 C 702.54 923.28 706.16 922.85 705.70 921.01 C 705.66 917.04 705.87 913.08 705.71 909.12 L 704.95 908.35 C 704.51 908.50 703.63 908.81 703.19 908.96 M 537.18 916.09 C 535.95 920.16 537.23 924.68 537.08 928.93 L 538.11 929.55 C 541.67 928.30 538.91 923.70 539.49 920.99 C 539.77 919.25 540.13 915.08 537.18 916.09 M 651.18 920.21 C 651.40 920.56 651.84 921.24 652.05 921.59 C 651.44 921.89 650.22 922.49 649.60 922.79 C 650.58 923.11 651.57 923.45 652.56 923.79 C 652.94 923.23 653.68 922.10 654.05 921.53 C 653.99 920.97 653.87 919.86 653.80 919.30 C 652.92 919.59 652.05 919.90 651.18 920.21 M 639.40 941.56 C 639.75 940.40 640.44 938.07 640.79 936.91 C 637.62 938.14 637.91 942.19 637.15 945.02 C 638.70 952.21 638.50 959.59 638.69 966.91 C 644.28 967.06 649.87 967.15 655.46 967.19 C 655.26 956.32 655.44 945.44 655.00 934.58 C 650.63 938.43 645.25 941.05 639.40 941.56 Z" />
<path fill="#272525" opacity="1.00" d=" M 274.30 657.23 C 275.59 657.24 277.79 656.97 277.45 659.01 C 277.59 672.67 277.29 686.33 277.60 699.99 C 285.15 700.67 292.63 701.84 300.19 702.44 C 302.37 702.81 306.12 702.76 305.40 706.03 C 305.47 793.12 304.61 880.21 304.52 967.30 L 304.53 967.44 C 305.14 967.78 305.76 968.12 306.39 968.48 C 306.58 969.35 306.75 970.20 306.94 971.10 C 301.64 970.95 296.35 970.99 291.05 971.09 C 287.81 971.19 283.68 969.60 283.06 966.03 C 283.64 962.36 286.48 959.53 286.97 955.85 C 283.85 957.14 282.95 960.69 281.22 963.27 C 280.61 965.32 277.55 963.88 277.89 962.12 C 278.13 958.09 280.26 954.17 279.44 950.10 C 279.36 948.10 276.29 947.70 275.53 949.41 C 273.04 954.67 273.91 960.94 270.95 966.02 C 270.20 968.02 266.86 968.25 266.24 966.03 C 264.04 959.81 263.38 953.10 260.89 946.98 C 260.38 945.21 258.44 946.09 257.16 946.05 C 254.26 952.95 260.21 959.76 259.81 966.79 C 259.12 966.84 257.73 966.95 257.04 967.01 C 254.35 963.20 252.89 958.59 249.79 955.07 C 249.02 955.03 247.48 954.96 246.71 954.92 C 246.13 960.27 250.06 964.49 252.03 969.12 C 250.66 972.63 245.89 970.62 243.04 971.01 C 224.38 971.12 205.71 970.87 187.05 971.11 C 179.84 970.98 172.62 971.45 165.43 970.83 C 161.47 971.22 157.48 971.21 153.51 970.99 C 153.56 969.73 152.75 968.18 153.98 967.26 C 161.99 967.11 170.02 967.45 178.02 967.16 C 178.88 953.50 178.14 939.75 178.38 926.05 C 178.05 882.05 179.27 838.01 177.25 794.05 C 177.38 788.68 176.44 783.33 176.88 777.97 C 177.25 776.05 179.66 776.69 181.04 776.50 C 190.34 776.48 199.64 776.38 208.94 776.36 C 214.67 777.29 220.38 778.48 226.14 779.29 C 225.53 753.21 225.02 727.12 224.85 701.04 C 227.80 699.93 230.67 698.27 233.91 698.28 C 239.28 698.09 244.55 696.68 249.94 696.83 C 258.01 697.50 266.03 698.66 274.09 699.46 C 274.00 686.62 274.29 673.78 273.93 660.95 C 273.97 659.69 274.09 658.45 274.30 657.23 M 228.76 703.12 C 228.61 705.39 228.58 707.68 228.66 709.98 C 229.19 733.19 228.78 756.43 229.46 779.64 C 235.21 781.56 241.62 781.66 247.53 783.42 C 247.78 755.72 247.52 727.99 247.11 700.29 C 241.02 701.38 234.83 701.86 228.76 703.12 M 271.97 737.04 C 271.53 741.03 271.54 745.16 272.21 749.13 C 272.22 750.56 274.79 749.32 274.34 748.19 C 274.48 744.39 274.74 740.54 274.17 736.77 C 273.62 736.84 272.52 736.97 271.97 737.04 M 292.90 749.12 C 292.96 754.41 292.77 759.71 293.05 765.00 C 292.41 766.95 296.00 766.56 295.66 764.97 C 295.51 759.29 296.25 753.44 295.06 747.87 C 294.52 748.19 293.44 748.81 292.90 749.12 M 280.95 777.88 C 280.55 783.81 280.16 789.96 281.26 795.80 C 281.60 795.77 282.26 795.70 282.60 795.67 C 284.10 792.06 282.87 787.88 283.29 784.05 C 282.98 781.89 284.47 777.54 280.95 777.88 M 180.52 779.90 C 182.21 817.93 181.78 856.01 181.79 894.06 C 181.84 918.41 181.68 942.77 181.88 967.11 C 190.06 967.30 198.25 966.98 206.42 967.34 C 206.90 960.93 206.57 954.49 206.71 948.07 C 206.76 891.91 207.35 835.75 207.52 779.60 C 198.52 779.80 189.52 779.72 180.52 779.90 M 267.28 815.22 C 266.36 819.44 266.47 823.94 267.05 828.23 C 270.57 827.77 268.76 823.41 269.17 821.05 C 268.91 819.20 270.37 814.84 267.28 815.22 M 249.47 835.14 C 249.90 839.11 248.47 843.32 250.14 847.12 C 250.54 846.77 251.32 846.07 251.72 845.71 C 252.51 841.24 251.97 836.65 251.83 832.14 C 249.86 831.15 249.06 833.61 249.47 835.14 M 282.94 873.89 C 283.10 874.83 283.24 875.79 283.35 876.76 C 281.64 880.33 282.75 884.39 283.04 888.16 C 286.34 887.36 284.84 883.43 285.08 881.01 C 284.68 878.62 286.39 874.49 282.94 873.89 M 240.35 879.32 C 238.83 884.62 240.11 890.48 239.68 896.01 C 240.00 897.59 238.99 901.58 241.73 900.72 C 242.96 894.93 241.85 888.90 242.27 883.01 C 242.20 881.61 242.66 878.48 240.35 879.32 M 259.94 896.95 C 259.22 901.25 259.79 905.75 259.88 910.12 C 260.45 910.11 261.59 910.08 262.16 910.07 C 262.49 905.68 262.55 901.21 261.89 896.85 C 261.40 896.88 260.43 896.93 259.94 896.95 Z" />
</g>
<g id="Group-000000" fill="#272525">
<path fill="#272525" opacity="1.00" d=" M 231.57 141.36 C 244.11 138.24 257.42 141.42 268.64 147.35 C 276.17 151.36 283.63 156.30 288.24 163.67 C 289.93 166.40 290.77 169.59 292.71 172.18 C 292.92 167.72 292.56 162.50 296.27 159.25 C 299.91 155.77 305.25 157.75 309.09 159.80 C 316.78 164.14 323.46 170.07 329.77 176.19 C 335.96 182.10 338.48 190.91 337.93 199.30 C 351.31 199.12 364.69 199.34 378.07 199.24 C 380.39 199.16 380.29 203.00 378.03 202.74 C 364.01 202.65 349.99 202.68 335.98 202.81 C 333.60 202.49 334.01 199.74 334.03 198.00 C 334.29 192.73 333.32 187.19 330.25 182.80 C 326.78 177.92 322.00 174.19 317.49 170.33 C 313.29 167.14 309.22 163.46 304.15 161.77 C 301.68 160.85 298.22 161.50 297.47 164.37 C 295.40 171.40 296.84 178.84 297.62 185.96 C 298.22 188.28 295.03 190.56 293.32 188.56 C 291.71 186.21 291.39 183.26 290.58 180.59 C 288.62 172.16 285.13 163.47 278.06 158.05 C 267.58 149.73 254.59 143.84 241.03 143.90 C 235.46 144.17 229.18 144.83 225.12 149.12 C 222.55 151.70 222.60 155.83 224.10 158.95 C 225.83 163.53 229.80 166.67 232.29 170.78 C 233.48 172.61 231.11 175.16 229.13 174.21 C 223.71 172.85 218.84 169.12 213.04 169.50 C 208.36 169.93 203.62 174.21 204.26 179.16 C 206.11 185.52 212.07 189.20 216.88 193.21 C 218.68 194.04 217.92 197.25 216.04 197.23 C 208.38 196.87 200.60 196.35 193.04 198.02 C 188.34 199.14 183.56 199.91 178.94 201.34 C 178.96 203.38 180.14 205.54 182.43 205.52 C 190.43 206.02 198.46 205.07 206.46 205.80 C 206.47 206.65 206.49 208.34 206.50 209.18 C 190.90 209.38 175.26 209.51 159.65 209.25 C 159.69 208.40 159.77 206.71 159.81 205.87 C 165.49 205.38 171.20 205.57 176.90 205.76 C 175.93 203.46 173.06 199.94 176.19 198.10 C 182.32 196.07 188.78 195.16 195.08 193.77 C 200.17 192.62 205.41 193.19 210.57 193.29 C 206.29 189.04 200.57 184.67 200.62 178.04 C 200.48 171.32 206.73 166.07 213.11 165.69 C 217.97 165.31 222.37 167.79 226.66 169.71 C 222.55 164.90 218.25 158.77 219.64 152.09 C 220.63 146.28 226.20 142.64 231.57 141.36 Z" />
<path fill="#272525" opacity="1.00" d=" M 804.13 929.98 C 804.32 929.38 804.69 928.18 804.87 927.58 C 805.38 928.03 806.38 928.92 806.89 929.37 C 806.52 930.23 806.18 931.10 805.85 931.99 C 804.78 935.18 804.16 938.61 804.36 941.99 C 804.12 944.08 806.25 947.20 803.03 948.06 C 802.78 946.59 802.52 945.08 801.17 944.25 C 801.51 945.46 801.86 946.71 801.54 947.99 C 799.08 947.04 795.25 946.10 794.89 942.95 C 794.64 940.96 797.16 940.58 798.37 939.69 C 797.36 937.04 796.82 933.90 798.42 931.36 C 799.60 929.46 802.20 928.86 804.13 929.98 M 800.39 942.76 C 801.67 943.88 803.82 941.86 802.90 940.50 C 801.69 939.65 799.44 941.43 800.39 942.76 Z" />
</g>
<g id="Group-000000" fill="#272525">
<path fill="#272525" opacity="1.00" d=" M 635.42 161.45 C 639.75 158.18 646.04 158.61 650.38 161.66 C 659.27 167.34 664.34 177.63 666.35 187.72 C 674.19 187.84 682.06 187.51 689.88 188.21 C 691.91 188.19 693.86 190.74 692.40 192.53 C 691.30 194.44 688.87 193.83 687.07 193.91 C 680.72 193.66 674.38 193.68 668.03 193.64 C 665.79 193.67 663.27 194.25 661.40 192.68 C 660.08 190.12 660.56 187.05 659.52 184.38 C 657.23 177.76 653.73 171.22 648.12 166.84 C 645.42 164.88 641.07 163.76 638.44 166.40 C 635.89 169.33 635.62 173.34 635.64 177.03 C 635.69 178.85 635.19 181.26 633.02 181.57 C 628.56 180.82 627.36 175.22 623.13 174.08 C 619.40 175.12 621.93 179.88 620.44 182.39 C 619.63 184.04 617.48 183.70 616.30 182.72 C 613.89 181.20 611.73 179.10 608.85 178.56 C 605.58 178.75 603.25 181.98 602.64 184.97 C 602.60 188.83 605.29 191.78 606.79 195.11 C 607.06 197.17 604.86 198.74 602.95 198.50 C 597.30 198.52 591.64 198.63 586.00 198.87 C 583.28 198.89 581.72 194.68 584.77 193.73 C 589.37 192.06 594.51 193.30 599.34 192.86 C 598.22 190.03 596.50 187.09 597.45 183.93 C 598.15 178.52 602.43 173.63 607.99 173.08 C 610.66 173.23 613.17 174.23 615.65 175.18 C 616.59 172.44 617.97 169.26 621.03 168.40 C 624.62 167.09 627.37 170.38 630.20 171.97 C 630.78 168.06 632.08 163.88 635.42 161.45 Z" />
</g>
<g id="Group-000000" fill="#272525">
<path fill="rgba(0,0,0,0)" opacity="1.00" d=" M 488.63 268.00 C 501.48 266.37 514.22 263.97 527.10 262.57 C 527.57 275.86 527.69 289.17 528.73 302.43 C 526.18 301.22 524.11 298.20 520.98 299.05 C 510.07 300.80 499.34 303.79 488.35 305.01 C 489.04 292.69 488.31 280.33 488.63 268.00 Z" />
<path fill="rgba(0,0,0,0)" opacity="1.00" d=" M 461.08 313.96 C 481.34 310.12 501.51 305.79 521.85 302.39 C 522.90 314.16 521.47 326.09 522.94 337.83 C 530.30 338.64 537.51 336.45 544.82 336.03 C 544.76 361.34 543.91 386.63 543.67 411.94 C 532.84 410.38 521.94 409.30 511.06 408.12 C 510.37 383.41 510.65 358.67 510.30 333.94 C 510.08 328.73 510.75 323.41 509.58 318.29 C 508.15 316.40 506.47 319.61 506.29 320.97 C 505.92 339.99 506.75 359.03 506.95 378.05 C 507.12 387.98 507.13 397.91 507.59 407.83 C 505.74 407.70 503.91 407.55 502.09 407.35 L 502.02 405.68 C 501.75 378.49 502.32 351.29 501.99 324.10 C 501.82 321.72 502.17 318.80 500.08 317.13 C 497.66 317.99 498.03 320.97 497.82 323.02 C 498.01 350.98 498.10 378.94 498.15 406.91 C 493.34 406.25 488.50 405.84 483.68 405.36 C 483.53 379.25 483.95 353.13 483.93 327.01 C 483.63 324.64 485.36 320.18 482.02 319.55 C 479.23 320.35 480.00 323.77 479.73 325.95 C 479.47 352.30 479.89 378.66 479.86 405.01 C 477.62 405.55 475.34 405.90 473.07 406.20 C 473.23 380.80 473.61 355.41 473.82 330.01 C 473.76 327.07 474.65 323.47 472.00 321.36 C 470.20 322.67 469.38 324.80 469.59 327.00 C 469.40 353.60 469.45 380.20 469.46 406.81 C 464.62 407.19 459.88 408.27 455.09 408.95 C 455.27 383.63 455.10 358.31 455.17 332.99 C 455.12 327.20 455.27 321.41 454.92 315.63 C 456.93 314.94 458.98 314.32 461.08 313.96 Z" />
<path fill="rgba(0,0,0,0)" opacity="1.00" d=" M 180.52 779.90 C 189.52 779.72 198.52 779.80 207.52 779.60 C 207.35 835.75 206.76 891.91 206.71 948.07 C 206.57 954.49 206.90 960.93 206.42 967.34 C 198.25 966.98 190.06 967.30 181.88 967.11 C 181.68 942.77 181.84 918.41 181.79 894.06 C 181.78 856.01 182.21 817.93 180.52 779.90 Z" />
<path fill="rgba(0,0,0,0)" opacity="1.00" d=" M 639.40 941.56 C 645.25 941.05 650.63 938.43 655.00 934.58 C 655.44 945.44 655.26 956.32 655.46 967.19 C 649.87 967.15 644.28 967.06 638.69 966.91 C 638.50 959.59 638.70 952.21 637.15 945.02 C 637.91 942.19 637.62 938.14 640.79 936.91 C 640.44 938.07 639.75 940.40 639.40 941.56 Z" />
</g>
<g id="Group-000000" fill="#272525">
<path fill="#272525" opacity="1.00" d=" M 497.82 323.02 C 498.03 320.97 497.66 317.99 500.08 317.13 C 502.17 318.80 501.82 321.72 501.99 324.10 C 502.32 351.29 501.75 378.49 502.02 405.68 C 500.71 406.05 499.42 406.45 498.15 406.91 C 498.10 378.94 498.01 350.98 497.82 323.02 Z" />
</g>
<g id="Group-000000" fill="#272525">
<path fill="#272525" opacity="1.00" d=" M 451.06 443.14 C 454.38 441.83 453.85 446.01 453.94 448.00 C 454.13 473.00 454.03 497.99 454.01 522.99 C 454.04 671.02 453.83 819.06 454.10 967.09 C 455.64 967.11 457.19 967.13 458.75 967.17 C 460.35 968.10 461.99 970.29 464.04 969.24 C 468.05 967.51 473.17 967.23 476.26 970.81 C 451.04 971.25 425.80 970.56 400.61 971.24 C 400.84 969.60 401.01 967.95 401.67 966.44 C 402.81 967.60 404.55 966.98 405.99 967.18 C 413.43 967.04 420.87 967.18 428.32 967.11 C 430.00 967.59 431.40 968.66 432.78 969.71 C 432.76 969.06 432.73 967.77 432.71 967.13 C 438.42 967.08 444.13 967.05 449.84 967.09 C 450.67 953.75 449.91 940.35 450.18 926.99 C 450.04 877.85 450.27 828.71 449.95 779.58 C 450.46 779.56 451.48 779.51 451.99 779.48 C 451.51 779.43 450.54 779.33 450.06 779.28 C 450.09 698.88 450.32 618.46 450.19 538.05 C 450.02 536.77 450.47 535.60 451.13 534.55 C 450.37 533.47 450.00 532.22 450.13 530.91 C 450.35 503.26 449.96 475.61 450.49 447.97 C 450.54 446.34 450.56 444.70 451.06 443.14 Z" />
</g>
<g id="Group-000000" fill="#272525">
<path fill="rgba(0,0,0,0)" opacity="1.00" d=" M 573.27 481.35 C 574.97 480.56 575.44 482.75 575.12 484.01 C 574.37 488.65 574.01 493.33 573.43 498.00 C 573.32 499.76 570.54 500.05 570.77 497.92 C 570.75 494.28 571.56 490.69 571.85 487.08 C 572.11 485.13 571.78 482.88 573.27 481.35 Z" />
</g>
<g id="Group-000000" fill="#272525">
<path fill="rgba(0,0,0,0)" opacity="1.00" d=" M 481.87 519.78 C 487.57 519.30 493.32 520.38 499.01 520.86 C 532.67 523.72 566.30 526.86 599.93 529.89 C 603.61 530.18 607.38 530.15 610.96 531.16 C 611.09 531.84 611.35 533.21 611.48 533.89 C 569.62 530.31 527.80 526.46 485.95 522.68 C 484.28 522.41 480.97 522.50 481.87 519.78 Z" />
</g>
<g id="Group-000000" fill="#272525">
<path fill="rgba(0,0,0,0)" opacity="1.00" d=" M 504.30 562.17 L 505.18 561.31 C 508.12 562.49 506.53 566.52 507.11 569.00 C 506.85 571.06 508.53 575.59 504.98 575.04 C 504.03 570.91 503.39 566.28 504.30 562.17 Z" />
</g>
<g id="Group-000000" fill="#272525">
<path fill="rgba(0,0,0,0)" opacity="1.00" d=" M 482.60 604.93 C 524.91 608.80 567.26 612.24 609.60 615.69 C 611.42 615.37 612.34 618.67 610.02 618.32 C 572.85 615.47 535.68 612.38 498.54 609.13 C 493.18 608.85 487.87 607.91 482.48 608.02 C 482.51 607.25 482.57 605.70 482.60 604.93 Z" />
<path fill="rgba(0,0,0,0)" opacity="1.00" d=" M 482.45 881.29 C 520.32 882.38 558.19 884.10 596.06 885.38 C 600.93 885.65 605.92 885.10 610.72 886.08 C 610.81 886.71 611.00 887.97 611.09 888.60 C 577.06 887.94 543.06 886.15 509.04 885.13 C 500.28 884.64 491.45 884.90 482.73 883.86 C 482.66 883.22 482.52 881.93 482.45 881.29 Z" />
</g>
<g id="Group-000000" fill="#272525">
<path fill="rgba(0,0,0,0)" opacity="1.00" d=" M 570.18 659.89 C 570.35 658.14 570.83 656.43 572.04 655.11 C 572.42 655.59 573.20 656.56 573.58 657.04 C 573.14 661.03 572.25 664.95 571.76 668.94 C 570.94 669.18 570.12 669.42 569.32 669.66 C 568.85 666.36 569.80 663.13 570.18 659.89 Z" />
</g>
<g id="Group-000000" fill="#272525">
<path fill="rgba(0,0,0,0)" opacity="1.00" d=" M 482.86 693.54 C 484.51 692.95 486.27 693.53 487.98 693.57 C 518.71 695.63 549.40 698.35 580.12 700.39 C 590.09 701.58 600.19 701.46 610.14 702.83 C 612.44 702.83 610.89 706.50 609.07 705.50 C 566.97 702.26 524.85 699.25 482.76 695.89 C 482.79 695.31 482.83 694.13 482.86 693.54 Z" />
</g>
<g id="Group-000000" fill="#272525">
<path fill="rgba(0,0,0,0)" opacity="1.00" d=" M 228.76 703.12 C 234.83 701.86 241.02 701.38 247.11 700.29 C 247.52 727.99 247.78 755.72 247.53 783.42 C 241.62 781.66 235.21 781.56 229.46 779.64 C 228.78 756.43 229.19 733.19 228.66 709.98 C 228.58 707.68 228.61 705.39 228.76 703.12 Z" />
</g>
<g id="Group-000000" fill="#272525">
<path fill="rgba(0,0,0,0)" opacity="1.00" d=" M 508.71 727.98 C 508.82 726.74 509.50 726.00 510.78 725.77 C 512.21 728.98 511.37 732.53 511.70 735.94 C 511.90 737.28 511.62 738.59 510.94 739.78 C 510.50 739.57 509.63 739.15 509.19 738.93 C 508.92 735.29 508.61 731.63 508.71 727.98 Z" />
<path fill="rgba(0,0,0,0)" opacity="1.00" d=" M 249.47 835.14 C 249.06 833.61 249.86 831.15 251.83 832.14 C 251.97 836.65 252.51 841.24 251.72 845.71 C 251.32 846.07 250.54 846.77 250.14 847.12 C 248.47 843.32 249.90 839.11 249.47 835.14 Z" />
</g>
<g id="Group-000000" fill="#272525">
<path fill="rgba(0,0,0,0)" opacity="1.00" d=" M 271.97 737.04 C 272.52 736.97 273.62 736.84 274.17 736.77 C 274.74 740.54 274.48 744.39 274.34 748.19 C 274.79 749.32 272.22 750.56 272.21 749.13 C 271.54 745.16 271.53 741.03 271.97 737.04 Z" />
<path fill="rgba(0,0,0,0)" opacity="1.00" d=" M 267.28 815.22 C 270.37 814.84 268.91 819.20 269.17 821.05 C 268.76 823.41 270.57 827.77 267.05 828.23 C 266.47 823.94 266.36 819.44 267.28 815.22 Z" />
<path fill="rgba(0,0,0,0)" opacity="1.00" d=" M 282.94 873.89 C 286.39 874.49 284.68 878.62 285.08 881.01 C 284.84 883.43 286.34 887.36 283.04 888.16 C 282.75 884.39 281.64 880.33 283.35 876.76 C 283.24 875.79 283.10 874.83 282.94 873.89 Z" />
<path fill="rgba(0,0,0,0)" opacity="1.00" d=" M 240.35 879.32 C 242.66 878.48 242.20 881.61 242.27 883.01 C 241.85 888.90 242.96 894.93 241.73 900.72 C 238.99 901.58 240.00 897.59 239.68 896.01 C 240.11 890.48 238.83 884.62 240.35 879.32 Z" />
<path fill="rgba(0,0,0,0)" opacity="1.00" d=" M 612.91 930.35 C 613.93 931.96 614.95 933.59 616.08 935.14 C 618.11 937.68 620.42 940.13 623.37 941.61 C 626.37 943.11 629.78 943.21 633.04 943.73 C 633.42 942.14 633.79 940.56 634.00 938.95 C 634.72 939.35 636.17 940.15 636.89 940.55 C 636.73 943.63 636.50 946.72 635.85 949.75 C 635.00 948.97 634.19 948.22 633.39 947.43 C 633.83 953.97 633.75 960.56 633.71 967.13 C 626.76 967.03 619.82 966.96 612.87 967.17 C 612.97 954.89 612.68 942.62 612.91 930.35 Z" />
</g>
<g id="Group-000000" fill="#272525">
<path fill="rgba(0,0,0,0)" opacity="1.00" d=" M 292.90 749.12 C 293.44 748.81 294.52 748.19 295.06 747.87 C 296.25 753.44 295.51 759.29 295.66 764.97 C 296.00 766.56 292.41 766.95 293.05 765.00 C 292.77 759.71 292.96 754.41 292.90 749.12 Z" />
</g>
<g id="Group-000000" fill="#272525">
<path fill="rgba(0,0,0,0)" opacity="1.00" d=" M 584.76 747.96 C 585.28 747.96 586.32 747.96 586.84 747.96 C 587.19 753.45 587.98 759.25 586.93 764.64 C 586.43 764.75 585.43 764.99 584.93 765.11 C 584.90 759.41 583.79 753.59 584.76 747.96 Z" />
<path fill="rgba(0,0,0,0)" opacity="1.00" d=" M 714.36 840.92 C 714.59 839.70 714.94 837.85 716.59 838.11 C 716.88 838.57 717.46 839.49 717.75 839.95 C 716.79 842.91 716.99 846.04 716.87 849.11 C 716.18 849.12 714.80 849.14 714.12 849.15 C 714.15 846.40 714.11 843.65 714.36 840.92 Z" />
</g>
<g id="Group-000000" fill="#272525">
<path fill="rgba(0,0,0,0)" opacity="1.00" d=" M 716.03 756.06 C 716.26 753.22 714.76 749.29 717.95 747.66 C 719.51 751.25 718.52 755.25 718.74 759.05 C 718.56 760.46 719.12 762.70 717.19 763.11 C 715.23 761.33 716.35 758.37 716.03 756.06 Z" />
</g>
<g id="Group-000000" fill="#272525">
<path fill="rgba(0,0,0,0)" opacity="1.00" d=" M 280.95 777.88 C 284.47 777.54 282.98 781.89 283.29 784.05 C 282.87 787.88 284.10 792.06 282.60 795.67 C 282.26 795.70 281.60 795.77 281.26 795.80 C 280.16 789.96 280.55 783.81 280.95 777.88 Z" />
</g>
<g id="Group-000000" fill="#272525">
<path fill="rgba(0,0,0,0)" opacity="1.00" d=" M 482.78 788.79 C 518.86 790.67 554.91 792.93 590.99 794.85 C 597.71 795.31 604.46 795.42 611.16 796.20 C 611.18 796.98 611.23 798.53 611.25 799.30 C 580.69 797.84 550.16 796.00 519.62 794.16 C 507.32 793.50 495.01 792.94 482.73 791.94 C 482.74 791.15 482.77 789.58 482.78 788.79 Z" />
</g>
<g id="Group-000000" fill="#272525">
<path fill="#272525" opacity="1.00" d=" M 382.65 812.62 C 385.09 809.89 389.70 808.67 392.73 811.13 C 395.86 813.75 396.24 818.19 396.24 822.01 C 396.26 831.65 391.26 840.28 386.52 848.35 C 389.70 846.64 393.35 844.74 397.04 846.11 C 400.65 847.22 402.10 851.55 401.24 854.97 C 399.50 863.98 393.19 871.38 385.90 876.61 C 390.95 875.50 396.83 875.37 400.99 878.93 C 405.17 882.48 404.79 888.93 402.52 893.46 C 397.64 903.62 386.76 910.17 375.71 911.22 C 375.94 908.91 376.08 906.61 376.20 904.31 C 380.47 901.49 386.08 900.86 389.71 897.16 C 388.96 897.26 387.45 897.44 386.70 897.53 C 387.46 895.57 388.83 895.31 390.49 896.51 C 391.65 895.86 392.81 895.19 393.98 894.55 C 393.61 894.28 392.87 893.72 392.50 893.45 C 392.51 892.70 392.52 891.96 392.54 891.24 C 391.86 890.44 391.18 889.64 390.51 888.86 C 389.15 889.47 387.80 890.10 386.46 890.73 C 386.31 889.43 386.17 888.15 385.88 886.89 C 385.67 886.41 385.24 885.46 385.03 884.98 C 381.16 885.54 378.63 888.72 375.60 890.83 C 374.94 889.06 374.87 887.17 374.80 885.33 C 376.17 885.45 376.55 884.41 376.76 883.27 C 376.43 883.69 375.77 884.52 375.45 884.94 C 372.93 879.72 375.12 873.38 378.89 869.29 C 382.10 867.62 383.74 864.32 385.74 861.48 C 386.48 862.43 387.23 863.40 387.99 864.37 C 388.04 863.57 388.14 861.98 388.20 861.18 C 388.84 860.69 389.49 860.22 390.15 859.76 C 388.67 858.63 387.26 857.43 385.89 856.19 L 385.13 855.55 C 380.30 859.05 378.15 865.02 374.20 869.25 C 374.12 864.74 375.83 859.61 373.12 855.59 C 374.81 853.14 376.40 850.63 378.35 848.39 C 377.41 846.77 376.16 845.39 374.79 844.14 C 373.57 846.56 372.18 848.88 370.67 851.13 C 370.10 849.61 369.28 848.19 367.56 847.94 C 367.21 848.27 366.49 848.93 366.14 849.26 C 366.35 847.63 365.61 845.90 364.15 845.12 C 363.61 846.86 364.18 848.64 365.11 850.15 C 365.34 851.69 365.45 853.26 365.52 854.83 C 366.12 856.02 366.73 857.17 367.36 858.38 C 368.64 857.87 369.94 857.38 371.22 856.85 C 371.19 861.70 371.25 866.55 371.52 871.39 C 370.58 871.70 368.03 871.18 368.84 872.92 C 369.31 874.48 370.69 872.40 371.44 872.14 C 371.38 876.11 371.64 880.08 371.94 884.04 C 368.82 881.62 365.85 879.02 362.89 876.43 C 361.94 877.00 361.01 877.61 360.10 878.26 C 363.36 882.25 367.99 884.88 371.75 888.39 C 372.56 889.81 372.03 891.50 371.72 893.01 C 372.47 896.25 372.08 899.58 372.11 902.88 C 370.07 902.75 367.84 902.73 366.16 901.39 C 367.44 903.50 369.69 904.09 372.03 903.48 C 372.63 906.79 372.50 910.23 373.39 913.50 C 373.83 913.55 374.72 913.66 375.17 913.72 C 375.31 927.47 375.23 941.22 375.11 954.97 C 375.03 956.42 375.09 957.97 374.45 959.33 L 374.48 959.72 C 374.72 959.80 375.20 959.95 375.44 960.03 C 377.09 956.54 378.08 950.56 383.33 951.87 C 383.77 953.83 384.00 955.81 384.23 957.82 C 388.60 953.03 393.69 948.42 399.96 946.36 C 404.07 944.84 409.01 948.55 408.14 953.00 C 407.32 957.96 404.49 962.36 401.67 966.44 C 401.01 967.95 400.84 969.60 400.61 971.24 C 399.37 970.94 398.01 970.88 397.03 970.00 C 396.37 968.51 397.60 967.17 398.20 965.93 C 400.73 961.53 404.02 957.24 404.74 952.09 C 404.75 949.17 401.16 949.15 399.28 950.32 C 392.96 953.55 387.24 958.52 384.12 964.99 C 383.96 966.90 380.22 966.87 380.47 964.89 C 380.43 961.72 382.66 958.88 382.01 955.67 C 379.52 958.32 378.94 962.07 376.89 964.98 C 374.19 966.42 371.24 963.90 371.50 961.06 C 371.70 944.74 371.41 928.41 371.78 912.09 C 365.78 911.82 358.79 911.41 354.72 906.32 C 352.05 903.56 353.32 899.19 355.76 896.75 C 358.05 894.37 361.45 893.84 364.31 892.44 C 354.59 888.82 345.16 881.52 342.55 871.06 C 342.59 868.95 342.61 866.64 344.06 864.97 C 346.46 861.50 351.19 861.62 354.96 861.65 C 359.23 861.59 363.21 863.26 366.97 865.11 C 365.75 858.85 359.86 855.26 356.99 849.86 C 354.08 844.34 351.89 838.25 351.75 831.96 C 351.96 829.61 352.25 826.78 354.33 825.31 C 356.90 823.85 360.32 824.55 362.33 826.65 C 365.76 830.16 367.93 834.67 369.60 839.24 C 373.09 830.02 375.54 819.86 382.65 812.62 M 387.01 817.82 C 385.11 819.53 382.14 822.59 383.52 825.19 C 383.54 825.35 383.59 825.68 383.61 825.84 C 383.10 827.20 380.63 827.07 380.80 828.98 C 380.33 831.67 378.52 833.94 378.37 836.70 C 377.63 838.22 376.82 839.71 375.96 841.18 C 376.32 842.90 376.84 844.69 378.26 845.86 C 379.81 847.47 380.34 844.74 380.57 843.65 C 382.63 841.83 382.91 838.78 385.04 836.98 C 384.83 836.54 384.42 835.65 384.22 835.21 C 384.62 835.13 385.42 834.95 385.82 834.86 C 385.67 834.49 385.39 833.75 385.24 833.38 C 386.00 832.01 387.21 830.75 387.24 829.11 C 386.31 827.53 384.90 826.04 385.38 824.06 C 385.52 824.67 385.81 825.88 385.95 826.48 C 387.79 825.81 388.09 823.76 388.04 822.08 C 390.67 821.37 389.06 816.02 387.01 817.82 M 391.22 855.29 C 391.79 855.80 391.79 855.80 391.22 855.29 M 351.72 869.27 C 351.76 870.67 350.99 872.56 352.58 873.42 C 353.61 875.25 355.98 873.61 357.35 875.05 C 358.01 874.74 359.60 874.94 358.67 873.57 C 356.22 874.46 356.98 871.80 358.62 871.21 C 357.07 871.16 355.69 872.49 354.18 872.06 C 353.24 871.22 352.53 870.19 351.72 869.27 M 366.13 874.30 C 365.73 875.71 366.21 876.23 367.59 875.85 C 367.98 874.43 367.49 873.91 366.13 874.30 M 390.99 884.54 C 389.54 887.61 394.28 884.56 390.99 884.54 M 394.19 890.09 C 394.42 893.36 397.17 888.49 394.19 890.09 Z" />
</g>
<g id="Group-000000" fill="#272525">
<path fill="#272525" opacity="1.00" d=" M 387.01 817.82 C 389.06 816.02 390.67 821.37 388.04 822.08 C 387.80 820.63 387.37 819.22 387.01 817.82 Z" />
</g>
<g id="Group-000000" fill="#272525">
<path fill="#272525" opacity="1.00" d=" M 383.52 825.19 C 382.14 822.59 385.11 819.53 387.01 817.82 C 387.37 819.22 387.80 820.63 388.04 822.08 C 388.09 823.76 387.79 825.81 385.95 826.48 C 385.81 825.88 385.52 824.67 385.38 824.06 C 384.90 826.04 386.31 827.53 387.24 829.11 C 387.21 830.75 386.00 832.01 385.24 833.38 C 385.39 833.75 385.67 834.49 385.82 834.86 C 385.42 834.95 384.62 835.13 384.22 835.21 C 384.42 835.65 384.83 836.54 385.04 836.98 C 382.91 838.78 382.63 841.83 380.57 843.65 C 380.34 844.74 379.81 847.47 378.26 845.86 C 376.84 844.69 376.32 842.90 375.96 841.18 C 376.82 839.71 377.63 838.22 378.37 836.70 C 378.52 833.94 380.33 831.67 380.80 828.98 C 380.63 827.07 383.10 827.20 383.61 825.84 C 383.59 825.68 383.54 825.35 383.52 825.19 Z" />
</g>
<g id="Group-000000" fill="#272525">
<path fill="#272525" opacity="1.00" d=" M 843.84 823.59 C 846.00 822.71 847.98 824.21 849.79 825.24 C 853.24 827.27 854.33 831.48 855.28 835.10 C 857.44 831.10 861.00 826.56 866.11 827.16 C 872.29 827.85 876.33 833.38 878.34 838.81 C 882.23 849.89 880.17 862.13 875.57 872.68 C 879.53 870.05 885.19 871.26 887.83 875.18 C 891.80 880.19 892.30 886.90 892.24 893.05 C 891.66 904.83 886.08 916.51 876.58 923.67 C 870.78 927.52 864.15 930.92 857.12 931.03 C 855.88 930.60 854.66 930.16 853.46 929.71 C 853.62 927.80 853.64 925.90 853.71 924.02 C 855.79 923.02 857.87 922.01 859.95 920.98 C 859.80 920.45 859.51 919.38 859.37 918.85 C 860.42 920.00 861.48 921.16 862.55 922.32 C 862.41 920.98 862.27 919.66 862.15 918.35 C 863.64 918.89 865.14 919.45 866.64 920.02 C 867.01 918.24 867.40 916.49 867.78 914.74 C 868.68 915.47 869.59 916.22 870.51 916.98 C 871.24 915.10 871.69 913.13 871.74 911.12 C 872.46 911.33 873.19 911.56 873.93 911.80 C 874.38 909.77 874.93 907.77 875.60 905.81 C 876.74 906.65 877.88 907.50 879.03 908.37 C 878.45 905.73 878.45 903.02 879.00 900.39 C 879.58 900.74 880.18 901.09 880.80 901.45 L 881.59 901.84 L 882.30 901.33 C 882.75 901.02 883.66 900.40 884.11 900.08 C 883.98 899.73 883.71 899.03 883.57 898.67 C 884.86 897.58 885.30 896.09 885.23 894.45 C 883.16 893.75 882.29 891.94 881.91 889.96 C 883.00 890.98 884.09 892.03 885.20 893.08 C 885.40 891.74 885.43 890.38 885.18 889.06 C 884.54 888.95 883.28 888.74 882.64 888.63 C 883.21 888.34 884.33 887.76 884.89 887.47 C 883.95 884.75 882.62 882.20 880.95 879.87 C 880.33 880.03 879.09 880.34 878.47 880.49 C 877.89 880.66 876.72 880.99 876.14 881.16 C 875.99 881.23 875.68 881.37 875.53 881.44 C 873.59 883.01 871.82 884.78 870.34 886.79 C 868.70 888.87 867.30 891.14 866.13 893.52 C 865.21 893.71 864.31 893.91 863.41 894.12 C 862.39 893.77 861.37 893.42 860.38 893.10 C 860.58 891.84 860.78 890.58 861.00 889.33 L 860.06 889.06 C 860.50 887.98 860.94 886.92 861.38 885.85 C 862.04 884.52 860.34 883.55 859.79 882.53 C 861.06 879.59 857.35 879.14 855.44 878.64 C 855.50 877.04 855.60 875.44 855.74 873.86 C 856.61 874.35 857.49 874.84 858.39 875.35 C 858.95 876.55 859.54 877.76 860.12 878.98 C 860.65 878.36 861.19 877.76 861.74 877.16 C 861.82 878.03 861.99 879.76 862.08 880.63 C 864.43 879.06 865.66 876.41 867.43 874.30 C 866.79 872.62 866.19 870.86 866.92 869.11 C 867.77 870.03 868.73 870.84 869.80 871.55 C 869.71 870.89 869.53 869.57 869.44 868.91 C 869.87 867.95 870.31 867.00 870.77 866.07 C 869.42 865.17 868.08 864.28 866.74 863.41 C 865.68 863.38 864.65 863.39 863.62 863.29 C 863.38 861.27 863.53 859.24 863.63 857.23 C 863.02 857.10 861.81 856.85 861.20 856.73 C 861.55 856.02 861.91 855.34 862.30 854.67 C 863.82 855.50 865.55 855.55 867.25 855.52 C 868.68 857.87 870.91 859.52 873.27 860.88 C 872.90 859.57 872.41 858.32 871.53 857.29 C 871.78 857.17 872.27 856.94 872.51 856.82 C 872.83 855.04 873.13 853.25 873.42 851.47 C 872.54 848.81 872.69 845.30 869.60 844.12 C 869.26 844.54 868.56 845.38 868.21 845.79 C 868.23 843.53 868.18 841.15 869.61 839.26 C 869.41 838.65 869.22 838.04 869.04 837.45 C 868.71 837.41 868.05 837.31 867.72 837.26 C 866.74 836.36 865.76 835.16 864.30 835.40 C 860.80 837.81 859.79 842.08 858.58 845.89 C 858.76 846.23 859.12 846.90 859.30 847.24 L 859.40 847.48 C 858.64 848.31 857.89 849.14 857.14 849.99 C 856.84 850.42 856.23 851.27 855.92 851.70 C 855.51 851.65 854.69 851.56 854.29 851.52 C 853.96 851.84 853.31 852.49 852.98 852.81 C 852.13 852.40 851.29 852.00 850.45 851.62 C 849.03 849.64 847.92 847.44 849.60 845.25 C 849.30 845.11 848.69 844.84 848.39 844.71 C 848.54 844.26 848.86 843.35 849.02 842.90 C 848.83 842.46 848.46 841.57 848.27 841.12 C 847.12 839.39 847.30 835.02 844.15 836.49 C 843.29 836.04 845.72 834.11 844.53 833.37 C 842.23 832.79 842.80 836.39 842.22 837.85 C 842.94 838.49 843.68 839.15 844.42 839.82 C 843.91 839.86 842.88 839.93 842.37 839.97 C 842.23 841.14 841.87 842.27 841.45 843.38 C 841.29 843.83 840.97 844.72 840.81 845.17 C 840.74 846.75 840.76 848.33 840.77 849.93 C 841.25 850.14 842.19 850.56 842.66 850.77 C 842.98 850.36 843.62 849.54 843.94 849.13 C 844.96 852.02 845.95 854.93 847.00 857.82 C 848.59 856.68 849.45 854.91 850.30 853.21 C 850.64 853.45 851.31 853.93 851.65 854.16 C 851.26 854.62 850.89 855.09 850.53 855.57 C 852.51 858.33 852.06 861.69 851.44 864.82 C 851.90 864.89 852.82 865.03 853.28 865.10 C 852.49 876.22 851.70 887.37 851.81 898.53 C 848.59 895.23 846.83 890.51 842.94 887.96 C 840.57 887.95 841.58 890.25 842.39 891.45 C 845.06 895.71 847.83 899.93 850.96 903.88 C 851.41 912.79 850.52 921.70 850.76 930.61 C 845.49 931.03 839.56 930.30 835.70 926.30 C 828.47 919.61 826.50 909.39 825.28 900.05 C 824.87 890.43 824.35 879.92 829.32 871.27 C 831.02 867.87 835.18 866.42 838.69 867.88 C 835.25 858.05 834.10 847.44 834.72 837.08 C 835.32 831.67 837.36 824.21 843.84 823.59 M 842.11 852.26 C 840.56 855.27 845.38 852.46 842.11 852.26 M 842.28 855.27 C 842.78 855.79 842.78 855.79 842.28 855.27 M 845.68 870.06 C 846.49 871.77 847.59 873.33 849.25 874.33 C 849.12 872.50 848.57 870.77 847.89 869.11 C 847.34 869.35 846.23 869.82 845.68 870.06 M 846.07 886.28 C 844.66 886.34 844.64 888.74 846.09 888.78 C 847.47 888.72 847.49 886.26 846.07 886.28 M 837.38 906.74 C 836.51 907.63 835.70 908.59 834.88 909.53 C 837.95 907.72 839.15 911.68 840.55 913.66 C 840.81 913.29 841.07 912.94 841.36 912.61 C 840.87 911.40 841.45 910.29 841.95 909.23 C 840.35 908.51 838.82 907.70 837.38 906.74 M 846.09 919.30 C 845.61 920.70 846.08 921.13 847.52 920.59 C 847.99 919.18 847.51 918.75 846.09 919.30 Z" />
</g>
<g id="Group-000000" fill="#272525">
<path fill="rgba(0,0,0,0)" opacity="1.00" d=" M 383.52 825.19 C 383.54 825.35 383.59 825.68 383.61 825.84 C 383.59 825.68 383.54 825.35 383.52 825.19 Z" />
</g>
<g id="Group-000000" fill="#272525">
<path fill="#272525" opacity="1.00" d=" M 842.22 837.85 C 842.80 836.39 842.23 832.79 844.53 833.37 C 845.72 834.11 843.29 836.04 844.15 836.49 C 847.30 835.02 847.12 839.39 848.27 841.12 C 847.72 841.01 846.60 840.78 846.04 840.66 C 845.99 841.51 845.88 843.19 845.83 844.04 C 845.34 843.80 844.35 843.32 843.86 843.08 C 842.83 843.76 841.81 844.46 840.81 845.17 C 840.97 844.72 841.29 843.83 841.45 843.38 C 841.87 842.27 842.23 841.14 842.37 839.97 C 842.88 839.93 843.91 839.86 844.42 839.82 C 843.68 839.15 842.94 838.49 842.22 837.85 Z" />
</g>
<g id="Group-000000" fill="#272525">
<path fill="#272525" opacity="1.00" d=" M 864.30 835.40 C 865.76 835.16 866.74 836.36 867.72 837.26 C 868.05 837.31 868.71 837.41 869.04 837.45 C 869.22 838.04 869.41 838.65 869.61 839.26 C 868.18 841.15 868.23 843.53 868.21 845.79 C 868.56 845.38 869.26 844.54 869.60 844.12 C 872.69 845.30 872.54 848.81 873.42 851.47 C 873.13 853.25 872.83 855.04 872.51 856.82 C 872.27 856.94 871.78 857.17 871.53 857.29 C 872.41 858.32 872.90 859.57 873.27 860.88 C 870.91 859.52 868.68 857.87 867.25 855.52 C 865.55 855.55 863.82 855.50 862.30 854.67 C 861.91 855.34 861.55 856.02 861.20 856.73 C 861.81 856.85 863.02 857.10 863.63 857.23 C 863.53 859.24 863.38 861.27 863.62 863.29 C 864.65 863.39 865.68 863.38 866.74 863.41 C 868.08 864.28 869.42 865.17 870.77 866.07 C 870.31 867.00 869.87 867.95 869.44 868.91 C 869.53 869.57 869.71 870.89 869.80 871.55 C 868.73 870.84 867.77 870.03 866.92 869.11 C 866.19 870.86 866.79 872.62 867.43 874.30 C 865.66 876.41 864.43 879.06 862.08 880.63 C 861.99 879.76 861.82 878.03 861.74 877.16 C 861.19 877.76 860.65 878.36 860.12 878.98 C 859.54 877.76 858.95 876.55 858.39 875.35 C 857.49 874.84 856.61 874.35 855.74 873.86 C 856.16 867.87 856.41 861.86 857.12 855.89 C 856.20 855.60 855.28 855.35 854.36 855.13 C 853.58 858.39 853.54 861.76 853.28 865.10 C 852.82 865.03 851.90 864.89 851.44 864.82 C 852.06 861.69 852.51 858.33 850.53 855.57 C 850.89 855.09 851.26 854.62 851.65 854.16 C 851.31 853.93 850.64 853.45 850.30 853.21 C 849.45 854.91 848.59 856.68 847.00 857.82 C 845.95 854.93 844.96 852.02 843.94 849.13 C 843.62 849.54 842.98 850.36 842.66 850.77 C 842.19 850.56 841.25 850.14 840.77 849.93 C 840.76 848.33 840.74 846.75 840.81 845.17 C 841.81 844.46 842.83 843.76 843.86 843.08 C 844.35 843.32 845.34 843.80 845.83 844.04 C 845.88 843.19 845.99 841.51 846.04 840.66 C 846.60 840.78 847.72 841.01 848.27 841.12 C 848.46 841.57 848.83 842.46 849.02 842.90 C 848.86 843.35 848.54 844.26 848.39 844.71 C 848.69 844.84 849.30 845.11 849.60 845.25 C 847.92 847.44 849.03 849.64 850.45 851.62 C 851.29 852.00 852.13 852.40 852.98 852.81 C 853.31 852.49 853.96 851.84 854.29 851.52 C 854.69 851.56 855.51 851.65 855.92 851.70 L 856.72 851.75 C 856.82 851.31 857.04 850.43 857.14 849.99 C 857.89 849.14 858.64 848.31 859.40 847.48 L 859.43 847.46 C 859.39 847.40 859.33 847.30 859.30 847.24 C 859.12 846.90 858.76 846.23 858.58 845.89 C 859.79 842.08 860.80 837.81 864.30 835.40 M 863.06 850.22 C 861.57 853.22 866.36 850.37 863.06 850.22 Z" />
</g>
<g id="Group-000000" fill="#272525">
<path fill="rgba(0,0,0,0)" opacity="1.00" d=" M 586.39 838.30 L 587.03 837.61 C 590.56 836.79 588.59 841.11 587.56 842.58 C 585.71 844.96 585.38 849.26 582.09 850.02 C 581.91 849.59 581.56 848.72 581.39 848.29 C 582.84 844.86 584.40 841.44 586.39 838.30 Z" />
<path fill="rgba(0,0,0,0)" opacity="1.00" d=" M 351.72 869.27 C 352.53 870.19 353.24 871.22 354.18 872.06 C 355.69 872.49 357.07 871.16 358.62 871.21 C 356.98 871.80 356.22 874.46 358.67 873.57 C 359.60 874.94 358.01 874.74 357.35 875.05 C 355.98 873.61 353.61 875.25 352.58 873.42 C 350.99 872.56 351.76 870.67 351.72 869.27 Z" />
</g>
<g id="Group-000000" fill="#272525">
<path fill="rgba(0,0,0,0)" opacity="1.00" d=" M 682.43 840.26 C 685.48 840.94 683.78 844.93 683.90 847.03 C 684.73 849.03 681.39 850.11 681.27 847.83 C 681.70 845.37 680.28 842.04 682.43 840.26 Z" />
</g>
<g id="Group-000000" fill="#272525">
<path fill="#272525" opacity="1.00" d=" M 370.67 851.13 C 372.18 848.88 373.57 846.56 374.79 844.14 C 376.16 845.39 377.41 846.77 378.35 848.39 C 376.40 850.63 374.81 853.14 373.12 855.59 C 372.65 855.90 371.69 856.54 371.22 856.85 C 369.94 857.38 368.64 857.87 367.36 858.38 C 366.73 857.17 366.12 856.02 365.52 854.83 C 365.45 853.26 365.34 851.69 365.11 850.15 C 365.36 849.93 365.88 849.48 366.14 849.26 C 366.49 848.93 367.21 848.27 367.56 847.94 C 369.28 848.19 370.10 849.61 370.67 851.13 Z" />
</g>
<g id="Group-000000" fill="#272525">
<path fill="#272525" opacity="1.00" d=" M 364.15 845.12 C 365.61 845.90 366.35 847.63 366.14 849.26 C 365.88 849.48 365.36 849.93 365.11 850.15 C 364.18 848.64 363.61 846.86 364.15 845.12 Z" />
</g>
<g id="Group-000000" fill="#272525">
<path fill="rgba(0,0,0,0)" opacity="1.00" d=" M 859.30 847.24 C 859.33 847.30 859.39 847.40 859.43 847.46 L 859.40 847.48 L 859.30 847.24 Z" />
</g>
<g id="Group-000000" fill="#272525">
<path fill="rgba(0,0,0,0)" opacity="1.00" d=" M 855.92 851.70 C 856.23 851.27 856.84 850.42 857.14 849.99 C 857.04 850.43 856.82 851.31 856.72 851.75 L 855.92 851.70 Z" />
</g>
<g id="Group-000000" fill="#272525">
<path fill="rgba(0,0,0,0)" opacity="1.00" d=" M 863.06 850.22 C 866.36 850.37 861.57 853.22 863.06 850.22 Z" />
</g>
<g id="Group-000000" fill="#272525">
<path fill="#272525" opacity="1.00" d=" M 842.11 852.26 C 845.38 852.46 840.56 855.27 842.11 852.26 Z" />
</g>
<g id="Group-000000" fill="#272525">
<path fill="rgba(0,0,0,0)" opacity="1.00" d=" M 391.22 855.29 C 391.79 855.80 391.79 855.80 391.22 855.29 Z" />
</g>
<g id="Group-000000" fill="#272525">
<path fill="#272525" opacity="1.00" d=" M 842.28 855.27 C 842.78 855.79 842.78 855.79 842.28 855.27 Z" />
</g>
<g id="Group-000000" fill="#272525">
<path fill="rgba(0,0,0,0)" opacity="1.00" d=" M 854.36 855.13 C 855.28 855.35 856.20 855.60 857.12 855.89 C 856.41 861.86 856.16 867.87 855.74 873.86 C 855.60 875.44 855.50 877.04 855.44 878.64 C 855.26 882.37 855.21 886.11 855.01 889.85 C 855.49 889.88 856.43 889.95 856.91 889.99 C 856.43 890.03 855.47 890.12 854.99 890.16 C 854.73 896.16 854.28 902.17 854.45 908.19 C 855.76 907.30 857.00 906.32 858.09 905.15 C 859.08 904.22 860.06 903.28 861.06 902.35 C 859.01 904.88 857.13 907.65 854.29 909.37 C 854.17 911.02 854.09 912.66 854.06 914.33 C 858.79 911.39 861.77 906.58 865.74 902.81 C 865.10 901.31 863.65 900.87 862.19 901.39 C 862.73 900.06 863.26 898.73 863.76 897.40 C 864.04 899.11 865.02 900.45 866.36 901.53 C 868.29 899.26 870.20 896.95 872.54 895.10 C 873.84 894.73 875.05 896.80 873.80 897.62 C 868.22 904.73 862.79 912.15 855.44 917.56 C 853.19 918.91 854.04 921.83 853.71 924.02 C 853.64 925.90 853.62 927.80 853.46 929.71 C 853.27 930.32 852.88 931.55 852.69 932.16 C 852.21 931.77 851.24 931.00 850.76 930.61 C 850.52 921.70 851.41 912.79 850.96 903.88 C 847.83 899.93 845.06 895.71 842.39 891.45 C 841.58 890.25 840.57 887.95 842.94 887.96 C 846.83 890.51 848.59 895.23 851.81 898.53 C 851.70 887.37 852.49 876.22 853.28 865.10 C 853.54 861.76 853.58 858.39 854.36 855.13 Z" />
<path fill="rgba(0,0,0,0)" opacity="1.00" d=" M 636.08 900.02 L 637.50 899.30 C 638.77 903.15 637.84 907.19 637.41 911.10 C 636.59 918.27 636.04 925.48 636.40 932.71 C 639.47 930.52 642.41 928.14 645.19 925.59 C 645.78 926.44 646.38 927.30 646.99 928.17 C 645.88 929.39 644.77 930.61 643.69 931.87 C 644.03 932.34 644.70 933.28 645.03 933.76 C 644.56 933.27 643.60 932.29 643.13 931.80 C 641.87 933.38 640.63 934.98 639.53 936.68 C 638.69 937.21 637.86 937.75 637.04 938.30 C 637.00 938.87 636.92 939.99 636.89 940.55 C 636.17 940.15 634.72 939.35 634.00 938.95 C 633.51 936.31 634.17 933.42 633.12 930.96 C 627.78 924.48 621.52 918.67 617.02 911.53 C 617.46 911.22 618.35 910.59 618.79 910.28 C 624.02 914.96 628.37 920.46 633.16 925.57 C 633.22 921.67 633.51 917.79 633.92 913.92 C 632.74 913.59 631.58 913.26 630.43 912.91 C 631.68 913.03 632.95 913.17 634.22 913.33 C 634.05 910.32 634.42 907.35 634.90 904.40 C 634.48 904.52 633.65 904.75 633.24 904.86 C 635.33 904.18 635.24 901.70 636.08 900.02 Z" />
</g>
<g id="Group-000000" fill="#272525">
<path fill="#272525" opacity="1.00" d=" M 385.89 856.19 C 387.26 857.43 388.67 858.63 390.15 859.76 C 389.49 860.22 388.84 860.69 388.20 861.18 C 388.14 861.98 388.04 863.57 387.99 864.37 C 387.23 863.40 386.48 862.43 385.74 861.48 C 383.74 864.32 382.10 867.62 378.89 869.29 C 380.88 865.52 383.65 862.23 385.79 858.54 C 385.82 857.96 385.86 856.78 385.89 856.19 Z" />
</g>
<g id="Group-000000" fill="#272525">
<path fill="#272525" opacity="1.00" d=" M 105.46 868.92 C 105.96 866.24 108.86 865.59 110.98 864.62 C 113.00 866.08 115.48 867.38 116.34 869.90 C 118.20 873.78 117.91 878.15 118.45 882.32 C 120.16 877.71 120.87 872.29 124.94 869.02 C 125.32 870.35 124.89 871.63 124.42 872.87 C 125.22 872.67 126.03 872.47 126.85 872.29 C 129.62 874.90 130.83 878.46 130.53 882.23 C 128.96 883.73 127.32 885.16 125.61 886.51 C 125.69 886.77 125.86 887.28 125.95 887.54 C 123.81 889.01 123.41 891.61 122.93 893.97 C 122.48 894.34 121.58 895.08 121.13 895.45 C 121.51 896.72 121.90 897.98 122.30 899.28 C 121.28 900.85 120.22 902.41 119.12 903.95 C 118.21 903.68 117.29 903.42 116.37 903.17 C 118.40 905.06 119.02 907.69 118.56 910.37 C 116.88 911.59 115.24 912.86 113.63 914.18 C 113.15 908.56 113.36 902.92 113.61 897.31 C 113.95 896.59 114.63 895.15 114.97 894.44 C 115.92 894.94 116.86 895.45 117.80 895.97 C 118.01 895.55 118.44 894.71 118.65 894.29 C 118.28 893.92 117.55 893.16 117.18 892.79 C 117.29 892.37 117.53 891.53 117.64 891.11 C 116.18 891.10 114.71 891.10 113.24 891.11 C 113.23 889.65 113.24 888.22 113.19 886.78 C 115.18 883.06 109.72 878.41 106.67 881.35 C 107.06 882.39 107.36 883.46 107.57 884.57 C 107.61 884.94 107.68 885.68 107.71 886.06 C 106.43 885.64 105.15 885.25 103.87 884.86 C 103.80 882.78 103.75 880.68 104.27 878.66 C 103.21 875.49 104.74 872.02 105.46 868.92 M 124.30 880.19 C 124.63 883.48 127.25 878.60 124.30 880.19 M 121.31 884.16 C 121.84 884.66 121.84 884.66 121.31 884.16 Z" />
<path fill="#272525" opacity="1.00" d=" M 94.06 885.97 C 98.94 884.47 102.92 888.57 104.32 892.85 C 104.41 892.45 104.59 891.66 104.68 891.27 C 106.46 890.45 106.57 892.73 107.11 893.73 C 107.07 894.54 106.98 896.15 106.94 896.95 C 108.19 896.13 109.44 895.30 110.69 894.50 C 111.13 895.10 112.00 896.32 112.43 896.93 C 111.87 897.26 110.75 897.93 110.19 898.26 C 109.58 902.87 110.42 907.45 110.93 912.02 C 107.56 907.45 104.61 902.44 100.29 898.68 C 100.28 900.22 99.44 902.00 100.49 903.41 C 103.84 908.97 108.35 913.80 111.26 919.64 C 110.40 920.78 109.53 921.95 108.67 923.11 C 108.64 922.60 108.58 921.56 108.55 921.05 C 108.22 921.09 107.56 921.18 107.23 921.22 C 105.24 920.89 102.63 921.60 101.18 919.85 C 100.14 918.91 100.77 917.50 100.80 916.34 L 102.10 915.58 L 101.98 917.08 L 103.47 916.93 C 98.56 911.93 95.00 905.73 92.57 899.20 C 91.19 894.94 90.34 889.31 94.06 885.97 Z" />
</g>
<g id="Group-000000" fill="#272525">
<path fill="#272525" opacity="1.00" d=" M 124.94 869.02 C 127.49 867.08 131.69 868.98 132.83 871.94 C 137.54 882.40 134.94 895.13 128.12 904.06 C 130.62 902.48 133.19 899.83 136.41 900.63 C 140.61 901.47 141.36 906.35 142.04 909.87 C 142.62 918.96 139.67 928.53 132.92 934.86 C 129.39 938.21 124.81 942.84 119.52 940.48 C 119.64 945.00 119.90 949.52 119.78 954.04 C 118.66 954.33 117.56 954.62 116.45 954.93 C 116.49 954.51 116.58 953.67 116.62 953.25 C 116.20 952.85 115.36 952.05 114.94 951.65 C 114.38 948.02 115.63 944.17 114.89 940.47 C 104.43 939.69 95.20 933.20 88.97 925.06 C 87.07 921.29 84.38 916.72 86.49 912.52 C 87.26 910.77 89.06 909.33 91.05 909.89 C 94.71 910.81 97.90 913.03 100.72 915.46 L 100.80 916.34 C 100.77 917.50 100.14 918.91 101.18 919.85 C 102.63 921.60 105.24 920.89 107.23 921.22 C 106.39 921.74 105.57 922.28 104.75 922.85 C 105.01 923.58 105.28 924.33 105.55 925.10 C 104.57 926.24 104.15 927.67 103.89 929.15 C 105.63 927.55 107.23 925.80 108.88 924.12 C 108.32 926.46 106.03 928.34 106.45 930.87 C 108.28 932.60 109.28 929.68 109.52 928.25 C 111.21 929.20 113.03 929.87 114.92 930.31 C 115.59 932.63 116.36 934.98 117.83 936.96 C 122.89 928.65 129.98 920.73 130.95 910.67 C 129.59 911.70 128.16 912.76 127.40 914.35 C 124.65 919.59 122.13 925.00 118.53 929.74 C 116.99 924.52 114.68 919.53 113.63 914.18 C 115.24 912.86 116.88 911.59 118.56 910.37 C 119.02 907.69 118.40 905.06 116.37 903.17 C 117.29 903.42 118.21 903.68 119.12 903.95 C 120.22 902.41 121.28 900.85 122.30 899.28 C 121.90 897.98 121.51 896.72 121.13 895.45 C 121.58 895.08 122.48 894.34 122.93 893.97 C 123.41 891.61 123.81 889.01 125.95 887.54 C 125.86 887.28 125.69 886.77 125.61 886.51 C 127.32 885.16 128.96 883.73 130.53 882.23 C 130.83 878.46 129.62 874.90 126.85 872.29 C 126.03 872.47 125.22 872.67 124.42 872.87 C 124.89 871.63 125.32 870.35 124.94 869.02 M 90.19 918.36 C 89.83 919.88 92.34 921.48 93.72 920.85 C 94.00 919.26 91.53 918.15 90.19 918.36 Z" />
</g>
<g id="Group-000000" fill="#272525">
<path fill="rgba(0,0,0,0)" opacity="1.00" d=" M 724.22 869.08 C 724.69 869.05 725.64 868.99 726.11 868.95 C 727.00 872.57 726.10 876.32 726.38 880.01 C 726.23 881.75 727.08 885.38 724.19 884.87 C 723.36 882.33 723.95 879.60 723.76 877.00 C 723.87 874.36 723.17 871.59 724.22 869.08 Z" />
</g>
<g id="Group-000000" fill="#272525">
<path fill="#272525" opacity="1.00" d=" M 845.68 870.06 C 846.23 869.82 847.34 869.35 847.89 869.11 C 848.57 870.77 849.12 872.50 849.25 874.33 C 847.59 873.33 846.49 871.77 845.68 870.06 Z" />
</g>
<g id="Group-000000" fill="#272525">
<path fill="#272525" opacity="1.00" d=" M 366.13 874.30 C 367.49 873.91 367.98 874.43 367.59 875.85 C 366.21 876.23 365.73 875.71 366.13 874.30 Z" />
</g>
<g id="Group-000000" fill="#272525">
<path fill="#272525" opacity="1.00" d=" M 855.44 878.64 C 857.35 879.14 861.06 879.59 859.79 882.53 C 860.34 883.55 862.04 884.52 861.38 885.85 C 860.56 885.96 858.91 886.18 858.08 886.28 C 858.16 886.85 858.31 887.97 858.39 888.54 C 858.80 888.67 859.64 888.93 860.06 889.06 L 861.00 889.33 C 860.78 890.58 860.58 891.84 860.38 893.10 C 861.37 893.42 862.39 893.77 863.41 894.12 C 864.31 893.91 865.21 893.71 866.13 893.52 C 867.30 891.14 868.70 888.87 870.34 886.79 C 870.67 887.14 871.31 887.83 871.64 888.17 C 872.37 886.96 873.09 885.76 873.81 884.55 C 873.92 885.29 874.13 886.76 874.24 887.50 C 876.08 885.82 877.48 883.63 875.53 881.44 C 875.68 881.37 875.99 881.23 876.14 881.16 C 876.72 880.99 877.89 880.66 878.47 880.49 C 879.96 882.06 881.45 883.65 882.92 885.26 C 882.64 886.38 882.37 887.51 882.12 888.65 L 882.64 888.63 C 883.28 888.74 884.54 888.95 885.18 889.06 C 885.43 890.38 885.40 891.74 885.20 893.08 C 884.09 892.03 883.00 890.98 881.91 889.96 C 882.29 891.94 883.16 893.75 885.23 894.45 C 885.30 896.09 884.86 897.58 883.57 898.67 C 883.71 899.03 883.98 899.73 884.11 900.08 C 883.66 900.40 882.75 901.02 882.30 901.33 C 881.43 899.86 880.93 899.90 880.80 901.45 C 880.18 901.09 879.58 900.74 879.00 900.39 C 878.45 903.02 878.45 905.73 879.03 908.37 C 877.88 907.50 876.74 906.65 875.60 905.81 C 874.93 907.77 874.38 909.77 873.93 911.80 C 873.19 911.56 872.46 911.33 871.74 911.12 C 871.69 913.13 871.24 915.10 870.51 916.98 C 869.59 916.22 868.68 915.47 867.78 914.74 C 867.40 916.49 867.01 918.24 866.64 920.02 C 865.14 919.45 863.64 918.89 862.15 918.35 C 862.27 919.66 862.41 920.98 862.55 922.32 C 861.48 921.16 860.42 920.00 859.37 918.85 C 859.51 919.38 859.80 920.45 859.95 920.98 C 857.87 922.01 855.79 923.02 853.71 924.02 C 854.04 921.83 853.19 918.91 855.44 917.56 C 862.79 912.15 868.22 904.73 873.80 897.62 C 875.05 896.80 873.84 894.73 872.54 895.10 C 870.20 896.95 868.29 899.26 866.36 901.53 C 865.02 900.45 864.04 899.11 863.76 897.40 C 863.26 898.73 862.73 900.06 862.19 901.39 C 863.65 900.87 865.10 901.31 865.74 902.81 C 861.77 906.58 858.79 911.39 854.06 914.33 C 854.09 912.66 854.17 911.02 854.29 909.37 C 857.13 907.65 859.01 904.88 861.06 902.35 C 860.06 903.28 859.08 904.22 858.09 905.15 C 857.00 906.32 855.76 907.30 854.45 908.19 C 854.28 902.17 854.73 896.16 854.99 890.16 C 855.47 890.12 856.43 890.03 856.91 889.99 C 856.43 889.95 855.49 889.88 855.01 889.85 C 855.21 886.11 855.26 882.37 855.44 878.64 M 878.35 883.08 C 878.48 886.35 881.38 881.57 878.35 883.08 M 857.20 902.18 C 857.72 902.73 857.72 902.73 857.20 902.18 Z" />
</g>
<g id="Group-000000" fill="#272525">
<path fill="#272525" opacity="1.00" d=" M 106.67 881.35 C 109.72 878.41 115.18 883.06 113.19 886.78 C 112.75 886.29 111.87 885.30 111.44 884.81 C 111.19 885.48 110.70 886.83 110.46 887.51 C 110.94 888.06 111.42 888.62 111.90 889.20 C 111.73 890.22 111.56 891.26 111.40 892.31 L 111.30 892.90 C 109.92 893.23 108.51 893.44 107.11 893.73 C 106.57 892.73 106.46 890.45 104.68 891.27 L 104.01 891.29 C 103.94 889.14 103.89 887.00 103.87 884.86 C 105.15 885.25 106.43 885.64 107.71 886.06 C 107.68 885.68 107.61 884.94 107.57 884.57 C 107.36 883.46 107.06 882.39 106.67 881.35 Z" />
</g>
<g id="Group-000000" fill="#272525">
<path fill="#272525" opacity="1.00" d=" M 124.30 880.19 C 127.25 878.60 124.63 883.48 124.30 880.19 Z" />
</g>
<g id="Group-000000" fill="#272525">
<path fill="#272525" opacity="1.00" d=" M 878.47 880.49 C 879.09 880.34 880.33 880.03 880.95 879.87 C 882.62 882.20 883.95 884.75 884.89 887.47 C 884.33 887.76 883.21 888.34 882.64 888.63 L 882.12 888.65 C 882.37 887.51 882.64 886.38 882.92 885.26 C 881.45 883.65 879.96 882.06 878.47 880.49 Z" />
</g>
<g id="Group-000000" fill="#272525">
<path fill="#272525" opacity="1.00" d=" M 875.53 881.44 C 877.48 883.63 876.08 885.82 874.24 887.50 C 874.13 886.76 873.92 885.29 873.81 884.55 C 873.09 885.76 872.37 886.96 871.64 888.17 C 871.31 887.83 870.67 887.14 870.34 886.79 C 871.82 884.78 873.59 883.01 875.53 881.44 Z" />
</g>
<g id="Group-000000" fill="#272525">
<path fill="#272525" opacity="1.00" d=" M 878.35 883.08 C 881.38 881.57 878.48 886.35 878.35 883.08 Z" />
</g>
<g id="Group-000000" fill="#272525">
<path fill="rgba(0,0,0,0)" opacity="1.00" d=" M 121.31 884.16 C 121.84 884.66 121.84 884.66 121.31 884.16 Z" />
</g>
<g id="Group-000000" fill="#272525">
<path fill="rgba(0,0,0,0)" opacity="1.00" d=" M 390.99 884.54 C 394.28 884.56 389.54 887.61 390.99 884.54 Z" />
</g>
<g id="Group-000000" fill="#272525">
<path fill="#272525" opacity="1.00" d=" M 111.44 884.81 C 111.87 885.30 112.75 886.29 113.19 886.78 C 113.24 888.22 113.23 889.65 113.24 891.11 C 114.71 891.10 116.18 891.10 117.64 891.11 C 117.53 891.53 117.29 892.37 117.18 892.79 C 117.55 893.16 118.28 893.92 118.65 894.29 C 118.44 894.71 118.01 895.55 117.80 895.97 C 116.86 895.45 115.92 894.94 114.97 894.44 C 114.63 895.15 113.95 896.59 113.61 897.31 C 113.32 897.21 112.73 897.02 112.43 896.93 C 112.00 896.32 111.13 895.10 110.69 894.50 C 109.44 895.30 108.19 896.13 106.94 896.95 C 106.98 896.15 107.07 894.54 107.11 893.73 C 108.51 893.44 109.92 893.23 111.30 892.90 C 111.33 892.75 111.37 892.45 111.40 892.31 C 111.56 891.26 111.73 890.22 111.90 889.20 C 111.42 888.62 110.94 888.06 110.46 887.51 C 110.70 886.83 111.19 885.48 111.44 884.81 Z" />
<path fill="#272525" opacity="1.00" d=" M 837.38 906.74 C 838.82 907.70 840.35 908.51 841.95 909.23 C 841.45 910.29 840.87 911.40 841.36 912.61 C 841.07 912.94 840.81 913.29 840.55 913.66 C 839.15 911.68 837.95 907.72 834.88 909.53 C 835.70 908.59 836.51 907.63 837.38 906.74 Z" />
</g>
<g id="Group-000000" fill="#272525">
<path fill="#272525" opacity="1.00" d=" M 846.07 886.28 C 847.49 886.26 847.47 888.72 846.09 888.78 C 844.64 888.74 844.66 886.34 846.07 886.28 Z" />
</g>
<g id="Group-000000" fill="#272525">
<path fill="#272525" opacity="1.00" d=" M 858.08 886.28 C 858.91 886.18 860.56 885.96 861.38 885.85 C 860.94 886.92 860.50 887.98 860.06 889.06 C 859.64 888.93 858.80 888.67 858.39 888.54 C 858.31 887.97 858.16 886.85 858.08 886.28 Z" />
</g>
<g id="Group-000000" fill="#272525">
<path fill="#272525" opacity="1.00" d=" M 375.67 894.60 C 379.09 892.06 382.96 890.04 385.88 886.89 C 386.17 888.15 386.31 889.43 386.46 890.73 C 387.80 890.10 389.15 889.47 390.51 888.86 C 391.18 889.64 391.86 890.44 392.54 891.24 C 392.52 891.96 392.51 892.70 392.50 893.45 C 392.87 893.72 393.61 894.28 393.98 894.55 C 392.81 895.19 391.65 895.86 390.49 896.51 C 388.83 895.31 387.46 895.57 386.70 897.53 C 387.45 897.44 388.96 897.26 389.71 897.16 C 386.08 900.86 380.47 901.49 376.20 904.31 C 376.08 906.61 375.94 908.91 375.71 911.22 L 375.61 912.09 C 374.60 906.38 375.66 900.41 375.67 894.60 M 385.17 895.23 C 385.68 895.74 385.68 895.74 385.17 895.23 Z" />
</g>
<g id="Group-000000" fill="#272525">
<path fill="#272525" opacity="1.00" d=" M 394.19 890.09 C 397.17 888.49 394.42 893.36 394.19 890.09 Z" />
</g>
<g id="Group-000000" fill="#272525">
<path fill="rgba(0,0,0,0)" opacity="1.00" d=" M 111.40 892.31 C 111.37 892.45 111.33 892.75 111.30 892.90 L 111.40 892.31 Z" />
</g>
<g id="Group-000000" fill="#272525">
<path fill="#272525" opacity="1.00" d=" M 624.10 894.12 C 625.10 893.54 625.90 892.14 627.20 892.38 C 631.15 893.68 631.39 900.24 636.08 900.02 C 635.24 901.70 635.33 904.18 633.24 904.86 C 633.65 904.75 634.48 904.52 634.90 904.40 C 634.42 907.35 634.05 910.32 634.22 913.33 C 632.95 913.17 631.68 913.03 630.43 912.91 C 631.58 913.26 632.74 913.59 633.92 913.92 C 633.51 917.79 633.22 921.67 633.16 925.57 C 628.37 920.46 624.02 914.96 618.79 910.28 C 618.35 910.59 617.46 911.22 617.02 911.53 C 621.52 918.67 627.78 924.48 633.12 930.96 C 634.17 933.42 633.51 936.31 634.00 938.95 C 633.79 940.56 633.42 942.14 633.04 943.73 C 629.78 943.21 626.37 943.11 623.37 941.61 C 620.42 940.13 618.11 937.68 616.08 935.14 C 616.84 935.02 618.35 934.79 619.10 934.67 C 618.33 932.22 617.19 929.92 615.85 927.74 C 616.21 927.66 616.93 927.50 617.29 927.42 C 617.37 927.41 617.54 927.39 617.62 927.38 L 617.58 927.32 C 617.30 926.90 616.74 926.05 616.46 925.63 C 616.49 925.20 616.56 924.35 616.59 923.93 C 615.48 924.57 614.58 925.93 613.19 925.84 C 613.14 924.69 613.19 923.56 613.24 922.44 C 612.58 921.23 611.90 920.03 611.20 918.88 C 609.77 917.42 609.54 915.66 611.84 915.17 C 613.36 915.05 614.83 912.37 612.31 912.94 C 611.64 913.01 610.32 913.15 609.66 913.22 C 609.39 909.92 609.66 906.39 612.07 903.89 C 615.51 901.64 618.99 904.63 621.94 906.28 C 621.37 905.24 620.81 904.20 620.27 903.18 C 620.83 900.91 622.58 900.17 624.73 900.40 C 624.39 899.79 624.06 899.20 623.74 898.61 C 623.31 898.58 622.46 898.50 622.04 898.47 C 621.86 897.46 620.92 896.43 621.38 895.44 C 622.26 894.96 623.17 894.52 624.10 894.12 M 630.22 900.23 C 630.77 900.71 630.77 900.71 630.22 900.23 M 623.94 902.30 C 625.25 903.68 626.57 905.05 627.92 906.42 C 627.91 904.58 627.93 902.77 628.01 900.95 C 626.67 901.46 625.30 901.89 623.94 902.30 M 630.39 902.32 C 629.30 902.78 628.58 904.87 630.18 905.20 C 632.29 905.98 632.35 901.26 630.39 902.32 M 629.33 906.39 C 629.85 906.89 629.85 906.89 629.33 906.39 M 627.02 908.39 C 626.74 909.79 627.28 910.34 628.66 910.03 C 628.92 908.61 628.37 908.07 627.02 908.39 M 624.20 912.34 C 625.66 912.66 628.64 915.27 628.38 912.21 C 626.27 912.36 625.34 910.55 624.30 909.12 C 624.26 910.18 624.22 911.24 624.20 912.34 M 630.34 909.08 C 629.89 910.47 630.36 910.98 631.77 910.60 C 632.21 909.19 631.73 908.69 630.34 909.08 M 628.35 915.11 C 628.46 918.41 631.37 913.58 628.35 915.11 M 623.17 931.23 C 623.72 931.71 623.72 931.71 623.17 931.23 M 627.15 932.38 C 626.36 933.33 627.61 935.35 628.82 934.62 C 629.65 933.65 628.32 931.67 627.15 932.38 Z" />
</g>
<g id="Group-000000" fill="#272525">
<path fill="#272525" opacity="1.00" d=" M 639.28 894.02 C 640.38 894.20 641.49 894.40 642.61 894.61 C 641.99 895.93 641.37 897.26 640.74 898.59 C 640.03 897.13 639.60 895.58 639.28 894.02 Z" />
</g>
<g id="Group-000000" fill="#272525">
<path fill="rgba(0,0,0,0)" opacity="1.00" d=" M 385.17 895.23 C 385.68 895.74 385.68 895.74 385.17 895.23 Z" />
</g>
<g id="Group-000000" fill="#272525">
<path fill="rgba(0,0,0,0)" opacity="1.00" d=" M 110.19 898.26 C 110.75 897.93 111.87 897.26 112.43 896.93 C 112.73 897.02 113.32 897.21 113.61 897.31 C 113.36 902.92 113.15 908.56 113.63 914.18 C 114.68 919.53 116.99 924.52 118.53 929.74 C 122.13 925.00 124.65 919.59 127.40 914.35 C 128.16 912.76 129.59 911.70 130.95 910.67 C 129.98 920.73 122.89 928.65 117.83 936.96 C 116.36 934.98 115.59 932.63 114.92 930.31 C 113.90 926.68 112.82 923.07 111.26 919.64 C 108.35 913.80 103.84 908.97 100.49 903.41 C 99.44 902.00 100.28 900.22 100.29 898.68 C 104.61 902.44 107.56 907.45 110.93 912.02 C 110.42 907.45 109.58 902.87 110.19 898.26 Z" />
</g>
<g id="Group-000000" fill="#272525">
<path fill="rgba(0,0,0,0)" opacity="1.00" d=" M 259.94 896.95 C 260.43 896.93 261.40 896.88 261.89 896.85 C 262.55 901.21 262.49 905.68 262.16 910.07 C 261.59 910.08 260.45 910.11 259.88 910.12 C 259.79 905.75 259.22 901.25 259.94 896.95 Z" />
</g>
<g id="Group-000000" fill="#272525">
<path fill="rgba(0,0,0,0)" opacity="1.00" d=" M 630.22 900.23 C 630.77 900.71 630.77 900.71 630.22 900.23 Z" />
</g>
<g id="Group-000000" fill="#272525">
<path fill="rgba(0,0,0,0)" opacity="1.00" d=" M 880.80 901.45 C 880.93 899.90 881.43 899.86 882.30 901.33 L 881.59 901.84 L 880.80 901.45 Z" />
</g>
<g id="Group-000000" fill="#272525">
<path fill="#272525" opacity="1.00" d=" M 623.94 902.30 C 625.30 901.89 626.67 901.46 628.01 900.95 C 627.93 902.77 627.91 904.58 627.92 906.42 C 626.57 905.05 625.25 903.68 623.94 902.30 Z" />
</g>
<g id="Group-000000" fill="#272525">
<path fill="#272525" opacity="1.00" d=" M 630.39 902.32 C 632.35 901.26 632.29 905.98 630.18 905.20 C 628.58 904.87 629.30 902.78 630.39 902.32 Z" />
</g>
<g id="Group-000000" fill="#272525">
<path fill="rgba(0,0,0,0)" opacity="1.00" d=" M 857.20 902.18 C 857.72 902.73 857.72 902.73 857.20 902.18 Z" />
</g>
<g id="Group-000000" fill="#272525">
<path fill="rgba(0,0,0,0)" opacity="1.00" d=" M 629.33 906.39 C 629.85 906.89 629.85 906.89 629.33 906.39 Z" />
</g>
<g id="Group-000000" fill="#272525">
<path fill="#272525" opacity="1.00" d=" M 627.02 908.39 C 628.37 908.07 628.92 908.61 628.66 910.03 C 627.28 910.34 626.74 909.79 627.02 908.39 Z" />
</g>
<g id="Group-000000" fill="#272525">
<path fill="#272525" opacity="1.00" d=" M 344.21 909.32 C 349.00 907.94 353.86 911.72 354.65 916.45 C 358.48 913.34 364.12 917.50 364.10 921.94 C 364.95 924.93 362.13 926.72 359.97 928.02 C 363.18 929.09 366.64 931.21 366.90 934.96 C 366.41 941.29 359.96 945.86 353.92 945.99 C 352.33 946.30 351.25 945.01 350.12 944.20 C 350.78 942.10 351.65 940.10 352.75 938.21 C 352.01 937.23 351.27 936.26 350.54 935.30 C 352.53 935.21 354.53 935.14 356.53 935.08 C 354.41 932.59 352.28 930.12 350.10 927.68 C 350.61 927.50 351.61 927.13 352.11 926.94 C 351.51 925.75 350.91 924.56 350.32 923.39 C 350.97 922.36 351.65 921.36 352.32 920.36 C 350.46 920.96 348.57 921.49 346.64 921.78 C 346.69 922.57 346.79 924.15 346.84 924.95 C 345.16 925.20 343.45 925.31 341.77 925.40 C 342.47 927.64 344.68 927.92 346.62 928.50 C 346.86 933.38 346.97 938.29 347.11 943.18 C 344.57 942.28 342.19 941.01 339.81 939.78 C 339.35 941.24 339.72 942.39 340.91 943.24 C 343.69 945.34 346.51 947.79 350.09 948.27 C 350.99 954.62 349.65 961.07 350.73 967.41 C 352.66 967.19 352.37 965.57 352.36 964.23 C 353.46 964.25 354.55 964.27 355.65 964.31 L 355.76 964.31 C 356.39 966.47 359.87 970.84 355.99 971.52 C 339.65 970.60 323.30 971.28 306.94 971.10 C 306.75 970.20 306.58 969.35 306.39 968.48 C 305.76 968.12 305.14 967.78 304.53 967.44 L 304.52 967.30 C 318.66 966.97 332.81 967.38 346.94 967.13 C 346.83 960.81 346.99 954.49 347.15 948.18 C 342.16 949.16 335.09 950.30 332.18 944.94 C 329.89 939.66 334.38 934.50 339.43 933.45 C 337.54 931.06 334.07 930.12 333.07 927.00 C 332.30 923.49 334.15 919.92 337.04 917.95 C 337.84 914.18 339.82 909.73 344.21 909.32 Z" />
</g>
<g id="Group-000000" fill="#272525">
<path fill="#272525" opacity="1.00" d=" M 624.20 912.34 C 624.22 911.24 624.26 910.18 624.30 909.12 C 625.34 910.55 626.27 912.36 628.38 912.21 C 628.64 915.27 625.66 912.66 624.20 912.34 Z" />
</g>
<g id="Group-000000" fill="#272525">
<path fill="#272525" opacity="1.00" d=" M 630.34 909.08 C 631.73 908.69 632.21 909.19 631.77 910.60 C 630.36 910.98 629.89 910.47 630.34 909.08 Z" />
</g>
<g id="Group-000000" fill="#272525">
<path fill="rgba(0,0,0,0)" opacity="1.00" d=" M 703.19 908.96 C 703.63 908.81 704.51 908.50 704.95 908.35 L 705.71 909.12 C 705.87 913.08 705.66 917.04 705.70 921.01 C 706.16 922.85 702.54 923.28 703.11 921.03 C 702.81 917.01 702.95 912.97 703.19 908.96 Z" />
</g>
<g id="Group-000000" fill="#272525">
<path fill="#272525" opacity="1.00" d=" M 612.31 912.94 C 614.83 912.37 613.36 915.05 611.84 915.17 C 611.50 915.08 610.81 914.90 610.46 914.80 C 610.56 913.89 611.17 913.27 612.31 912.94 Z" />
</g>
<g id="Group-000000" fill="#272525">
<path fill="rgba(0,0,0,0)" opacity="1.00" d=" M 628.35 915.11 C 631.37 913.58 628.46 918.41 628.35 915.11 Z" />
</g>
<g id="Group-000000" fill="#272525">
<path fill="rgba(0,0,0,0)" opacity="1.00" d=" M 537.18 916.09 C 540.13 915.08 539.77 919.25 539.49 920.99 C 538.91 923.70 541.67 928.30 538.11 929.55 L 537.08 928.93 C 537.23 924.68 535.95 920.16 537.18 916.09 Z" />
</g>
<g id="Group-000000" fill="#272525">
<path fill="#272525" opacity="1.00" d=" M 90.19 918.36 C 91.53 918.15 94.00 919.26 93.72 920.85 C 92.34 921.48 89.83 919.88 90.19 918.36 Z" />
</g>
<g id="Group-000000" fill="#272525">
<path fill="#272525" opacity="1.00" d=" M 651.18 920.21 C 652.05 919.90 652.92 919.59 653.80 919.30 C 653.87 919.86 653.99 920.97 654.05 921.53 C 653.68 922.10 652.94 923.23 652.56 923.79 C 651.57 923.45 650.58 923.11 649.60 922.79 C 650.22 922.49 651.44 921.89 652.05 921.59 C 651.84 921.24 651.40 920.56 651.18 920.21 Z" />
</g>
<g id="Group-000000" fill="#272525">
<path fill="#272525" opacity="1.00" d=" M 846.09 919.30 C 847.51 918.75 847.99 919.18 847.52 920.59 C 846.08 921.13 845.61 920.70 846.09 919.30 Z" />
</g>
<g id="Group-000000" fill="#272525">
<path fill="#272525" opacity="1.00" d=" M 108.67 923.11 C 109.53 921.95 110.40 920.78 111.26 919.64 C 112.82 923.07 113.90 926.68 114.92 930.31 C 113.03 929.87 111.21 929.20 109.52 928.25 C 109.28 929.68 108.28 932.60 106.45 930.87 C 106.03 928.34 108.32 926.46 108.88 924.12 C 107.23 925.80 105.63 927.55 103.89 929.15 C 104.15 927.67 104.57 926.24 105.55 925.10 C 105.28 924.33 105.01 923.58 104.75 922.85 C 105.57 922.28 106.39 921.74 107.23 921.22 C 107.56 921.18 108.22 921.09 108.55 921.05 C 108.58 921.56 108.64 922.60 108.67 923.11 Z" />
</g>
<g id="Group-000000" fill="#272525">
<path fill="#272525" opacity="1.00" d=" M 804.87 927.58 C 806.46 925.96 808.32 924.06 810.82 924.44 C 816.11 925.43 819.62 933.11 815.29 937.11 L 814.84 937.07 C 811.55 936.67 810.32 940.21 808.23 941.98 C 807.68 939.71 807.23 937.46 806.70 935.21 C 807.20 935.30 808.20 935.47 808.69 935.56 C 807.37 935.05 806.58 933.94 805.92 932.78 L 805.85 931.99 C 806.18 931.10 806.52 930.23 806.89 929.37 C 806.38 928.92 805.38 928.03 804.87 927.58 Z" />
</g>
<g id="Group-000000" fill="#272525">
<path fill="rgba(0,0,0,0)" opacity="1.00" d=" M 617.29 927.42 L 617.58 927.32 L 617.62 927.38 C 617.54 927.39 617.37 927.41 617.29 927.42 Z" />
</g>
<g id="Group-000000" fill="#272525">
<path fill="#272525" opacity="1.00" d=" M 350.10 927.68 C 352.28 930.12 354.41 932.59 356.53 935.08 C 354.53 935.14 352.53 935.21 350.54 935.30 C 351.27 936.26 352.01 937.23 352.75 938.21 C 351.65 940.10 350.78 942.10 350.12 944.20 C 350.07 938.69 350.16 933.18 350.10 927.68 Z" />
</g>
<g id="Group-000000" fill="#272525">
<path fill="#272525" opacity="1.00" d=" M 853.46 929.71 C 854.66 930.16 855.88 930.60 857.12 931.03 C 856.52 938.26 857.34 945.51 856.66 952.74 C 858.54 950.93 861.13 947.64 863.93 949.98 C 865.81 952.42 865.47 955.89 865.92 958.83 C 869.33 954.37 872.31 949.21 877.22 946.26 C 880.17 944.26 884.43 946.57 884.47 950.10 C 884.67 956.02 881.85 961.44 880.47 967.07 C 894.31 966.75 908.15 967.14 921.98 967.15 C 924.15 966.73 924.31 970.62 922.06 970.39 C 908.73 970.58 895.39 970.31 882.06 970.52 C 880.00 970.44 876.18 969.92 876.88 967.00 C 878.40 961.05 881.81 955.28 880.86 948.93 C 879.65 949.20 878.32 949.28 877.41 950.22 C 872.66 954.41 869.50 960.03 866.55 965.54 C 864.81 967.02 862.74 964.84 862.93 963.02 C 862.31 959.82 864.42 955.46 861.12 953.32 C 856.38 956.75 858.03 963.25 856.83 968.25 C 853.83 968.00 850.69 968.28 847.81 967.38 C 845.38 966.48 845.92 963.55 845.88 961.55 C 846.68 961.50 848.27 961.42 849.07 961.37 L 849.05 962.60 L 849.22 962.63 C 850.24 957.83 851.87 953.05 851.40 948.08 C 850.96 942.27 852.40 936.28 850.76 930.61 C 851.24 931.00 852.21 931.77 852.69 932.16 C 852.88 931.55 853.27 930.32 853.46 929.71 M 851.28 962.35 C 850.19 962.66 849.54 964.92 851.04 965.11 C 852.26 964.95 852.74 962.39 851.28 962.35 Z" />
</g>
<g id="Group-000000" fill="#272525">
<path fill="rgba(0,0,0,0)" opacity="1.00" d=" M 623.17 931.23 C 623.72 931.71 623.72 931.71 623.17 931.23 Z" />
</g>
<g id="Group-000000" fill="#272525">
<path fill="#272525" opacity="1.00" d=" M 627.15 932.38 C 628.32 931.67 629.65 933.65 628.82 934.62 C 627.61 935.35 626.36 933.33 627.15 932.38 Z" />
</g>
<g id="Group-000000" fill="#272525">
<path fill="rgba(0,0,0,0)" opacity="1.00" d=" M 800.39 942.76 C 799.44 941.43 801.69 939.65 802.90 940.50 C 803.82 941.86 801.67 943.88 800.39 942.76 Z" />
</g>
<g id="Group-000000" fill="#272525">
<path fill="#272525" opacity="1.00" d=" M 114.94 951.65 C 115.36 952.05 116.20 952.85 116.62 953.25 C 116.58 953.67 116.49 954.51 116.45 954.93 C 117.56 954.62 118.66 954.33 119.78 954.04 C 119.30 956.43 121.31 960.41 118.34 961.54 C 118.97 961.64 119.60 961.75 120.23 961.88 C 120.04 963.61 119.94 965.37 119.93 967.14 C 130.71 967.28 141.51 967.40 152.28 967.04 C 152.36 968.36 152.48 969.69 152.64 971.02 C 135.44 971.13 118.22 971.14 101.01 971.08 C 99.53 968.32 101.84 965.61 102.14 962.86 C 99.28 963.31 97.23 969.12 94.40 965.70 C 93.58 963.13 94.28 960.33 94.12 957.69 C 88.06 957.84 86.67 965.12 85.48 969.80 C 81.28 969.61 82.84 964.49 84.01 961.95 C 85.91 958.15 89.18 953.37 94.01 953.95 C 97.09 954.74 97.55 958.26 97.24 960.95 C 99.25 959.81 101.62 959.15 103.86 960.07 C 106.11 961.77 105.12 964.94 104.87 967.31 C 108.17 967.14 111.49 967.80 114.77 967.23 C 114.72 962.03 114.78 956.84 114.94 951.65 Z" />
</g>
<g id="Group-000000" fill="#272525">
<path fill="#272525" opacity="1.00" d=" M 355.27 954.23 C 356.61 952.55 359.02 953.48 360.36 954.65 C 362.98 957.18 364.79 960.50 365.99 963.93 C 366.87 965.31 365.66 967.44 364.01 966.48 C 360.08 965.26 360.56 959.71 357.59 957.36 C 354.68 958.00 355.68 962.14 355.65 964.31 C 354.55 964.27 353.46 964.25 352.36 964.23 C 352.42 960.75 352.54 956.78 355.27 954.23 Z" />
</g>
<g id="Group-000000" fill="#272525">
<path fill="rgba(0,0,0,0)" opacity="1.00" d=" M 851.28 962.35 C 852.74 962.39 852.26 964.95 851.04 965.11 C 849.54 964.92 850.19 962.66 851.28 962.35 Z" />
</g>
</g></svg>