<svg xmlns="http://www.w3.org/2000/svg" viewBox="0 0 1024 1024" version="1.1">
<g id="Parent-Group"><g id="Group-rgba(0,0,0,0)" fill="rgba(0,0,0,0)">
<path fill="rgba(0,0,0,0)" opacity="1.00" d=" M 0.00 0.00 L 628.18 0.00 C 628.21 85.17 628.06 170.40 628.30 255.54 C 621.03 269.24 613.93 283.41 611.33 298.87 C 609.40 311.76 609.54 325.57 615.56 337.43 C 617.60 342.10 621.03 345.90 623.87 350.05 C 622.43 361.00 616.53 370.72 611.27 380.23 C 616.27 383.58 622.04 385.49 627.96 386.43 C 627.62 388.72 628.42 391.66 626.44 393.35 C 604.27 409.53 586.60 432.61 578.78 459.08 C 575.96 468.29 575.14 477.92 573.42 487.35 C 563.35 485.91 553.16 485.69 543.08 484.49 C 533.84 482.30 524.56 480.22 515.18 478.69 C 513.50 478.48 511.64 478.09 510.13 479.08 C 509.44 480.52 509.85 482.08 510.78 483.30 C 513.23 486.80 516.46 489.65 519.61 492.49 C 515.44 494.63 511.63 497.35 507.68 499.85 C 505.41 501.38 502.57 500.68 500.04 500.53 C 495.69 500.20 491.32 499.61 486.97 499.96 C 484.90 499.85 483.48 503.26 485.77 504.07 C 491.83 507.75 498.87 509.98 503.97 515.10 C 502.37 518.57 500.77 523.44 504.58 526.12 C 506.32 526.12 508.08 526.08 509.83 526.04 C 510.23 527.82 510.08 530.01 511.56 531.36 C 512.84 532.08 514.30 532.36 515.69 532.83 C 516.20 537.29 520.63 539.24 522.53 542.96 C 524.00 543.28 525.49 543.58 526.99 543.82 C 536.37 545.57 545.67 547.77 555.11 549.25 C 569.12 551.33 583.30 553.93 597.50 552.26 C 600.28 551.84 604.15 550.38 604.11 547.05 C 601.30 541.70 595.84 538.49 592.14 533.82 C 599.08 533.21 606.01 532.48 612.91 531.50 C 604.37 548.70 599.54 567.38 595.54 586.07 C 591.35 606.22 588.42 626.61 585.13 646.93 C 580.70 675.61 576.52 704.33 572.71 733.11 C 571.18 744.29 569.91 755.52 568.06 766.67 C 546.81 767.06 525.55 767.65 504.29 767.49 C 504.40 755.46 505.27 743.46 506.17 731.47 C 507.45 730.67 508.72 729.85 509.99 729.03 C 508.76 727.95 507.83 726.20 506.06 726.00 C 496.57 724.87 487.00 725.67 477.48 725.77 C 477.47 723.04 477.49 720.32 477.54 717.60 C 496.34 709.90 511.08 694.24 520.39 676.44 C 522.21 672.29 525.29 666.97 522.27 662.71 C 520.00 659.68 515.95 661.67 513.07 662.46 C 497.51 668.02 486.12 681.09 477.92 694.94 C 477.57 684.28 478.18 673.59 477.37 662.94 C 477.38 661.40 477.91 659.93 478.37 658.48 C 483.72 643.43 486.66 627.68 489.89 612.07 C 490.49 607.10 492.30 602.35 492.79 597.38 C 492.34 597.24 491.44 596.96 491.00 596.81 C 488.06 603.52 487.46 610.95 485.55 617.97 C 482.00 632.28 479.30 646.98 473.47 660.59 C 470.54 665.67 471.66 671.73 470.04 677.18 C 465.62 671.62 462.83 665.02 459.19 658.97 C 451.75 645.46 443.77 632.09 433.39 620.60 C 429.79 616.77 425.50 613.02 420.11 612.23 C 417.29 611.54 414.69 614.28 414.71 617.00 C 414.64 622.25 416.46 627.29 417.87 632.29 C 422.75 647.78 429.03 662.89 437.16 676.97 C 443.82 688.47 452.53 698.67 462.13 707.83 C 464.22 709.96 467.00 711.47 468.71 713.92 C 468.65 718.08 468.27 722.23 467.90 726.37 C 463.92 726.51 459.92 726.53 455.98 727.15 C 454.40 727.17 453.88 728.76 454.35 730.06 C 456.41 742.56 455.47 755.49 458.91 767.76 C 439.08 767.41 419.26 768.14 399.44 767.95 C 399.49 746.99 399.27 726.02 399.82 705.06 C 399.62 656.97 401.39 608.81 397.63 560.81 C 403.18 559.20 409.51 558.16 413.40 553.45 C 418.63 547.32 418.53 538.76 418.27 531.17 C 422.59 531.36 426.91 531.72 431.25 531.82 C 436.47 536.46 443.95 538.54 450.64 536.00 C 453.00 535.44 455.32 534.13 457.80 534.63 C 461.14 535.15 464.86 535.89 467.91 533.95 C 470.47 532.82 471.50 530.14 472.85 527.91 C 475.15 525.82 477.81 523.54 477.70 520.12 C 477.69 516.07 480.65 511.68 478.04 507.93 C 475.43 505.15 471.58 504.09 468.23 502.49 C 463.62 500.49 458.99 498.51 454.76 495.78 C 458.07 492.63 462.47 490.62 465.11 486.80 C 466.94 484.54 465.11 480.36 461.99 481.05 C 454.09 481.73 447.29 486.19 440.18 489.27 C 438.48 490.32 436.90 488.51 435.37 487.93 C 435.32 485.23 435.23 482.52 434.99 479.83 C 433.09 464.66 430.08 449.60 425.72 434.94 C 421.16 419.80 414.77 405.15 406.14 391.88 C 397.84 378.79 387.65 366.98 376.51 356.24 C 372.55 352.63 367.97 349.33 365.71 344.29 C 363.68 340.20 363.50 335.53 363.75 331.06 C 371.73 330.45 380.18 329.69 386.99 325.06 C 396.12 318.69 402.08 308.80 406.57 298.83 C 413.76 282.55 411.90 264.22 409.30 247.13 C 407.45 235.62 404.66 224.27 400.79 213.27 C 408.41 213.09 416.24 211.15 422.20 206.19 C 429.87 200.21 433.25 189.25 430.04 180.03 C 427.80 173.22 421.91 168.06 415.28 165.64 C 408.18 162.76 400.21 163.31 392.92 165.15 C 385.96 167.00 379.20 169.89 371.93 170.31 C 360.32 170.97 348.65 170.91 337.09 169.64 C 328.38 168.90 319.63 167.37 310.88 168.39 C 304.84 169.20 298.59 171.76 295.12 177.02 C 291.37 182.48 290.66 189.23 290.00 195.64 C 281.32 197.94 273.85 204.60 271.13 213.23 C 267.33 224.88 269.64 237.42 272.91 248.91 C 278.46 267.34 285.70 285.82 298.26 300.69 C 302.07 305.47 307.22 308.85 311.75 312.88 C 310.99 319.08 310.33 325.29 309.40 331.46 C 303.03 338.95 299.44 348.49 292.56 355.59 C 280.65 364.56 268.73 373.60 257.95 383.95 C 246.38 394.93 237.79 408.66 230.88 422.94 C 219.64 446.55 212.35 472.75 214.24 499.08 C 215.22 513.84 220.67 527.81 226.97 541.04 C 232.26 552.15 237.88 563.12 244.23 573.66 C 247.42 578.72 250.77 584.13 256.20 587.05 C 257.87 588.13 259.80 586.95 261.53 586.71 C 264.64 590.13 267.60 593.68 270.85 596.98 C 265.12 645.38 258.74 693.71 253.23 742.14 C 252.22 750.87 251.12 759.59 250.02 768.31 C 245.98 768.38 241.94 768.36 237.90 768.35 C 239.67 758.23 241.27 748.08 242.50 737.88 C 242.43 736.11 244.31 735.48 245.37 734.49 C 243.23 729.95 237.92 730.32 233.70 730.30 C 233.01 725.43 231.48 720.75 230.59 715.94 C 231.74 713.15 233.66 710.78 235.17 708.18 C 247.19 688.48 252.26 664.97 251.23 642.03 C 250.63 632.88 249.42 623.59 245.95 615.04 C 245.11 612.91 243.06 610.00 240.43 611.35 C 236.52 614.81 234.61 619.92 232.52 624.58 C 226.40 639.90 222.07 655.94 219.40 672.21 C 215.00 654.24 211.02 635.92 202.78 619.23 C 200.49 615.15 198.05 610.48 193.51 608.59 C 190.72 607.39 188.23 610.35 187.82 612.88 C 186.45 622.21 186.97 631.71 187.64 641.09 C 188.35 652.44 189.90 663.74 191.95 674.93 C 193.87 684.60 196.04 694.32 199.89 703.43 C 191.43 696.24 182.21 689.07 171.01 686.99 C 168.42 686.59 165.02 685.81 163.11 688.16 C 161.04 690.82 162.46 694.39 163.86 697.03 C 171.25 710.33 182.80 720.94 195.73 728.77 C 197.23 729.71 198.71 730.69 200.15 731.72 C 199.09 734.23 199.68 736.68 202.07 738.09 C 203.55 748.14 203.92 758.30 203.90 768.44 C 186.91 768.34 169.91 768.54 152.92 768.41 C 151.29 768.54 148.60 768.06 148.39 770.35 C 146.14 778.34 147.07 786.90 149.33 794.78 C 157.84 795.25 166.55 794.94 175.15 795.28 C 172.94 813.41 172.87 831.71 172.26 849.95 C 172.14 868.07 171.33 886.20 171.36 904.32 C 140.58 904.91 109.76 904.06 78.98 904.83 C 76.84 904.78 76.98 907.30 76.73 908.79 C 83.83 909.52 90.96 908.99 98.07 908.87 C 122.52 908.89 146.96 908.79 171.41 908.97 C 171.03 917.28 171.18 925.61 171.43 933.93 C 176.79 933.91 183.69 932.00 185.06 926.05 C 185.22 920.35 184.38 914.64 184.69 908.93 C 193.72 908.90 202.75 908.55 211.77 909.09 C 211.70 914.14 210.51 919.99 214.56 923.95 C 217.71 922.39 221.30 921.43 223.95 919.04 C 224.28 915.61 223.76 912.17 223.52 908.76 C 226.76 908.76 229.99 908.78 233.23 908.85 C 231.71 923.17 229.61 937.44 228.22 951.78 C 247.43 956.66 267.23 959.08 287.05 958.90 C 296.94 959.07 306.82 958.44 316.70 958.07 C 315.87 954.45 314.60 950.74 311.72 948.23 C 307.69 944.73 302.90 942.27 298.22 939.77 C 290.42 935.91 282.51 932.19 274.33 929.20 C 276.18 922.40 277.42 915.37 279.88 908.78 C 301.27 908.33 322.70 908.44 344.11 908.37 C 344.29 920.19 344.67 932.01 344.90 943.83 C 367.26 944.64 389.63 945.66 412.01 945.17 C 422.13 944.54 432.31 943.94 442.23 941.69 C 441.34 939.71 440.39 937.64 438.60 936.32 C 433.75 932.42 427.79 930.36 422.07 928.12 C 413.83 925.04 405.55 922.07 397.13 919.55 C 397.21 915.73 397.26 911.92 397.27 908.11 C 431.92 907.71 466.58 907.70 501.23 907.56 C 500.65 916.15 500.94 924.76 501.15 933.36 C 506.78 933.96 513.98 931.32 514.93 925.07 C 514.51 919.27 514.35 913.46 514.65 907.65 C 522.07 907.63 529.49 907.56 536.91 907.49 C 536.81 912.02 537.52 916.53 537.39 921.07 C 537.24 923.80 538.09 926.61 539.94 928.67 C 543.52 927.66 547.91 926.31 549.87 922.94 C 550.01 917.82 549.03 912.73 549.06 907.61 C 573.71 907.12 598.39 907.39 623.04 907.10 C 623.82 911.98 624.81 916.83 626.00 921.63 C 611.58 926.31 597.29 931.45 583.38 937.50 C 576.92 940.29 569.51 944.43 568.09 951.97 C 570.87 953.18 574.00 952.72 576.96 952.85 C 594.38 953.10 611.75 951.51 629.05 949.71 C 638.94 948.80 649.24 947.94 658.02 942.86 C 659.06 935.93 657.13 928.90 656.15 922.04 C 656.38 917.06 657.38 912.12 657.24 907.11 C 668.05 906.82 678.89 906.71 689.70 907.05 C 690.90 914.95 692.37 922.81 694.09 930.62 C 685.38 934.07 675.61 935.96 668.57 942.57 C 662.35 948.36 655.23 953.36 650.26 960.35 C 648.69 962.24 648.50 964.69 648.65 967.06 C 658.75 966.25 668.62 963.77 678.51 961.71 C 690.67 959.08 702.78 956.20 715.01 953.95 C 719.54 953.18 724.00 951.00 726.63 947.11 C 726.72 939.90 721.72 933.28 723.54 926.08 C 724.38 919.68 724.79 913.24 725.43 906.83 C 725.87 906.80 726.75 906.74 727.19 906.71 C 826.12 905.56 925.06 907.00 1024.00 906.92 L 1024.00 1024.00 L 0.00 1024.00 L 0.00 0.00 M 502.90 162.83 C 497.76 163.54 492.39 164.09 487.81 166.70 C 483.50 169.23 482.30 174.52 481.49 179.07 C 480.02 189.67 481.17 200.41 482.15 211.00 C 483.37 221.05 484.26 231.17 486.46 241.07 C 486.91 243.74 490.16 242.87 492.10 243.16 C 492.81 247.06 492.61 251.16 494.21 254.86 C 496.46 255.85 499.18 256.13 501.04 254.20 C 504.98 251.70 506.93 246.17 512.01 245.72 C 525.55 243.10 539.24 241.14 553.03 240.63 C 561.33 240.02 569.72 240.85 577.94 239.40 C 582.22 238.62 585.82 235.67 588.02 231.99 C 591.62 226.09 593.21 219.22 594.32 212.48 C 595.87 201.76 596.42 190.69 593.91 180.07 C 592.77 175.59 590.68 170.96 586.57 168.47 C 579.87 164.25 571.76 163.50 564.11 162.40 C 543.80 159.96 523.16 160.01 502.90 162.83 M 442.05 568.11 C 436.85 571.39 436.16 578.37 436.22 583.97 C 437.11 599.66 443.63 614.61 452.42 627.46 C 456.26 632.76 460.65 638.23 466.97 640.60 C 466.31 648.39 465.95 656.46 468.41 664.01 C 468.64 665.37 469.85 666.00 471.04 666.47 C 468.99 655.41 469.55 644.01 471.96 633.04 C 475.43 616.26 480.29 598.92 491.66 585.64 C 492.98 584.51 494.65 582.05 496.60 583.40 C 499.41 588.42 499.15 594.47 498.87 600.04 C 496.95 618.23 491.41 635.97 483.40 652.38 C 481.79 656.04 478.74 659.27 478.80 663.49 C 479.95 662.83 481.11 662.09 481.88 660.97 C 489.21 651.67 493.78 640.58 497.54 629.45 C 501.17 617.98 503.75 606.07 503.84 594.00 C 503.72 589.60 503.32 584.92 500.87 581.14 C 499.65 579.54 497.75 577.50 495.55 578.27 C 490.62 580.02 487.21 584.23 484.31 588.36 C 479.02 596.02 474.91 604.56 472.38 613.53 C 472.11 613.04 471.55 612.05 471.28 611.56 C 472.89 605.50 471.66 599.15 470.25 593.18 C 467.56 583.23 461.92 573.07 452.02 568.86 C 448.94 567.67 445.11 565.91 442.05 568.11 Z" />
<path fill="rgba(0,0,0,0)" opacity="1.00" d=" M 631.92 0.00 L 1024.00 0.00 L 1024.00 903.16 C 994.33 902.55 964.65 903.01 934.98 902.64 C 908.67 902.14 882.34 902.52 856.02 902.17 C 812.67 901.57 769.32 902.01 725.97 902.25 C 725.79 896.17 726.45 890.10 726.76 884.04 C 728.16 859.15 729.97 834.27 730.87 809.35 C 735.89 807.96 741.17 806.84 745.57 803.91 C 745.58 803.46 745.62 802.55 745.64 802.10 C 742.71 722.52 738.97 642.97 735.35 563.42 C 747.89 563.54 760.88 562.95 772.49 557.71 C 778.79 554.74 784.99 550.36 787.95 543.84 C 789.30 539.36 788.33 534.61 788.35 530.02 C 787.48 497.87 780.80 464.99 763.52 437.46 C 755.25 423.82 744.49 411.96 733.28 400.71 C 742.58 400.76 751.97 400.16 760.89 397.35 C 758.93 393.08 756.89 388.85 755.31 384.43 C 752.16 375.98 750.98 366.99 749.80 358.10 C 748.14 343.50 746.79 328.79 747.64 314.09 C 748.04 298.48 753.89 282.78 749.72 267.27 C 746.50 255.45 737.54 245.86 727.04 239.91 C 717.12 234.54 705.96 232.24 695.40 228.50 C 680.72 223.99 665.48 217.75 649.85 220.95 C 642.16 222.26 635.67 227.48 632.01 234.26 C 631.83 156.18 631.99 78.09 631.92 0.00 Z" />
<path fill="rgba(0,0,0,0)" opacity="1.00" d=" M 496.10 167.71 C 518.47 163.56 541.44 163.93 563.95 166.68 C 570.41 167.75 577.16 168.60 582.94 171.90 C 588.08 175.04 589.29 181.46 590.11 186.96 C 591.36 197.96 590.62 209.19 588.07 219.96 C 586.65 225.19 584.70 230.88 580.04 234.11 C 576.14 236.47 571.36 236.01 566.99 236.23 C 547.42 236.49 527.77 238.60 508.93 244.07 C 508.48 243.56 507.59 242.54 507.15 242.04 C 503.01 244.59 501.00 249.94 496.53 251.81 C 495.84 248.22 495.96 244.51 495.02 240.96 C 492.84 240.88 490.66 240.85 488.48 240.76 C 487.12 226.89 486.26 212.96 485.17 199.07 C 484.93 190.50 483.76 181.40 487.31 173.33 C 488.72 169.76 492.59 168.27 496.10 167.71 M 532.40 201.50 C 530.79 202.06 528.07 202.79 528.61 205.06 C 529.87 208.63 535.19 207.33 537.18 205.02 C 538.89 202.09 534.67 200.10 532.40 201.50 M 556.98 201.13 C 555.26 201.69 552.53 202.51 553.10 204.84 C 555.16 208.28 560.95 207.31 562.77 204.10 C 563.04 201.03 559.23 200.31 556.98 201.13 M 512.19 203.21 C 510.95 203.75 509.93 204.70 509.50 206.00 C 510.30 210.27 518.34 208.32 516.64 204.04 C 516.23 201.86 513.53 202.45 512.19 203.21 Z" />
<path fill="rgba(0,0,0,0)" opacity="1.00" d=" M 258.83 386.92 C 269.05 374.98 281.54 365.16 294.72 356.70 C 296.42 358.88 298.24 360.97 300.42 362.69 C 306.36 367.52 312.47 372.25 319.27 375.82 C 323.59 377.97 329.27 379.45 333.53 376.37 C 339.82 371.75 341.55 363.41 346.97 358.08 C 350.60 358.98 350.97 363.09 351.75 366.11 C 361.74 412.64 364.41 460.45 363.74 507.94 C 363.16 524.49 362.37 541.32 357.13 557.16 C 356.27 558.97 355.77 562.00 353.14 561.73 C 336.40 562.92 319.67 564.19 302.98 566.00 C 300.50 566.06 297.41 566.69 295.53 564.64 C 293.20 562.24 290.91 559.69 289.28 556.76 C 283.84 537.68 278.57 518.31 269.52 500.55 C 268.79 498.62 266.38 496.73 267.63 494.55 C 274.53 477.76 280.29 460.53 284.99 443.00 C 287.23 435.02 289.01 426.91 291.47 418.98 C 292.02 417.07 292.99 415.19 292.81 413.16 C 290.10 411.02 288.44 414.82 288.01 417.01 C 283.17 434.93 279.23 453.10 273.69 470.84 C 270.86 479.77 268.38 488.86 264.53 497.42 C 263.66 498.94 264.73 500.55 265.26 501.99 C 273.76 520.23 278.47 539.87 284.86 558.87 C 279.22 566.47 272.78 573.50 265.71 579.79 C 263.36 581.54 260.00 584.23 257.12 582.05 C 252.38 578.22 249.60 572.60 246.40 567.54 C 237.64 552.22 229.38 536.51 223.05 520.01 C 214.84 497.79 217.05 473.18 223.65 450.85 C 230.74 427.43 242.42 405.17 258.83 386.92 Z" />
<path fill="rgba(0,0,0,0)" opacity="1.00" d=" M 689.97 414.94 C 700.54 413.86 709.19 406.87 716.01 399.20 C 721.32 399.91 726.63 400.53 732.00 400.69 C 742.80 412.93 752.81 425.98 760.54 440.42 C 771.94 461.28 778.36 484.54 781.42 508.03 C 782.74 519.29 784.18 530.60 783.68 541.95 C 782.42 546.62 778.28 549.76 774.50 552.42 C 767.87 556.50 760.09 558.44 752.41 559.23 C 723.33 561.97 693.77 556.32 667.05 544.78 C 666.99 542.12 667.60 539.52 668.43 537.02 C 670.64 529.95 672.24 522.72 674.02 515.54 C 686.97 517.15 699.91 519.71 713.03 519.11 C 724.73 518.54 736.56 517.45 747.85 514.17 C 749.10 514.30 751.31 511.59 748.93 511.52 C 742.46 512.01 736.06 513.77 729.60 514.64 C 721.15 486.70 718.89 457.04 721.65 428.05 C 721.03 424.33 717.42 427.67 717.78 429.92 C 714.59 451.87 716.05 474.37 720.57 496.04 C 721.86 502.46 723.92 508.72 724.92 515.20 C 705.86 517.25 686.58 515.10 668.09 510.27 C 665.78 502.44 656.84 499.53 652.63 492.97 C 653.52 473.73 658.40 454.89 663.58 436.40 C 666.52 427.08 669.34 417.67 673.20 408.67 C 677.00 413.89 683.74 415.94 689.97 414.94 Z" />
<path fill="rgba(0,0,0,0)" opacity="1.00" d=" M 459.00 730.35 C 462.36 730.25 465.72 730.18 469.09 730.21 C 469.55 730.60 470.46 731.38 470.92 731.77 C 473.58 731.08 476.13 729.75 478.95 729.88 C 486.19 729.83 493.44 729.82 500.69 729.91 C 500.55 742.52 499.53 755.11 498.48 767.67 C 486.42 767.56 474.37 767.55 462.31 767.62 C 461.66 755.16 459.24 742.83 459.00 730.35 Z" />
<path fill="rgba(0,0,0,0)" opacity="1.00" d=" M 204.98 734.91 C 211.00 734.86 217.02 735.40 223.04 735.00 C 228.24 734.58 233.42 735.51 238.63 735.32 C 236.86 746.35 235.37 757.43 233.17 768.39 C 224.50 768.42 215.83 768.34 207.17 768.34 C 207.30 757.15 205.88 746.04 204.98 734.91 Z" />
<path fill="rgba(0,0,0,0)" opacity="1.00" d=" M 151.76 772.81 C 184.39 772.33 217.04 772.47 249.66 772.85 C 248.86 778.82 247.84 784.77 247.34 790.78 C 215.69 790.99 184.02 790.51 152.36 790.51 C 151.82 784.63 151.61 778.71 151.76 772.81 Z" />
<path fill="rgba(0,0,0,0)" opacity="1.00" d=" M 545.08 796.25 C 552.05 795.73 559.02 795.11 566.00 794.59 C 567.80 794.36 569.50 795.12 571.18 795.69 C 582.38 799.76 593.92 802.82 605.53 805.49 C 607.87 819.86 611.06 834.08 613.32 848.48 C 616.09 865.34 618.50 882.27 621.79 899.04 C 621.80 900.07 622.91 902.63 621.00 902.35 C 597.01 902.79 573.00 903.02 549.02 902.91 C 547.74 867.35 546.56 831.79 545.08 796.25 Z" />
<path fill="rgba(0,0,0,0)" opacity="1.00" d=" M 308.40 796.21 C 319.41 796.01 330.42 796.15 341.43 796.42 C 342.09 832.30 343.37 868.16 343.90 904.04 C 322.86 904.04 301.81 904.31 280.77 904.29 C 289.70 868.19 299.20 832.24 308.40 796.21 Z" />
<path fill="rgba(0,0,0,0)" opacity="1.00" d=" M 398.82 796.94 C 434.51 796.85 470.20 797.68 505.89 797.90 C 504.15 804.44 504.02 811.24 503.51 817.94 C 502.43 846.29 501.49 874.66 501.37 903.00 C 466.71 903.22 432.06 903.52 397.41 903.72 C 397.53 868.12 398.59 832.54 398.82 796.94 Z" />
<path fill="rgba(0,0,0,0)" opacity="1.00" d=" M 609.91 806.20 C 625.73 809.76 641.90 811.20 657.96 813.26 C 656.97 829.50 655.37 845.71 654.56 861.97 C 653.11 882.33 653.52 902.78 651.78 923.12 C 651.87 925.92 648.60 926.72 646.45 927.26 C 641.02 928.09 634.90 928.12 630.29 924.68 C 630.29 922.92 631.05 921.17 630.48 919.44 C 626.93 906.89 625.14 893.93 622.51 881.17 C 618.05 856.23 612.74 831.40 609.91 806.20 Z" />
<path fill="rgba(0,0,0,0)" opacity="1.00" d=" M 678.03 814.23 C 693.91 814.33 709.95 814.21 725.51 810.67 C 724.40 841.12 722.16 871.52 720.69 901.95 C 720.33 911.92 718.87 921.82 718.71 931.79 C 714.06 936.37 706.85 935.97 700.83 935.55 C 698.31 935.47 697.26 932.83 696.24 930.94 C 699.28 930.03 697.56 926.67 697.33 924.50 C 692.42 898.37 686.59 872.40 682.77 846.08 C 681.15 835.47 679.65 824.84 678.03 814.23 Z" />
</g>
<g id="Group-000000" fill="#272525">
<path fill="#272525" opacity="1.00" d=" M 628.18 0.00 L 631.92 0.00 C 631.99 78.09 631.83 156.18 632.01 234.26 C 635.67 227.48 642.16 222.26 649.85 220.95 C 665.48 217.75 680.72 223.99 695.40 228.50 C 705.96 232.24 717.12 234.54 727.04 239.91 C 737.54 245.86 746.50 255.45 749.72 267.27 C 753.89 282.78 748.04 298.48 747.64 314.09 C 746.79 328.79 748.14 343.50 749.80 358.10 C 750.98 366.99 752.16 375.98 755.31 384.43 C 756.89 388.85 758.93 393.08 760.89 397.35 C 751.97 400.16 742.58 400.76 733.28 400.71 C 744.49 411.96 755.25 423.82 763.52 437.46 C 780.80 464.99 787.48 497.87 788.35 530.02 C 788.33 534.61 789.30 539.36 787.95 543.84 C 784.99 550.36 778.79 554.74 772.49 557.71 C 760.88 562.95 747.89 563.54 735.35 563.42 C 738.97 642.97 742.71 722.52 745.64 802.10 C 745.62 802.55 745.58 803.46 745.57 803.91 C 741.17 806.84 735.89 807.96 730.87 809.35 C 729.97 834.27 728.16 859.15 726.76 884.04 C 726.45 890.10 725.79 896.17 725.97 902.25 C 726.34 903.74 726.76 905.20 727.19 906.71 C 726.75 906.74 725.87 906.80 725.43 906.83 C 724.79 913.24 724.38 919.68 723.54 926.08 C 721.72 933.28 726.72 939.90 726.63 947.11 C 724.00 951.00 719.54 953.18 715.01 953.95 C 702.78 956.20 690.67 959.08 678.51 961.71 C 668.62 963.77 658.75 966.25 648.65 967.06 C 648.50 964.69 648.69 962.24 650.26 960.35 C 655.23 953.36 662.35 948.36 668.57 942.57 C 675.61 935.96 685.38 934.07 694.09 930.62 C 692.37 922.81 690.90 914.95 689.70 907.05 C 678.89 906.71 668.05 906.82 657.24 907.11 C 657.38 912.12 656.38 917.06 656.15 922.04 C 657.13 928.90 659.06 935.93 658.02 942.86 C 649.24 947.94 638.94 948.80 629.05 949.71 C 611.75 951.51 594.38 953.10 576.96 952.85 C 574.00 952.72 570.87 953.18 568.09 951.97 C 569.51 944.43 576.92 940.29 583.38 937.50 C 597.29 931.45 611.58 926.31 626.00 921.63 C 624.81 916.83 623.82 911.98 623.04 907.10 C 598.39 907.39 573.71 907.12 549.06 907.61 C 549.03 912.73 550.01 917.82 549.87 922.94 C 547.91 926.31 543.52 927.66 539.94 928.67 C 538.09 926.61 537.24 923.80 537.39 921.07 C 537.52 916.53 536.81 912.02 536.91 907.49 C 529.49 907.56 522.07 907.63 514.65 907.65 C 514.35 913.46 514.51 919.27 514.93 925.07 C 513.98 931.32 506.78 933.96 501.15 933.36 C 500.94 924.76 500.65 916.15 501.23 907.56 C 466.58 907.70 431.92 907.71 397.27 908.11 C 397.26 911.92 397.21 915.73 397.13 919.55 C 405.55 922.07 413.83 925.04 422.07 928.12 C 427.79 930.36 433.75 932.42 438.60 936.32 C 440.39 937.64 441.34 939.71 442.23 941.69 C 432.31 943.94 422.13 944.54 412.01 945.17 C 389.63 945.66 367.26 944.64 344.90 943.83 C 344.67 932.01 344.29 920.19 344.11 908.37 C 322.70 908.44 301.27 908.33 279.88 908.78 C 277.42 915.37 276.18 922.40 274.33 929.20 C 282.51 932.19 290.42 935.91 298.22 939.77 C 302.90 942.27 307.69 944.73 311.72 948.23 C 314.60 950.74 315.87 954.45 316.70 958.07 C 306.82 958.44 296.94 959.07 287.05 958.90 C 267.23 959.08 247.43 956.66 228.22 951.78 C 229.61 937.44 231.71 923.17 233.23 908.85 C 229.99 908.78 226.76 908.76 223.52 908.76 C 223.76 912.17 224.28 915.61 223.95 919.04 C 221.30 921.43 217.71 922.39 214.56 923.95 C 210.51 919.99 211.70 914.14 211.77 909.09 C 202.75 908.55 193.72 908.90 184.69 908.93 C 184.38 914.64 185.22 920.35 185.06 926.05 C 183.69 932.00 176.79 933.91 171.43 933.93 C 171.18 925.61 171.03 917.28 171.41 908.97 C 146.96 908.79 122.52 908.89 98.07 908.87 C 90.96 908.99 83.83 909.52 76.73 908.79 C 76.98 907.30 76.84 904.78 78.98 904.83 C 109.76 904.06 140.58 904.91 171.36 904.32 C 171.33 886.20 172.14 868.07 172.26 849.95 C 172.87 831.71 172.94 813.41 175.15 795.28 C 166.55 794.94 157.84 795.25 149.33 794.78 C 147.07 786.90 146.14 778.34 148.39 770.35 C 148.60 768.06 151.29 768.54 152.92 768.41 C 169.91 768.54 186.91 768.34 203.90 768.44 C 203.92 758.30 203.55 748.14 202.07 738.09 C 199.68 736.68 199.09 734.23 200.15 731.72 C 198.71 730.69 197.23 729.71 195.73 728.77 C 196.08 728.45 196.78 727.80 197.13 727.48 C 197.55 727.49 198.37 727.51 198.79 727.52 C 198.83 726.89 198.92 725.62 198.96 724.99 C 202.85 727.13 206.84 729.22 211.08 730.58 C 216.99 731.13 222.97 730.56 228.90 730.51 C 224.41 710.55 217.64 691.15 214.01 670.99 C 210.43 654.28 206.54 637.42 199.10 621.93 C 197.09 617.90 194.80 613.48 190.42 611.63 C 188.29 619.08 189.41 626.85 189.84 634.45 C 187.22 631.59 187.79 627.57 187.79 624.02 C 187.90 620.30 187.80 616.59 187.82 612.88 C 188.23 610.35 190.72 607.39 193.51 608.59 C 198.05 610.48 200.49 615.15 202.78 619.23 C 211.02 635.92 215.00 654.24 219.40 672.21 C 222.07 655.94 226.40 639.90 232.52 624.58 C 234.61 619.92 236.52 614.81 240.43 611.35 C 243.06 610.00 245.11 612.91 245.95 615.04 C 249.42 623.59 250.63 632.88 251.23 642.03 C 252.26 664.97 247.19 688.48 235.17 708.18 C 233.66 710.78 231.74 713.15 230.59 715.94 C 231.48 720.75 233.01 725.43 233.70 730.30 C 237.92 730.32 243.23 729.95 245.37 734.49 C 244.31 735.48 242.43 736.11 242.50 737.88 C 241.27 748.08 239.67 758.23 237.90 768.35 C 241.94 768.36 245.98 768.38 250.02 768.31 C 251.12 759.59 252.22 750.87 253.23 742.14 C 258.74 693.71 265.12 645.38 270.85 596.98 C 267.60 593.68 264.64 590.13 261.53 586.71 C 259.80 586.95 257.87 588.13 256.20 587.05 C 250.77 584.13 247.42 578.72 244.23 573.66 C 237.88 563.12 232.26 552.15 226.97 541.04 C 220.67 527.81 215.22 513.84 214.24 499.08 C 212.35 472.75 219.64 446.55 230.88 422.94 C 237.79 408.66 246.38 394.93 257.95 383.95 C 268.73 373.60 280.65 364.56 292.56 355.59 C 299.44 348.49 303.03 338.95 309.40 331.46 C 310.33 325.29 310.99 319.08 311.75 312.88 C 307.22 308.85 302.07 305.47 298.26 300.69 C 285.70 285.82 278.46 267.34 272.91 248.91 C 269.64 237.42 267.33 224.88 271.13 213.23 C 273.85 204.60 281.32 197.94 290.00 195.64 C 290.66 189.23 291.37 182.48 295.12 177.02 C 298.59 171.76 304.84 169.20 310.88 168.39 C 319.63 167.37 328.38 168.90 337.09 169.64 C 348.65 170.91 360.32 170.97 371.93 170.31 C 379.20 169.89 385.96 167.00 392.92 165.15 C 400.21 163.31 408.18 162.76 415.28 165.64 C 421.91 168.06 427.80 173.22 430.04 180.03 C 433.25 189.25 429.87 200.21 422.20 206.19 C 416.24 211.15 408.41 213.09 400.79 213.27 C 404.66 224.27 407.45 235.62 409.30 247.13 C 411.90 264.22 413.76 282.55 406.57 298.83 C 402.08 308.80 396.12 318.69 386.99 325.06 C 380.18 329.69 371.73 330.45 363.75 331.06 C 363.50 335.53 363.68 340.20 365.71 344.29 C 367.97 349.33 372.55 352.63 376.51 356.24 C 387.65 366.98 397.84 378.79 406.14 391.88 C 414.77 405.15 421.16 419.80 425.72 434.94 C 424.44 435.26 423.18 435.59 421.91 435.92 C 416.00 417.18 406.85 399.56 395.67 383.43 C 390.48 376.25 385.30 368.98 378.86 362.84 C 378.77 366.11 379.32 369.69 377.64 372.68 C 376.32 375.04 372.98 375.89 370.80 374.18 C 364.23 369.51 360.95 361.44 353.98 357.20 C 357.91 374.32 361.76 391.52 363.89 408.98 C 367.24 436.51 368.61 464.26 368.48 491.99 C 368.35 510.10 367.87 528.39 363.72 546.11 C 362.55 551.11 361.13 556.03 359.74 560.97 C 371.98 560.27 384.16 558.63 396.17 556.21 C 400.60 555.22 405.50 554.19 408.59 550.57 C 412.99 545.48 413.55 538.37 413.22 531.94 C 412.30 498.93 409.60 465.74 401.57 433.63 C 399.65 425.38 397.31 417.23 395.74 408.91 C 395.41 407.25 395.24 405.54 395.77 403.91 C 397.99 403.04 398.94 405.21 399.40 406.91 C 403.21 419.12 407.23 431.31 409.55 443.91 C 414.85 471.26 417.75 499.12 418.03 526.98 C 421.81 528.03 425.67 528.77 429.55 529.36 C 426.49 521.14 423.91 511.85 427.21 503.28 C 428.76 498.61 432.49 495.21 436.12 492.10 C 430.57 488.76 424.75 485.81 419.62 481.82 C 421.12 481.10 422.79 480.91 424.27 481.79 C 427.62 483.31 430.85 485.08 434.09 486.81 C 433.76 485.25 433.44 483.69 433.14 482.14 C 433.75 481.37 434.37 480.60 434.99 479.83 C 435.23 482.52 435.32 485.23 435.37 487.93 C 436.90 488.51 438.48 490.32 440.18 489.27 C 447.29 486.19 454.09 481.73 461.99 481.05 C 465.11 480.36 466.94 484.54 465.11 486.80 C 462.47 490.62 458.07 492.63 454.76 495.78 C 458.99 498.51 463.62 500.49 468.23 502.49 C 467.77 503.64 467.32 504.80 466.88 505.97 C 462.01 502.82 456.98 499.93 451.97 497.01 C 450.39 496.42 450.40 494.58 451.63 493.62 C 454.95 490.12 459.96 488.22 461.99 483.55 C 456.94 484.26 452.45 486.73 447.94 488.93 C 442.04 491.91 435.66 495.17 432.14 501.01 C 428.15 508.99 430.67 518.38 433.64 526.27 C 435.36 531.18 440.17 534.63 445.46 533.97 C 446.99 535.07 448.73 535.86 450.64 536.00 C 443.95 538.54 436.47 536.46 431.25 531.82 C 426.91 531.72 422.59 531.36 418.27 531.17 C 418.53 538.76 418.63 547.32 413.40 553.45 C 409.51 558.16 403.18 559.20 397.63 560.81 C 401.39 608.81 399.62 656.97 399.82 705.06 C 399.27 726.02 399.49 746.99 399.44 767.95 C 419.26 768.14 439.08 767.41 458.91 767.76 C 455.47 755.49 456.41 742.56 454.35 730.06 C 453.88 728.76 454.40 727.17 455.98 727.15 C 459.92 726.53 463.92 726.51 467.90 726.37 C 468.27 722.23 468.65 718.08 468.71 713.92 C 467.00 711.47 464.22 709.96 462.13 707.83 C 452.53 698.67 443.82 688.47 437.16 676.97 C 429.03 662.89 422.75 647.78 417.87 632.29 C 416.46 627.29 414.64 622.25 414.71 617.00 C 414.69 614.28 417.29 611.54 420.11 612.23 C 425.50 613.02 429.79 616.77 433.39 620.60 C 443.77 632.09 451.75 645.46 459.19 658.97 C 462.83 665.02 465.62 671.62 470.04 677.18 C 471.66 671.73 470.54 665.67 473.47 660.59 C 479.30 646.98 482.00 632.28 485.55 617.97 C 487.46 610.95 488.06 603.52 491.00 596.81 C 491.44 596.96 492.34 597.24 492.79 597.38 C 492.30 602.35 490.49 607.10 489.89 612.07 C 486.66 627.68 483.72 643.43 478.37 658.48 C 477.91 659.93 477.38 661.40 477.37 662.94 C 478.18 673.59 477.57 684.28 477.92 694.94 C 486.12 681.09 497.51 668.02 513.07 662.46 C 515.95 661.67 520.00 659.68 522.27 662.71 C 525.29 666.97 522.21 672.29 520.39 676.44 C 511.08 694.24 496.34 709.90 477.54 717.60 C 477.49 720.32 477.47 723.04 477.48 725.77 C 487.00 725.67 496.57 724.87 506.06 726.00 C 507.83 726.20 508.76 727.95 509.99 729.03 C 508.72 729.85 507.45 730.67 506.17 731.47 C 505.27 743.46 504.40 755.46 504.29 767.49 C 525.55 767.65 546.81 767.06 568.06 766.67 C 569.91 755.52 571.18 744.29 572.71 733.11 C 576.52 704.33 580.70 675.61 585.13 646.93 C 588.42 626.61 591.35 606.22 595.54 586.07 C 599.54 567.38 604.37 548.70 612.91 531.50 C 606.01 532.48 599.08 533.21 592.14 533.82 C 595.84 538.49 601.30 541.70 604.11 547.05 C 604.15 550.38 600.28 551.84 597.50 552.26 C 583.30 553.93 569.12 551.33 555.11 549.25 C 545.67 547.77 536.37 545.57 526.99 543.82 C 526.93 543.27 526.79 542.17 526.72 541.62 C 530.52 541.39 533.44 538.17 535.06 534.97 C 536.24 533.00 534.43 531.45 533.22 530.12 C 531.49 532.20 529.69 534.31 527.34 535.73 C 526.17 535.32 524.99 534.94 523.82 534.59 C 526.50 533.01 528.68 530.76 530.96 528.67 C 529.48 525.52 526.70 523.40 524.01 521.35 C 524.47 521.17 525.38 520.82 525.84 520.64 C 523.48 521.05 522.57 518.41 521.08 517.12 C 518.39 520.40 515.63 523.64 512.39 526.40 C 511.81 525.13 511.23 523.86 510.65 522.60 C 514.05 521.01 516.48 518.04 518.59 515.04 C 516.93 513.50 515.32 511.65 512.98 511.22 C 509.58 512.71 506.15 515.29 504.99 518.97 C 504.48 521.10 505.79 522.95 507.98 523.14 C 508.16 523.55 508.54 524.35 508.73 524.76 C 507.87 524.64 507.01 524.53 506.17 524.43 C 505.77 524.85 504.98 525.70 504.58 526.12 C 500.77 523.44 502.37 518.57 503.97 515.10 C 498.87 509.98 491.83 507.75 485.77 504.07 C 483.48 503.26 484.90 499.85 486.97 499.96 C 491.32 499.61 495.69 500.20 500.04 500.53 C 502.57 500.68 505.41 501.38 507.68 499.85 C 511.63 497.35 515.44 494.63 519.61 492.49 C 516.46 489.65 513.23 486.80 510.78 483.30 C 509.85 482.08 509.44 480.52 510.13 479.08 C 511.64 478.09 513.50 478.48 515.18 478.69 C 524.56 480.22 533.84 482.30 543.08 484.49 C 553.16 485.69 563.35 485.91 573.42 487.35 C 575.14 477.92 575.96 468.29 578.78 459.08 C 586.60 432.61 604.27 409.53 626.44 393.35 C 628.42 391.66 627.62 388.72 627.96 386.43 C 622.04 385.49 616.27 383.58 611.27 380.23 C 616.53 370.72 622.43 361.00 623.87 350.05 C 621.03 345.90 617.60 342.10 615.56 337.43 C 609.54 325.57 609.40 311.76 611.33 298.87 C 613.93 283.41 621.03 269.24 628.30 255.54 C 628.06 170.40 628.21 85.17 628.18 0.00 M 362.01 221.83 C 347.98 222.82 334.69 217.19 322.02 211.92 C 324.32 225.37 327.16 238.84 331.99 251.64 C 327.34 253.37 322.89 255.64 318.82 258.48 C 321.01 260.61 323.71 262.34 325.14 265.15 C 321.27 263.11 317.69 259.70 313.01 260.02 C 306.88 259.84 302.17 266.14 303.06 272.00 C 303.09 280.96 309.40 291.71 319.41 291.27 C 317.77 292.15 314.73 292.30 315.11 294.87 C 314.88 300.83 314.55 306.80 314.89 312.77 C 314.37 313.02 313.34 313.50 312.83 313.75 C 312.54 319.86 312.19 325.97 312.11 332.08 C 311.81 333.44 313.18 334.16 314.02 334.90 C 324.39 342.30 337.03 347.62 350.00 346.06 C 353.61 345.40 357.50 344.51 360.32 342.02 C 360.53 338.46 360.30 334.77 358.89 331.45 C 352.41 328.85 345.05 328.21 339.31 324.00 L 339.86 322.76 C 348.47 324.70 357.03 327.79 366.01 327.31 C 375.06 327.47 384.44 324.52 390.66 317.71 C 401.73 305.64 408.27 289.44 408.18 273.02 C 407.85 252.77 404.24 232.66 398.64 213.24 C 394.83 212.30 390.97 211.12 387.09 210.82 C 380.05 216.81 371.41 221.45 362.01 221.83 M 632.80 256.78 C 625.18 269.92 619.26 284.19 616.19 299.09 C 614.26 311.07 614.30 323.98 619.84 335.05 C 624.90 346.57 635.60 355.53 647.88 358.33 C 659.08 360.62 670.88 358.53 681.07 353.53 C 675.64 357.95 668.76 359.91 662.07 361.52 C 661.68 366.01 661.17 370.52 661.23 375.04 C 666.22 380.22 674.10 381.72 681.09 382.18 C 683.24 365.46 686.75 348.90 692.35 332.97 C 696.20 333.24 700.26 334.77 703.97 332.95 C 710.54 330.21 713.23 322.57 713.22 315.93 C 713.35 312.56 711.51 308.75 708.02 307.90 C 704.30 307.44 700.70 308.77 697.07 309.29 C 693.62 297.67 696.14 285.54 697.39 273.80 C 690.95 273.49 684.51 273.30 678.08 272.73 C 677.80 273.26 677.24 274.31 676.96 274.83 C 674.75 275.20 674.38 271.70 672.10 271.79 C 659.38 269.91 646.84 264.43 637.96 254.95 C 636.22 252.79 633.62 254.87 632.80 256.78 M 306.81 341.88 C 304.20 346.62 300.52 350.60 297.43 355.00 C 299.68 358.89 303.68 361.20 307.06 363.99 C 311.92 367.45 316.60 371.29 322.03 373.85 C 324.62 374.98 327.87 376.20 330.47 374.47 C 337.60 369.54 338.50 359.39 345.79 354.64 C 347.50 354.95 349.23 355.24 350.96 355.50 C 352.13 354.68 353.25 352.76 354.93 353.44 C 358.96 354.93 361.58 358.62 364.33 361.73 C 367.43 365.29 369.55 370.00 374.00 372.14 C 375.40 367.76 375.82 362.55 373.77 358.34 C 369.84 354.32 364.96 351.15 362.10 346.14 C 357.92 347.89 353.56 349.47 348.99 349.75 C 338.64 350.20 328.09 348.07 319.01 342.99 C 316.00 341.43 313.29 339.29 310.10 338.10 C 308.37 338.56 307.81 340.59 306.81 341.88 M 258.83 386.92 C 242.42 405.17 230.74 427.43 223.65 450.85 C 217.05 473.18 214.84 497.79 223.05 520.01 C 229.38 536.51 237.64 552.22 246.40 567.54 C 249.60 572.60 252.38 578.22 257.12 582.05 C 260.00 584.23 263.36 581.54 265.71 579.79 C 272.78 573.50 279.22 566.47 284.86 558.87 C 278.47 539.87 273.76 520.23 265.26 501.99 C 264.73 500.55 263.66 498.94 264.53 497.42 C 268.38 488.86 270.86 479.77 273.69 470.84 C 279.23 453.10 283.17 434.93 288.01 417.01 C 288.44 414.82 290.10 411.02 292.81 413.16 C 292.99 415.19 292.02 417.07 291.47 418.98 C 289.01 426.91 287.23 435.02 284.99 443.00 C 280.29 460.53 274.53 477.76 267.63 494.55 C 266.38 496.73 268.79 498.62 269.52 500.55 C 278.57 518.31 283.84 537.68 289.28 556.76 C 290.91 559.69 293.20 562.24 295.53 564.64 C 297.41 566.69 300.50 566.06 302.98 566.00 C 319.67 564.19 336.40 562.92 353.14 561.73 C 355.77 562.00 356.27 558.97 357.13 557.16 C 362.37 541.32 363.16 524.49 363.74 507.94 C 364.41 460.45 361.74 412.64 351.75 366.11 C 350.97 363.09 350.60 358.98 346.97 358.08 C 341.55 363.41 339.82 371.75 333.53 376.37 C 329.27 379.45 323.59 377.97 319.27 375.82 C 312.47 372.25 306.36 367.52 300.42 362.69 C 298.24 360.97 296.42 358.88 294.72 356.70 C 281.54 365.16 269.05 374.98 258.83 386.92 M 647.25 384.21 C 641.50 387.72 639.42 394.74 638.86 401.07 C 638.72 403.04 638.74 405.94 641.02 406.70 C 644.77 407.48 648.32 405.30 651.34 403.32 C 656.85 399.27 661.84 394.56 666.77 389.83 C 667.75 389.11 668.55 387.37 670.01 387.94 C 673.68 393.12 673.59 399.72 675.70 405.50 C 677.37 410.02 682.28 412.58 686.98 412.10 C 696.65 411.51 704.80 405.35 711.03 398.36 C 702.58 396.86 694.27 394.20 686.63 390.27 C 684.42 389.27 682.84 387.38 681.00 385.89 C 677.96 385.58 674.89 385.61 671.92 384.84 C 667.22 383.79 663.18 381.05 658.90 378.97 C 654.77 379.99 650.86 381.99 647.25 384.21 M 632.46 387.49 C 632.40 387.98 632.28 388.97 632.22 389.47 C 633.49 389.95 634.91 388.53 635.61 387.56 C 635.33 386.18 633.11 386.61 632.46 387.49 M 630.26 395.22 C 626.44 397.62 622.32 400.07 620.18 404.22 C 615.08 413.83 610.94 423.90 607.17 434.09 C 599.83 455.14 597.49 478.31 602.69 500.13 C 604.45 507.64 607.62 515.31 614.00 520.07 C 618.77 523.98 625.19 524.73 631.16 524.74 C 630.90 521.20 631.97 517.36 630.05 514.15 C 628.43 510.84 629.78 505.10 634.04 504.70 C 638.18 504.46 642.29 505.41 646.33 506.26 C 644.57 501.17 641.44 496.42 641.11 490.94 C 641.46 488.26 642.50 484.86 645.74 484.69 C 646.12 486.61 646.44 488.71 648.35 489.76 C 650.84 474.82 652.86 459.72 657.34 445.21 C 660.60 432.21 664.85 419.48 669.74 407.02 C 671.46 403.45 670.75 399.47 669.36 395.93 C 668.80 394.88 668.87 393.08 667.44 392.83 C 662.87 398.13 657.70 402.94 651.88 406.85 C 648.60 408.82 644.77 410.66 640.85 409.95 C 638.12 409.49 636.23 406.78 636.18 404.12 C 635.92 398.80 638.09 393.82 639.58 388.83 C 636.22 390.58 633.49 393.27 630.26 395.22 M 689.97 414.94 C 683.74 415.94 677.00 413.89 673.20 408.67 C 669.34 417.67 666.52 427.08 663.58 436.40 C 658.40 454.89 653.52 473.73 652.63 492.97 C 656.84 499.53 665.78 502.44 668.09 510.27 C 686.58 515.10 705.86 517.25 724.92 515.20 C 723.92 508.72 721.86 502.46 720.57 496.04 C 716.05 474.37 714.59 451.87 717.78 429.92 C 717.42 427.67 721.03 424.33 721.65 428.05 C 718.89 457.04 721.15 486.70 729.60 514.64 C 736.06 513.77 742.46 512.01 748.93 511.52 C 751.31 511.59 749.10 514.30 747.85 514.17 C 736.56 517.45 724.73 518.54 713.03 519.11 C 699.91 519.71 686.97 517.15 674.02 515.54 C 672.24 522.72 670.64 529.95 668.43 537.02 C 667.60 539.52 666.99 542.12 667.05 544.78 C 693.77 556.32 723.33 561.97 752.41 559.23 C 760.09 558.44 767.87 556.50 774.50 552.42 C 778.28 549.76 782.42 546.62 783.68 541.95 C 784.18 530.60 782.74 519.29 781.42 508.03 C 778.36 484.54 771.94 461.28 760.54 440.42 C 752.81 425.98 742.80 412.93 732.00 400.69 C 726.63 400.53 721.32 399.91 716.01 399.20 C 709.19 406.87 700.54 413.86 689.97 414.94 M 586.49 448.41 C 581.17 460.70 579.13 474.10 578.60 487.40 C 581.55 487.80 584.56 487.89 587.46 488.62 C 589.03 488.71 590.08 490.56 588.80 491.77 C 586.63 492.82 584.14 492.00 581.89 491.77 C 569.23 489.41 556.40 488.20 543.70 486.11 C 547.19 492.05 550.94 498.36 550.51 505.53 C 555.89 506.86 561.80 506.56 566.86 508.95 C 574.17 514.99 580.49 522.17 587.38 528.69 C 588.35 529.61 589.43 530.74 590.94 530.47 C 595.98 530.30 601.01 529.81 605.99 528.99 C 609.25 528.40 612.73 527.99 615.35 525.73 C 612.45 524.35 609.03 523.63 606.96 520.99 C 603.31 516.68 601.08 511.35 599.50 505.99 C 594.55 488.78 595.00 470.43 598.41 452.98 C 601.73 436.73 609.01 421.70 616.15 406.86 C 603.17 418.08 593.50 432.85 586.49 448.41 M 511.94 480.05 C 515.03 485.51 521.26 488.03 524.88 493.09 C 523.52 495.05 521.03 495.16 518.99 495.93 C 516.05 496.81 513.32 498.26 510.87 500.10 C 513.76 501.31 516.94 501.20 519.99 501.63 C 528.50 502.38 536.96 503.61 545.47 504.38 C 544.73 498.02 542.42 491.71 538.21 486.82 C 536.40 484.75 533.49 484.44 530.96 483.95 C 524.56 482.94 518.32 481.17 511.94 480.05 M 644.60 491.49 C 645.70 498.21 650.87 503.38 652.26 509.90 C 645.72 510.29 639.64 506.09 633.12 507.24 C 630.83 510.88 636.06 514.09 634.50 517.86 C 633.52 521.04 635.70 523.88 635.89 526.93 C 634.84 530.55 635.33 534.60 637.08 537.92 C 639.90 539.37 643.12 539.85 646.08 541.01 C 651.13 542.78 656.85 544.81 662.02 542.29 C 665.29 541.02 664.98 536.98 665.79 534.15 C 666.79 527.54 669.83 520.81 667.93 514.10 C 667.04 510.65 663.60 509.08 661.33 506.67 C 658.35 503.64 655.29 500.69 652.15 497.83 C 649.68 495.65 648.10 492.21 644.60 491.49 M 499.05 502.19 C 497.22 503.38 499.62 504.85 500.79 504.77 C 514.48 506.68 528.29 507.66 541.99 509.58 C 544.24 509.84 546.54 510.34 548.80 509.79 C 549.20 508.34 548.42 507.46 546.99 507.49 C 531.08 505.18 515.07 503.45 499.05 502.19 M 264.10 584.93 C 270.49 591.32 276.95 598.82 286.03 601.17 C 292.37 600.04 295.87 593.87 299.17 588.96 C 300.97 585.70 303.60 580.91 300.28 577.75 C 295.73 572.67 291.99 566.94 287.49 561.83 C 280.33 570.12 273.36 578.86 264.10 584.93 M 239.42 615.26 C 231.71 629.45 227.73 645.31 224.11 660.95 C 222.59 667.53 221.06 674.17 220.99 680.96 C 222.49 688.48 225.20 695.69 227.64 702.95 C 232.31 686.11 235.41 668.90 238.27 651.68 C 240.02 652.91 239.19 655.13 239.16 656.91 C 237.26 672.82 234.52 688.73 229.41 703.95 C 228.14 706.71 228.68 709.69 229.41 712.51 C 231.36 710.60 232.44 708.04 233.61 705.63 C 243.50 683.97 248.21 659.76 245.72 635.99 C 244.78 628.91 243.75 621.63 240.51 615.18 C 240.24 615.20 239.69 615.24 239.42 615.26 M 418.55 615.37 C 418.51 622.18 421.04 628.61 423.05 635.01 C 431.35 658.38 441.82 681.66 459.10 699.85 C 462.21 703.16 465.00 706.92 468.99 709.24 C 469.12 704.85 469.48 700.47 469.64 696.08 C 468.86 694.33 467.47 692.99 466.26 691.56 C 455.72 680.16 447.09 667.14 439.38 653.70 C 437.54 650.35 435.41 647.07 434.71 643.26 C 435.27 643.44 436.40 643.82 436.96 644.00 C 447.02 660.32 457.15 676.97 470.49 690.89 C 470.55 688.08 470.04 685.23 468.21 683.02 C 454.45 663.41 445.40 640.67 429.28 622.71 C 426.31 619.55 423.26 615.62 418.55 615.37 M 500.73 672.72 C 492.73 679.39 485.71 687.31 479.99 696.02 C 477.38 699.55 477.71 704.13 477.21 708.27 C 480.00 706.42 481.95 703.64 484.25 701.27 C 490.35 694.34 496.55 687.50 502.10 680.12 C 504.06 677.82 505.48 674.82 508.42 673.60 C 508.29 676.69 505.92 678.89 504.28 681.29 C 498.66 689.24 492.34 696.68 485.89 703.96 C 482.88 707.52 478.91 710.49 477.14 714.93 C 478.65 714.61 479.83 713.60 481.06 712.74 C 494.24 703.95 506.00 692.65 514.12 678.98 C 516.42 674.74 519.06 670.25 518.71 665.24 C 511.93 664.79 506.02 669.02 500.73 672.72 M 338.43 673.90 C 330.99 705.36 323.25 736.77 315.57 768.18 C 323.91 768.20 332.25 768.16 340.59 768.24 C 340.19 736.78 338.82 705.36 338.43 673.90 M 459.00 730.35 C 459.24 742.83 461.66 755.16 462.31 767.62 C 474.37 767.55 486.42 767.56 498.48 767.67 C 499.53 755.11 500.55 742.52 500.69 729.91 C 493.44 729.82 486.19 729.83 478.95 729.88 C 476.13 729.75 473.58 731.08 470.92 731.77 C 470.46 731.38 469.55 730.60 469.09 730.21 C 465.72 730.18 462.36 730.25 459.00 730.35 M 204.98 734.91 C 205.88 746.04 207.30 757.15 207.17 768.34 C 215.83 768.34 224.50 768.42 233.17 768.39 C 235.37 757.43 236.86 746.35 238.63 735.32 C 233.42 735.51 228.24 734.58 223.04 735.00 C 217.02 735.40 211.00 734.86 204.98 734.91 M 532.88 771.64 C 531.73 771.65 530.26 772.11 530.36 773.57 C 529.39 780.01 528.36 787.31 532.02 793.11 C 536.34 793.89 540.71 792.91 545.05 792.86 C 551.65 792.32 558.30 792.40 564.89 791.73 C 565.84 784.28 567.03 776.86 567.86 769.40 C 556.19 770.00 544.51 770.57 532.88 771.64 M 151.76 772.81 C 151.61 778.71 151.82 784.63 152.36 790.51 C 184.02 790.51 215.69 790.99 247.34 790.78 C 247.84 784.77 248.86 778.82 249.66 772.85 C 217.04 772.47 184.39 772.33 151.76 772.81 M 314.20 772.90 C 312.77 779.03 311.05 785.08 309.64 791.21 C 319.85 791.07 330.07 791.29 340.28 791.26 L 341.13 790.97 C 341.16 784.91 340.63 778.85 340.83 772.78 C 331.95 772.71 323.07 772.67 314.20 772.90 M 399.14 773.12 C 399.08 779.31 399.07 785.51 399.11 791.71 C 441.07 791.57 483.02 792.50 524.97 792.86 C 523.57 786.42 523.58 779.80 524.31 773.29 C 507.88 773.18 491.46 772.92 475.04 772.87 C 462.00 773.56 448.96 772.67 435.91 772.89 C 423.65 773.03 411.40 773.06 399.14 773.12 M 188.41 795.27 C 187.38 807.44 187.43 819.66 186.80 831.86 C 186.19 856.11 184.89 880.35 184.66 904.61 C 193.37 904.44 202.08 904.50 210.80 904.41 C 210.88 902.29 210.92 900.18 210.87 898.08 C 210.03 877.05 209.17 856.02 208.23 834.99 C 208.06 821.81 206.29 808.58 207.61 795.42 C 201.21 795.37 194.81 795.30 188.41 795.27 M 545.08 796.25 C 546.56 831.79 547.74 867.35 549.02 902.91 C 573.00 903.02 597.01 902.79 621.00 902.35 C 622.91 902.63 621.80 900.07 621.79 899.04 C 618.50 882.27 616.09 865.34 613.32 848.48 C 611.06 834.08 607.87 819.86 605.53 805.49 C 593.92 802.82 582.38 799.76 571.18 795.69 C 569.50 795.12 567.80 794.36 566.00 794.59 C 559.02 795.11 552.05 795.73 545.08 796.25 M 219.73 795.47 C 219.86 799.54 219.90 803.62 220.04 807.69 C 219.17 809.22 218.38 810.79 217.65 812.39 C 217.49 809.54 217.45 806.68 217.56 803.83 C 215.40 805.94 211.72 807.53 211.85 811.02 C 212.59 842.35 213.47 873.68 214.45 905.01 C 214.66 909.02 214.79 913.05 214.36 917.06 C 216.41 917.34 218.39 916.67 220.31 916.03 C 221.00 905.56 219.89 895.08 219.96 884.60 C 220.63 886.59 220.73 889.18 222.78 890.34 C 223.08 895.00 223.09 899.67 223.35 904.34 C 226.78 904.20 230.30 904.76 233.67 904.00 C 238.13 867.93 242.30 831.80 246.73 795.72 C 237.73 795.51 228.73 795.69 219.73 795.47 M 308.40 796.21 C 299.20 832.24 289.70 868.19 280.77 904.29 C 301.81 904.31 322.86 904.04 343.90 904.04 C 343.37 868.16 342.09 832.30 341.43 796.42 C 330.42 796.15 319.41 796.01 308.40 796.21 M 398.82 796.94 C 398.59 832.54 397.53 868.12 397.41 903.72 C 432.06 903.52 466.71 903.22 501.37 903.00 C 501.49 874.66 502.43 846.29 503.51 817.94 C 504.02 811.24 504.15 804.44 505.89 797.90 C 470.20 797.68 434.51 796.85 398.82 796.94 M 518.47 798.18 C 517.27 815.78 517.06 833.43 516.23 851.05 C 515.73 868.41 514.94 885.76 514.64 903.13 C 521.99 903.10 529.33 903.13 536.67 903.08 C 535.96 891.39 535.90 879.68 535.02 868.00 C 534.34 844.67 532.33 821.38 532.60 798.04 C 527.89 798.31 523.17 797.59 518.47 798.18 M 178.43 807.05 C 177.69 819.02 177.62 831.04 176.96 843.02 C 176.54 868.33 174.67 893.60 174.72 918.92 C 174.66 921.90 174.54 924.92 175.38 927.83 C 177.55 926.94 180.90 925.94 180.66 923.00 C 180.38 904.63 181.58 886.29 182.14 867.94 C 182.99 845.70 183.71 823.46 184.62 801.23 C 182.25 802.69 178.44 803.61 178.43 807.05 M 508.77 807.02 C 507.63 819.66 507.65 832.38 506.91 845.05 C 506.01 872.31 504.49 899.57 504.46 926.85 C 506.86 927.00 510.59 926.25 510.29 923.11 C 510.32 905.41 511.40 887.72 511.96 870.03 C 513.00 847.23 513.63 824.42 514.88 801.63 C 512.72 803.17 508.99 803.86 508.77 807.02 M 536.56 813.08 C 537.59 849.27 539.40 885.44 540.46 921.63 C 542.19 923.09 544.30 921.25 546.16 920.93 C 545.82 882.53 543.51 844.16 542.70 805.78 C 540.45 808.01 537.81 810.10 536.56 813.08 M 609.91 806.20 C 612.74 831.40 618.05 856.23 622.51 881.17 C 625.14 893.93 626.93 906.89 630.48 919.44 C 631.05 921.17 630.29 922.92 630.29 924.68 C 634.90 928.12 641.02 928.09 646.45 927.26 C 648.60 926.72 651.87 925.92 651.78 923.12 C 653.52 902.78 653.11 882.33 654.56 861.97 C 655.37 845.71 656.97 829.50 657.96 813.26 C 641.90 811.20 625.73 809.76 609.91 806.20 M 678.03 814.23 C 679.65 824.84 681.15 835.47 682.77 846.08 C 686.59 872.40 692.42 898.37 697.33 924.50 C 697.56 926.67 699.28 930.03 696.24 930.94 C 697.26 932.83 698.31 935.47 700.83 935.55 C 706.85 935.97 714.06 936.37 718.71 931.79 C 718.87 921.82 720.33 911.92 720.69 901.95 C 722.16 871.52 724.40 841.12 725.51 810.67 C 709.95 814.21 693.91 814.33 678.03 814.23 M 662.66 813.64 C 660.26 843.22 657.98 872.84 657.49 902.52 C 667.92 902.27 678.36 902.46 688.79 902.27 C 686.44 887.04 682.79 872.05 679.91 856.92 C 677.37 842.64 674.95 828.33 672.72 814.00 C 669.37 813.77 666.01 813.75 662.66 813.64 M 583.91 941.60 C 579.78 943.56 575.16 945.17 572.24 948.90 C 586.37 949.12 600.46 947.76 614.52 946.48 C 612.06 942.38 610.78 937.72 608.37 933.61 C 599.91 935.17 591.83 938.30 583.91 941.60 M 665.35 949.41 C 660.70 953.72 655.76 957.77 651.73 962.69 C 666.82 960.05 681.52 955.59 696.57 952.73 C 693.31 949.16 690.58 945.16 687.43 941.52 C 684.81 938.59 680.24 939.08 676.97 940.48 C 672.53 942.63 669.00 946.18 665.35 949.41 Z" />
<path fill="#272525" opacity="1.00" d=" M 659.32 280.31 C 661.16 278.70 664.33 279.22 665.53 281.38 C 667.81 284.55 665.12 290.03 661.00 289.28 C 656.69 288.77 656.16 282.62 659.32 280.31 Z" />
</g>
<g id="Group-000000" fill="#272525">
<path fill="#272525" opacity="1.00" d=" M 502.90 162.83 C 523.16 160.01 543.80 159.96 564.11 162.40 C 571.76 163.50 579.87 164.25 586.57 168.47 C 590.68 170.96 592.77 175.59 593.91 180.07 C 596.42 190.69 595.87 201.76 594.32 212.48 C 593.21 219.22 591.62 226.09 588.02 231.99 C 585.82 235.67 582.22 238.62 577.94 239.40 C 569.72 240.85 561.33 240.02 553.03 240.63 C 539.24 241.14 525.55 243.10 512.01 245.72 C 506.93 246.17 504.98 251.70 501.04 254.20 C 499.18 256.13 496.46 255.85 494.21 254.86 C 492.61 251.16 492.81 247.06 492.10 243.16 C 490.16 242.87 486.91 243.74 486.46 241.07 C 484.26 231.17 483.37 221.05 482.15 211.00 C 481.17 200.41 480.02 189.67 481.49 179.07 C 482.30 174.52 483.50 169.23 487.81 166.70 C 492.39 164.09 497.76 163.54 502.90 162.83 M 496.10 167.71 C 492.59 168.27 488.72 169.76 487.31 173.33 C 483.76 181.40 484.93 190.50 485.17 199.07 C 486.26 212.96 487.12 226.89 488.48 240.76 C 490.66 240.85 492.84 240.88 495.02 240.96 C 495.96 244.51 495.84 248.22 496.53 251.81 C 501.00 249.94 503.01 244.59 507.15 242.04 C 507.59 242.54 508.48 243.56 508.93 244.07 C 527.77 238.60 547.42 236.49 566.99 236.23 C 571.36 236.01 576.14 236.47 580.04 234.11 C 584.70 230.88 586.65 225.19 588.07 219.96 C 590.62 209.19 591.36 197.96 590.11 186.96 C 589.29 181.46 588.08 175.04 582.94 171.90 C 577.16 168.60 570.41 167.75 563.95 166.68 C 541.44 163.93 518.47 163.56 496.10 167.71 Z" />
<path fill="#272525" opacity="1.00" d=" M 348.42 233.44 C 350.72 229.92 354.48 226.90 358.92 227.25 C 358.82 230.85 354.00 230.62 352.63 233.57 C 350.79 235.27 350.38 240.42 347.01 238.81 C 345.88 236.90 347.45 235.01 348.42 233.44 Z" />
</g>
<g id="Group-000000" fill="#272525">
<path fill="#272525" opacity="1.00" d=" M 532.40 201.50 C 534.67 200.10 538.89 202.09 537.18 205.02 C 535.19 207.33 529.87 208.63 528.61 205.06 C 528.07 202.79 530.79 202.06 532.40 201.50 Z" />
</g>
<g id="Group-000000" fill="#272525">
<path fill="#272525" opacity="1.00" d=" M 556.98 201.13 C 559.23 200.31 563.04 201.03 562.77 204.10 C 560.95 207.31 555.16 208.28 553.10 204.84 C 552.53 202.51 555.26 201.69 556.98 201.13 Z" />
<path fill="#272525" opacity="1.00" d=" M 394.23 238.30 C 397.02 237.08 398.80 240.74 398.58 243.04 C 398.90 246.29 395.95 251.09 392.28 248.72 C 389.24 246.01 390.56 239.92 394.23 238.30 Z" />
<path fill="#272525" opacity="1.00" d=" M 635.44 270.50 C 638.01 269.08 641.72 270.98 641.70 274.02 C 641.82 277.04 639.37 280.77 635.98 280.12 C 631.95 278.74 631.92 272.48 635.44 270.50 Z" />
</g>
<g id="Group-000000" fill="#272525">
<path fill="#272525" opacity="1.00" d=" M 512.19 203.21 C 513.53 202.45 516.23 201.86 516.64 204.04 C 518.34 208.32 510.30 210.27 509.50 206.00 C 509.93 204.70 510.95 203.75 512.19 203.21 Z" />
</g>
<g id="Group-000000" fill="#272525">
<path fill="rgba(0,0,0,0)" opacity="1.00" d=" M 362.01 221.83 C 371.41 221.45 380.05 216.81 387.09 210.82 C 390.97 211.12 394.83 212.30 398.64 213.24 C 404.24 232.66 407.85 252.77 408.18 273.02 C 408.27 289.44 401.73 305.64 390.66 317.71 C 384.44 324.52 375.06 327.47 366.01 327.31 C 357.03 327.79 348.47 324.70 339.86 322.76 L 339.31 324.00 C 345.05 328.21 352.41 328.85 358.89 331.45 C 360.30 334.77 360.53 338.46 360.32 342.02 C 357.50 344.51 353.61 345.40 350.00 346.06 C 337.03 347.62 324.39 342.30 314.02 334.90 C 313.18 334.16 311.81 333.44 312.11 332.08 C 312.19 325.97 312.54 319.86 312.83 313.75 C 313.34 313.50 314.37 313.02 314.89 312.77 C 314.55 306.80 314.88 300.83 315.11 294.87 C 314.73 292.30 317.77 292.15 319.41 291.27 C 309.40 291.71 303.09 280.96 303.06 272.00 C 302.17 266.14 306.88 259.84 313.01 260.02 C 317.69 259.70 321.27 263.11 325.14 265.15 C 323.71 262.34 321.01 260.61 318.82 258.48 C 322.89 255.64 327.34 253.37 331.99 251.64 C 327.16 238.84 324.32 225.37 322.02 211.92 C 334.69 217.19 347.98 222.82 362.01 221.83 M 386.00 218.95 L 385.32 220.33 L 385.78 221.26 C 389.37 222.70 393.28 223.33 397.10 223.95 C 397.02 222.61 396.65 221.16 395.19 220.76 C 392.33 219.56 389.14 218.25 386.00 218.95 M 348.42 233.44 C 347.45 235.01 345.88 236.90 347.01 238.81 C 350.38 240.42 350.79 235.27 352.63 233.57 C 354.00 230.62 358.82 230.85 358.92 227.25 C 354.48 226.90 350.72 229.92 348.42 233.44 M 394.23 238.30 C 390.56 239.92 389.24 246.01 392.28 248.72 C 395.95 251.09 398.90 246.29 398.58 243.04 C 398.80 240.74 397.02 237.08 394.23 238.30 M 362.49 244.71 C 358.94 246.76 357.90 254.36 363.02 254.91 C 366.73 254.72 368.22 250.17 367.65 247.03 C 367.41 244.68 364.43 243.10 362.49 244.71 M 379.17 253.91 C 378.95 258.75 379.16 263.60 379.08 268.45 C 383.22 268.18 385.62 262.78 390.07 263.69 C 392.31 266.44 390.87 270.51 391.40 273.81 C 392.55 273.69 394.25 274.28 394.74 272.79 C 396.35 268.67 396.32 262.52 391.90 260.16 C 388.70 258.90 385.49 261.11 382.65 262.39 C 382.70 259.10 383.32 255.70 382.47 252.49 C 381.43 250.79 378.94 252.21 379.17 253.91 M 310.32 279.55 C 313.19 280.82 314.39 276.93 315.26 274.95 C 318.11 274.69 320.22 276.64 322.06 278.53 C 323.26 278.00 325.22 276.51 323.84 275.07 C 321.85 272.09 318.70 269.55 315.03 269.20 C 310.63 269.72 307.26 275.93 310.32 279.55 M 361.26 282.49 C 359.52 284.17 359.68 286.96 360.49 289.06 C 364.04 297.94 375.39 302.13 384.05 298.48 C 387.46 297.07 390.50 293.71 390.20 289.83 C 389.24 287.03 386.03 286.27 383.47 285.74 C 377.62 284.67 371.83 283.31 365.98 282.23 C 364.42 282.07 362.63 281.38 361.26 282.49 Z" />
<path fill="rgba(0,0,0,0)" opacity="1.00" d=" M 632.80 256.78 C 633.62 254.87 636.22 252.79 637.96 254.95 C 646.84 264.43 659.38 269.91 672.10 271.79 C 674.38 271.70 674.75 275.20 676.96 274.83 C 677.24 274.31 677.80 273.26 678.08 272.73 C 684.51 273.30 690.95 273.49 697.39 273.80 C 696.14 285.54 693.62 297.67 697.07 309.29 C 700.70 308.77 704.30 307.44 708.02 307.90 C 711.51 308.75 713.35 312.56 713.22 315.93 C 713.23 322.57 710.54 330.21 703.97 332.95 C 700.26 334.77 696.20 333.24 692.35 332.97 C 686.75 348.90 683.24 365.46 681.09 382.18 C 674.10 381.72 666.22 380.22 661.23 375.04 C 661.17 370.52 661.68 366.01 662.07 361.52 C 668.76 359.91 675.64 357.95 681.07 353.53 C 670.88 358.53 659.08 360.62 647.88 358.33 C 635.60 355.53 624.90 346.57 619.84 335.05 C 614.30 323.98 614.26 311.07 616.19 299.09 C 619.26 284.19 625.18 269.92 632.80 256.78 M 635.44 270.50 C 631.92 272.48 631.95 278.74 635.98 280.12 C 639.37 280.77 641.82 277.04 641.70 274.02 C 641.72 270.98 638.01 269.08 635.44 270.50 M 659.32 280.31 C 656.16 282.62 656.69 288.77 661.00 289.28 C 665.12 290.03 667.81 284.55 665.53 281.38 C 664.33 279.22 661.16 278.70 659.32 280.31 M 634.27 295.45 C 630.58 299.22 634.65 307.86 640.23 306.13 C 639.48 303.34 636.34 300.89 637.18 297.94 C 641.10 297.18 645.14 297.45 649.07 296.70 C 648.55 295.78 648.39 294.17 647.02 294.22 C 642.78 293.97 638.24 293.77 634.27 295.45 M 703.25 319.17 C 701.25 320.55 699.72 324.07 702.21 325.74 C 705.72 328.47 710.24 322.35 707.54 319.34 C 706.45 317.95 704.50 318.15 703.25 319.17 M 652.26 320.89 C 649.48 325.83 643.61 328.74 638.02 327.18 C 634.73 326.59 632.90 323.53 630.16 321.99 C 627.81 322.25 627.63 325.43 629.21 326.74 C 635.98 333.88 649.00 332.34 654.32 324.26 C 655.89 322.74 654.08 318.78 652.26 320.89 M 662.20 325.06 C 658.84 326.92 661.23 332.96 664.85 330.79 C 668.55 329.15 666.01 322.49 662.20 325.06 Z" />
<path fill="rgba(0,0,0,0)" opacity="1.00" d=" M 630.26 395.22 C 633.49 393.27 636.22 390.58 639.58 388.83 C 638.09 393.82 635.92 398.80 636.18 404.12 C 636.23 406.78 638.12 409.49 640.85 409.95 C 644.77 410.66 648.60 408.82 651.88 406.85 C 657.70 402.94 662.87 398.13 667.44 392.83 C 668.87 393.08 668.80 394.88 669.36 395.93 C 670.75 399.47 671.46 403.45 669.74 407.02 C 664.85 419.48 660.60 432.21 657.34 445.21 C 652.86 459.72 650.84 474.82 648.35 489.76 C 646.44 488.71 646.12 486.61 645.74 484.69 C 642.50 484.86 641.46 488.26 641.11 490.94 C 641.44 496.42 644.57 501.17 646.33 506.26 C 642.29 505.41 638.18 504.46 634.04 504.70 C 629.78 505.10 628.43 510.84 630.05 514.15 C 631.97 517.36 630.90 521.20 631.16 524.74 C 625.19 524.73 618.77 523.98 614.00 520.07 C 607.62 515.31 604.45 507.64 602.69 500.13 C 597.49 478.31 599.83 455.14 607.17 434.09 C 610.94 423.90 615.08 413.83 620.18 404.22 C 622.32 400.07 626.44 397.62 630.26 395.22 M 662.92 400.84 C 662.93 401.63 662.96 403.21 662.98 404.00 C 664.25 403.99 665.53 403.97 666.82 403.94 C 666.91 403.13 667.08 401.51 667.16 400.70 C 665.74 400.17 664.30 400.25 662.92 400.84 M 660.05 408.09 C 659.18 410.66 661.55 413.10 664.09 412.07 C 664.03 411.31 663.92 409.80 663.87 409.04 C 662.60 408.70 661.32 408.37 660.05 408.09 M 657.36 416.24 C 657.16 417.43 656.07 418.80 657.00 419.93 C 658.11 421.37 661.12 421.37 661.06 419.02 C 661.30 416.92 658.74 416.82 657.36 416.24 M 653.93 428.17 C 654.27 430.16 656.64 429.94 658.13 430.39 C 658.22 429.11 658.47 427.84 658.35 426.56 C 657.15 424.47 653.21 425.46 653.93 428.17 M 650.85 436.55 C 652.14 437.94 653.78 438.92 655.55 439.64 C 655.84 438.28 656.35 436.95 656.37 435.56 C 655.07 433.27 651.78 434.42 650.85 436.55 M 650.64 442.52 C 650.28 442.96 649.55 443.84 649.19 444.29 C 647.64 447.16 653.99 449.90 654.24 446.10 C 655.18 443.94 652.41 442.58 650.64 442.52 M 647.10 454.91 C 648.25 456.62 650.46 456.04 652.21 456.08 C 652.87 453.41 650.99 451.88 648.88 450.71 C 647.87 451.91 646.32 453.13 647.10 454.91 M 647.21 459.20 C 646.18 460.35 643.66 462.03 645.75 463.53 C 646.74 464.97 648.62 464.82 650.15 465.20 C 651.32 462.60 649.97 459.84 647.21 459.20 M 643.70 471.30 C 644.57 473.58 647.24 473.02 649.19 473.30 C 649.17 471.91 649.05 470.52 648.83 469.16 C 647.55 468.52 646.15 468.10 644.83 467.62 C 643.97 468.69 642.17 469.94 643.70 471.30 M 642.14 477.16 C 642.36 478.48 642.64 479.80 642.95 481.12 C 644.55 481.13 646.17 481.12 647.78 481.02 C 647.86 479.63 647.93 478.25 648.00 476.86 C 646.03 476.33 644.03 476.42 642.14 477.16 Z" />
<path fill="rgba(0,0,0,0)" opacity="1.00" d=" M 644.60 491.49 C 648.10 492.21 649.68 495.65 652.15 497.83 C 655.29 500.69 658.35 503.64 661.33 506.67 C 663.60 509.08 667.04 510.65 667.93 514.10 C 669.83 520.81 666.79 527.54 665.79 534.15 C 664.98 536.98 665.29 541.02 662.02 542.29 C 656.85 544.81 651.13 542.78 646.08 541.01 C 643.12 539.85 639.90 539.37 637.08 537.92 C 635.33 534.60 634.84 530.55 635.89 526.93 C 635.70 523.88 633.52 521.04 634.50 517.86 C 636.06 514.09 630.83 510.88 633.12 507.24 C 639.64 506.09 645.72 510.29 652.26 509.90 C 650.87 503.38 645.70 498.21 644.60 491.49 Z" />
<path fill="rgba(0,0,0,0)" opacity="1.00" d=" M 504.99 518.97 C 506.15 515.29 509.58 512.71 512.98 511.22 C 515.32 511.65 516.93 513.50 518.59 515.04 C 516.48 518.04 514.05 521.01 510.65 522.60 C 509.98 522.74 508.64 523.01 507.98 523.14 C 505.79 522.95 504.48 521.10 504.99 518.97 Z" />
<path fill="rgba(0,0,0,0)" opacity="1.00" d=" M 338.43 673.90 C 338.82 705.36 340.19 736.78 340.59 768.24 C 332.25 768.16 323.91 768.20 315.57 768.18 C 323.25 736.77 330.99 705.36 338.43 673.90 Z" />
<path fill="rgba(0,0,0,0)" opacity="1.00" d=" M 314.20 772.90 C 323.07 772.67 331.95 772.71 340.83 772.78 C 340.63 778.85 341.16 784.91 341.13 790.97 L 340.28 791.26 C 330.07 791.29 319.85 791.07 309.64 791.21 C 311.05 785.08 312.77 779.03 314.20 772.90 Z" />
<path fill="rgba(0,0,0,0)" opacity="1.00" d=" M 219.73 795.47 C 228.73 795.69 237.73 795.51 246.73 795.72 C 242.30 831.80 238.13 867.93 233.67 904.00 C 230.30 904.76 226.78 904.20 223.35 904.34 C 223.09 899.67 223.08 895.00 222.78 890.34 C 221.74 862.79 221.37 835.23 220.04 807.69 C 219.90 803.62 219.86 799.54 219.73 795.47 Z" />
<path fill="rgba(0,0,0,0)" opacity="1.00" d=" M 662.66 813.64 C 666.01 813.75 669.37 813.77 672.72 814.00 C 674.95 828.33 677.37 842.64 679.91 856.92 C 682.79 872.05 686.44 887.04 688.79 902.27 C 678.36 902.46 667.92 902.27 657.49 902.52 C 657.98 872.84 660.26 843.22 662.66 813.64 Z" />
<path fill="rgba(0,0,0,0)" opacity="1.00" d=" M 583.91 941.60 C 591.83 938.30 599.91 935.17 608.37 933.61 C 610.78 937.72 612.06 942.38 614.52 946.48 C 600.46 947.76 586.37 949.12 572.24 948.90 C 575.16 945.17 579.78 943.56 583.91 941.60 Z" />
</g>
<g id="Group-000000" fill="#272525">
<path fill="#272525" opacity="1.00" d=" M 386.00 218.95 C 389.14 218.25 392.33 219.56 395.19 220.76 C 396.65 221.16 397.02 222.61 397.10 223.95 C 393.28 223.33 389.37 222.70 385.78 221.26 L 385.32 220.33 L 386.00 218.95 Z" />
</g>
<g id="Group-000000" fill="#272525">
<path fill="#272525" opacity="1.00" d=" M 362.49 244.71 C 364.43 243.10 367.41 244.68 367.65 247.03 C 368.22 250.17 366.73 254.72 363.02 254.91 C 357.90 254.36 358.94 246.76 362.49 244.71 Z" />
<path fill="#272525" opacity="1.00" d=" M 442.05 568.11 C 445.11 565.91 448.94 567.67 452.02 568.86 C 461.92 573.07 467.56 583.23 470.25 593.18 C 471.66 599.15 472.89 605.50 471.28 611.56 C 467.78 601.06 465.43 589.95 459.49 580.45 C 456.48 575.83 452.01 571.87 446.57 570.51 C 445.35 570.28 443.78 569.75 443.08 571.16 C 439.94 575.75 440.03 581.68 440.97 586.96 C 442.66 597.57 446.72 607.63 451.58 617.15 C 455.97 625.30 460.67 633.40 467.05 640.17 C 467.53 635.76 468.51 631.41 468.95 627.00 C 469.14 625.64 468.01 624.64 467.48 623.52 C 462.55 615.74 458.90 607.24 455.15 598.86 C 452.54 592.27 449.24 585.84 447.92 578.84 C 448.44 578.69 449.49 578.38 450.02 578.23 C 456.12 592.75 462.19 607.41 470.30 620.97 C 471.02 618.49 471.72 616.01 472.38 613.53 C 474.91 604.56 479.02 596.02 484.31 588.36 C 487.21 584.23 490.62 580.02 495.55 578.27 C 497.75 577.50 499.65 579.54 500.87 581.14 C 503.32 584.92 503.72 589.60 503.84 594.00 C 503.75 606.07 501.17 617.98 497.54 629.45 C 493.78 640.58 489.21 651.67 481.88 660.97 C 481.11 662.09 479.95 662.83 478.80 663.49 C 478.74 659.27 481.79 656.04 483.40 652.38 C 491.41 635.97 496.95 618.23 498.87 600.04 C 499.15 594.47 499.41 588.42 496.60 583.40 C 494.65 582.05 492.98 584.51 491.66 585.64 C 480.29 598.92 475.43 616.26 471.96 633.04 C 469.55 644.01 468.99 655.41 471.04 666.47 C 469.85 666.00 468.64 665.37 468.41 664.01 C 465.95 656.46 466.31 648.39 466.97 640.60 C 460.65 638.23 456.26 632.76 452.42 627.46 C 443.63 614.61 437.11 599.66 436.22 583.97 C 436.16 578.37 436.85 571.39 442.05 568.11 Z" />
</g>
<g id="Group-000000" fill="#272525">
<path fill="#272525" opacity="1.00" d=" M 379.17 253.91 C 378.94 252.21 381.43 250.79 382.47 252.49 C 383.32 255.70 382.70 259.10 382.65 262.39 C 385.49 261.11 388.70 258.90 391.90 260.16 C 396.32 262.52 396.35 268.67 394.74 272.79 C 394.25 274.28 392.55 273.69 391.40 273.81 C 390.87 270.51 392.31 266.44 390.07 263.69 C 385.62 262.78 383.22 268.18 379.08 268.45 C 379.16 263.60 378.95 258.75 379.17 253.91 Z" />
</g>
<g id="Group-000000" fill="#272525">
<path fill="#272525" opacity="1.00" d=" M 310.32 279.55 C 307.26 275.93 310.63 269.72 315.03 269.20 C 318.70 269.55 321.85 272.09 323.84 275.07 C 325.22 276.51 323.26 278.00 322.06 278.53 C 320.22 276.64 318.11 274.69 315.26 274.95 C 314.39 276.93 313.19 280.82 310.32 279.55 Z" />
</g>
<g id="Group-000000" fill="#272525">
<path fill="#272525" opacity="1.00" d=" M 361.26 282.49 C 362.63 281.38 364.42 282.07 365.98 282.23 C 371.83 283.31 377.62 284.67 383.47 285.74 C 386.03 286.27 389.24 287.03 390.20 289.83 C 390.50 293.71 387.46 297.07 384.05 298.48 C 375.39 302.13 364.04 297.94 360.49 289.06 C 359.68 286.96 359.52 284.17 361.26 282.49 Z" />
</g>
<g id="Group-000000" fill="#272525">
<path fill="#272525" opacity="1.00" d=" M 634.27 295.45 C 638.24 293.77 642.78 293.97 647.02 294.22 C 648.39 294.17 648.55 295.78 649.07 296.70 C 645.14 297.45 641.10 297.18 637.18 297.94 C 636.34 300.89 639.48 303.34 640.23 306.13 C 634.65 307.86 630.58 299.22 634.27 295.45 Z" />
<path fill="#272525" opacity="1.00" d=" M 205.35 687.80 C 204.61 686.02 204.28 683.24 206.59 682.53 C 206.55 683.90 206.94 685.13 207.78 686.24 C 207.09 686.95 206.47 687.87 205.35 687.80 Z" />
</g>
<g id="Group-000000" fill="#272525">
<path fill="#272525" opacity="1.00" d=" M 703.25 319.17 C 704.50 318.15 706.45 317.95 707.54 319.34 C 710.24 322.35 705.72 328.47 702.21 325.74 C 699.72 324.07 701.25 320.55 703.25 319.17 Z" />
</g>
<g id="Group-000000" fill="#272525">
<path fill="#272525" opacity="1.00" d=" M 652.26 320.89 C 654.08 318.78 655.89 322.74 654.32 324.26 C 649.00 332.34 635.98 333.88 629.21 326.74 C 627.63 325.43 627.81 322.25 630.16 321.99 C 632.90 323.53 634.73 326.59 638.02 327.18 C 643.61 328.74 649.48 325.83 652.26 320.89 Z" />
<path fill="#272525" opacity="1.00" d=" M 643.70 471.30 C 642.17 469.94 643.97 468.69 644.83 467.62 C 646.15 468.10 647.55 468.52 648.83 469.16 C 649.05 470.52 649.17 471.91 649.19 473.30 C 647.24 473.02 644.57 473.58 643.70 471.30 Z" />
</g>
<g id="Group-000000" fill="#272525">
<path fill="#272525" opacity="1.00" d=" M 662.20 325.06 C 666.01 322.49 668.55 329.15 664.85 330.79 C 661.23 332.96 658.84 326.92 662.20 325.06 Z" />
</g>
<g id="Group-000000" fill="#272525">
<path fill="rgba(0,0,0,0)" opacity="1.00" d=" M 306.81 341.88 C 307.81 340.59 308.37 338.56 310.10 338.10 C 313.29 339.29 316.00 341.43 319.01 342.99 C 328.09 348.07 338.64 350.20 348.99 349.75 C 353.56 349.47 357.92 347.89 362.10 346.14 C 364.96 351.15 369.84 354.32 373.77 358.34 C 375.82 362.55 375.40 367.76 374.00 372.14 C 369.55 370.00 367.43 365.29 364.33 361.73 C 361.58 358.62 358.96 354.93 354.93 353.44 C 353.25 352.76 352.13 354.68 350.96 355.50 C 349.23 355.24 347.50 354.95 345.79 354.64 C 338.50 359.39 337.60 369.54 330.47 374.47 C 327.87 376.20 324.62 374.98 322.03 373.85 C 316.60 371.29 311.92 367.45 307.06 363.99 C 303.68 361.20 299.68 358.89 297.43 355.00 C 300.52 350.60 304.20 346.62 306.81 341.88 Z" />
<path fill="rgba(0,0,0,0)" opacity="1.00" d=" M 353.98 357.20 C 360.95 361.44 364.23 369.51 370.80 374.18 C 372.98 375.89 376.32 375.04 377.64 372.68 C 379.32 369.69 378.77 366.11 378.86 362.84 C 385.30 368.98 390.48 376.25 395.67 383.43 C 406.85 399.56 416.00 417.18 421.91 435.92 C 426.69 451.05 430.25 466.54 433.14 482.14 C 433.44 483.69 433.76 485.25 434.09 486.81 C 430.85 485.08 427.62 483.31 424.27 481.79 C 422.79 480.91 421.12 481.10 419.62 481.82 C 424.75 485.81 430.57 488.76 436.12 492.10 C 432.49 495.21 428.76 498.61 427.21 503.28 C 423.91 511.85 426.49 521.14 429.55 529.36 C 425.67 528.77 421.81 528.03 418.03 526.98 C 417.75 499.12 414.85 471.26 409.55 443.91 C 407.23 431.31 403.21 419.12 399.40 406.91 C 398.94 405.21 397.99 403.04 395.77 403.91 C 395.24 405.54 395.41 407.25 395.74 408.91 C 397.31 417.23 399.65 425.38 401.57 433.63 C 409.60 465.74 412.30 498.93 413.22 531.94 C 413.55 538.37 412.99 545.48 408.59 550.57 C 405.50 554.19 400.60 555.22 396.17 556.21 C 384.16 558.63 371.98 560.27 359.74 560.97 C 361.13 556.03 362.55 551.11 363.72 546.11 C 367.87 528.39 368.35 510.10 368.48 491.99 C 368.61 464.26 367.24 436.51 363.89 408.98 C 361.76 391.52 357.91 374.32 353.98 357.20 M 380.34 424.14 C 380.70 428.75 380.08 433.52 381.80 437.91 C 383.36 447.90 383.66 458.06 384.81 468.09 C 385.18 472.03 389.40 474.08 392.99 473.78 C 396.13 473.92 400.40 472.68 401.05 469.14 C 400.76 457.35 398.25 445.73 397.76 433.95 C 397.24 430.14 397.32 426.05 395.39 422.61 C 390.44 421.19 385.26 423.33 380.34 424.14 Z" />
<path fill="rgba(0,0,0,0)" opacity="1.00" d=" M 586.49 448.41 C 593.50 432.85 603.17 418.08 616.15 406.86 C 609.01 421.70 601.73 436.73 598.41 452.98 C 595.00 470.43 594.55 488.78 599.50 505.99 C 601.08 511.35 603.31 516.68 606.96 520.99 C 609.03 523.63 612.45 524.35 615.35 525.73 C 612.73 527.99 609.25 528.40 605.99 528.99 C 601.01 529.81 595.98 530.30 590.94 530.47 C 589.43 530.74 588.35 529.61 587.38 528.69 C 580.49 522.17 574.17 514.99 566.86 508.95 C 561.80 506.56 555.89 506.86 550.51 505.53 C 550.94 498.36 547.19 492.05 543.70 486.11 C 556.40 488.20 569.23 489.41 581.89 491.77 C 584.14 492.00 586.63 492.82 588.80 491.77 C 590.08 490.56 589.03 488.71 587.46 488.62 C 584.56 487.89 581.55 487.80 578.60 487.40 C 579.13 474.10 581.17 460.70 586.49 448.41 Z" />
<path fill="rgba(0,0,0,0)" opacity="1.00" d=" M 264.10 584.93 C 273.36 578.86 280.33 570.12 287.49 561.83 C 291.99 566.94 295.73 572.67 300.28 577.75 C 303.60 580.91 300.97 585.70 299.17 588.96 C 295.87 593.87 292.37 600.04 286.03 601.17 C 276.95 598.82 270.49 591.32 264.10 584.93 Z" />
<path fill="rgba(0,0,0,0)" opacity="1.00" d=" M 532.88 771.64 C 544.51 770.57 556.19 770.00 567.86 769.40 C 567.03 776.86 565.84 784.28 564.89 791.73 C 558.30 792.40 551.65 792.32 545.05 792.86 C 540.71 792.91 536.34 793.89 532.02 793.11 C 528.36 787.31 529.39 780.01 530.36 773.57 C 530.26 772.11 531.73 771.65 532.88 771.64 Z" />
<path fill="rgba(0,0,0,0)" opacity="1.00" d=" M 188.41 795.27 C 194.81 795.30 201.21 795.37 207.61 795.42 C 206.29 808.58 208.06 821.81 208.23 834.99 C 209.17 856.02 210.03 877.05 210.87 898.08 C 210.92 900.18 210.88 902.29 210.80 904.41 C 202.08 904.50 193.37 904.44 184.66 904.61 C 184.89 880.35 186.19 856.11 186.80 831.86 C 187.43 819.66 187.38 807.44 188.41 795.27 Z" />
<path fill="rgba(0,0,0,0)" opacity="1.00" d=" M 665.35 949.41 C 669.00 946.18 672.53 942.63 676.97 940.48 C 680.24 939.08 684.81 938.59 687.43 941.52 C 690.58 945.16 693.31 949.16 696.57 952.73 C 681.52 955.59 666.82 960.05 651.73 962.69 C 655.76 957.77 660.70 953.72 665.35 949.41 Z" />
</g>
<g id="Group-000000" fill="#272525">
<path fill="rgba(0,0,0,0)" opacity="1.00" d=" M 647.25 384.21 C 650.86 381.99 654.77 379.99 658.90 378.97 C 663.18 381.05 667.22 383.79 671.92 384.84 C 674.89 385.61 677.96 385.58 681.00 385.89 C 682.84 387.38 684.42 389.27 686.63 390.27 C 694.27 394.20 702.58 396.86 711.03 398.36 C 704.80 405.35 696.65 411.51 686.98 412.10 C 682.28 412.58 677.37 410.02 675.70 405.50 C 673.59 399.72 673.68 393.12 670.01 387.94 C 668.55 387.37 667.75 389.11 666.77 389.83 C 661.84 394.56 656.85 399.27 651.34 403.32 C 648.32 405.30 644.77 407.48 641.02 406.70 C 638.74 405.94 638.72 403.04 638.86 401.07 C 639.42 394.74 641.50 387.72 647.25 384.21 Z" />
<path fill="rgba(0,0,0,0)" opacity="1.00" d=" M 512.39 526.40 C 515.63 523.64 518.39 520.40 521.08 517.12 C 522.57 518.41 523.48 521.05 525.84 520.64 C 525.38 520.82 524.47 521.17 524.01 521.35 C 526.70 523.40 529.48 525.52 530.96 528.67 C 528.68 530.76 526.50 533.01 523.82 534.59 C 521.85 534.67 519.93 534.35 518.78 532.60 C 522.14 530.60 525.33 528.20 527.09 524.60 C 526.06 523.87 525.06 523.18 524.05 522.44 C 522.99 527.88 517.19 530.25 512.17 529.22 C 512.23 528.52 512.34 527.10 512.39 526.40 Z" />
<path fill="rgba(0,0,0,0)" opacity="1.00" d=" M 518.47 798.18 C 523.17 797.59 527.89 798.31 532.60 798.04 C 532.33 821.38 534.34 844.67 535.02 868.00 C 535.90 879.68 535.96 891.39 536.67 903.08 C 529.33 903.13 521.99 903.10 514.64 903.13 C 514.94 885.76 515.73 868.41 516.23 851.05 C 517.06 833.43 517.27 815.78 518.47 798.18 Z" />
<path fill="rgba(0,0,0,0)" opacity="1.00" d=" M 508.77 807.02 C 508.99 803.86 512.72 803.17 514.88 801.63 C 513.63 824.42 513.00 847.23 511.96 870.03 C 511.40 887.72 510.32 905.41 510.29 923.11 C 510.59 926.25 506.86 927.00 504.46 926.85 C 504.49 899.57 506.01 872.31 506.91 845.05 C 507.65 832.38 507.63 819.66 508.77 807.02 Z" />
<path fill="rgba(0,0,0,0)" opacity="1.00" d=" M 211.85 811.02 C 211.72 807.53 215.40 805.94 217.56 803.83 C 217.45 806.68 217.49 809.54 217.65 812.39 C 218.54 836.46 219.23 860.53 219.96 884.60 C 219.89 895.08 221.00 905.56 220.31 916.03 C 218.39 916.67 216.41 917.34 214.36 917.06 C 214.79 913.05 214.66 909.02 214.45 905.01 C 213.47 873.68 212.59 842.35 211.85 811.02 Z" />
</g>
<g id="Group-000000" fill="#272525">
<path fill="rgba(0,0,0,0)" opacity="1.00" d=" M 632.46 387.49 C 633.11 386.61 635.33 386.18 635.61 387.56 C 634.91 388.53 633.49 389.95 632.22 389.47 C 632.28 388.97 632.40 387.98 632.46 387.49 Z" />
<path fill="rgba(0,0,0,0)" opacity="1.00" d=" M 499.05 502.19 C 515.07 503.45 531.08 505.18 546.99 507.49 C 548.42 507.46 549.20 508.34 548.80 509.79 C 546.54 510.34 544.24 509.84 541.99 509.58 C 528.29 507.66 514.48 506.68 500.79 504.77 C 499.62 504.85 497.22 503.38 499.05 502.19 Z" />
</g>
<g id="Group-000000" fill="#272525">
<path fill="#272525" opacity="1.00" d=" M 662.92 400.84 C 664.30 400.25 665.74 400.17 667.16 400.70 C 667.08 401.51 666.91 403.13 666.82 403.94 C 665.53 403.97 664.25 403.99 662.98 404.00 C 662.96 403.21 662.93 401.63 662.92 400.84 Z" />
</g>
<g id="Group-000000" fill="#272525">
<path fill="#272525" opacity="1.00" d=" M 660.05 408.09 C 661.32 408.37 662.60 408.70 663.87 409.04 C 663.92 409.80 664.03 411.31 664.09 412.07 C 661.55 413.10 659.18 410.66 660.05 408.09 Z" />
</g>
<g id="Group-000000" fill="#272525">
<path fill="#272525" opacity="1.00" d=" M 657.36 416.24 C 658.74 416.82 661.30 416.92 661.06 419.02 C 661.12 421.37 658.11 421.37 657.00 419.93 C 656.07 418.80 657.16 417.43 657.36 416.24 Z" />
</g>
<g id="Group-000000" fill="#272525">
<path fill="#272525" opacity="1.00" d=" M 380.34 424.14 C 385.26 423.33 390.44 421.19 395.39 422.61 C 397.32 426.05 397.24 430.14 397.76 433.95 C 398.25 445.73 400.76 457.35 401.05 469.14 C 400.40 472.68 396.13 473.92 392.99 473.78 C 389.40 474.08 385.18 472.03 384.81 468.09 C 383.66 458.06 383.36 447.90 381.80 437.91 C 380.08 433.52 380.70 428.75 380.34 424.14 M 383.26 426.32 C 383.23 428.07 383.23 429.82 383.31 431.57 C 386.87 431.45 390.42 431.08 393.95 430.65 C 393.72 428.79 393.43 426.96 393.05 425.14 C 389.74 425.03 386.46 425.52 383.26 426.32 M 385.55 435.20 C 386.19 445.20 387.56 455.15 388.39 465.14 C 388.51 468.25 391.86 471.15 394.94 469.74 C 397.23 468.97 397.50 466.18 397.36 464.13 C 396.63 454.26 395.04 444.49 394.19 434.64 C 391.31 434.89 388.43 435.09 385.55 435.20 Z" />
</g>
<g id="Group-000000" fill="#272525">
<path fill="rgba(0,0,0,0)" opacity="1.00" d=" M 383.26 426.32 C 386.46 425.52 389.74 425.03 393.05 425.14 C 393.43 426.96 393.72 428.79 393.95 430.65 C 390.42 431.08 386.87 431.45 383.31 431.57 C 383.23 429.82 383.23 428.07 383.26 426.32 Z" />
<path fill="rgba(0,0,0,0)" opacity="1.00" d=" M 443.08 571.16 C 443.78 569.75 445.35 570.28 446.57 570.51 C 452.01 571.87 456.48 575.83 459.49 580.45 C 465.43 589.95 467.78 601.06 471.28 611.56 C 471.55 612.05 472.11 613.04 472.38 613.53 C 471.72 616.01 471.02 618.49 470.30 620.97 C 462.19 607.41 456.12 592.75 450.02 578.23 C 449.49 578.38 448.44 578.69 447.92 578.84 C 449.24 585.84 452.54 592.27 455.15 598.86 C 458.90 607.24 462.55 615.74 467.48 623.52 C 468.01 624.64 469.14 625.64 468.95 627.00 C 468.51 631.41 467.53 635.76 467.05 640.17 C 460.67 633.40 455.97 625.30 451.58 617.15 C 446.72 607.63 442.66 597.57 440.97 586.96 C 440.03 581.68 439.94 575.75 443.08 571.16 Z" />
</g>
<g id="Group-000000" fill="#272525">
<path fill="#272525" opacity="1.00" d=" M 653.93 428.17 C 653.21 425.46 657.15 424.47 658.35 426.56 C 658.47 427.84 658.22 429.11 658.13 430.39 C 656.64 429.94 654.27 430.16 653.93 428.17 Z" />
</g>
<g id="Group-000000" fill="#272525">
<path fill="rgba(0,0,0,0)" opacity="1.00" d=" M 385.55 435.20 C 388.43 435.09 391.31 434.89 394.19 434.64 C 395.04 444.49 396.63 454.26 397.36 464.13 C 397.50 466.18 397.23 468.97 394.94 469.74 C 391.86 471.15 388.51 468.25 388.39 465.14 C 387.56 455.15 386.19 445.20 385.55 435.20 Z" />
<path fill="rgba(0,0,0,0)" opacity="1.00" d=" M 418.55 615.37 C 423.26 615.62 426.31 619.55 429.28 622.71 C 445.40 640.67 454.45 663.41 468.21 683.02 C 470.04 685.23 470.55 688.08 470.49 690.89 C 457.15 676.97 447.02 660.32 436.96 644.00 C 436.40 643.82 435.27 643.44 434.71 643.26 C 435.41 647.07 437.54 650.35 439.38 653.70 C 447.09 667.14 455.72 680.16 466.26 691.56 C 467.47 692.99 468.86 694.33 469.64 696.08 C 469.48 700.47 469.12 704.85 468.99 709.24 C 465.00 706.92 462.21 703.16 459.10 699.85 C 441.82 681.66 431.35 658.38 423.05 635.01 C 421.04 628.61 418.51 622.18 418.55 615.37 Z" />
</g>
<g id="Group-000000" fill="#272525">
<path fill="#272525" opacity="1.00" d=" M 650.85 436.55 C 651.78 434.42 655.07 433.27 656.37 435.56 C 656.35 436.95 655.84 438.28 655.55 439.64 C 653.78 438.92 652.14 437.94 650.85 436.55 Z" />
<path fill="#272525" opacity="1.00" d=" M 647.10 454.91 C 646.32 453.13 647.87 451.91 648.88 450.71 C 650.99 451.88 652.87 453.41 652.21 456.08 C 650.46 456.04 648.25 456.62 647.10 454.91 Z" />
</g>
<g id="Group-000000" fill="#272525">
<path fill="#272525" opacity="1.00" d=" M 421.91 435.92 C 423.18 435.59 424.44 435.26 425.72 434.94 C 430.08 449.60 433.09 464.66 434.99 479.83 C 434.37 480.60 433.75 481.37 433.14 482.14 C 430.25 466.54 426.69 451.05 421.91 435.92 Z" />
<path fill="#272525" opacity="1.00" d=" M 192.90 708.22 C 194.58 707.57 196.19 711.20 194.32 711.72 C 193.16 711.16 192.26 709.40 192.90 708.22 Z" />
<path fill="#272525" opacity="1.00" d=" M 198.17 713.10 C 199.77 715.26 204.50 716.44 202.60 719.80 C 199.35 719.34 199.07 715.59 198.17 713.10 Z" />
</g>
<g id="Group-000000" fill="#272525">
<path fill="#272525" opacity="1.00" d=" M 650.64 442.52 C 652.41 442.58 655.18 443.94 654.24 446.10 C 653.99 449.90 647.64 447.16 649.19 444.29 C 649.55 443.84 650.28 442.96 650.64 442.52 Z" />
</g>
<g id="Group-000000" fill="#272525">
<path fill="#272525" opacity="1.00" d=" M 647.21 459.20 C 649.97 459.84 651.32 462.60 650.15 465.20 C 648.62 464.82 646.74 464.97 645.75 463.53 C 643.66 462.03 646.18 460.35 647.21 459.20 Z" />
</g>
<g id="Group-000000" fill="#272525">
<path fill="#272525" opacity="1.00" d=" M 642.14 477.16 C 644.03 476.42 646.03 476.33 648.00 476.86 C 647.93 478.25 647.86 479.63 647.78 481.02 C 646.17 481.12 644.55 481.13 642.95 481.12 C 642.64 479.80 642.36 478.48 642.14 477.16 Z" />
</g>
<g id="Group-000000" fill="#272525">
<path fill="rgba(0,0,0,0)" opacity="1.00" d=" M 511.94 480.05 C 518.32 481.17 524.56 482.94 530.96 483.95 C 533.49 484.44 536.40 484.75 538.21 486.82 C 542.42 491.71 544.73 498.02 545.47 504.38 C 536.96 503.61 528.50 502.38 519.99 501.63 C 516.94 501.20 513.76 501.31 510.87 500.10 C 513.32 498.26 516.05 496.81 518.99 495.93 C 521.03 495.16 523.52 495.05 524.88 493.09 C 521.26 488.03 515.03 485.51 511.94 480.05 Z" />
<path fill="rgba(0,0,0,0)" opacity="1.00" d=" M 536.56 813.08 C 537.81 810.10 540.45 808.01 542.70 805.78 C 543.51 844.16 545.82 882.53 546.16 920.93 C 544.30 921.25 542.19 923.09 540.46 921.63 C 539.40 885.44 537.59 849.27 536.56 813.08 Z" />
</g>
<g id="Group-000000" fill="#272525">
<path fill="rgba(0,0,0,0)" opacity="1.00" d=" M 447.94 488.93 C 452.45 486.73 456.94 484.26 461.99 483.55 C 459.96 488.22 454.95 490.12 451.63 493.62 C 450.40 494.58 450.39 496.42 451.97 497.01 C 456.98 499.93 462.01 502.82 466.88 505.97 C 467.54 506.34 468.20 506.72 468.88 507.11 C 463.83 508.08 458.72 509.14 453.61 507.96 C 453.23 510.65 454.03 513.26 454.80 515.81 C 453.24 516.73 450.67 516.96 450.38 519.12 C 449.75 523.58 452.23 527.56 453.94 531.48 C 451.16 532.45 448.33 533.32 445.46 533.97 C 440.17 534.63 435.36 531.18 433.64 526.27 C 430.67 518.38 428.15 508.99 432.14 501.01 C 435.66 495.17 442.04 491.91 447.94 488.93 M 445.73 505.63 C 445.56 508.36 446.42 511.24 445.22 513.84 C 444.36 516.35 441.60 518.03 442.04 520.97 C 443.52 520.77 445.27 520.88 446.31 519.58 C 449.60 516.03 450.23 510.79 449.84 506.15 C 448.48 505.60 447.11 505.42 445.73 505.63 Z" />
<path fill="rgba(0,0,0,0)" opacity="1.00" d=" M 455.35 524.39 C 459.52 526.41 463.65 528.77 468.40 528.97 C 466.19 533.03 460.06 533.26 457.13 529.92 C 455.83 528.38 455.82 526.24 455.35 524.39 Z" />
<path fill="rgba(0,0,0,0)" opacity="1.00" d=" M 190.42 611.63 C 194.80 613.48 197.09 617.90 199.10 621.93 C 206.54 637.42 210.43 654.28 214.01 670.99 C 217.64 691.15 224.41 710.55 228.90 730.51 C 222.97 730.56 216.99 731.13 211.08 730.58 C 206.84 729.22 202.85 727.13 198.96 724.99 C 186.27 717.59 174.78 707.80 166.74 695.42 C 165.56 693.63 165.00 691.54 164.48 689.50 C 171.94 689.77 178.67 693.44 185.04 696.98 C 191.45 700.97 198.22 704.62 203.63 709.98 C 203.82 708.34 204.06 706.73 204.57 705.18 C 205.86 706.24 207.17 707.29 208.51 708.30 C 208.35 704.90 204.98 703.16 201.87 703.76 C 199.52 695.72 197.03 687.61 196.69 679.18 C 197.24 679.30 198.35 679.56 198.91 679.69 C 198.52 677.43 198.33 675.12 199.27 672.97 C 199.71 674.82 200.10 676.73 200.62 678.59 C 200.96 676.47 200.65 674.37 199.98 672.38 C 199.46 672.48 198.42 672.69 197.90 672.80 C 197.31 674.05 196.71 675.30 196.11 676.56 C 195.97 673.98 196.04 671.41 195.73 668.86 C 194.84 666.60 193.37 664.55 193.08 662.10 C 191.68 652.92 190.66 643.69 189.84 634.45 C 189.41 626.85 188.29 619.08 190.42 611.63 M 196.81 644.63 C 197.01 647.02 197.50 649.39 198.19 651.69 C 199.15 651.44 200.10 651.21 201.07 650.98 C 200.20 648.46 200.62 644.25 196.81 644.63 M 205.35 687.80 C 206.47 687.87 207.09 686.95 207.78 686.24 C 206.94 685.13 206.55 683.90 206.59 682.53 C 204.28 683.24 204.61 686.02 205.35 687.80 M 192.40 712.19 C 191.05 710.40 189.37 708.51 191.73 706.61 C 187.03 705.24 188.35 713.31 192.40 712.19 M 192.90 708.22 C 192.26 709.40 193.16 711.16 194.32 711.72 C 196.19 711.20 194.58 707.57 192.90 708.22 M 198.17 713.10 C 199.07 715.59 199.35 719.34 202.60 719.80 C 204.50 716.44 199.77 715.26 198.17 713.10 Z" />
<path fill="rgba(0,0,0,0)" opacity="1.00" d=" M 239.42 615.26 C 239.69 615.24 240.24 615.20 240.51 615.18 C 243.75 621.63 244.78 628.91 245.72 635.99 C 248.21 659.76 243.50 683.97 233.61 705.63 C 232.44 708.04 231.36 710.60 229.41 712.51 C 228.68 709.69 228.14 706.71 229.41 703.95 C 234.52 688.73 237.26 672.82 239.16 656.91 C 239.19 655.13 240.02 652.91 238.27 651.68 C 235.41 668.90 232.31 686.11 227.64 702.95 C 225.20 695.69 222.49 688.48 220.99 680.96 C 221.06 674.17 222.59 667.53 224.11 660.95 C 227.73 645.31 231.71 629.45 239.42 615.26 Z" />
<path fill="rgba(0,0,0,0)" opacity="1.00" d=" M 500.73 672.72 C 506.02 669.02 511.93 664.79 518.71 665.24 C 519.06 670.25 516.42 674.74 514.12 678.98 C 506.00 692.65 494.24 703.95 481.06 712.74 C 479.83 713.60 478.65 714.61 477.14 714.93 C 478.91 710.49 482.88 707.52 485.89 703.96 C 492.34 696.68 498.66 689.24 504.28 681.29 C 505.92 678.89 508.29 676.69 508.42 673.60 C 505.48 674.82 504.06 677.82 502.10 680.12 C 496.55 687.50 490.35 694.34 484.25 701.27 C 481.95 703.64 480.00 706.42 477.21 708.27 C 477.71 704.13 477.38 699.55 479.99 696.02 C 485.71 687.31 492.73 679.39 500.73 672.72 Z" />
</g>
<g id="Group-000000" fill="#272525">
<path fill="#272525" opacity="1.00" d=" M 468.23 502.49 C 471.58 504.09 475.43 505.15 478.04 507.93 C 480.65 511.68 477.69 516.07 477.70 520.12 C 477.81 523.54 475.15 525.82 472.85 527.91 C 471.50 530.14 470.47 532.82 467.91 533.95 C 464.86 535.89 461.14 535.15 457.80 534.63 C 455.32 534.13 453.00 535.44 450.64 536.00 C 448.73 535.86 446.99 535.07 445.46 533.97 C 448.33 533.32 451.16 532.45 453.94 531.48 C 452.23 527.56 449.75 523.58 450.38 519.12 C 450.67 516.96 453.24 516.73 454.80 515.81 C 454.03 513.26 453.23 510.65 453.61 507.96 C 458.72 509.14 463.83 508.08 468.88 507.11 C 468.20 506.72 467.54 506.34 466.88 505.97 C 467.32 504.80 467.77 503.64 468.23 502.49 M 468.03 509.90 C 464.47 511.46 460.60 510.18 456.89 510.43 C 459.25 513.66 463.25 514.97 466.97 515.92 C 469.51 516.27 472.90 517.02 474.71 514.63 C 476.33 513.12 476.42 509.95 474.07 509.11 C 472.09 507.65 469.98 509.36 468.03 509.90 M 457.02 515.24 C 457.79 517.00 456.98 518.78 455.67 519.91 L 456.55 519.26 L 456.53 520.18 L 456.55 519.53 C 456.96 519.74 457.79 520.16 458.20 520.37 C 461.23 524.35 467.30 527.04 471.95 524.26 C 473.91 523.31 474.84 521.22 475.07 519.16 C 468.79 519.42 462.57 518.25 457.02 515.24 M 455.35 524.39 C 455.82 526.24 455.83 528.38 457.13 529.92 C 460.06 533.26 466.19 533.03 468.40 528.97 C 463.65 528.77 459.52 526.41 455.35 524.39 Z" />
</g>
<g id="Group-000000" fill="#272525">
<path fill="#272525" opacity="1.00" d=" M 445.73 505.63 C 447.11 505.42 448.48 505.60 449.84 506.15 C 450.23 510.79 449.60 516.03 446.31 519.58 C 445.27 520.88 443.52 520.77 442.04 520.97 C 441.60 518.03 444.36 516.35 445.22 513.84 C 446.42 511.24 445.56 508.36 445.73 505.63 Z" />
</g>
<g id="Group-000000" fill="#272525">
<path fill="rgba(0,0,0,0)" opacity="1.00" d=" M 468.03 509.90 C 469.98 509.36 472.09 507.65 474.07 509.11 C 476.42 509.95 476.33 513.12 474.71 514.63 C 472.90 517.02 469.51 516.27 466.97 515.92 C 463.25 514.97 459.25 513.66 456.89 510.43 C 460.60 510.18 464.47 511.46 468.03 509.90 Z" />
</g>
<g id="Group-000000" fill="#272525">
<path fill="rgba(0,0,0,0)" opacity="1.00" d=" M 457.02 515.24 C 462.57 518.25 468.79 519.42 475.07 519.16 C 474.84 521.22 473.91 523.31 471.95 524.26 C 467.30 527.04 461.23 524.35 458.20 520.37 C 457.79 520.16 456.96 519.74 456.55 519.53 L 456.53 520.18 L 456.55 519.26 L 455.67 519.91 C 456.98 518.78 457.79 517.00 457.02 515.24 Z" />
</g>
<g id="Group-000000" fill="#272525">
<path fill="#272525" opacity="1.00" d=" M 507.98 523.14 C 508.64 523.01 509.98 522.74 510.65 522.60 C 511.23 523.86 511.81 525.13 512.39 526.40 C 512.34 527.10 512.23 528.52 512.17 529.22 C 517.19 530.25 522.99 527.88 524.05 522.44 C 525.06 523.18 526.06 523.87 527.09 524.60 C 525.33 528.20 522.14 530.60 518.78 532.60 C 519.93 534.35 521.85 534.67 523.82 534.59 C 524.99 534.94 526.17 535.32 527.34 535.73 C 525.82 536.44 524.26 537.08 522.73 537.75 C 523.99 539.10 525.33 540.39 526.72 541.62 C 526.79 542.17 526.93 543.27 526.99 543.82 C 525.49 543.58 524.00 543.28 522.53 542.96 C 520.63 539.24 516.20 537.29 515.69 532.83 C 514.30 532.36 512.84 532.08 511.56 531.36 C 510.08 530.01 510.23 527.82 509.83 526.04 C 508.08 526.08 506.32 526.12 504.58 526.12 C 504.98 525.70 505.77 524.85 506.17 524.43 C 507.01 524.53 507.87 524.64 508.73 524.76 C 508.54 524.35 508.16 523.55 507.98 523.14 Z" />
</g>
<g id="Group-000000" fill="#272525">
<path fill="rgba(0,0,0,0)" opacity="1.00" d=" M 527.34 535.73 C 529.69 534.31 531.49 532.20 533.22 530.12 C 534.43 531.45 536.24 533.00 535.06 534.97 C 533.44 538.17 530.52 541.39 526.72 541.62 C 525.33 540.39 523.99 539.10 522.73 537.75 C 524.26 537.08 525.82 536.44 527.34 535.73 Z" />
</g>
<g id="Group-000000" fill="#272525">
<path fill="#272525" opacity="1.00" d=" M 187.64 641.09 C 186.97 631.71 186.45 622.21 187.82 612.88 C 187.80 616.59 187.90 620.30 187.79 624.02 C 187.79 627.57 187.22 631.59 189.84 634.45 C 190.66 643.69 191.68 652.92 193.08 662.10 C 193.37 664.55 194.84 666.60 195.73 668.86 C 196.04 671.41 195.97 673.98 196.11 676.56 C 196.71 675.30 197.31 674.05 197.90 672.80 C 198.42 672.69 199.46 672.48 199.98 672.38 C 200.65 674.37 200.96 676.47 200.62 678.59 C 200.10 676.73 199.71 674.82 199.27 672.97 C 198.33 675.12 198.52 677.43 198.91 679.69 C 198.35 679.56 197.24 679.30 196.69 679.18 C 197.03 687.61 199.52 695.72 201.87 703.76 C 204.98 703.16 208.35 704.90 208.51 708.30 C 207.17 707.29 205.86 706.24 204.57 705.18 C 204.06 706.73 203.82 708.34 203.63 709.98 C 198.22 704.62 191.45 700.97 185.04 696.98 C 178.67 693.44 171.94 689.77 164.48 689.50 C 165.00 691.54 165.56 693.63 166.74 695.42 C 174.78 707.80 186.27 717.59 198.96 724.99 C 198.92 725.62 198.83 726.89 198.79 727.52 C 198.37 727.51 197.55 727.49 197.13 727.48 C 196.78 727.80 196.08 728.45 195.73 728.77 C 182.80 720.94 171.25 710.33 163.86 697.03 C 162.46 694.39 161.04 690.82 163.11 688.16 C 165.02 685.81 168.42 686.59 171.01 686.99 C 182.21 689.07 191.43 696.24 199.89 703.43 C 196.04 694.32 193.87 684.60 191.95 674.93 C 189.90 663.74 188.35 652.44 187.64 641.09 Z" />
</g>
<g id="Group-000000" fill="#272525">
<path fill="rgba(0,0,0,0)" opacity="1.00" d=" M 196.81 644.63 C 200.62 644.25 200.20 648.46 201.07 650.98 C 200.10 651.21 199.15 651.44 198.19 651.69 C 197.50 649.39 197.01 647.02 196.81 644.63 Z" />
</g>
<g id="Group-000000" fill="#272525">
<path fill="#272525" opacity="1.00" d=" M 192.40 712.19 C 188.35 713.31 187.03 705.24 191.73 706.61 C 189.37 708.51 191.05 710.40 192.40 712.19 Z" />
</g>
<g id="Group-000000" fill="#272525">
<path fill="rgba(0,0,0,0)" opacity="1.00" d=" M 399.14 773.12 C 411.40 773.06 423.65 773.03 435.91 772.89 C 448.96 772.67 462.00 773.56 475.04 772.87 C 491.46 772.92 507.88 773.18 524.31 773.29 C 523.58 779.80 523.57 786.42 524.97 792.86 C 483.02 792.50 441.07 791.57 399.11 791.71 C 399.07 785.51 399.08 779.31 399.14 773.12 Z" />
</g>
<g id="Group-000000" fill="#272525">
<path fill="rgba(0,0,0,0)" opacity="1.00" d=" M 178.43 807.05 C 178.44 803.61 182.25 802.69 184.62 801.23 C 183.71 823.46 182.99 845.70 182.14 867.94 C 181.58 886.29 180.38 904.63 180.66 923.00 C 180.90 925.94 177.55 926.94 175.38 927.83 C 174.54 924.92 174.66 921.90 174.72 918.92 C 174.67 893.60 176.54 868.33 176.96 843.02 C 177.62 831.04 177.69 819.02 178.43 807.05 Z" />
</g>
<g id="Group-000000" fill="#272525">
<path fill="#272525" opacity="1.00" d=" M 217.65 812.39 C 218.38 810.79 219.17 809.22 220.04 807.69 C 221.37 835.23 221.74 862.79 222.78 890.34 C 220.73 889.18 220.63 886.59 219.96 884.60 C 219.23 860.53 218.54 836.46 217.65 812.39 Z" />
</g>
<g id="Group-000000" fill="#272525">
<path fill="#272525" opacity="1.00" d=" M 725.97 902.25 C 769.32 902.01 812.67 901.57 856.02 902.17 C 882.34 902.52 908.67 902.14 934.98 902.64 C 964.65 903.01 994.33 902.55 1024.00 903.16 L 1024.00 906.92 C 925.06 907.00 826.12 905.56 727.19 906.71 C 726.76 905.20 726.34 903.74 725.97 902.25 Z" />
</g>
</g></svg>