<svg xmlns="http://www.w3.org/2000/svg" version="1.1" viewBox="0.00 0.00 1024.00 1024.00">
<g id="Parent-Group"><g fill="rgba(0,0,0,0)" id="Group-rgba(0,0,0,0)">
<path d="   M 0.00 0.00   L 1024.00 0.00   L 1024.00 1024.00   L 0.00 1024.00   L 0.00 0.00   Z   M 853.99 245.99   L 853.85 237.26   Q 853.83 235.70 852.26 235.73   L 851.22 235.76   Q 850.06 235.78 849.94 236.93   Q 849.39 242.10 849.82 248.09   A 0.44 0.43 14.8 0 1 849.14 248.48   Q 845.94 246.31 842.63 244.13   C 830.45 236.11 822.85 257.79 811.02 249.53   Q 807.66 247.18 805.61 244.50   C 801.85 239.58 796.08 233.77 789.58 237.10   C 786.48 238.68 784.29 242.64 783.27 245.80   Q 781.57 251.04 779.90 256.74   C 779.12 259.40 776.63 264.02 773.29 260.70   Q 766.90 254.36 762.13 247.25   A 1.38 1.33 -63.0 0 1 761.90 246.49   L 761.81 229.31   Q 761.80 227.07 759.56 227.21   L 759.15 227.24   A 1.62 1.61 -1.7 0 0 757.63 228.85   L 757.64 239.07   Q 757.64 239.81 757.01 239.41   Q 756.78 239.27 756.63 239.03   Q 748.15 225.91 740.09 213.25   C 737.85 209.73 733.41 204.08 728.66 205.61   C 724.62 206.91 722.06 213.47 721.41 217.06   Q 721.11 218.75 722.79 219.06   Q 722.95 219.09 723.10 219.13   Q 724.75 219.53 725.31 217.93   C 726.25 215.22 727.40 211.66 729.57 209.69   Q 730.81 208.56 732.05 209.69   Q 735.26 212.63 737.63 216.47   Q 747.13 231.91 757.18 246.65   A 1.56 1.51 29.0 0 1 757.44 247.50   L 757.53 294.57   Q 757.53 295.17 756.93 295.17   L 740.44 295.11   Q 739.79 295.10 739.78 294.45   L 739.67 262.83   Q 739.67 260.67 737.51 260.63   Q 736.93 260.61 736.38 260.88   A 1.58 1.56 77.6 0 0 735.50 262.28   L 735.37 294.54   Q 735.36 295.20 734.71 295.20   L 714.84 295.10   Q 714.32 295.10 714.32 294.58   L 714.24 159.74   A 1.75 1.70 -55.5 0 0 714.14 159.16   Q 713.12 156.38 711.73 156.97   Q 710.29 157.57 710.25 159.13   L 710.14 164.04   Q 710.12 164.71 709.46 164.72   L 696.23 164.98   A 1.50 1.50 0.0 0 0 694.76 166.56   Q 694.76 166.74 694.78 166.91   Q 694.98 168.99 697.07 169.00   L 709.59 169.06   Q 710.12 169.06 710.12 169.59   L 710.10 205.05   Q 710.10 205.70 709.45 205.71   L 697.50 205.85   Q 696.11 205.87 696.10 207.25   L 696.08 208.39   Q 696.07 209.71 697.39 209.72   L 709.59 209.83   Q 710.10 209.84 710.10 210.35   L 710.15 247.82   A 0.31 0.31 0.0 0 1 709.84 248.13   L 697.27 248.18   A 1.35 1.34 -89.1 0 0 695.94 249.48   L 695.89 250.88   Q 695.84 252.17 697.13 252.16   L 709.93 252.11   Q 710.14 252.11 710.13 252.32   L 710.08 294.53   Q 710.08 295.13 709.47 295.14   L 699.43 295.25   Q 697.59 295.27 697.35 297.09   L 697.25 297.85   Q 697.01 299.67 698.85 299.63   L 709.68 299.39   Q 710.23 299.38 710.22 299.93   L 710.10 306.06   Q 710.08 307.30 711.31 307.36   L 712.66 307.43   Q 714.08 307.50 714.13 306.08   L 714.35 299.90   A 0.53 0.53 0.0 0 1 714.88 299.38   L 734.74 299.41   Q 735.32 299.41 735.35 299.99   L 735.68 306.33   Q 735.75 307.65 737.07 307.60   L 738.22 307.56   Q 739.46 307.51 739.49 306.28   L 739.64 300.08   A 0.65 0.64 -88.6 0 1 740.29 299.45   L 757.06 299.49   Q 757.62 299.49 757.63 300.06   L 757.74 306.48   Q 757.76 307.70 758.98 307.60   L 760.48 307.49   A 1.26 1.26 0.0 0 0 761.64 306.28   L 761.89 300.02   Q 761.91 299.44 762.48 299.44   L 779.88 299.45   Q 780.55 299.45 780.56 300.13   L 780.65 306.26   Q 780.66 307.61 782.01 307.58   L 782.99 307.56   Q 784.53 307.54 784.56 306.01   L 784.69 299.96   Q 784.70 299.37 785.29 299.37   L 802.65 299.46   A 0.96 0.96 0.0 0 1 803.61 300.40   L 803.77 306.37   Q 803.80 307.70 805.13 307.70   L 806.31 307.70   A 1.28 1.28 0.0 0 0 807.59 306.45   L 807.74 300.21   Q 807.75 299.42 808.54 299.42   L 826.43 299.40   Q 826.97 299.40 826.97 299.93   L 826.99 305.85   Q 826.99 307.47 828.60 307.61   L 829.09 307.66   Q 831.00 307.83 830.98 305.91   L 830.94 299.98   A 0.59 0.58 -1.0 0 1 831.52 299.39   L 849.46 299.31   A 0.41 0.40 89.3 0 1 849.87 299.72   L 849.87 305.98   Q 849.87 307.83 851.73 307.82   L 852.14 307.81   A 1.72 1.72 0.0 0 0 853.85 306.11   L 853.94 299.99   Q 853.95 299.43 854.51 299.43   L 871.69 299.37   Q 872.26 299.36 872.29 299.94   L 872.62 306.45   A 1.31 1.30 -1.8 0 0 873.95 307.69   L 874.97 307.67   Q 876.34 307.65 876.38 306.28   L 876.60 299.79   Q 876.62 299.25 877.16 299.28   Q 882.70 299.55 887.97 299.24   Q 889.49 299.16 889.56 297.64   L 889.59 296.94   A 1.66 1.66 0.0 0 0 887.93 295.19   L 877.17 295.20   Q 876.65 295.20 876.65 294.67   L 876.64 253.45   A 1.63 1.61 10.1 0 0 875.57 251.93   Q 875.01 251.73 874.46 251.78   Q 872.41 251.98 872.40 254.04   L 872.29 294.70   Q 872.29 295.18 871.80 295.18   L 854.48 295.11   A 0.39 0.39 0.0 0 1 854.09 294.72   L 854.02 253.02   Q 854.01 252.52 854.42 252.23   Q 857.55 250.04 859.36 246.46   C 862.70 239.83 865.74 232.69 870.93 227.32   C 872.45 225.74 875.30 224.56 876.48 227.35   Q 877.90 230.71 878.87 233.70   A 1.68 1.68 0.0 0 0 880.71 234.86   L 881.42 234.77   Q 883.26 234.52 882.87 232.71   Q 881.90 228.16 879.84 225.15   C 874.08 216.78 865.77 225.99 862.59 231.68   Q 858.43 239.12 854.95 246.20   Q 854.03 248.09 853.99 245.99   Z   M 692.13 166.22   Q 691.93 166.71 691.94 167.21   A 0.52 0.52 0.0 0 0 692.83 167.57   Q 693.34 167.05 693.23 166.34   A 0.58 0.57 -38.7 0 0 692.13 166.22   Z   M 612.52 597.45   L 626.43 592.07   A 2.52 2.51 83.1 0 0 628.02 590.04   Q 630.98 567.11 626.58 543.18   A 0.63 0.61 -32.5 0 1 626.70 542.67   L 630.79 537.38   A 0.13 0.13 0.0 0 1 631.02 537.43   Q 636.67 561.77 634.39 587.17   A 0.27 0.27 0.0 0 0 634.79 587.42   C 656.85 574.15 671.25 553.97 674.85 528.35   C 678.46 502.72 664.23 483.14 650.72 463.08   Q 644.75 454.22 639.06 442.79   Q 638.78 442.24 639.17 441.76   Q 646.69 432.67 648.09 419.99   Q 648.15 419.43 648.71 419.42   Q 650.75 419.35 652.85 419.35   Q 655.50 419.34 655.18 416.66   Q 655.09 415.94 654.38 415.79   Q 651.76 415.24 649.11 415.54   A 0.63 0.62 -4.2 0 1 648.41 414.94   C 647.98 400.93 640.93 388.56 629.69 381.28   A 0.72 0.71 18.6 0 1 629.36 380.63   Q 630.10 368.98 631.26 358.63   Q 631.32 358.08 631.87 357.96   C 637.95 356.67 650.26 354.44 652.70 347.89   Q 654.23 343.78 654.72 339.39   Q 656.31 325.00 653.62 309.62   C 646.27 267.58 617.39 229.71 579.22 210.81   C 544.91 193.83 500.66 192.96 465.66 209.49   Q 465.08 209.77 464.47 209.52   Q 463.66 209.18 462.88 208.73   Q 449.24 200.80 433.08 198.58   C 371.72 190.18 328.30 235.04 310.18 288.67   Q 305.61 302.19 301.35 314.61   Q 293.70 336.93 280.88 357.50   C 269.37 375.96 256.50 392.25 244.20 409.93   C 223.40 439.82 209.76 472.24 212.28 509.29   Q 214.44 541.04 234.53 565.22   Q 236.47 567.55 238.55 569.87   A 0.43 0.43 0.0 0 0 239.30 569.51   Q 238.21 563.42 237.89 557.22   Q 236.34 527.37 253.70 502.14   A 1.95 1.94 33.4 0 1 256.35 501.60   L 256.97 502.00   Q 258.64 503.07 257.71 504.83   Q 245.17 528.45 245.60 557.28   C 245.67 561.46 246.63 576.66 249.89 579.01   Q 275.38 597.36 306.60 604.63   Q 307.10 604.74 306.76 605.13   Q 297.34 615.69 291.02 630.22   Q 261.93 697.09 234.69 762.81   A 1.55 1.54 -71.1 0 0 235.71 764.90   L 251.75 769.26   Q 252.22 769.39 252.09 769.87   Q 246.90 788.95 241.01 809.47   C 234.15 833.39 234.72 860.88 246.79 882.63   Q 257.73 902.34 279.83 904.07   Q 292.48 905.07 303.07 903.79   Q 318.69 901.90 331.57 900.60   A 0.18 0.17 2.4 0 1 331.76 900.80   L 330.86 905.92   Q 330.80 906.25 330.46 906.25   L 126.57 906.43   A 1.52 1.50 22.1 0 0 125.50 906.87   Q 124.67 907.68 124.80 908.62   Q 125.00 909.96 126.35 909.96   L 964.82 909.93   Q 966.07 909.93 966.57 908.79   Q 966.92 908.00 966.21 907.01   A 1.50 1.47 -17.2 0 0 964.99 906.38   L 799.24 906.35   A 0.41 0.40 -80.3 0 1 798.86 905.81   Q 826.40 826.51 853.46 749.24   Q 857.42 737.95 861.34 726.26   C 863.60 719.53 860.94 713.29 856.03 707.78   Q 852.17 703.46 848.62 699.14   C 844.51 694.14 839.29 693.73 833.25 693.72   Q 764.21 693.64 697.21 693.71   A 1.92 1.88 -20.9 0 1 695.81 693.10   Q 689.82 686.55 683.85 679.74   Q 647.70 638.50 612.45 597.70   Q 612.31 597.53 612.52 597.45   Z   M 692.82 207.08   Q 692.23 207.34 692.37 207.97   A 0.43 0.43 0.0 0 0 692.99 208.26   Q 693.54 207.98 693.40 207.37   A 0.42 0.42 0.0 0 0 692.82 207.08   Z   M 692.47 249.31   Q 691.87 249.98 692.30 250.81   A 0.51 0.50 -42.9 0 0 693.18 250.84   Q 693.54 250.25 693.38 249.54   A 0.53 0.53 0.0 0 0 692.47 249.31   Z   M 692.36 297.15   Q 691.97 297.83 692.17 298.61   A 0.43 0.43 0.0 0 0 692.96 298.73   Q 693.40 298.02 693.07 297.20   A 0.40 0.39 48.8 0 0 692.36 297.15   Z   M 841.7730 348.4789   A 0.94 0.94 0.0 0 0 840.8646 347.5083   L 835.5875 347.3332   A 0.94 0.94 0.0 0 0 834.6169 348.2416   L 834.5870 349.1411   A 0.94 0.94 0.0 0 0 835.4954 350.1117   L 840.7725 350.2868   A 0.94 0.94 0.0 0 0 841.7431 349.3784   L 841.7730 348.4789   Z   M 853.4818 348.2924   A 0.85 0.85 0.0 0 0 852.6347 347.4395   L 847.2148 347.4205   A 0.85 0.85 0.0 0 0 846.3618 348.2676   L 846.3582 349.2876   A 0.85 0.85 0.0 0 0 847.2053 350.1405   L 852.6252 350.1595   A 0.85 0.85 0.0 0 0 853.4782 349.3124   L 853.4818 348.2924   Z   M 865.3989 348.3498   A 0.85 0.85 0.0 0 0 864.5654 347.4836   L 859.0064 347.3769   A 0.85 0.85 0.0 0 0 858.1403 348.2104   L 858.1211 349.2102   A 0.85 0.85 0.0 0 0 858.9546 350.0764   L 864.5136 350.1831   A 0.85 0.85 0.0 0 0 865.3797 349.3496   L 865.3989 348.3498   Z   M 876.6072 348.4399   A 0.90 0.90 0.0 0 0 875.7230 347.5244   L 870.6638 347.4360   A 0.90 0.90 0.0 0 0 869.7482 348.3202   L 869.7328 349.2001   A 0.90 0.90 0.0 0 0 870.6170 350.1156   L 875.6762 350.2040   A 0.90 0.90 0.0 0 0 876.5918 349.3198   L 876.6072 348.4399   Z   M 888.2534 348.3905   A 0.95 0.95 0.0 0 0 887.3117 347.4322   L 882.2319 347.3879   A 0.95 0.95 0.0 0 0 881.2736 348.3296   L 881.2666 349.1295   A 0.95 0.95 0.0 0 0 882.2083 350.0878   L 887.2881 350.1321   A 0.95 0.95 0.0 0 0 888.2464 349.1904   L 888.2534 348.3905   Z   M 722.94 347.90   Q 721.85 347.11 720.87 348.32   A 1.15 1.14 -65.6 0 0 721.56 350.17   Q 723.20 350.44 724.66 350.18   A 1.24 1.24 0.0 0 1 725.49 350.32   Q 726.88 351.11 727.83 349.64   A 1.21 1.21 0.0 0 0 726.98 347.78   Q 725.45 347.57 723.75 348.05   Q 723.31 348.17 722.94 347.90   Z   M 749.9556 348.4861   A 0.79 0.79 0.0 0 0 749.1753 347.6865   L 743.2157 347.6137   A 0.79 0.79 0.0 0 0 742.4161 348.3940   L 742.4044 349.3539   A 0.79 0.79 0.0 0 0 743.1847 350.1535   L 749.1443 350.2263   A 0.79 0.79 0.0 0 0 749.9439 349.4460   L 749.9556 348.4861   Z   M 761.1406 348.4948   A 0.81 0.81 0.0 0 0 760.3492 347.6666   L 754.5107 347.5341   A 0.81 0.81 0.0 0 0 753.6825 348.3255   L 753.6594 349.3452   A 0.81 0.81 0.0 0 0 754.4508 350.1734   L 760.2893 350.3059   A 0.81 0.81 0.0 0 0 761.1175 349.5145   L 761.1406 348.4948   Z   M 783.5477 348.4221   A 0.74 0.74 0.0 0 0 782.8181 347.6719   L 776.8387 347.5884   A 0.74 0.74 0.0 0 0 776.0885 348.3180   L 776.0723 349.4779   A 0.74 0.74 0.0 0 0 776.8019 350.2281   L 782.7813 350.3116   A 0.74 0.74 0.0 0 0 783.5315 349.5820   L 783.5477 348.4221   Z   M 794.8414 348.4628   A 0.96 0.96 0.0 0 0 793.8848 347.4994   L 788.4848 347.4806   A 0.96 0.96 0.0 0 0 787.5215 348.4372   L 787.5186 349.2772   A 0.96 0.96 0.0 0 0 788.4752 350.2406   L 793.8752 350.2594   A 0.96 0.96 0.0 0 0 794.8385 349.3028   L 794.8414 348.4628   Z   M 806.4114 348.2698   A 0.78 0.78 0.0 0 0 805.6206 347.5008   L 799.9811 347.5795   A 0.78 0.78 0.0 0 0 799.2121 348.3703   L 799.2286 349.5502   A 0.78 0.78 0.0 0 0 800.0194 350.3192   L 805.6589 350.2405   A 0.78 0.78 0.0 0 0 806.4279 349.4497   L 806.4114 348.2698   Z   M 818.1899 348.3596   A 0.76 0.76 0.0 0 0 817.4446 347.5851   L 811.7257 347.4753   A 0.76 0.76 0.0 0 0 810.9512 348.2206   L 810.9301 349.3204   A 0.76 0.76 0.0 0 0 811.6754 350.0949   L 817.3943 350.2047   A 0.76 0.76 0.0 0 0 818.1688 349.4594   L 818.1899 348.3596   Z   M 829.9096 348.3001   A 0.75 0.75 0.0 0 0 829.1728 347.5371   L 823.7936 347.4433   A 0.75 0.75 0.0 0 0 823.0306 348.1801   L 823.0104 349.3399   A 0.75 0.75 0.0 0 0 823.7472 350.1029   L 829.1264 350.1967   A 0.75 0.75 0.0 0 0 829.8894 349.4599   L 829.9096 348.3001   Z   M 711.58 349.09   Q 711.52 349.49 711.62 349.88   A 0.64 0.62 -4.0 0 0 712.16 350.34   Q 712.78 350.42 713.44 350.26   Q 714.08 350.10 714.03 349.45   Q 714.00 349.00 714.12 348.56   Q 714.32 347.81 713.54 347.82   L 709.70 347.86   Q 709.09 347.86 708.85 348.43   Q 708.39 349.52 709.02 350.23   A 0.92 0.92 0.0 0 0 710.63 349.69   Q 710.67 349.17 711.01 348.81   Q 711.71 348.10 711.58 349.09   Z   M 739.0007 348.6369   A 0.89 0.89 0.0 0 0 738.1122 347.7454   L 731.9722 347.7346   A 0.89 0.89 0.0 0 0 731.0807 348.6231   L 731.0793 349.3831   A 0.89 0.89 0.0 0 0 731.9678 350.2746   L 738.1078 350.2854   A 0.89 0.89 0.0 0 0 738.9993 349.3969   L 739.0007 348.6369   Z   M 772.4056 348.6013   A 0.85 0.85 0.0 0 0 771.5691 347.7381   L 765.4699 347.6422   A 0.85 0.85 0.0 0 0 764.6066 348.4788   L 764.5944 349.2587   A 0.85 0.85 0.0 0 0 765.4309 350.1219   L 771.5301 350.2178   A 0.85 0.85 0.0 0 0 772.3934 349.3812   L 772.4056 348.6013   Z   M 716.42 348.17   Q 715.90 348.68 715.98 349.48   A 0.71 0.71 0.0 0 0 716.95 350.07   Q 717.87 349.69 717.70 348.60   A 0.76 0.76 0.0 0 0 716.42 348.17   Z   M 710.83 366.19   Q 711.32 366.37 711.80 366.32   Q 712.62 366.23 712.89 365.46   Q 713.11 364.81 713.02 364.16   Q 712.87 363.21 711.92 363.34   Q 709.68 363.64 707.72 363.24   A 1.34 1.34 0.0 0 0 706.13 364.38   L 706.07 364.83   Q 705.88 366.28 707.34 366.19   L 709.74 366.03   Q 710.30 365.99 710.83 366.19   Z   M 757.2627 363.8503   A 0.61 0.61 0.0 0 0 756.6635 363.2298   L 750.9843 363.1306   A 0.61 0.61 0.0 0 0 750.3638 363.7299   L 750.3373 365.2497   A 0.61 0.61 0.0 0 0 750.9365 365.8702   L 756.6157 365.9694   A 0.61 0.61 0.0 0 0 757.2362 365.3701   L 757.2627 363.8503   Z   M 768.41 365.02   L 768.67 364.53   Q 769.24 363.45 768.02 363.39   L 762.50 363.10   Q 761.12 363.03 761.10 364.41   Q 761.09 364.70 761.23 364.97   Q 761.73 365.95 762.83 365.95   L 766.85 365.95   Q 767.91 365.95 768.41 365.02   Z   M 724.2862 363.9598   A 0.61 0.61 0.0 0 0 723.6730 363.3530   L 717.1731 363.3870   A 0.61 0.61 0.0 0 0 716.5663 364.0002   L 716.5738 365.4402   A 0.61 0.61 0.0 0 0 717.1870 366.0470   L 723.6869 366.0130   A 0.61 0.61 0.0 0 0 724.2937 365.3998   L 724.2862 363.9598   Z   M 735.1062 364.3064   A 1.02 1.02 0.0 0 0 734.1023 363.2705   L 728.9629 363.1898   A 1.02 1.02 0.0 0 0 727.9270 364.1937   L 727.9138 365.0336   A 1.02 1.02 0.0 0 0 728.9177 366.0695   L 734.0571 366.1502   A 1.02 1.02 0.0 0 0 735.0930 365.1463   L 735.1062 364.3064   Z   M 746.1922 363.9827   A 0.60 0.60 0.0 0 0 745.6124 363.3632   L 739.4358 363.1583   A 0.60 0.60 0.0 0 0 738.8162 363.7381   L 738.7678 365.1973   A 0.60 0.60 0.0 0 0 739.3476 365.8168   L 745.5242 366.0217   A 0.60 0.60 0.0 0 0 746.1438 365.4419   L 746.1922 363.9827   Z   M 778.4608 364.3509   A 1.14 1.14 0.0 0 0 777.3248 363.2070   L 773.3448 363.1931   A 1.14 1.14 0.0 0 0 772.2008 364.3291   L 772.1992 364.7891   A 1.14 1.14 0.0 0 0 773.3352 365.9330   L 777.3152 365.9469   A 1.14 1.14 0.0 0 0 778.4592 364.8109   L 778.4608 364.3509   Z   M 811.4005 364.7594   A 0.79 0.79 0.0 0 0 810.6244 363.9558   L 805.4052 363.8647   A 0.79 0.79 0.0 0 0 804.6015 364.6408   L 804.5795 365.9006   A 0.79 0.79 0.0 0 0 805.3556 366.7042   L 810.5748 366.7953   A 0.79 0.79 0.0 0 0 811.3785 366.0192   L 811.4005 364.7594   Z   M 822.6633 364.6036   A 0.83 0.83 0.0 0 0 821.8247 363.7823   L 816.5250 363.8378   A 0.83 0.83 0.0 0 0 815.7037 364.6765   L 815.7167 365.9164   A 0.83 0.83 0.0 0 0 816.5553 366.7377   L 821.8550 366.6822   A 0.83 0.83 0.0 0 0 822.6763 365.8435   L 822.6633 364.6036   Z   M 834.1791 364.6463   A 0.74 0.74 0.0 0 0 833.4509 363.8948   L 827.7716 363.8056   A 0.74 0.74 0.0 0 0 827.0200 364.5338   L 827.0009 365.7537   A 0.74 0.74 0.0 0 0 827.7291 366.5052   L 833.4084 366.5944   A 0.74 0.74 0.0 0 0 834.1600 365.8662   L 834.1791 364.6463   Z   M 845.90 365.27   L 845.93 364.97   Q 846.05 363.90 844.97 363.86   L 839.72 363.69   A 0.79 0.79 0.0 0 0 838.91 364.53   L 839.02 365.98   A 0.75 0.74 -2.0 0 0 839.77 366.67   L 844.37 366.64   A 1.55 1.54 2.9 0 0 845.90 365.27   Z   M 851.06 363.69   A 0.90 0.90 0.0 0 0 850.19 364.93   L 850.64 366.02   A 0.90 0.90 0.0 0 0 851.43 366.57   L 856.22 366.78   A 0.90 0.90 0.0 0 0 857.05 366.29   L 857.60 365.24   A 0.90 0.90 0.0 0 0 856.84 363.92   L 851.06 363.69   Z   M 868.9463 364.6657   A 0.77 0.77 0.0 0 0 868.1981 363.8745   L 862.9001 363.7266   A 0.77 0.77 0.0 0 0 862.1089 364.4748   L 862.0737 365.7343   A 0.77 0.77 0.0 0 0 862.8219 366.5255   L 868.1199 366.6734   A 0.77 0.77 0.0 0 0 868.9111 365.9252   L 868.9463 364.6657   Z   M 873.90 363.94   A 0.87 0.87 0.0 0 0 873.30 365.39   L 874.11 366.28   A 0.87 0.87 0.0 0 0 874.73 366.57   L 878.36 366.66   A 0.87 0.87 0.0 0 0 879.14 366.21   L 879.82 364.97   A 0.87 0.87 0.0 0 0 879.02 363.68   L 873.90 363.94   Z   M 799.75 378.21   L 805.61 378.15   A 0.69 0.69 0.0 0 0 806.30 377.46   L 806.29 376.77   A 1.86 1.82 -0.5 0 0 804.42 374.96   L 800.90 375.00   A 1.86 1.82 -0.5 0 0 799.05 376.83   L 799.06 377.52   A 0.69 0.69 0.0 0 0 799.75 378.21   Z   M 810.44 377.83   L 816.01 378.19   A 0.53 0.53 0.0 0 0 816.57 377.69   L 816.61 377.13   A 1.79 1.71 -86.3 0 0 815.02 375.24   L 811.81 375.03   A 1.79 1.71 -86.3 0 0 809.98 376.71   L 809.95 377.26   A 0.53 0.53 0.0 0 0 810.44 377.83   Z   M 827.6615 376.1632   A 1.07 1.07 0.0 0 0 826.5953 375.0894   L 821.1953 375.0706   A 1.07 1.07 0.0 0 0 820.1216 376.1368   L 820.1185 377.0168   A 1.07 1.07 0.0 0 0 821.1847 378.0906   L 826.5847 378.1094   A 1.07 1.07 0.0 0 0 827.6584 377.0432   L 827.6615 376.1632   Z   M 838.14 378.11   A 0.93 0.93 0.0 0 0 839.03 376.89   L 838.61 375.64   A 0.93 0.93 0.0 0 0 837.74 375.00   L 832.87 374.97   A 0.93 0.93 0.0 0 0 831.94 375.88   L 831.92 377.15   A 0.93 0.93 0.0 0 0 832.84 378.09   L 838.14 378.11   Z   M 851.0676 376.2007   A 1.08 1.08 0.0 0 0 850.0085 375.1002   L 844.8095 375.0004   A 1.08 1.08 0.0 0 0 843.7089 376.0594   L 843.6924 376.9193   A 1.08 1.08 0.0 0 0 844.7515 378.0198   L 849.9505 378.1196   A 1.08 1.08 0.0 0 0 851.0511 377.0606   L 851.0676 376.2007   Z   M 862.3875 375.8291   A 0.74 0.74 0.0 0 0 861.6553 375.0814   L 855.6757 375.0188   A 0.74 0.74 0.0 0 0 854.9280 375.7510   L 854.9125 377.2309   A 0.74 0.74 0.0 0 0 855.6447 377.9786   L 861.6243 378.0412   A 0.74 0.74 0.0 0 0 862.3720 377.3090   L 862.3875 375.8291   Z   M 872.7891 375.9865   A 0.83 0.83 0.0 0 0 871.9855 375.1308   L 866.8881 374.9706   A 0.83 0.83 0.0 0 0 866.0324 375.7742   L 865.9909 377.0935   A 0.83 0.83 0.0 0 0 866.7945 377.9492   L 871.8919 378.1094   A 0.83 0.83 0.0 0 0 872.7476 377.3058   L 872.7891 375.9865   Z   M 890.7855 375.7718   A 0.87 0.87 0.0 0 0 889.9095 374.9079   L 877.8297 374.9922   A 0.87 0.87 0.0 0 0 876.9658 375.8683   L 876.9745 377.1082   A 0.87 0.87 0.0 0 0 877.8505 377.9721   L 889.9303 377.8878   A 0.87 0.87 0.0 0 0 890.7942 377.0117   L 890.7855 375.7718   Z   M 714.27 379.67   Q 714.75 379.93 715.26 379.75   Q 715.80 379.56 715.92 378.95   C 716.15 377.78 715.02 377.12 714.03 377.14   Q 712.22 377.18 710.50 376.93   Q 709.59 376.81 709.56 377.72   Q 709.55 377.73 709.50 378.99   Q 709.47 379.86 710.33 379.99   Q 711.81 380.21 713.36 379.61   Q 713.83 379.42 714.27 379.67   Z   M 727.2420 378.1370   A 1.14 1.14 0.0 0 0 726.1100 376.9891   L 720.6501 376.9510   A 1.14 1.14 0.0 0 0 719.5022 378.0830   L 719.4980 378.6830   A 1.14 1.14 0.0 0 0 720.6300 379.8309   L 726.0899 379.8690   A 1.14 1.14 0.0 0 0 727.2378 378.7370   L 727.2420 378.1370   Z   M 771.7463 377.9721   A 1.13 1.13 0.0 0 0 770.6046 376.8540   L 765.6248 376.9062   A 1.13 1.13 0.0 0 0 764.5067 378.0479   L 764.5137 378.7079   A 1.13 1.13 0.0 0 0 765.6554 379.8260   L 770.6352 379.7738   A 1.13 1.13 0.0 0 0 771.7533 378.6321   L 771.7463 377.9721   Z   M 782.8923 377.7910   A 1.03 1.03 0.0 0 0 781.8463 376.7773   L 776.3869 376.8631   A 1.03 1.03 0.0 0 0 775.3732 377.9091   L 775.3877 378.8290   A 1.03 1.03 0.0 0 0 776.4337 379.8427   L 781.8931 379.7569   A 1.03 1.03 0.0 0 0 782.9068 378.7109   L 782.8923 377.7910   Z   M 793.5970 378.1583   A 1.23 1.23 0.0 0 0 792.3996 376.8965   L 788.1210 376.7845   A 1.23 1.23 0.0 0 0 786.8593 377.9819   L 786.8430 378.6017   A 1.23 1.23 0.0 0 0 788.0404 379.8635   L 792.3190 379.9755   A 1.23 1.23 0.0 0 0 793.5807 378.7781   L 793.5970 378.1583   Z   M 738.1047 378.1704   A 1.03 1.03 0.0 0 0 737.0892 377.1262   L 731.9297 377.0541   A 1.03 1.03 0.0 0 0 730.8854 378.0696   L 730.8753 378.7896   A 1.03 1.03 0.0 0 0 731.8908 379.8338   L 737.0503 379.9059   A 1.03 1.03 0.0 0 0 738.0946 378.8904   L 738.1047 378.1704   Z   M 748.8830 377.9590   A 1.09 1.09 0.0 0 0 747.7723 376.8902   L 742.5532 376.9904   A 1.09 1.09 0.0 0 0 741.4843 378.1011   L 741.4970 378.7610   A 1.09 1.09 0.0 0 0 742.6077 379.8298   L 747.8268 379.7296   A 1.09 1.09 0.0 0 0 748.8957 378.6189   L 748.8830 377.9590   Z   M 760.8721 378.0967   A 1.14 1.14 0.0 0 0 759.7401 376.9488   L 754.3602 376.9113   A 1.14 1.14 0.0 0 0 753.2123 378.0433   L 753.2079 378.6633   A 1.14 1.14 0.0 0 0 754.3399 379.8112   L 759.7198 379.8487   A 1.14 1.14 0.0 0 0 760.8677 378.7167   L 760.8721 378.0967   Z   M 813.82 386.75   Q 812.93 385.96 811.76 385.94   Q 811.23 385.93 811.07 386.43   Q 810.66 387.69 811.12 388.49   Q 811.44 389.06 812.09 389.05   L 816.40 389.00   A 1.04 1.04 0.0 0 0 817.25 388.53   Q 817.77 387.72 817.58 386.68   A 0.89 0.89 0.0 0 0 817.01 386.02   Q 815.29 385.39 814.33 386.70   Q 814.10 387.00 813.82 386.75   Z   M 807.0607 387.5937   A 1.42 1.42 0.0 0 0 805.6632 386.1516   L 801.6637 386.0888   A 1.42 1.42 0.0 0 0 800.2215 387.4863   L 800.2193 387.6263   A 1.42 1.42 0.0 0 0 801.6168 389.0684   L 805.6163 389.1312   A 1.42 1.42 0.0 0 0 807.0585 387.7337   L 807.0607 387.5937   Z   M 828.4251 386.9199   A 0.78 0.78 0.0 0 0 827.6519 386.1331   L 822.3721 386.0870   A 0.78 0.78 0.0 0 0 821.5854 386.8602   L 821.5749 388.0601   A 0.78 0.78 0.0 0 0 822.3481 388.8469   L 827.6279 388.8930   A 0.78 0.78 0.0 0 0 828.4146 388.1198   L 828.4251 386.9199   Z   M 835.85 386.48   Q 834.90 386.00 833.86 385.98   Q 833.15 385.97 833.07 386.67   L 832.87 388.25   Q 832.79 388.97 833.51 388.97   L 839.18 388.93   A 0.77 0.76 -88.4 0 0 839.94 388.20   L 840.01 386.50   Q 840.04 385.97 839.51 386.00   Q 837.97 386.09 836.62 386.54   Q 836.23 386.67 835.85 386.48   Z   M 852.1324 386.8326   A 0.69 0.69 0.0 0 0 851.4448 386.1402   L 845.5849 386.1198   A 0.69 0.69 0.0 0 0 844.8925 386.8074   L 844.8876 388.2074   A 0.69 0.69 0.0 0 0 845.5752 388.8998   L 851.4351 388.9202   A 0.69 0.69 0.0 0 0 852.1275 388.2326   L 852.1324 386.8326   Z   M 863.0508 387.0917   A 0.87 0.87 0.0 0 0 862.1992 386.2037   L 857.1003 386.0969   A 0.87 0.87 0.0 0 0 856.2123 386.9485   L 856.1892 388.0483   A 0.87 0.87 0.0 0 0 857.0408 388.9363   L 862.1397 389.0431   A 0.87 0.87 0.0 0 0 863.0277 388.1915   L 863.0508 387.0917   Z   M 874.1520 386.9925   A 0.81 0.81 0.0 0 0 873.3448 386.1796   L 867.8249 386.1604   A 0.81 0.81 0.0 0 0 867.0120 386.9675   L 867.0080 388.1275   A 0.81 0.81 0.0 0 0 867.8152 388.9404   L 873.3351 388.9596   A 0.81 0.81 0.0 0 0 874.1480 388.1525   L 874.1520 386.9925   Z   M 879.98 388.75   Q 881.03 388.82 881.57 387.92   A 1.15 1.14 -73.2 0 0 880.65 386.19   L 878.75 386.08   A 0.73 0.73 0.0 0 0 878.00 386.68   Q 877.86 387.49 878.02 388.30   Q 878.09 388.68 878.46 388.79   C 878.93 388.93 879.48 388.72 879.98 388.75   Z   M 883.0851 388.7285   A 1.34 0.70 97.5 0 0 883.9540 387.4914   A 1.34 0.70 97.5 0 0 883.4349 386.0715   A 1.34 0.70 97.5 0 0 882.5660 387.3086   A 1.34 0.70 97.5 0 0 883.0851 388.7285   Z   M 793.0861 389.3953   A 0.52 0.52 0.0 0 0 792.5589 388.8826   L 787.1795 388.9577   A 0.52 0.52 0.0 0 0 786.6668 389.4849   L 786.6939 391.4247   A 0.52 0.52 0.0 0 0 787.2211 391.9374   L 792.6005 391.8623   A 0.52 0.52 0.0 0 0 793.1132 391.3351   L 793.0861 389.3953   Z   M 716.9524 389.8218   A 0.77 0.77 0.0 0 0 716.1851 389.0492   L 710.9451 389.0309   A 0.77 0.77 0.0 0 0 710.1725 389.7982   L 710.1676 391.1982   A 0.77 0.77 0.0 0 0 710.9349 391.9708   L 716.1749 391.9891   A 0.77 0.77 0.0 0 0 716.9475 391.2218   L 716.9524 389.8218   Z   M 728.2859 389.9678   A 0.88 0.88 0.0 0 0 727.4151 389.0787   L 721.9554 389.0215   A 0.88 0.88 0.0 0 0 721.0663 389.8922   L 721.0541 391.0522   A 0.88 0.88 0.0 0 0 721.9249 391.9413   L 727.3846 391.9985   A 0.88 0.88 0.0 0 0 728.2737 391.1278   L 728.2859 389.9678   Z   M 739.3443 389.8954   A 0.83 0.83 0.0 0 0 738.5201 389.0597   L 732.9003 389.0204   A 0.83 0.83 0.0 0 0 732.0645 389.8446   L 732.0557 391.1046   A 0.83 0.83 0.0 0 0 732.8799 391.9403   L 738.4997 391.9796   A 0.83 0.83 0.0 0 0 739.3355 391.1554   L 739.3443 389.8954   Z   M 749.9162 389.9726   A 0.92 0.92 0.0 0 0 749.0075 389.0414   L 743.8879 388.9788   A 0.92 0.92 0.0 0 0 742.9567 389.8875   L 742.9438 390.9474   A 0.92 0.92 0.0 0 0 743.8525 391.8786   L 748.9721 391.9412   A 0.92 0.92 0.0 0 0 749.9033 391.0325   L 749.9162 389.9726   Z   M 760.9370 389.8283   A 0.73 0.73 0.0 0 0 760.2147 389.0907   L 754.3750 389.0295   A 0.73 0.73 0.0 0 0 753.6374 389.7518   L 753.6230 391.1317   A 0.73 0.73 0.0 0 0 754.3453 391.8693   L 760.1850 391.9305   A 0.73 0.73 0.0 0 0 760.9226 391.2082   L 760.9370 389.8283   Z   M 772.0308 390.0062   A 0.93 0.93 0.0 0 0 771.1025 389.0746   L 765.8025 389.0654   A 0.93 0.93 0.0 0 0 764.8708 389.9938   L 764.8692 390.9538   A 0.93 0.93 0.0 0 0 765.7975 391.8854   L 771.0975 391.8946   A 0.93 0.93 0.0 0 0 772.0292 390.9662   L 772.0308 390.0062   Z   M 782.8172 390.0998   A 1.03 1.03 0.0 0 0 781.8053 389.0519   L 777.0260 388.9685   A 1.03 1.03 0.0 0 0 775.9782 389.9804   L 775.9628 390.8602   A 1.03 1.03 0.0 0 0 776.9747 391.9081   L 781.7540 391.9915   A 1.03 1.03 0.0 0 0 782.8018 390.9796   L 782.8172 390.0998   Z   M 794.43 440.19   A 33.09 33.09 0.0 0 0 761.34 407.10   A 33.09 33.09 0.0 0 0 728.25 440.19   A 33.09 33.09 0.0 0 0 761.34 473.28   A 33.09 33.09 0.0 0 0 794.43 440.19   Z   M 875.70 439.60   A 30.91 30.91 0.0 0 0 844.79 408.69   A 30.91 30.91 0.0 0 0 813.88 439.60   A 30.91 30.91 0.0 0 0 844.79 470.51   A 30.91 30.91 0.0 0 0 875.70 439.60   Z" />
<path d="   M 782.60 272.14   Q 780.52 272.17 780.51 274.24   L 780.42 294.48   Q 780.42 295.13 779.77 295.13   L 762.21 295.13   Q 761.88 295.13 761.88 294.80   L 761.81 254.97   Q 761.81 253.20 762.81 254.65   C 765.45 258.49 769.27 264.15 773.76 265.39   C 779.67 267.03 782.55 262.19 783.93 257.42   C 785.29 252.75 786.43 247.27 788.85 243.06   C 793.25 235.39 799.79 243.76 802.73 247.36   Q 803.54 248.35 803.54 249.58   Q 803.54 271.90 803.47 294.47   Q 803.47 295.13 802.81 295.13   L 785.42 295.06   Q 784.79 295.06 784.79 294.42   L 784.76 274.05   Q 784.76 272.40 783.12 272.17   Q 782.86 272.13 782.60 272.14   Z" />
<path d="   M 829.31 263.80   L 828.95 263.80   Q 826.95 263.80 826.94 265.80   L 826.84 294.44   A 0.66 0.66 0.0 0 1 826.18 295.10   L 808.22 295.11   A 0.39 0.39 0.0 0 1 807.83 294.72   L 807.78 252.80   Q 807.78 252.14 808.32 252.51   C 816.87 258.35 823.87 254.29 830.83 248.80   C 839.56 241.93 842.07 250.83 849.17 252.95   Q 849.83 253.15 849.83 253.84   L 849.78 294.28   Q 849.78 295.10 848.97 295.10   L 831.52 295.12   A 0.35 0.35 0.0 0 1 831.17 294.77   L 831.07 265.56   Q 831.07 263.80 829.31 263.80   Z" />
<path d="   M 607.96 360.87   Q 608.82 323.26 593.22 289.36   Q 592.52 287.85 593.95 286.98   L 594.37 286.73   Q 596.61 285.36 597.76 287.73   Q 610.84 314.80 613.04 343.25   Q 614.24 358.72 613.66 375.13   Q 613.63 375.97 612.79 375.91   L 609.13 375.65   A 1.20 1.19 81.0 0 1 608.10 374.90   C 605.46 368.33 599.82 366.06 593.50 363.51   Q 592.47 363.09 593.57 362.98   L 607.30 361.59   Q 607.95 361.52 607.96 360.87   Z" />
<path d="   M 574.85 364.10   Q 569.98 366.94 570.90 372.15   Q 571.81 377.31 577.28 377.68   C 582.01 378.00 586.66 378.60 590.98 380.12   Q 591.77 380.40 591.06 380.85   Q 573.28 392.13 571.03 413.95   Q 571.00 414.26 570.70 414.16   C 562.03 411.14 555.05 411.60 547.46 417.04   Q 546.82 417.50 546.79 416.71   C 545.94 395.63 531.13 380.28 510.76 376.83   Q 510.13 376.72 510.29 376.11   C 511.70 370.49 506.22 366.39 501.59 364.54   Q 488.42 359.27 472.83 365.53   C 468.20 367.39 464.29 370.42 464.52 375.83   C 464.79 382.45 471.55 384.63 476.97 382.00   C 482.27 379.43 486.86 378.06 492.72 379.06   Q 494.12 379.30 492.78 379.76   Q 488.36 381.27 484.21 384.38   Q 467.81 396.68 467.20 418.00   A 0.68 0.68 0.0 0 1 466.48 418.66   L 416.46 416.46   Q 415.42 416.41 415.22 415.38   Q 413.50 406.31 409.26 399.66   Q 408.96 399.18 409.49 398.99   C 427.09 392.71 437.12 376.33 439.49 358.10   C 441.06 346.04 440.96 333.03 438.79 320.56   Q 438.59 319.42 439.23 320.38   C 448.32 334.04 462.93 344.06 478.18 350.54   Q 500.29 359.93 523.25 362.53   Q 548.70 365.40 574.71 363.66   Q 575.73 363.59 574.85 364.10   Z" />
<path d="   M 608.08 380.40   Q 608.32 379.82 608.95 379.84   L 613.09 379.96   Q 613.72 379.98 613.72 380.61   Q 614.11 415.08 608.79 447.40   Q 608.67 448.13 608.12 448.62   L 605.09 451.34   A 3.04 3.03 30.8 0 1 602.34 452.03   C 590.82 449.23 581.98 441.51 577.73 430.66   Q 572.10 416.28 578.70 400.62   Q 580.17 397.14 582.17 394.25   C 584.76 390.51 588.93 387.43 592.79 385.00   A 2.88 2.86 -49.1 0 1 595.47 384.80   C 600.70 387.08 605.73 385.90 608.08 380.40   Z   M 584.88 391.54   C 578.57 397.51 578.13 410.43 579.47 418.25   Q 580.00 421.34 581.99 423.54   C 584.61 426.44 589.20 425.56 591.10 422.28   C 595.27 415.08 595.06 396.17 588.43 391.31   A 2.77 2.77 0.0 0 0 584.88 391.54   Z" />
<path d="   M 483.80 446.78   C 474.95 438.96 470.60 427.63 471.28 415.78   C 472.10 401.68 480.70 389.83 493.41 383.82   Q 494.91 383.11 496.54 382.92   C 499.08 382.61 501.46 384.21 503.94 383.28   Q 505.93 382.53 507.73 381.35   A 1.92 1.91 27.8 0 1 508.74 381.04   Q 511.28 380.97 513.70 381.53   Q 531.92 385.77 539.64 402.90   C 547.15 419.58 541.13 440.65 525.22 450.40   C 512.21 458.37 495.30 456.94 483.80 446.78   Z   M 498.82 426.70   C 509.01 424.17 506.76 392.88 499.91 387.92   C 494.76 384.18 491.17 391.70 490.09 395.69   Q 487.45 405.46 488.40 415.68   C 488.93 421.42 491.50 428.52 498.82 426.70   Z" />
<path d="   M 411.00 418.76   A 1.26 1.26 0.0 0 0 412.19 420.18   L 466.72 422.73   Q 467.35 422.76 467.43 423.38   Q 469.42 438.28 480.17 448.63   C 498.99 466.74 529.55 461.57 541.78 438.56   Q 545.72 431.14 546.49 423.44   A 2.11 2.11 0.0 0 1 547.40 421.89   Q 551.35 419.14 555.30 417.37   C 560.15 415.21 565.58 416.40 570.26 418.42   A 1.40 1.38 -81.5 0 1 571.08 419.54   Q 573.08 438.97 587.37 449.42   Q 594.78 454.84 603.29 455.64   A 0.37 0.36 -79.8 0 1 603.60 456.10   C 602.45 460.16 604.07 465.06 605.13 469.18   A 4.09 4.04 -40.8 0 1 604.92 471.82   L 601.64 479.37   A 1.93 1.93 0.0 0 1 599.95 480.53   Q 592.52 480.88 584.36 482.28   C 580.28 482.99 577.28 484.97 575.99 488.98   Q 574.21 494.53 573.72 499.73   A 2.22 2.19 81.4 0 1 572.38 501.57   C 570.45 502.39 568.91 503.87 568.11 505.81   Q 564.66 514.19 568.19 522.29   A 1.58 1.58 0.0 0 1 567.64 524.22   Q 528.36 551.04 483.16 537.70   C 452.51 528.66 426.08 507.40 409.77 480.31   Q 403.91 470.57 398.04 458.58   Q 397.31 457.08 395.96 456.03   A 1.72 1.70 -26.4 0 0 394.84 455.66   C 382.19 455.91 371.73 450.71 364.93 439.69   C 356.49 426.02 357.46 403.94 368.26 391.78   C 372.89 386.57 379.88 384.63 386.55 386.13   C 397.76 388.65 405.07 397.68 409.33 408.48   Q 411.56 414.14 411.00 418.76   Z   M 389.27 422.27   C 382.76 421.68 377.62 424.43 377.78 431.77   C 377.81 433.15 379.01 433.86 380.26 433.73   Q 381.29 433.62 381.48 432.60   L 382.16 428.92   A 3.29 3.29 0.0 0 1 385.06 426.25   Q 393.39 425.39 396.79 431.65   Q 397.76 433.43 399.66 432.76   Q 400.98 432.29 399.05 428.29   Q 398.48 427.11 397.48 426.26   L 394.24 423.50   A 1.49 1.48 15.5 0 1 393.74 422.62   C 392.78 417.18 392.54 411.12 386.63 408.70   Q 382.30 406.92 377.66 406.77   A 0.66 0.66 0.0 0 0 377.02 407.23   Q 376.07 410.29 379.00 410.87   C 382.03 411.48 387.37 411.66 388.17 415.57   Q 388.80 418.67 389.74 421.69   Q 389.93 422.33 389.27 422.27   Z   M 565.52 458.44   C 561.65 459.15 557.63 460.10 553.81 461.38   Q 552.55 461.80 552.85 463.09   L 552.99 463.74   Q 553.34 465.28 554.87 464.90   L 569.60 461.29   A 1.56 1.55 -15.4 0 0 570.72 459.32   Q 565.64 442.98 560.57 426.73   A 2.37 2.36 78.8 0 0 558.12 425.08   Q 557.80 425.10 557.49 425.30   Q 556.23 426.14 556.69 427.58   L 566.13 457.43   Q 566.39 458.27 565.52 458.44   Z   M 538.33 496.95   C 534.32 495.02 530.78 491.46 527.49 488.44   Q 526.20 487.26 524.90 488.43   Q 524.63 488.66 524.45 488.97   Q 523.78 490.07 524.71 490.97   Q 529.21 495.31 534.19 499.02   C 539.04 502.63 545.25 499.86 550.25 497.45   Q 551.74 496.74 551.07 495.23   L 550.86 494.76   Q 550.28 493.49 548.98 493.97   Q 544.80 495.53 540.27 497.03   Q 539.22 497.38 538.33 496.95   Z" />
<path d="   M 640.06 433.09   Q 639.03 435.22 637.53 437.22   A 0.63 0.63 0.0 0 1 636.44 437.07   C 630.08 421.07 628.47 404.00 629.19 386.49   A 0.25 0.24 -72.8 0 1 629.56 386.29   Q 634.46 389.30 637.68 394.25   Q 649.79 412.86 640.06 433.09   Z" />
<path d="   M 790.40 440.22   A 29.07 29.07 0.0 0 1 761.33 469.29   A 29.07 29.07 0.0 0 1 732.26 440.22   A 29.07 29.07 0.0 0 1 761.33 411.15   A 29.07 29.07 0.0 0 1 790.40 440.22   Z   M 762.85 440.09   Q 761.99 440.08 762.03 439.22   L 763.19 415.97   A 1.70 1.69 -89.2 0 0 761.46 414.19   L 761.14 414.20   Q 758.77 414.25 758.66 416.61   L 757.36 442.84   A 1.63 1.62 -88.8 0 0 758.99 444.55   L 784.69 444.45   Q 786.33 444.44 786.35 442.81   L 786.36 441.76   Q 786.38 440.14 784.76 440.14   L 762.85 440.09   Z" />
<path d="   M 840.12 440.73   A 2.68 2.68 0.0 0 0 844.25 443.24   L 868.22 427.71   A 0.52 0.51 61.1 0 1 868.97 427.93   Q 874.00 438.81 869.66 449.55   C 865.12 460.79 854.53 467.76 842.29 466.49   C 819.95 464.16 809.83 437.18 825.31 420.84   Q 831.40 414.41 842.18 412.64   Q 842.88 412.52 842.81 413.23   L 840.12 440.73   Z" />
<path d="   M 845.93 436.70   Q 844.87 437.38 845.04 436.13   Q 846.52 425.08 846.99 413.25   Q 847.02 412.65 847.62 412.70   C 854.42 413.19 860.92 417.17 865.85 422.39   A 1.01 1.00 52.0 0 1 865.67 423.92   L 845.93 436.70   Z" />
<path d="   M 574.03 513.11   Q 573.89 514.84 574.35 516.48   Q 576.20 522.99 578.68 529.84   Q 578.98 530.69 578.17 531.08   L 576.78 531.75   A 0.90 0.89 66.6 0 1 575.56 531.26   Q 573.03 524.70 570.88 517.97   C 569.96 515.09 569.50 506.41 573.98 505.93   Q 583.05 504.98 592.51 504.69   Q 595.75 504.59 597.54 507.40   Q 603.78 517.18 610.59 526.82   Q 611.55 528.18 612.88 527.17   L 613.35 526.82   A 1.40 1.39 54.3 0 0 613.66 524.92   Q 606.15 513.85 601.13 505.67   Q 597.82 500.28 591.98 500.61   Q 584.94 501.00 578.50 501.33   Q 577.35 501.38 577.58 500.26   L 578.09 497.73   A 2.04 2.03 1.2 0 1 579.77 496.13   Q 585.98 495.17 592.98 494.62   C 598.55 494.19 602.15 493.61 605.30 498.31   Q 612.46 508.97 620.63 521.38   A 1.32 1.31 53.4 0 0 622.57 521.67   L 622.98 521.32   Q 624.37 520.17 623.38 518.66   Q 616.06 507.51 608.65 496.50   C 603.94 489.51 599.57 490.38 591.41 490.88   Q 585.74 491.22 580.29 491.81   Q 577.75 492.08 579.41 490.15   Q 580.71 488.62 580.89 488.41   Q 582.48 486.55 584.90 486.17   Q 594.87 484.60 606.32 483.86   C 608.09 483.74 609.71 485.10 610.69 486.39   Q 616.63 494.23 624.64 507.11   Q 625.70 508.81 627.40 507.76   L 627.65 507.61   Q 629.20 506.66 628.19 505.16   Q 622.89 497.24 617.60 489.23   C 616.02 486.84 614.18 484.74 612.41 482.52   Q 611.40 481.25 611.16 479.35   C 610.22 472.02 608.47 466.84 607.03 460.55   C 605.89 455.56 610.13 451.17 615.24 452.45   Q 617.25 452.95 617.90 454.86   Q 625.00 475.81 634.43 506.32   Q 636.42 512.73 636.21 516.91   Q 635.72 526.60 629.24 533.65   Q 627.60 535.43 625.98 537.38   Q 610.33 556.20 594.84 575.76   C 591.78 579.62 594.94 582.89 597.37 585.72   Q 643.88 639.91 690.35 692.79   A 0.58 0.58 0.0 0 1 689.90 693.75   Q 661.82 693.40 631.24 693.96   C 627.86 694.02 622.55 694.67 621.27 698.51   Q 617.24 710.57 613.19 723.03   A 0.21 0.21 0.0 0 1 612.80 723.07   Q 598.94 697.69 582.60 666.15   Q 559.89 622.34 544.05 585.02   C 538.99 573.09 542.29 559.18 550.87 550.97   Q 555.39 546.64 562.48 543.36   Q 575.24 537.45 588.00 531.34   C 590.32 530.23 592.53 529.06 592.25 525.98   C 591.90 521.95 590.22 513.16 585.49 512.95   Q 579.99 512.70 574.59 512.61   Q 574.07 512.60 574.03 513.11   Z" />
<path d="   M 500.98 585.77   L 500.81 578.02   Q 500.80 577.42 501.40 577.42   L 519.07 577.40   Q 519.75 577.40 519.84 578.07   Q 522.59 597.33 512.62 612.61   Q 502.91 627.49 485.97 632.82   C 465.73 639.19 444.28 633.32 428.84 618.94   Q 412.60 603.81 407.28 580.80   A 0.27 0.27 0.0 0 1 407.53 580.47   L 428.99 579.38   A 0.63 0.63 0.0 0 1 429.65 579.99   L 429.82 586.41   Q 429.87 587.96 431.41 587.78   L 432.45 587.66   A 1.33 1.32 86.0 0 0 433.62 586.31   L 431.71 513.31   Q 431.69 512.54 432.27 513.06   Q 460.32 538.32 495.66 544.54   Q 496.45 544.68 496.46 545.48   L 497.05 585.30   A 1.75 1.74 -88.6 0 0 498.67 587.01   Q 498.93 587.03 499.19 587.11   Q 501.02 587.68 500.98 585.77   Z" />
<path d="   M 582.40 528.51   L 578.53 516.65   Q 578.28 515.89 579.07 516.02   Q 580.48 516.26 582.06 516.15   C 586.50 515.86 588.19 522.69 588.21 525.94   A 1.07 1.06 -19.4 0 1 587.81 526.77   Q 585.92 528.29 583.61 529.10   Q 582.70 529.42 582.40 528.51   Z" />
<path d="   M 344.19 792.95   A 1.44 1.43 5.4 0 0 345.29 792.05   L 375.27 712.53   Q 375.77 711.23 374.65 710.39   Q 374.43 710.22 374.16 710.13   Q 372.38 709.57 371.72 711.32   L 342.90 787.71   A 1.26 1.26 0.0 0 1 341.40 788.48   L 239.73 762.08   A 0.56 0.56 0.0 0 1 239.35 761.33   Q 265.09 699.36 292.68 635.79   C 296.13 627.86 300.06 619.76 305.24 612.97   Q 322.00 591.05 349.65 584.55   Q 357.16 582.79 369.10 582.28   Q 385.79 581.57 403.41 580.57   Q 404.08 580.53 404.24 581.19   C 408.12 596.62 415.49 610.58 427.04 621.25   Q 447.01 639.68 473.37 638.09   C 504.75 636.20 527.43 609.32 522.77 577.96   Q 522.69 577.42 523.23 577.43   L 537.31 577.60   Q 537.88 577.61 538.01 578.15   Q 539.79 585.21 543.25 592.96   Q 564.72 640.97 589.95 688.05   A 0.50 0.49 77.4 0 1 589.49 688.78   Q 587.93 688.70 588.07 690.27   Q 591.62 728.16 595.55 769.40   Q 595.77 771.73 596.49 774.22   Q 596.63 774.71 596.47 775.19   L 581.36 821.45   A 0.94 0.94 0.0 0 1 580.14 822.04   Q 565.88 816.88 552.30 811.35   C 545.33 808.51 539.78 809.05 532.81 811.49   Q 507.11 820.51 481.26 829.24   Q 479.64 829.79 477.73 829.72   Q 401.54 827.00 322.68 824.45   Q 321.16 824.40 321.67 822.96   L 332.96 791.22   A 0.87 0.87 0.0 0 1 333.93 790.66   Q 338.38 791.50 342.73 792.85   Q 343.45 793.07 344.19 792.95   Z" />
<path d="   M 600.45 762.21   Q 600.06 763.39 599.64 764.52   Q 598.90 766.53 598.73 764.39   Q 595.77 727.51 592.25 694.04   Q 592.14 693.01 592.63 693.92   Q 601.76 710.77 609.28 724.51   C 610.53 726.79 611.54 728.36 610.63 731.15   Q 605.32 747.34 600.45 762.21   Z" />
<path d="   M 634.54 708.12   L 627.06 699.36   A 0.64 0.63 -24.9 0 1 627.44 698.33   Q 631.05 697.71 635.75 697.70   Q 732.33 697.55 830.56 697.55   C 838.25 697.55 842.71 697.38 847.09 703.14   Q 849.90 706.83 853.15 710.26   A 0.26 0.26 0.0 0 1 852.96 710.69   L 635.55 708.59   A 1.34 1.32 69.5 0 1 634.54 708.12   Z" />
<path d="   M 569.16 901.64   Q 568.73 902.88 568.22 903.71   A 0.55 0.55 0.0 0 1 567.28 903.72   L 562.24 895.75   Q 561.84 895.12 562.07 894.41   Q 592.86 798.42 624.04 702.07   A 0.12 0.12 0.0 0 1 624.25 702.03   Q 627.77 706.51 631.42 710.78   Q 631.60 710.99 631.52 711.27   Q 605.11 792.04 578.76 872.99   Q 573.98 887.67 569.16 901.64   Z" />
<path d="   M 585.97 863.05   Q 610.39 788.20 634.53 714.12   A 2.15 2.14 9.0 0 1 636.59 712.63   Q 742.20 713.40 849.39 714.55   Q 852.20 714.58 855.35 715.00   C 858.94 715.47 858.57 721.99 857.95 724.24   Q 857.09 727.43 855.89 730.87   Q 825.44 818.38 794.78 905.78   A 0.87 0.86 -80.6 0 1 793.96 906.37   L 572.11 906.36   A 0.33 0.32 9.5 0 1 571.80 905.93   Q 579.00 884.42 585.97 863.05   Z" />
<path d="   M 317.13 826.83   Q 322.49 828.40 328.25 828.57   Q 400.23 830.64 479.88 833.74   A 3.55 3.52 -53.0 0 0 481.11 833.56   Q 507.40 824.40 536.19 814.53   C 542.17 812.48 545.84 813.12 551.99 815.53   Q 565.11 820.68 578.70 825.77   A 1.36 1.36 0.0 0 1 579.53 827.42   L 579.08 829.02   A 1.34 1.34 0.0 0 1 577.50 829.96   L 542.52 822.18   Q 540.53 821.74 540.36 823.77   L 540.32 824.26   A 1.83 1.82 -81.4 0 0 541.75 826.21   L 576.50 833.84   A 0.90 0.90 0.0 0 1 577.16 835.01   L 575.40 840.19   A 1.16 1.16 0.0 0 1 574.09 840.96   L 538.05 834.27   Q 535.95 833.88 535.45 835.95   L 535.34 836.38   A 1.33 1.33 0.0 0 0 536.39 838.01   L 573.66 845.04   Q 573.83 845.07 573.77 845.24   L 571.05 853.66   Q 571.01 853.80 570.87 853.77   L 535.79 847.15   Q 533.82 846.78 533.14 848.67   Q 532.87 849.41 533.42 850.25   A 1.50 1.47 -10.9 0 0 534.37 850.88   L 569.29 857.37   Q 569.87 857.48 569.69 858.04   L 565.30 871.47   Q 565.10 872.09 564.45 872.15   Q 559.08 872.63 554.61 871.90   C 550.60 871.24 546.97 868.97 543.21 867.26   Q 541.10 866.31 538.56 867.02   Q 524.61 870.91 511.27 874.63   C 503.52 876.80 495.76 876.27 487.75 877.03   Q 463.99 879.28 440.31 881.29   Q 434.36 881.79 430.71 884.57   C 429.80 885.25 428.53 885.36 427.47 885.48   Q 364.88 892.53 307.72 899.47   C 296.70 900.80 286.52 901.37 275.95 899.67   C 260.89 897.25 251.50 886.81 246.27 872.97   C 238.82 853.28 238.76 830.94 244.57 810.51   Q 250.22 790.69 255.73 770.93   A 0.68 0.67 -74.8 0 1 256.55 770.45   L 329.08 789.24   Q 329.57 789.37 329.40 789.85   L 316.55 825.70   A 0.87 0.87 0.0 0 0 317.13 826.83   Z   M 296.4491 827.9451   A 1.87 1.87 0.0 0 0 293.9174 827.1807   L 275.2691 837.1799   A 1.87 1.87 0.0 0 0 274.5047 839.7116   L 274.5709 839.8349   A 1.87 1.87 0.0 0 0 277.1026 840.5993   L 295.7509 830.6001   A 1.87 1.87 0.0 0 0 296.5153 828.0684   L 296.4491 827.9451   Z" />
<path d="   M 546.74 873.16   Q 554.42 877.21 563.45 875.88   A 0.42 0.41 5.1 0 1 563.91 876.42   L 558.91 891.80   A 0.72 0.71 11.0 0 1 558.16 892.30   Q 516.07 888.52 474.09 884.92   C 470.30 884.59 466.50 884.01 462.81 883.70   Q 459.74 883.45 462.80 883.13   Q 482.99 881.03 505.24 879.93   Q 506.53 879.86 510.47 878.81   Q 524.88 874.96 538.50 870.93   C 539.79 870.55 541.00 870.19 542.27 870.84   Q 544.50 871.97 546.74 873.16   Z" />
<path d="   M 493.56 900.15   Q 464.08 897.88 435.01 894.70   Q 432.77 894.46 430.55 894.04   A 0.80 0.79 -69.7 0 1 430.01 892.85   Q 431.40 890.49 433.40 888.14   C 435.43 885.75 437.88 885.92 440.74 886.16   Q 491.64 890.44 543.99 894.94   Q 550.96 895.54 556.57 896.07   A 2.67 2.64 76.5 0 1 558.58 897.32   L 563.32 904.96   Q 563.98 906.03 562.73 905.92   Q 528.66 902.85 493.56 900.15   Z" />
<path d="   M 427.39 889.99   C 425.77 892.16 423.71 897.51 428.35 898.00   Q 475.83 903.00 523.01 906.06   Q 523.19 906.07 523.19 906.25   L 523.19 906.26   Q 523.18 906.47 522.97 906.47   Q 429.11 906.23 335.09 906.27   Q 334.52 906.28 334.64 905.72   L 335.71 900.66   Q 335.86 899.94 336.59 899.85   L 427.05 889.41   Q 427.89 889.32 427.39 889.99   Z" />
</g>
<g fill="#272525" id="Group-000000">
<path d="   M 853.99 245.99   Q 854.03 248.09 854.95 246.20   Q 858.43 239.12 862.59 231.68   C 865.77 225.99 874.08 216.78 879.84 225.15   Q 881.90 228.16 882.87 232.71   Q 883.26 234.52 881.42 234.77   L 880.71 234.86   A 1.68 1.68 0.0 0 1 878.87 233.70   Q 877.90 230.71 876.48 227.35   C 875.30 224.56 872.45 225.74 870.93 227.32   C 865.74 232.69 862.70 239.83 859.36 246.46   Q 857.55 250.04 854.42 252.23   Q 854.01 252.52 854.02 253.02   L 854.09 294.72   A 0.39 0.39 0.0 0 0 854.48 295.11   L 871.80 295.18   Q 872.29 295.18 872.29 294.70   L 872.40 254.04   Q 872.41 251.98 874.46 251.78   Q 875.01 251.73 875.57 251.93   A 1.63 1.61 10.1 0 1 876.64 253.45   L 876.65 294.67   Q 876.65 295.20 877.17 295.20   L 887.93 295.19   A 1.66 1.66 0.0 0 1 889.59 296.94   L 889.56 297.64   Q 889.49 299.16 887.97 299.24   Q 882.70 299.55 877.16 299.28   Q 876.62 299.25 876.60 299.79   L 876.38 306.28   Q 876.34 307.65 874.97 307.67   L 873.95 307.69   A 1.31 1.30 -1.8 0 1 872.62 306.45   L 872.29 299.94   Q 872.26 299.36 871.69 299.37   L 854.51 299.43   Q 853.95 299.43 853.94 299.99   L 853.85 306.11   A 1.72 1.72 0.0 0 1 852.14 307.81   L 851.73 307.82   Q 849.87 307.83 849.87 305.98   L 849.87 299.72   A 0.41 0.40 89.3 0 0 849.46 299.31   L 831.52 299.39   A 0.59 0.58 -1.0 0 0 830.94 299.98   L 830.98 305.91   Q 831.00 307.83 829.09 307.66   L 828.60 307.61   Q 826.99 307.47 826.99 305.85   L 826.97 299.93   Q 826.97 299.40 826.43 299.40   L 808.54 299.42   Q 807.75 299.42 807.74 300.21   L 807.59 306.45   A 1.28 1.28 0.0 0 1 806.31 307.70   L 805.13 307.70   Q 803.80 307.70 803.77 306.37   L 803.61 300.40   A 0.96 0.96 0.0 0 0 802.65 299.46   L 785.29 299.37   Q 784.70 299.37 784.69 299.96   L 784.56 306.01   Q 784.53 307.54 782.99 307.56   L 782.01 307.58   Q 780.66 307.61 780.65 306.26   L 780.56 300.13   Q 780.55 299.45 779.88 299.45   L 762.48 299.44   Q 761.91 299.44 761.89 300.02   L 761.64 306.28   A 1.26 1.26 0.0 0 1 760.48 307.49   L 758.98 307.60   Q 757.76 307.70 757.74 306.48   L 757.63 300.06   Q 757.62 299.49 757.06 299.49   L 740.29 299.45   A 0.65 0.64 -88.6 0 0 739.64 300.08   L 739.49 306.28   Q 739.46 307.51 738.22 307.56   L 737.07 307.60   Q 735.75 307.65 735.68 306.33   L 735.35 299.99   Q 735.32 299.41 734.74 299.41   L 714.88 299.38   A 0.53 0.53 0.0 0 0 714.35 299.90   L 714.13 306.08   Q 714.08 307.50 712.66 307.43   L 711.31 307.36   Q 710.08 307.30 710.10 306.06   L 710.22 299.93   Q 710.23 299.38 709.68 299.39   L 698.85 299.63   Q 697.01 299.67 697.25 297.85   L 697.35 297.09   Q 697.59 295.27 699.43 295.25   L 709.47 295.14   Q 710.08 295.13 710.08 294.53   L 710.13 252.32   Q 710.14 252.11 709.93 252.11   L 697.13 252.16   Q 695.84 252.17 695.89 250.88   L 695.94 249.48   A 1.35 1.34 -89.1 0 1 697.27 248.18   L 709.84 248.13   A 0.31 0.31 0.0 0 0 710.15 247.82   L 710.10 210.35   Q 710.10 209.84 709.59 209.83   L 697.39 209.72   Q 696.07 209.71 696.08 208.39   L 696.10 207.25   Q 696.11 205.87 697.50 205.85   L 709.45 205.71   Q 710.10 205.70 710.10 205.05   L 710.12 169.59   Q 710.12 169.06 709.59 169.06   L 697.07 169.00   Q 694.98 168.99 694.78 166.91   Q 694.76 166.74 694.76 166.56   A 1.50 1.50 0.0 0 1 696.23 164.98   L 709.46 164.72   Q 710.12 164.71 710.14 164.04   L 710.25 159.13   Q 710.29 157.57 711.73 156.97   Q 713.12 156.38 714.14 159.16   A 1.75 1.70 -55.5 0 1 714.24 159.74   L 714.32 294.58   Q 714.32 295.10 714.84 295.10   L 734.71 295.20   Q 735.36 295.20 735.37 294.54   L 735.50 262.28   A 1.58 1.56 77.6 0 1 736.38 260.88   Q 736.93 260.61 737.51 260.63   Q 739.67 260.67 739.67 262.83   L 739.78 294.45   Q 739.79 295.10 740.44 295.11   L 756.93 295.17   Q 757.53 295.17 757.53 294.57   L 757.44 247.50   A 1.56 1.51 29.0 0 0 757.18 246.65   Q 747.13 231.91 737.63 216.47   Q 735.26 212.63 732.05 209.69   Q 730.81 208.56 729.57 209.69   C 727.40 211.66 726.25 215.22 725.31 217.93   Q 724.75 219.53 723.10 219.13   Q 722.95 219.09 722.79 219.06   Q 721.11 218.75 721.41 217.06   C 722.06 213.47 724.62 206.91 728.66 205.61   C 733.41 204.08 737.85 209.73 740.09 213.25   Q 748.15 225.91 756.63 239.03   Q 756.78 239.27 757.01 239.41   Q 757.64 239.81 757.64 239.07   L 757.63 228.85   A 1.62 1.61 -1.7 0 1 759.15 227.24   L 759.56 227.21   Q 761.80 227.07 761.81 229.31   L 761.90 246.49   A 1.38 1.33 -63.0 0 0 762.13 247.25   Q 766.90 254.36 773.29 260.70   C 776.63 264.02 779.12 259.40 779.90 256.74   Q 781.57 251.04 783.27 245.80   C 784.29 242.64 786.48 238.68 789.58 237.10   C 796.08 233.77 801.85 239.58 805.61 244.50   Q 807.66 247.18 811.02 249.53   C 822.85 257.79 830.45 236.11 842.63 244.13   Q 845.94 246.31 849.14 248.48   A 0.44 0.43 14.8 0 0 849.82 248.09   Q 849.39 242.10 849.94 236.93   Q 850.06 235.78 851.22 235.76   L 852.26 235.73   Q 853.83 235.70 853.85 237.26   L 853.99 245.99   Z   M 782.60 272.14   Q 782.86 272.13 783.12 272.17   Q 784.76 272.40 784.76 274.05   L 784.79 294.42   Q 784.79 295.06 785.42 295.06   L 802.81 295.13   Q 803.47 295.13 803.47 294.47   Q 803.54 271.90 803.54 249.58   Q 803.54 248.35 802.73 247.36   C 799.79 243.76 793.25 235.39 788.85 243.06   C 786.43 247.27 785.29 252.75 783.93 257.42   C 782.55 262.19 779.67 267.03 773.76 265.39   C 769.27 264.15 765.45 258.49 762.81 254.65   Q 761.81 253.20 761.81 254.97   L 761.88 294.80   Q 761.88 295.13 762.21 295.13   L 779.77 295.13   Q 780.42 295.13 780.42 294.48   L 780.51 274.24   Q 780.52 272.17 782.60 272.14   Z   M 829.31 263.80   Q 831.07 263.80 831.07 265.56   L 831.17 294.77   A 0.35 0.35 0.0 0 0 831.52 295.12   L 848.97 295.10   Q 849.78 295.10 849.78 294.28   L 849.83 253.84   Q 849.83 253.15 849.17 252.95   C 842.07 250.83 839.56 241.93 830.83 248.80   C 823.87 254.29 816.87 258.35 808.32 252.51   Q 807.78 252.14 807.78 252.80   L 807.83 294.72   A 0.39 0.39 0.0 0 0 808.22 295.11   L 826.18 295.10   A 0.66 0.66 0.0 0 0 826.84 294.44   L 826.94 265.80   Q 826.95 263.80 828.95 263.80   L 829.31 263.80   Z" />
<path d="   M 692.13 166.22   A 0.58 0.57 -38.7 0 1 693.23 166.34   Q 693.34 167.05 692.83 167.57   A 0.52 0.52 0.0 0 1 691.94 167.21   Q 691.93 166.71 692.13 166.22   Z" />
<path d="   M 612.52 597.45   Q 612.31 597.53 612.45 597.70   Q 647.70 638.50 683.85 679.74   Q 689.82 686.55 695.81 693.10   A 1.92 1.88 -20.9 0 0 697.21 693.71   Q 764.21 693.64 833.25 693.72   C 839.29 693.73 844.51 694.14 848.62 699.14   Q 852.17 703.46 856.03 707.78   C 860.94 713.29 863.60 719.53 861.34 726.26   Q 857.42 737.95 853.46 749.24   Q 826.40 826.51 798.86 905.81   A 0.41 0.40 -80.3 0 0 799.24 906.35   L 964.99 906.38   A 1.50 1.47 -17.2 0 1 966.21 907.01   Q 966.92 908.00 966.57 908.79   Q 966.07 909.93 964.82 909.93   L 126.35 909.96   Q 125.00 909.96 124.80 908.62   Q 124.67 907.68 125.50 906.87   A 1.52 1.50 22.1 0 1 126.57 906.43   L 330.46 906.25   Q 330.80 906.25 330.86 905.92   L 331.76 900.80   A 0.18 0.17 2.4 0 0 331.57 900.60   Q 318.69 901.90 303.07 903.79   Q 292.48 905.07 279.83 904.07   Q 257.73 902.34 246.79 882.63   C 234.72 860.88 234.15 833.39 241.01 809.47   Q 246.90 788.95 252.09 769.87   Q 252.22 769.39 251.75 769.26   L 235.71 764.90   A 1.55 1.54 -71.1 0 1 234.69 762.81   Q 261.93 697.09 291.02 630.22   Q 297.34 615.69 306.76 605.13   Q 307.10 604.74 306.60 604.63   Q 275.38 597.36 249.89 579.01   C 246.63 576.66 245.67 561.46 245.60 557.28   Q 245.17 528.45 257.71 504.83   Q 258.64 503.07 256.97 502.00   L 256.35 501.60   A 1.95 1.94 33.4 0 0 253.70 502.14   Q 236.34 527.37 237.89 557.22   Q 238.21 563.42 239.30 569.51   A 0.43 0.43 0.0 0 1 238.55 569.87   Q 236.47 567.55 234.53 565.22   Q 214.44 541.04 212.28 509.29   C 209.76 472.24 223.40 439.82 244.20 409.93   C 256.50 392.25 269.37 375.96 280.88 357.50   Q 293.70 336.93 301.35 314.61   Q 305.61 302.19 310.18 288.67   C 328.30 235.04 371.72 190.18 433.08 198.58   Q 449.24 200.80 462.88 208.73   Q 463.66 209.18 464.47 209.52   Q 465.08 209.77 465.66 209.49   C 500.66 192.96 544.91 193.83 579.22 210.81   C 617.39 229.71 646.27 267.58 653.62 309.62   Q 656.31 325.00 654.72 339.39   Q 654.23 343.78 652.70 347.89   C 650.26 354.44 637.95 356.67 631.87 357.96   Q 631.32 358.08 631.26 358.63   Q 630.10 368.98 629.36 380.63   A 0.72 0.71 18.6 0 0 629.69 381.28   C 640.93 388.56 647.98 400.93 648.41 414.94   A 0.63 0.62 -4.2 0 0 649.11 415.54   Q 651.76 415.24 654.38 415.79   Q 655.09 415.94 655.18 416.66   Q 655.50 419.34 652.85 419.35   Q 650.75 419.35 648.71 419.42   Q 648.15 419.43 648.09 419.99   Q 646.69 432.67 639.17 441.76   Q 638.78 442.24 639.06 442.79   Q 644.75 454.22 650.72 463.08   C 664.23 483.14 678.46 502.72 674.85 528.35   C 671.25 553.97 656.85 574.15 634.79 587.42   A 0.27 0.27 0.0 0 1 634.39 587.17   Q 636.67 561.77 631.02 537.43   A 0.13 0.13 0.0 0 0 630.79 537.38   L 626.70 542.67   A 0.63 0.61 -32.5 0 0 626.58 543.18   Q 630.98 567.11 628.02 590.04   A 2.52 2.51 83.1 0 1 626.43 592.07   L 612.52 597.45   Z   M 607.30 361.59   L 593.57 362.98   Q 592.47 363.09 593.50 363.51   C 599.82 366.06 605.46 368.33 608.10 374.90   A 1.20 1.19 81.0 0 0 609.13 375.65   L 612.79 375.91   Q 613.63 375.97 613.66 375.13   Q 614.24 358.72 613.04 343.25   Q 610.84 314.80 597.76 287.73   Q 596.61 285.36 594.37 286.73   L 593.95 286.98   Q 592.52 287.85 593.22 289.36   Q 608.82 323.26 607.96 360.87   Q 607.95 361.52 607.30 361.59   Z   M 574.85 364.10   Q 575.73 363.59 574.71 363.66   Q 548.70 365.40 523.25 362.53   Q 500.29 359.93 478.18 350.54   C 462.93 344.06 448.32 334.04 439.23 320.38   Q 438.59 319.42 438.79 320.56   C 440.96 333.03 441.06 346.04 439.49 358.10   C 437.12 376.33 427.09 392.71 409.49 398.99   Q 408.96 399.18 409.26 399.66   Q 413.50 406.31 415.22 415.38   Q 415.42 416.41 416.46 416.46   L 466.48 418.66   A 0.68 0.68 0.0 0 0 467.20 418.00   Q 467.81 396.68 484.21 384.38   Q 488.36 381.27 492.78 379.76   Q 494.12 379.30 492.72 379.06   C 486.86 378.06 482.27 379.43 476.97 382.00   C 471.55 384.63 464.79 382.45 464.52 375.83   C 464.29 370.42 468.20 367.39 472.83 365.53   Q 488.42 359.27 501.59 364.54   C 506.22 366.39 511.70 370.49 510.29 376.11   Q 510.13 376.72 510.76 376.83   C 531.13 380.28 545.94 395.63 546.79 416.71   Q 546.82 417.50 547.46 417.04   C 555.05 411.60 562.03 411.14 570.70 414.16   Q 571.00 414.26 571.03 413.95   Q 573.28 392.13 591.06 380.85   Q 591.77 380.40 590.98 380.12   C 586.66 378.60 582.01 378.00 577.28 377.68   Q 571.81 377.31 570.90 372.15   Q 569.98 366.94 574.85 364.10   Z   M 608.08 380.40   C 605.73 385.90 600.70 387.08 595.47 384.80   A 2.88 2.86 -49.1 0 0 592.79 385.00   C 588.93 387.43 584.76 390.51 582.17 394.25   Q 580.17 397.14 578.70 400.62   Q 572.10 416.28 577.73 430.66   C 581.98 441.51 590.82 449.23 602.34 452.03   A 3.04 3.03 30.8 0 0 605.09 451.34   L 608.12 448.62   Q 608.67 448.13 608.79 447.40   Q 614.11 415.08 613.72 380.61   Q 613.72 379.98 613.09 379.96   L 608.95 379.84   Q 608.32 379.82 608.08 380.40   Z   M 483.80 446.78   C 495.30 456.94 512.21 458.37 525.22 450.40   C 541.13 440.65 547.15 419.58 539.64 402.90   Q 531.92 385.77 513.70 381.53   Q 511.28 380.97 508.74 381.04   A 1.92 1.91 27.8 0 0 507.73 381.35   Q 505.93 382.53 503.94 383.28   C 501.46 384.21 499.08 382.61 496.54 382.92   Q 494.91 383.11 493.41 383.82   C 480.70 389.83 472.10 401.68 471.28 415.78   C 470.60 427.63 474.95 438.96 483.80 446.78   Z   M 411.00 418.76   Q 411.56 414.14 409.33 408.48   C 405.07 397.68 397.76 388.65 386.55 386.13   C 379.88 384.63 372.89 386.57 368.26 391.78   C 357.46 403.94 356.49 426.02 364.93 439.69   C 371.73 450.71 382.19 455.91 394.84 455.66   A 1.72 1.70 -26.4 0 1 395.96 456.03   Q 397.31 457.08 398.04 458.58   Q 403.91 470.57 409.77 480.31   C 426.08 507.40 452.51 528.66 483.16 537.70   Q 528.36 551.04 567.64 524.22   A 1.58 1.58 0.0 0 0 568.19 522.29   Q 564.66 514.19 568.11 505.81   C 568.91 503.87 570.45 502.39 572.38 501.57   A 2.22 2.19 81.4 0 0 573.72 499.73   Q 574.21 494.53 575.99 488.98   C 577.28 484.97 580.28 482.99 584.36 482.28   Q 592.52 480.88 599.95 480.53   A 1.93 1.93 0.0 0 0 601.64 479.37   L 604.92 471.82   A 4.09 4.04 -40.8 0 0 605.13 469.18   C 604.07 465.06 602.45 460.16 603.60 456.10   A 0.37 0.36 -79.8 0 0 603.29 455.64   Q 594.78 454.84 587.37 449.42   Q 573.08 438.97 571.08 419.54   A 1.40 1.38 -81.5 0 0 570.26 418.42   C 565.58 416.40 560.15 415.21 555.30 417.37   Q 551.35 419.14 547.40 421.89   A 2.11 2.11 0.0 0 0 546.49 423.44   Q 545.72 431.14 541.78 438.56   C 529.55 461.57 498.99 466.74 480.17 448.63   Q 469.42 438.28 467.43 423.38   Q 467.35 422.76 466.72 422.73   L 412.19 420.18   A 1.26 1.26 0.0 0 1 411.00 418.76   Z   M 640.06 433.09   Q 649.79 412.86 637.68 394.25   Q 634.46 389.30 629.56 386.29   A 0.25 0.24 -72.8 0 0 629.19 386.49   C 628.47 404.00 630.08 421.07 636.44 437.07   A 0.63 0.63 0.0 0 0 637.53 437.22   Q 639.03 435.22 640.06 433.09   Z   M 574.59 512.61   Q 579.99 512.70 585.49 512.95   C 590.22 513.16 591.90 521.95 592.25 525.98   C 592.53 529.06 590.32 530.23 588.00 531.34   Q 575.24 537.45 562.48 543.36   Q 555.39 546.64 550.87 550.97   C 542.29 559.18 538.99 573.09 544.05 585.02   Q 559.89 622.34 582.60 666.15   Q 598.94 697.69 612.80 723.07   A 0.21 0.21 0.0 0 0 613.19 723.03   Q 617.24 710.57 621.27 698.51   C 622.55 694.67 627.86 694.02 631.24 693.96   Q 661.82 693.40 689.90 693.75   A 0.58 0.58 0.0 0 0 690.35 692.79   Q 643.88 639.91 597.37 585.72   C 594.94 582.89 591.78 579.62 594.84 575.76   Q 610.33 556.20 625.98 537.38   Q 627.60 535.43 629.24 533.65   Q 635.72 526.60 636.21 516.91   Q 636.42 512.73 634.43 506.32   Q 625.00 475.81 617.90 454.86   Q 617.25 452.95 615.24 452.45   C 610.13 451.17 605.89 455.56 607.03 460.55   C 608.47 466.84 610.22 472.02 611.16 479.35   Q 611.40 481.25 612.41 482.52   C 614.18 484.74 616.02 486.84 617.60 489.23   Q 622.89 497.24 628.19 505.16   Q 629.20 506.66 627.65 507.61   L 627.40 507.76   Q 625.70 508.81 624.64 507.11   Q 616.63 494.23 610.69 486.39   C 609.71 485.10 608.09 483.74 606.32 483.86   Q 594.87 484.60 584.90 486.17   Q 582.48 486.55 580.89 488.41   Q 580.71 488.62 579.41 490.15   Q 577.75 492.08 580.29 491.81   Q 585.74 491.22 591.41 490.88   C 599.57 490.38 603.94 489.51 608.65 496.50   Q 616.06 507.51 623.38 518.66   Q 624.37 520.17 622.98 521.32   L 622.57 521.67   A 1.32 1.31 53.4 0 1 620.63 521.38   Q 612.46 508.97 605.30 498.31   C 602.15 493.61 598.55 494.19 592.98 494.62   Q 585.98 495.17 579.77 496.13   A 2.04 2.03 1.2 0 0 578.09 497.73   L 577.58 500.26   Q 577.35 501.38 578.50 501.33   Q 584.94 501.00 591.98 500.61   Q 597.82 500.28 601.13 505.67   Q 606.15 513.85 613.66 524.92   A 1.40 1.39 54.3 0 1 613.35 526.82   L 612.88 527.17   Q 611.55 528.18 610.59 526.82   Q 603.78 517.18 597.54 507.40   Q 595.75 504.59 592.51 504.69   Q 583.05 504.98 573.98 505.93   C 569.50 506.41 569.96 515.09 570.88 517.97   Q 573.03 524.70 575.56 531.26   A 0.90 0.89 66.6 0 0 576.78 531.75   L 578.17 531.08   Q 578.98 530.69 578.68 529.84   Q 576.20 522.99 574.35 516.48   Q 573.89 514.84 574.03 513.11   Q 574.07 512.60 574.59 512.61   Z   M 498.67 587.01   A 1.75 1.74 -88.6 0 1 497.05 585.30   L 496.46 545.48   Q 496.45 544.68 495.66 544.54   Q 460.32 538.32 432.27 513.06   Q 431.69 512.54 431.71 513.31   L 433.62 586.31   A 1.33 1.32 86.0 0 1 432.45 587.66   L 431.41 587.78   Q 429.87 587.96 429.82 586.41   L 429.65 579.99   A 0.63 0.63 0.0 0 0 428.99 579.38   L 407.53 580.47   A 0.27 0.27 0.0 0 0 407.28 580.80   Q 412.60 603.81 428.84 618.94   C 444.28 633.32 465.73 639.19 485.97 632.82   Q 502.91 627.49 512.62 612.61   Q 522.59 597.33 519.84 578.07   Q 519.75 577.40 519.07 577.40   L 501.40 577.42   Q 500.80 577.42 500.81 578.02   L 500.98 585.77   Q 501.02 587.68 499.19 587.11   Q 498.93 587.03 498.67 587.01   Z   M 578.53 516.65   L 582.40 528.51   Q 582.70 529.42 583.61 529.10   Q 585.92 528.29 587.81 526.77   A 1.07 1.06 -19.4 0 0 588.21 525.94   C 588.19 522.69 586.50 515.86 582.06 516.15   Q 580.48 516.26 579.07 516.02   Q 578.28 515.89 578.53 516.65   Z   M 344.19 792.95   Q 343.45 793.07 342.73 792.85   Q 338.38 791.50 333.93 790.66   A 0.87 0.87 0.0 0 0 332.96 791.22   L 321.67 822.96   Q 321.16 824.40 322.68 824.45   Q 401.54 827.00 477.73 829.72   Q 479.64 829.79 481.26 829.24   Q 507.11 820.51 532.81 811.49   C 539.78 809.05 545.33 808.51 552.30 811.35   Q 565.88 816.88 580.14 822.04   A 0.94 0.94 0.0 0 0 581.36 821.45   L 596.47 775.19   Q 596.63 774.71 596.49 774.22   Q 595.77 771.73 595.55 769.40   Q 591.62 728.16 588.07 690.27   Q 587.93 688.70 589.49 688.78   A 0.50 0.49 77.4 0 0 589.95 688.05   Q 564.72 640.97 543.25 592.96   Q 539.79 585.21 538.01 578.15   Q 537.88 577.61 537.31 577.60   L 523.23 577.43   Q 522.69 577.42 522.77 577.96   C 527.43 609.32 504.75 636.20 473.37 638.09   Q 447.01 639.68 427.04 621.25   C 415.49 610.58 408.12 596.62 404.24 581.19   Q 404.08 580.53 403.41 580.57   Q 385.79 581.57 369.10 582.28   Q 357.16 582.79 349.65 584.55   Q 322.00 591.05 305.24 612.97   C 300.06 619.76 296.13 627.86 292.68 635.79   Q 265.09 699.36 239.35 761.33   A 0.56 0.56 0.0 0 0 239.73 762.08   L 341.40 788.48   A 1.26 1.26 0.0 0 0 342.90 787.71   L 371.72 711.32   Q 372.38 709.57 374.16 710.13   Q 374.43 710.22 374.65 710.39   Q 375.77 711.23 375.27 712.53   L 345.29 792.05   A 1.44 1.43 5.4 0 1 344.19 792.95   Z   M 600.45 762.21   Q 605.32 747.34 610.63 731.15   C 611.54 728.36 610.53 726.79 609.28 724.51   Q 601.76 710.77 592.63 693.92   Q 592.14 693.01 592.25 694.04   Q 595.77 727.51 598.73 764.39   Q 598.90 766.53 599.64 764.52   Q 600.06 763.39 600.45 762.21   Z   M 634.54 708.12   A 1.34 1.32 69.5 0 0 635.55 708.59   L 852.96 710.69   A 0.26 0.26 0.0 0 0 853.15 710.26   Q 849.90 706.83 847.09 703.14   C 842.71 697.38 838.25 697.55 830.56 697.55   Q 732.33 697.55 635.75 697.70   Q 631.05 697.71 627.44 698.33   A 0.64 0.63 -24.9 0 0 627.06 699.36   L 634.54 708.12   Z   M 569.16 901.64   Q 573.98 887.67 578.76 872.99   Q 605.11 792.04 631.52 711.27   Q 631.60 710.99 631.42 710.78   Q 627.77 706.51 624.25 702.03   A 0.12 0.12 0.0 0 0 624.04 702.07   Q 592.86 798.42 562.07 894.41   Q 561.84 895.12 562.24 895.75   L 567.28 903.72   A 0.55 0.55 0.0 0 0 568.22 903.71   Q 568.73 902.88 569.16 901.64   Z   M 585.97 863.05   Q 579.00 884.42 571.80 905.93   A 0.33 0.32 9.5 0 0 572.11 906.36   L 793.96 906.37   A 0.87 0.86 -80.6 0 0 794.78 905.78   Q 825.44 818.38 855.89 730.87   Q 857.09 727.43 857.95 724.24   C 858.57 721.99 858.94 715.47 855.35 715.00   Q 852.20 714.58 849.39 714.55   Q 742.20 713.40 636.59 712.63   A 2.15 2.14 9.0 0 0 634.53 714.12   Q 610.39 788.20 585.97 863.05   Z   M 317.13 826.83   A 0.87 0.87 0.0 0 1 316.55 825.70   L 329.40 789.85   Q 329.57 789.37 329.08 789.24   L 256.55 770.45   A 0.68 0.67 -74.8 0 0 255.73 770.93   Q 250.22 790.69 244.57 810.51   C 238.76 830.94 238.82 853.28 246.27 872.97   C 251.50 886.81 260.89 897.25 275.95 899.67   C 286.52 901.37 296.70 900.80 307.72 899.47   Q 364.88 892.53 427.47 885.48   C 428.53 885.36 429.80 885.25 430.71 884.57   Q 434.36 881.79 440.31 881.29   Q 463.99 879.28 487.75 877.03   C 495.76 876.27 503.52 876.80 511.27 874.63   Q 524.61 870.91 538.56 867.02   Q 541.10 866.31 543.21 867.26   C 546.97 868.97 550.60 871.24 554.61 871.90   Q 559.08 872.63 564.45 872.15   Q 565.10 872.09 565.30 871.47   L 569.69 858.04   Q 569.87 857.48 569.29 857.37   L 534.37 850.88   A 1.50 1.47 -10.9 0 1 533.42 850.25   Q 532.87 849.41 533.14 848.67   Q 533.82 846.78 535.79 847.15   L 570.87 853.77   Q 571.01 853.80 571.05 853.66   L 573.77 845.24   Q 573.83 845.07 573.66 845.04   L 536.39 838.01   A 1.33 1.33 0.0 0 1 535.34 836.38   L 535.45 835.95   Q 535.95 833.88 538.05 834.27   L 574.09 840.96   A 1.16 1.16 0.0 0 0 575.40 840.19   L 577.16 835.01   A 0.90 0.90 0.0 0 0 576.50 833.84   L 541.75 826.21   A 1.83 1.82 -81.4 0 1 540.32 824.26   L 540.36 823.77   Q 540.53 821.74 542.52 822.18   L 577.50 829.96   A 1.34 1.34 0.0 0 0 579.08 829.02   L 579.53 827.42   A 1.36 1.36 0.0 0 0 578.70 825.77   Q 565.11 820.68 551.99 815.53   C 545.84 813.12 542.17 812.48 536.19 814.53   Q 507.40 824.40 481.11 833.56   A 3.55 3.52 -53.0 0 1 479.88 833.74   Q 400.23 830.64 328.25 828.57   Q 322.49 828.40 317.13 826.83   Z   M 546.74 873.16   Q 544.50 871.97 542.27 870.84   C 541.00 870.19 539.79 870.55 538.50 870.93   Q 524.88 874.96 510.47 878.81   Q 506.53 879.86 505.24 879.93   Q 482.99 881.03 462.80 883.13   Q 459.74 883.45 462.81 883.70   C 466.50 884.01 470.30 884.59 474.09 884.92   Q 516.07 888.52 558.16 892.30   A 0.72 0.71 11.0 0 0 558.91 891.80   L 563.91 876.42   A 0.42 0.41 5.1 0 0 563.45 875.88   Q 554.42 877.21 546.74 873.16   Z   M 493.56 900.15   Q 528.66 902.85 562.73 905.92   Q 563.98 906.03 563.32 904.96   L 558.58 897.32   A 2.67 2.64 76.5 0 0 556.57 896.07   Q 550.96 895.54 543.99 894.94   Q 491.64 890.44 440.74 886.16   C 437.88 885.92 435.43 885.75 433.40 888.14   Q 431.40 890.49 430.01 892.85   A 0.80 0.79 -69.7 0 0 430.55 894.04   Q 432.77 894.46 435.01 894.70   Q 464.08 897.88 493.56 900.15   Z   M 428.35 898.00   C 423.71 897.51 425.77 892.16 427.39 889.99   Q 427.89 889.32 427.05 889.41   L 336.59 899.85   Q 335.86 899.94 335.71 900.66   L 334.64 905.72   Q 334.52 906.28 335.09 906.27   Q 429.11 906.23 522.97 906.47   Q 523.18 906.47 523.19 906.26   L 523.19 906.25   Q 523.19 906.07 523.01 906.06   Q 475.83 903.00 428.35 898.00   Z" />
<path d="   M 692.82 207.08   A 0.42 0.42 0.0 0 1 693.40 207.37   Q 693.54 207.98 692.99 208.26   A 0.43 0.43 0.0 0 1 692.37 207.97   Q 692.23 207.34 692.82 207.08   Z" />
<path d="   M 692.47 249.31   A 0.53 0.53 0.0 0 1 693.38 249.54   Q 693.54 250.25 693.18 250.84   A 0.51 0.50 -42.9 0 1 692.30 250.81   Q 691.87 249.98 692.47 249.31   Z" />
<path d="   M 692.36 297.15   A 0.40 0.39 48.8 0 1 693.07 297.20   Q 693.40 298.02 692.96 298.73   A 0.43 0.43 0.0 0 1 692.17 298.61   Q 691.97 297.83 692.36 297.15   Z" />
<rect x="-3.58" y="-1.39" transform="translate(838.18,348.81) rotate(1.9)" width="7.16" height="2.78" rx="0.94" />
<rect x="-3.56" y="-1.36" transform="translate(849.92,348.79) rotate(0.2)" width="7.12" height="2.72" rx="0.85" />
<rect x="-3.63" y="-1.35" transform="translate(861.76,348.78) rotate(1.1)" width="7.26" height="2.70" rx="0.85" />
<rect x="-3.43" y="-1.34" transform="translate(873.17,348.82) rotate(1.0)" width="6.86" height="2.68" rx="0.90" />
<rect x="-3.49" y="-1.35" transform="translate(884.76,348.76) rotate(0.5)" width="6.98" height="2.70" rx="0.95" />
<path d="   M 723.75 348.05   Q 725.45 347.57 726.98 347.78   A 1.21 1.21 0.0 0 1 727.83 349.64   Q 726.88 351.11 725.49 350.32   A 1.24 1.24 0.0 0 0 724.66 350.18   Q 723.20 350.44 721.56 350.17   A 1.15 1.14 -65.6 0 1 720.87 348.32   Q 721.85 347.11 722.94 347.90   Q 723.31 348.17 723.75 348.05   Z" />
<rect x="-3.77" y="-1.27" transform="translate(746.18,348.92) rotate(0.7)" width="7.54" height="2.54" rx="0.79" />
<rect x="-3.73" y="-1.32" transform="translate(757.40,348.92) rotate(1.3)" width="7.46" height="2.64" rx="0.81" />
<rect x="-3.73" y="-1.32" transform="translate(779.81,348.95) rotate(0.8)" width="7.46" height="2.64" rx="0.74" />
<rect x="-3.66" y="-1.38" transform="translate(791.18,348.87) rotate(0.2)" width="7.32" height="2.76" rx="0.96" />
<rect x="-3.60" y="-1.37" transform="translate(802.82,348.91) rotate(-0.8)" width="7.20" height="2.74" rx="0.78" />
<rect x="-3.62" y="-1.31" transform="translate(814.56,348.84) rotate(1.1)" width="7.24" height="2.62" rx="0.76" />
<rect x="-3.44" y="-1.33" transform="translate(826.46,348.82) rotate(1.0)" width="6.88" height="2.66" rx="0.75" />
<path d="   M 711.01 348.81   Q 710.67 349.17 710.63 349.69   A 0.92 0.92 0.0 0 1 709.02 350.23   Q 708.39 349.52 708.85 348.43   Q 709.09 347.86 709.70 347.86   L 713.54 347.82   Q 714.32 347.81 714.12 348.56   Q 714.00 349.00 714.03 349.45   Q 714.08 350.10 713.44 350.26   Q 712.78 350.42 712.16 350.34   A 0.64 0.62 -4.0 0 1 711.62 349.88   Q 711.52 349.49 711.58 349.09   Q 711.71 348.10 711.01 348.81   Z" />
<rect x="-3.96" y="-1.27" transform="translate(735.04,349.01) rotate(0.1)" width="7.92" height="2.54" rx="0.89" />
<rect x="-3.90" y="-1.24" transform="translate(768.50,348.93) rotate(0.9)" width="7.80" height="2.48" rx="0.85" />
<path d="   M 716.42 348.17   A 0.76 0.76 0.0 0 1 717.70 348.60   Q 717.87 349.69 716.95 350.07   A 0.71 0.71 0.0 0 1 715.98 349.48   Q 715.90 348.68 716.42 348.17   Z" />
<path d="   M 709.74 366.03   L 707.34 366.19   Q 705.88 366.28 706.07 364.83   L 706.13 364.38   A 1.34 1.34 0.0 0 1 707.72 363.24   Q 709.68 363.64 711.92 363.34   Q 712.87 363.21 713.02 364.16   Q 713.11 364.81 712.89 365.46   Q 712.62 366.23 711.80 366.32   Q 711.32 366.37 710.83 366.19   Q 710.30 365.99 709.74 366.03   Z" />
<rect x="-3.45" y="-1.37" transform="translate(753.80,364.55) rotate(1.0)" width="6.90" height="2.74" rx="0.61" />
<path d="   M 766.85 365.95   L 762.83 365.95   Q 761.73 365.95 761.23 364.97   Q 761.09 364.70 761.10 364.41   Q 761.12 363.03 762.50 363.10   L 768.02 363.39   Q 769.24 363.45 768.67 364.53   L 768.41 365.02   Q 767.91 365.95 766.85 365.95   Z" />
<rect x="-3.86" y="-1.33" transform="translate(720.43,364.70) rotate(-0.3)" width="7.72" height="2.66" rx="0.61" />
<rect x="-3.59" y="-1.44" transform="translate(731.51,364.67) rotate(0.9)" width="7.18" height="2.88" rx="1.02" />
<rect x="-3.69" y="-1.33" transform="translate(742.48,364.59) rotate(1.9)" width="7.38" height="2.66" rx="0.60" />
<rect x="-3.13" y="-1.37" transform="translate(775.33,364.57) rotate(0.2)" width="6.26" height="2.74" rx="1.14" />
<rect x="-3.40" y="-1.42" transform="translate(807.99,365.33) rotate(1.0)" width="6.80" height="2.84" rx="0.79" />
<rect x="-3.48" y="-1.45" transform="translate(819.19,365.26) rotate(-0.6)" width="6.96" height="2.90" rx="0.83" />
<rect x="-3.58" y="-1.35" transform="translate(830.59,365.20) rotate(0.9)" width="7.16" height="2.70" rx="0.74" />
<path d="   M 844.37 366.64   L 839.77 366.67   A 0.75 0.74 -2.0 0 1 839.02 365.98   L 838.91 364.53   A 0.79 0.79 0.0 0 1 839.72 363.69   L 844.97 363.86   Q 846.05 363.90 845.93 364.97   L 845.90 365.27   A 1.55 1.54 2.9 0 1 844.37 366.64   Z" />
<path d="   M 851.06 363.69   L 856.84 363.92   A 0.90 0.90 0.0 0 1 857.60 365.24   L 857.05 366.29   A 0.90 0.90 0.0 0 1 856.22 366.78   L 851.43 366.57   A 0.90 0.90 0.0 0 1 850.64 366.02   L 850.19 364.93   A 0.90 0.90 0.0 0 1 851.06 363.69   Z" />
<rect x="-3.42" y="-1.40" transform="translate(865.51,365.20) rotate(1.6)" width="6.84" height="2.80" rx="0.77" />
<path d="   M 873.90 363.94   L 879.02 363.68   A 0.87 0.87 0.0 0 1 879.82 364.97   L 879.14 366.21   A 0.87 0.87 0.0 0 1 878.36 366.66   L 874.73 366.57   A 0.87 0.87 0.0 0 1 874.11 366.28   L 873.30 365.39   A 0.87 0.87 0.0 0 1 873.90 363.94   Z" />
<path d="   M 799.75 378.21   A 0.69 0.69 0.0 0 1 799.06 377.52   L 799.05 376.83   A 1.86 1.82 -0.5 0 1 800.90 375.00   L 804.42 374.96   A 1.86 1.82 -0.5 0 1 806.29 376.77   L 806.30 377.46   A 0.69 0.69 0.0 0 1 805.61 378.15   L 799.75 378.21   Z" />
<path d="   M 810.44 377.83   A 0.53 0.53 0.0 0 1 809.95 377.26   L 809.98 376.71   A 1.79 1.71 -86.3 0 1 811.81 375.03   L 815.02 375.24   A 1.79 1.71 -86.3 0 1 816.61 377.13   L 816.57 377.69   A 0.53 0.53 0.0 0 1 816.01 378.19   L 810.44 377.83   Z" />
<rect x="-3.77" y="-1.51" transform="translate(823.89,376.59) rotate(0.2)" width="7.54" height="3.02" rx="1.07" />
<path d="   M 838.14 378.11   L 832.84 378.09   A 0.93 0.93 0.0 0 1 831.92 377.15   L 831.94 375.88   A 0.93 0.93 0.0 0 1 832.87 374.97   L 837.74 375.00   A 0.93 0.93 0.0 0 1 838.61 375.64   L 839.03 376.89   A 0.93 0.93 0.0 0 1 838.14 378.11   Z" />
<rect x="-3.68" y="-1.51" transform="translate(847.38,376.56) rotate(1.1)" width="7.36" height="3.02" rx="1.08" />
<rect x="-3.73" y="-1.48" transform="translate(858.65,376.53) rotate(0.6)" width="7.46" height="2.96" rx="0.74" />
<rect x="-3.38" y="-1.49" transform="translate(869.39,376.54) rotate(1.8)" width="6.76" height="2.98" rx="0.83" />
<rect x="-6.91" y="-1.49" transform="translate(883.88,376.44) rotate(-0.4)" width="13.82" height="2.98" rx="0.87" />
<path d="   M 713.36 379.61   Q 711.81 380.21 710.33 379.99   Q 709.47 379.86 709.50 378.99   Q 709.55 377.73 709.56 377.72   Q 709.59 376.81 710.50 376.93   Q 712.22 377.18 714.03 377.14   C 715.02 377.12 716.15 377.78 715.92 378.95   Q 715.80 379.56 715.26 379.75   Q 714.75 379.93 714.27 379.67   Q 713.83 379.42 713.36 379.61   Z" />
<rect x="-3.87" y="-1.44" transform="translate(723.37,378.41) rotate(0.4)" width="7.74" height="2.88" rx="1.14" />
<rect x="-3.62" y="-1.46" transform="translate(768.13,378.34) rotate(-0.6)" width="7.24" height="2.92" rx="1.13" />
<rect x="-3.76" y="-1.49" transform="translate(779.14,378.31) rotate(-0.9)" width="7.52" height="2.98" rx="1.03" />
<rect x="-3.37" y="-1.54" transform="translate(790.22,378.38) rotate(1.5)" width="6.74" height="3.08" rx="1.23" />
<rect x="-3.61" y="-1.39" transform="translate(734.49,378.48) rotate(0.8)" width="7.22" height="2.78" rx="1.03" />
<rect x="-3.70" y="-1.42" transform="translate(745.19,378.36) rotate(-1.1)" width="7.40" height="2.84" rx="1.09" />
<rect x="-3.83" y="-1.45" transform="translate(757.04,378.38) rotate(0.4)" width="7.66" height="2.90" rx="1.14" />
<path d="   M 814.33 386.70   Q 815.29 385.39 817.01 386.02   A 0.89 0.89 0.0 0 1 817.58 386.68   Q 817.77 387.72 817.25 388.53   A 1.04 1.04 0.0 0 1 816.40 389.00   L 812.09 389.05   Q 811.44 389.06 811.12 388.49   Q 810.66 387.69 811.07 386.43   Q 811.23 385.93 811.76 385.94   Q 812.93 385.96 813.82 386.75   Q 814.10 387.00 814.33 386.70   Z" />
<rect x="-3.42" y="-1.49" transform="translate(803.64,387.61) rotate(0.9)" width="6.84" height="2.98" rx="1.42" />
<rect x="-3.42" y="-1.38" transform="translate(825.00,387.49) rotate(0.5)" width="6.84" height="2.76" rx="0.78" />
<path d="   M 836.62 386.54   Q 837.97 386.09 839.51 386.00   Q 840.04 385.97 840.01 386.50   L 839.94 388.20   A 0.77 0.76 -88.4 0 1 839.18 388.93   L 833.51 388.97   Q 832.79 388.97 832.87 388.25   L 833.07 386.67   Q 833.15 385.97 833.86 385.98   Q 834.90 386.00 835.85 386.48   Q 836.23 386.67 836.62 386.54   Z" />
<rect x="-3.62" y="-1.39" transform="translate(848.51,387.52) rotate(0.2)" width="7.24" height="2.78" rx="0.69" />
<rect x="-3.42" y="-1.42" transform="translate(859.62,387.57) rotate(1.2)" width="6.84" height="2.84" rx="0.87" />
<rect x="-3.57" y="-1.39" transform="translate(870.58,387.56) rotate(0.2)" width="7.14" height="2.78" rx="0.81" />
<path d="   M 879.98 388.75   C 879.48 388.72 878.93 388.93 878.46 388.79   Q 878.09 388.68 878.02 388.30   Q 877.86 387.49 878.00 386.68   A 0.73 0.73 0.0 0 1 878.75 386.08   L 880.65 386.19   A 1.15 1.14 -73.2 0 1 881.57 387.92   Q 881.03 388.82 879.98 388.75   Z" />
<ellipse cx="0.00" cy="0.00" transform="translate(883.26,387.40) rotate(97.5)" rx="1.34" ry="0.70" />
<path d="   M 498.82 426.70   C 491.50 428.52 488.93 421.42 488.40 415.68   Q 487.45 405.46 490.09 395.69   C 491.17 391.70 494.76 384.18 499.91 387.92   C 506.76 392.88 509.01 424.17 498.82 426.70   Z" />
<rect x="-3.21" y="-1.49" transform="translate(789.89,390.41) rotate(-0.8)" width="6.42" height="2.98" rx="0.52" />
<rect x="-3.39" y="-1.47" transform="translate(713.56,390.51) rotate(0.2)" width="6.78" height="2.94" rx="0.77" />
<rect x="-3.61" y="-1.46" transform="translate(724.67,390.51) rotate(0.6)" width="7.22" height="2.92" rx="0.88" />
<rect x="-3.64" y="-1.46" transform="translate(735.70,390.50) rotate(0.4)" width="7.28" height="2.92" rx="0.83" />
<rect x="-3.48" y="-1.45" transform="translate(746.43,390.46) rotate(0.7)" width="6.96" height="2.90" rx="0.92" />
<rect x="-3.65" y="-1.42" transform="translate(757.28,390.48) rotate(0.6)" width="7.30" height="2.84" rx="0.73" />
<rect x="-3.58" y="-1.41" transform="translate(768.45,390.48) rotate(0.1)" width="7.16" height="2.82" rx="0.93" />
<rect x="-3.42" y="-1.47" transform="translate(779.39,390.48) rotate(1.0)" width="6.84" height="2.94" rx="1.03" />
<path d="   M 579.47 418.25   C 578.13 410.43 578.57 397.51 584.88 391.54   A 2.77 2.77 0.0 0 1 588.43 391.31   C 595.06 396.17 595.27 415.08 591.10 422.28   C 589.20 425.56 584.61 426.44 581.99 423.54   Q 580.00 421.34 579.47 418.25   Z" />
<path d="   M 389.74 421.69   Q 388.80 418.67 388.17 415.57   C 387.37 411.66 382.03 411.48 379.00 410.87   Q 376.07 410.29 377.02 407.23   A 0.66 0.66 0.0 0 1 377.66 406.77   Q 382.30 406.92 386.63 408.70   C 392.54 411.12 392.78 417.18 393.74 422.62   A 1.49 1.48 15.5 0 0 394.24 423.50   L 397.48 426.26   Q 398.48 427.11 399.05 428.29   Q 400.98 432.29 399.66 432.76   Q 397.76 433.43 396.79 431.65   Q 393.39 425.39 385.06 426.25   A 3.29 3.29 0.0 0 0 382.16 428.92   L 381.48 432.60   Q 381.29 433.62 380.26 433.73   C 379.01 433.86 377.81 433.15 377.78 431.77   C 377.62 424.43 382.76 421.68 389.27 422.27   Q 389.93 422.33 389.74 421.69   Z" />
<path d="   M 794.43 440.19   A 33.09 33.09 0.0 0 1 761.34 473.28   A 33.09 33.09 0.0 0 1 728.25 440.19   A 33.09 33.09 0.0 0 1 761.34 407.10   A 33.09 33.09 0.0 0 1 794.43 440.19   Z   M 790.40 440.22   A 29.07 29.07 0.0 0 0 761.33 411.15   A 29.07 29.07 0.0 0 0 732.26 440.22   A 29.07 29.07 0.0 0 0 761.33 469.29   A 29.07 29.07 0.0 0 0 790.40 440.22   Z" />
<path d="   M 875.70 439.60   A 30.91 30.91 0.0 0 1 844.79 470.51   A 30.91 30.91 0.0 0 1 813.88 439.60   A 30.91 30.91 0.0 0 1 844.79 408.69   A 30.91 30.91 0.0 0 1 875.70 439.60   Z   M 840.12 440.73   L 842.81 413.23   Q 842.88 412.52 842.18 412.64   Q 831.40 414.41 825.31 420.84   C 809.83 437.18 819.95 464.16 842.29 466.49   C 854.53 467.76 865.12 460.79 869.66 449.55   Q 874.00 438.81 868.97 427.93   A 0.52 0.51 61.1 0 0 868.22 427.71   L 844.25 443.24   A 2.68 2.68 0.0 0 1 840.12 440.73   Z   M 845.93 436.70   L 865.67 423.92   A 1.01 1.00 52.0 0 0 865.85 422.39   C 860.92 417.17 854.42 413.19 847.62 412.70   Q 847.02 412.65 846.99 413.25   Q 846.52 425.08 845.04 436.13   Q 844.87 437.38 845.93 436.70   Z" />
<path d="   M 762.85 440.09   L 784.76 440.14   Q 786.38 440.14 786.36 441.76   L 786.35 442.81   Q 786.33 444.44 784.69 444.45   L 758.99 444.55   A 1.63 1.62 -88.8 0 1 757.36 442.84   L 758.66 416.61   Q 758.77 414.25 761.14 414.20   L 761.46 414.19   A 1.70 1.69 -89.2 0 1 763.19 415.97   L 762.03 439.22   Q 761.99 440.08 762.85 440.09   Z" />
<path d="   M 566.13 457.43   L 556.69 427.58   Q 556.23 426.14 557.49 425.30   Q 557.80 425.10 558.12 425.08   A 2.37 2.36 78.8 0 1 560.57 426.73   Q 565.64 442.98 570.72 459.32   A 1.56 1.55 -15.4 0 1 569.60 461.29   L 554.87 464.90   Q 553.34 465.28 552.99 463.74   L 552.85 463.09   Q 552.55 461.80 553.81 461.38   C 557.63 460.10 561.65 459.15 565.52 458.44   Q 566.39 458.27 566.13 457.43   Z" />
<path d="   M 538.33 496.95   Q 539.22 497.38 540.27 497.03   Q 544.80 495.53 548.98 493.97   Q 550.28 493.49 550.86 494.76   L 551.07 495.23   Q 551.74 496.74 550.25 497.45   C 545.25 499.86 539.04 502.63 534.19 499.02   Q 529.21 495.31 524.71 490.97   Q 523.78 490.07 524.45 488.97   Q 524.63 488.66 524.90 488.43   Q 526.20 487.26 527.49 488.44   C 530.78 491.46 534.32 495.02 538.33 496.95   Z" />
<rect x="-12.45" y="-1.94" transform="translate(285.51,833.89) rotate(-28.2)" width="24.90" height="3.88" rx="1.87" />
</g>
</g></svg>