<svg xmlns="http://www.w3.org/2000/svg" viewBox="0 0 1024 1024" version="1.1">
<g id="Parent-Group"><g id="Group-rgba(0,0,0,0)" fill="rgba(0,0,0,0)">
<path fill="rgba(0,0,0,0)" opacity="1.00" d=" M 0.00 0.00 L 1024.00 0.00 L 1024.00 1024.00 L 0.00 1024.00 L 0.00 0.00 M 421.97 157.99 C 392.77 170.06 368.80 193.23 353.69 220.79 C 343.11 238.99 336.77 259.52 334.24 280.38 C 331.11 280.41 327.99 280.46 324.87 280.70 C 320.60 287.89 317.94 295.86 314.60 303.48 C 313.34 307.11 310.95 310.56 311.30 314.56 C 313.19 314.76 315.09 314.90 316.99 315.08 C 323.13 314.60 329.30 314.85 335.46 314.67 C 336.10 324.44 337.71 334.24 340.81 343.55 C 343.10 344.15 345.43 344.05 347.71 343.43 C 346.81 348.45 345.93 353.54 343.88 358.24 C 337.72 373.46 325.17 384.52 314.15 396.18 C 295.75 415.60 281.62 440.05 278.27 466.90 C 275.46 486.66 280.64 507.48 292.65 523.45 C 296.58 528.60 301.61 532.75 306.32 537.15 C 298.77 541.40 291.72 546.53 285.19 552.22 C 274.78 561.52 264.74 571.74 258.41 584.34 C 252.38 596.04 247.00 608.09 242.31 620.40 C 227.59 658.99 217.22 699.57 215.22 740.95 C 214.04 756.97 214.52 773.22 217.90 788.97 C 222.89 809.98 235.24 829.39 252.84 842.04 C 264.24 849.74 277.38 854.92 291.03 856.77 C 308.50 859.13 326.34 856.14 342.58 849.49 C 342.57 853.09 342.17 856.68 341.51 860.22 C 322.99 860.17 304.48 860.23 285.97 860.20 C 236.59 860.54 187.21 860.05 137.84 860.57 C 137.75 861.58 137.67 862.60 137.59 863.63 C 140.63 864.42 143.79 864.24 146.89 863.93 C 151.92 863.68 156.96 863.88 162.00 863.81 C 245.99 863.74 329.99 863.71 413.99 863.78 C 494.03 863.85 574.07 863.66 654.11 863.84 C 659.74 864.46 665.37 863.64 671.02 863.78 C 732.35 863.80 793.68 863.76 855.01 863.77 C 864.65 864.05 874.34 863.33 883.95 864.23 C 885.83 864.05 887.71 863.82 889.61 863.59 C 889.56 862.51 889.52 861.43 889.47 860.37 C 820.05 860.40 750.62 860.24 681.20 860.47 C 686.45 859.16 691.50 857.02 695.81 853.71 C 706.41 846.63 714.25 836.09 719.50 824.58 C 729.38 824.38 739.30 824.58 749.14 823.58 C 750.06 821.32 750.97 819.06 751.75 816.76 C 760.26 792.20 768.89 767.69 777.77 743.27 C 780.15 742.82 782.58 742.68 785.01 742.99 C 786.97 743.09 789.46 743.80 790.65 741.69 C 794.10 736.84 796.91 731.56 800.19 726.60 C 805.43 728.12 811.68 727.85 815.80 723.87 C 820.25 720.28 821.63 714.52 823.63 709.44 C 827.87 697.88 833.61 686.98 838.68 675.77 C 843.32 667.13 835.61 656.79 826.87 654.91 C 840.42 629.99 855.04 605.67 868.63 580.78 C 867.16 580.11 865.66 579.47 864.02 579.74 C 856.96 580.01 849.89 580.41 842.83 580.06 C 841.06 578.51 841.23 575.82 840.41 573.77 C 835.70 573.77 831.02 574.25 826.32 574.19 C 782.51 574.49 738.71 575.14 694.90 575.77 C 676.25 576.42 657.59 576.57 638.93 576.77 C 632.19 568.93 625.56 560.92 617.59 554.29 C 602.43 541.43 584.07 532.97 565.34 526.71 C 559.01 524.54 552.67 522.22 546.06 521.01 C 552.84 514.76 559.84 508.54 564.67 500.58 C 574.60 485.10 579.64 466.21 577.35 447.86 C 576.59 441.74 574.16 436.00 572.67 430.07 C 574.99 421.21 575.91 412.10 576.54 402.99 C 577.08 392.26 578.31 381.57 578.83 370.84 C 578.74 367.37 581.65 365.10 583.46 362.49 C 589.46 354.85 592.91 345.44 594.09 335.85 C 595.46 324.85 592.72 313.86 589.04 303.57 C 598.87 303.21 608.66 302.12 618.46 301.32 C 621.14 300.78 620.85 297.08 619.56 295.32 C 615.90 290.38 612.36 285.35 608.59 280.49 C 606.95 278.41 605.45 276.04 603.07 274.73 C 599.08 274.21 595.02 274.75 591.01 274.33 C 586.61 255.49 580.06 237.05 570.57 220.16 C 562.20 205.82 552.60 191.93 540.10 180.85 C 509.11 152.09 461.44 142.11 421.97 157.99 M 134.61 868.67 C 134.58 869.55 134.54 871.33 134.52 872.21 C 379.34 872.11 624.16 872.24 868.98 872.18 C 878.49 871.88 888.06 872.70 897.53 871.70 C 897.42 870.62 897.32 869.54 897.22 868.47 C 667.14 868.52 437.05 868.53 206.96 868.45 C 182.85 868.67 158.72 868.14 134.61 868.67 M 139.58 885.99 C 138.71 888.22 141.75 887.62 142.91 887.85 C 271.61 887.78 400.30 887.79 529.00 887.85 C 535.33 887.82 541.66 887.84 547.99 887.83 C 663.56 887.70 779.13 887.96 894.70 887.71 C 894.70 886.59 894.71 885.48 894.72 884.38 C 811.84 884.10 728.95 884.33 646.06 884.26 C 478.37 884.25 310.67 884.26 142.98 884.24 C 141.83 884.58 138.84 883.76 139.58 885.99 Z" />
<path fill="rgba(0,0,0,0)" opacity="1.00" d=" M 402.84 173.01 C 419.88 160.01 441.69 154.07 462.96 154.32 C 486.22 154.25 509.25 162.27 528.04 175.85 C 543.34 186.60 555.14 201.57 564.68 217.50 C 574.17 232.56 580.39 249.40 585.32 266.42 C 587.55 274.61 588.82 283.02 589.66 291.46 C 590.49 291.46 591.33 291.47 592.18 291.48 C 592.45 290.92 592.98 289.79 593.25 289.22 C 592.37 285.67 592.57 281.97 591.82 278.40 C 595.06 278.45 598.31 278.12 601.54 278.50 C 607.32 284.43 611.95 291.41 616.71 298.18 C 601.08 298.54 585.56 300.53 569.97 301.51 C 506.02 305.41 442.01 308.29 377.96 310.03 C 357.12 310.52 336.28 310.68 315.45 311.43 C 315.55 311.07 315.75 310.36 315.86 310.00 C 319.64 301.53 322.89 292.82 326.86 284.44 C 365.59 283.45 404.33 282.76 443.07 282.10 C 458.76 281.02 474.57 282.10 490.21 280.39 C 490.02 266.91 488.89 253.47 488.45 240.00 C 488.28 237.77 488.48 235.38 487.34 233.36 C 486.70 233.47 485.44 233.67 484.81 233.78 C 484.21 239.19 485.31 244.60 485.33 250.02 C 485.53 259.07 486.27 268.10 486.41 277.16 C 436.96 278.25 387.52 279.29 338.07 280.38 C 340.48 260.24 346.61 240.41 356.73 222.77 C 363.42 210.91 371.31 199.57 381.20 190.15 C 393.16 180.60 407.22 172.16 422.96 171.78 C 447.03 171.26 469.91 187.18 479.83 208.76 C 480.84 208.69 481.85 208.62 482.88 208.55 C 482.62 207.10 482.46 205.60 481.70 204.32 C 474.91 190.73 463.06 179.96 449.44 173.45 C 434.94 167.17 417.19 165.55 402.84 173.01 Z" />
<path fill="rgba(0,0,0,0)" opacity="1.00" d=" M 500.57 321.60 C 505.18 317.48 508.72 312.38 512.94 307.92 C 515.65 307.62 518.38 307.68 521.11 307.54 C 530.28 320.79 542.76 331.94 557.51 338.58 C 563.99 341.42 570.50 344.38 577.47 345.86 C 575.99 363.24 574.27 380.61 573.38 398.05 C 572.28 411.06 572.00 424.52 566.77 436.72 C 561.13 449.81 550.55 460.22 538.53 467.60 C 529.24 473.47 518.78 477.15 508.20 479.91 C 504.83 480.76 501.38 481.48 497.89 481.24 C 477.49 479.26 458.16 471.43 440.47 461.36 C 423.27 451.99 407.66 438.37 399.36 420.32 C 391.46 424.85 381.38 424.13 373.96 418.97 C 361.11 410.07 355.68 392.71 359.14 377.77 C 360.90 370.22 367.01 363.32 374.97 362.41 C 384.35 361.50 392.69 367.94 397.74 375.31 C 400.60 379.20 400.64 384.16 401.72 388.68 C 406.07 386.08 409.08 381.92 412.17 378.01 C 417.90 370.35 422.10 361.66 425.71 352.83 C 439.28 351.81 452.73 348.88 465.54 344.30 C 478.49 339.01 490.73 331.63 500.57 321.60 M 451.25 354.99 C 451.35 356.42 451.00 358.99 453.21 358.63 C 457.52 356.54 461.50 353.57 466.32 352.65 C 472.47 351.03 478.80 352.25 484.87 353.61 L 486.74 352.13 C 485.30 348.86 481.54 348.42 478.49 347.71 C 468.86 345.97 458.90 349.07 451.25 354.99 M 541.40 352.40 C 540.88 353.69 541.07 356.15 543.03 355.75 C 546.56 354.50 550.03 352.39 553.92 352.79 C 557.72 353.20 561.20 354.88 564.60 356.53 C 565.31 355.46 565.73 354.26 565.96 353.00 C 559.10 347.31 548.36 346.50 541.40 352.40 M 550.69 372.07 C 544.84 373.45 542.28 380.59 544.10 385.91 C 545.06 390.22 549.65 393.42 554.04 392.37 C 559.72 391.17 562.44 384.27 560.61 379.09 C 559.70 374.75 555.29 370.80 550.69 372.07 M 469.68 372.75 C 463.37 375.81 461.92 385.27 466.57 390.36 C 469.00 392.79 472.91 393.97 476.15 392.52 C 479.36 391.44 481.21 388.26 481.93 385.12 C 483.66 378.29 477.00 369.91 469.68 372.75 M 366.34 381.37 C 366.44 382.04 366.65 383.37 366.75 384.03 C 370.67 383.53 373.82 380.25 377.96 380.71 C 381.94 380.60 385.03 383.35 388.14 385.42 C 389.47 384.92 390.25 383.93 389.60 382.54 C 384.17 375.35 372.51 374.95 366.34 381.37 M 517.03 382.95 C 517.79 393.25 521.92 402.92 526.85 411.88 C 527.83 411.75 528.81 411.61 529.80 411.48 C 529.56 408.00 527.46 405.11 526.09 402.02 C 522.82 395.34 521.28 388.01 520.06 380.73 C 517.84 379.78 516.83 380.51 517.03 382.95 M 495.86 429.68 C 494.44 432.82 497.42 435.53 499.26 437.76 C 505.05 444.35 516.18 445.85 523.03 440.10 C 525.51 437.52 528.77 434.60 528.42 430.70 C 525.20 428.96 524.47 432.99 522.78 434.77 C 519.22 439.82 511.92 441.46 506.50 438.57 C 502.60 436.76 500.57 432.84 497.92 429.72 C 497.41 429.71 496.38 429.69 495.86 429.68 Z" />
<path fill="rgba(0,0,0,0)" opacity="1.00" d=" M 339.23 314.68 C 357.35 314.52 375.46 313.95 393.58 313.53 C 390.75 322.37 383.07 328.93 374.68 332.36 C 364.61 335.98 354.17 338.62 343.63 340.39 C 341.26 332.00 339.81 323.38 339.23 314.68 Z" />
<path fill="rgba(0,0,0,0)" opacity="1.00" d=" M 429.90 459.48 C 449.97 472.19 472.32 482.27 496.17 484.71 C 496.76 493.46 497.95 502.16 498.67 510.90 C 498.68 512.29 499.95 513.15 500.68 514.21 C 510.41 516.06 520.06 518.26 529.67 520.65 C 519.96 532.95 505.57 541.38 490.02 543.57 C 471.11 546.17 451.07 542.49 434.91 532.12 C 426.06 526.44 418.55 518.70 413.38 509.52 C 416.36 509.50 419.34 509.41 422.32 509.21 C 425.05 492.67 427.63 476.08 429.90 459.48 Z" />
<path fill="rgba(0,0,0,0)" opacity="1.00" d=" M 386.16 512.79 C 393.98 512.00 401.72 510.36 409.61 510.11 C 418.54 527.18 435.13 539.51 453.52 544.74 C 469.95 549.35 487.98 549.97 504.12 543.89 C 515.99 539.68 526.17 531.52 533.78 521.58 C 538.34 523.00 543.00 524.10 547.66 525.18 C 542.80 539.51 532.35 552.06 518.56 558.52 C 500.20 566.73 479.06 566.33 459.87 561.43 C 438.87 556.50 419.24 546.16 403.03 531.95 C 396.75 526.19 390.73 520.03 386.16 512.79 Z" />
<path fill="rgba(0,0,0,0)" opacity="1.00" d=" M 363.91 517.73 C 370.17 516.37 376.35 514.45 382.79 514.12 C 388.04 523.22 395.78 530.55 403.56 537.48 C 424.33 554.57 450.09 565.68 476.91 568.30 C 493.14 569.53 510.23 567.93 524.59 559.69 C 537.15 552.29 546.53 540.02 551.24 526.30 C 570.35 531.87 589.31 538.98 605.91 550.16 C 616.99 557.36 626.13 567.06 634.42 577.26 C 615.17 577.08 595.92 577.73 576.68 577.70 C 568.08 593.90 560.50 610.62 552.78 627.24 C 547.09 627.36 541.41 627.46 535.73 627.51 C 528.33 647.95 521.88 668.73 514.48 689.17 C 507.05 690.67 500.72 695.24 495.13 700.16 C 484.16 709.46 476.01 721.85 463.92 729.86 C 449.79 737.96 433.28 740.36 417.33 742.07 C 408.99 742.92 400.60 742.78 392.24 743.22 C 392.32 741.77 392.41 740.33 392.48 738.90 C 376.56 734.77 359.53 733.54 343.52 737.82 C 346.10 715.75 348.95 693.71 351.49 671.63 C 351.90 666.62 353.00 661.64 352.66 656.59 C 351.62 656.56 350.58 656.54 349.54 656.54 C 346.24 683.92 343.14 711.33 339.65 738.69 C 329.98 741.13 320.52 744.36 311.12 747.69 C 311.36 748.71 311.62 749.75 311.88 750.79 C 316.20 750.10 320.26 748.39 324.44 747.16 C 338.53 742.66 353.05 738.15 368.01 738.74 C 374.61 739.00 381.17 740.08 387.59 741.63 C 375.45 762.16 366.06 784.53 361.49 808.01 C 358.84 819.51 356.81 831.25 357.28 843.10 C 347.47 842.96 338.54 847.37 329.33 850.09 C 303.89 857.84 275.10 853.11 253.41 837.76 C 240.29 827.63 230.21 813.75 224.56 798.17 C 217.72 779.93 218.17 760.13 218.82 740.97 C 221.32 698.29 231.97 656.35 247.78 616.71 C 252.57 604.58 257.76 592.55 264.27 581.23 C 273.66 566.37 287.06 554.47 301.37 544.47 C 320.06 531.26 341.84 523.24 363.91 517.73 Z" />
<path fill="rgba(0,0,0,0)" opacity="1.00" d=" M 724.97 579.24 C 756.38 578.01 787.87 578.92 819.29 577.76 C 825.52 577.93 831.78 577.29 838.00 577.82 C 838.20 578.46 838.60 579.73 838.81 580.37 C 817.16 580.59 795.49 580.47 773.86 581.30 C 770.41 593.94 767.10 606.64 763.19 619.14 C 762.93 619.38 762.43 619.85 762.18 620.08 C 715.59 621.13 669.02 622.49 622.44 623.80 C 624.39 610.18 626.10 596.53 627.69 582.86 C 627.60 581.46 628.81 580.50 630.17 580.80 C 661.77 580.35 693.36 579.39 724.97 579.24 Z" />
<path fill="rgba(0,0,0,0)" opacity="1.00" d=" M 590.44 581.53 C 601.51 581.01 612.62 581.68 623.68 580.83 C 623.93 582.29 623.90 583.78 623.81 585.26 C 622.42 599.30 619.93 613.22 618.60 627.26 C 629.08 627.82 639.56 626.72 650.04 626.65 C 670.02 626.39 689.98 625.20 709.98 625.21 C 722.90 624.42 735.86 624.64 748.79 624.06 C 754.29 623.56 759.82 623.83 765.34 623.59 C 770.01 610.90 773.24 597.70 776.78 584.65 C 796.88 584.35 816.98 584.18 837.08 583.81 C 830.28 599.24 822.50 614.22 815.49 629.54 C 812.65 635.92 809.62 642.20 806.53 648.46 C 801.42 646.88 795.47 644.95 790.43 647.74 C 785.57 650.83 785.30 657.78 788.06 662.39 C 783.48 663.02 779.08 667.26 780.75 672.18 C 782.54 676.13 785.61 679.59 789.56 681.49 C 785.97 681.42 782.06 680.76 778.85 682.79 C 774.91 684.66 774.36 690.21 776.71 693.54 C 779.31 697.08 783.24 699.33 787.13 701.21 C 783.23 701.96 778.80 704.46 778.58 708.89 C 778.09 712.83 781.12 715.75 783.56 718.39 C 770.36 752.04 758.34 786.13 746.52 820.28 C 728.33 820.28 710.20 821.94 692.02 822.35 C 676.04 822.95 660.07 823.65 644.08 823.73 C 632.38 823.59 620.71 824.35 609.02 824.31 C 587.01 824.37 565.02 825.38 543.01 825.57 C 528.32 825.93 513.64 826.51 498.94 826.50 C 502.95 816.19 506.89 805.85 510.90 795.53 C 513.17 794.49 515.58 793.77 517.95 792.96 C 528.52 789.51 538.34 783.97 547.13 777.20 C 556.12 770.39 563.82 761.36 567.23 750.45 C 567.77 748.60 567.69 746.65 567.79 744.76 C 572.31 739.40 577.32 732.29 574.24 725.00 C 578.41 720.18 581.68 713.31 578.71 707.03 C 582.42 704.60 585.78 701.25 586.90 696.82 C 588.81 691.80 584.37 686.74 579.64 685.65 C 574.09 684.41 568.77 687.04 563.42 688.12 C 554.58 690.66 545.54 692.55 536.80 695.44 C 541.99 680.23 547.90 665.25 554.30 650.50 C 564.91 626.85 574.61 602.30 590.44 581.53 Z" />
<path fill="rgba(0,0,0,0)" opacity="1.00" d=" M 578.81 581.24 C 581.21 581.25 583.61 581.27 586.02 581.31 C 577.38 592.51 571.23 605.32 565.04 617.96 C 553.24 643.61 541.36 669.34 532.98 696.34 C 531.27 696.87 529.56 697.38 527.84 697.86 C 534.64 680.47 541.23 662.99 548.61 645.83 C 558.19 624.08 567.79 602.31 578.81 581.24 Z" />
<path fill="rgba(0,0,0,0)" opacity="1.00" d=" M 841.56 583.70 C 848.93 583.75 856.31 583.62 863.69 583.49 C 849.83 606.60 836.88 630.25 823.16 653.44 C 818.86 652.03 814.49 650.84 810.13 649.65 C 815.58 637.09 821.96 624.93 827.51 612.40 C 832.39 602.93 836.47 593.06 841.56 583.70 Z" />
<path fill="rgba(0,0,0,0)" opacity="1.00" d=" M 537.98 631.30 C 542.30 631.15 546.62 631.25 550.95 631.17 C 540.91 653.23 532.67 676.04 523.43 698.44 C 520.79 699.28 518.15 700.07 515.49 700.82 C 516.35 695.40 518.08 690.19 519.90 685.03 C 525.87 667.10 532.42 649.36 537.98 631.30 Z" />
<path fill="rgba(0,0,0,0)" opacity="1.00" d=" M 790.21 654.99 C 789.99 652.30 792.51 650.55 794.93 650.34 C 799.08 649.79 802.99 651.53 806.90 652.62 C 814.42 654.69 822.02 656.65 829.17 659.81 C 834.55 662.04 838.39 669.15 835.31 674.57 C 829.43 686.83 823.49 699.08 818.75 711.83 C 817.35 715.16 816.48 719.09 813.32 721.27 C 810.74 723.47 807.10 723.83 803.88 723.26 C 796.69 721.10 789.73 717.79 783.96 712.93 C 782.29 711.80 781.87 709.60 782.49 707.78 C 784.64 705.03 788.45 704.70 791.67 704.86 C 796.89 705.48 801.75 707.59 806.59 709.53 C 806.99 708.36 807.37 707.18 807.74 706.01 C 799.55 702.42 791.16 699.16 783.45 694.59 C 781.09 693.36 779.49 691.23 778.42 688.86 C 780.20 685.15 784.54 683.97 788.30 685.03 C 797.99 686.91 807.15 690.82 816.25 694.54 C 818.20 695.67 819.68 692.02 817.80 691.31 C 807.17 685.72 794.71 682.70 786.08 673.86 C 784.19 672.34 784.19 669.91 784.50 667.73 C 787.21 666.69 790.14 666.19 792.86 667.58 C 803.26 671.43 813.48 675.80 823.97 679.39 C 826.24 680.10 826.50 677.17 825.54 675.81 C 816.05 672.14 806.44 668.79 797.13 664.69 C 793.40 663.01 789.41 659.51 790.21 654.99 Z" />
<path fill="rgba(0,0,0,0)" opacity="1.00" d=" M 511.48 705.47 C 532.88 701.21 553.68 694.23 574.95 689.29 C 577.55 688.85 580.51 689.46 582.36 691.47 C 584.24 693.60 583.43 696.89 581.99 699.07 C 580.07 702.25 576.37 703.42 573.42 705.37 C 563.27 711.74 553.32 718.41 543.25 724.92 C 543.21 726.76 543.79 728.41 546.01 727.51 C 556.16 721.80 565.27 714.27 575.71 709.05 C 577.47 713.41 575.25 717.99 572.14 721.08 C 565.47 727.56 557.61 732.62 549.83 737.65 C 548.35 738.54 547.16 739.79 546.03 741.06 C 547.32 742.38 549.17 743.24 550.75 741.80 C 557.84 737.31 564.69 732.43 571.29 727.24 C 571.90 735.05 566.34 741.14 560.89 745.92 C 555.08 751.27 548.65 756.04 541.58 759.63 C 539.52 760.17 540.96 764.27 542.82 763.15 C 550.70 759.64 557.49 754.05 563.75 748.20 C 560.34 762.40 548.44 772.13 536.86 779.88 C 524.45 787.05 510.67 793.14 496.05 792.89 C 484.36 792.99 472.82 790.92 461.33 789.02 C 454.32 787.92 447.10 786.42 440.04 788.02 C 422.32 791.53 404.55 794.82 386.81 798.22 C 380.00 799.47 373.29 801.28 366.39 801.93 C 369.11 791.03 372.86 780.41 377.18 770.05 C 380.89 762.15 384.21 754.02 389.12 746.77 C 412.62 747.05 436.71 745.53 458.78 736.78 C 470.68 731.90 479.03 721.71 487.67 712.64 C 494.99 704.63 503.26 696.71 513.79 693.29 C 512.64 697.26 511.47 701.29 511.48 705.47 Z" />
<path fill="rgba(0,0,0,0)" opacity="1.00" d=" M 786.95 720.14 C 790.19 721.69 793.34 723.42 796.62 724.93 C 793.88 729.84 791.00 734.66 788.03 739.42 C 785.11 739.44 782.19 739.46 779.28 739.50 C 781.90 733.07 784.19 726.51 786.95 720.14 Z" />
<path fill="rgba(0,0,0,0)" opacity="1.00" d=" M 505.59 829.84 C 537.46 829.81 569.30 828.42 601.17 828.23 C 601.99 838.95 603.21 849.64 604.18 860.36 C 517.95 860.29 431.71 860.39 345.48 860.26 C 345.50 856.24 346.03 852.27 346.55 848.30 C 350.38 847.45 354.25 846.69 358.17 846.46 C 359.94 849.70 361.56 853.02 363.16 856.36 C 383.78 852.70 404.36 848.88 425.02 845.45 C 448.24 840.79 471.60 836.82 494.85 832.31 C 498.45 831.58 502.27 831.60 505.59 829.84 Z" />
<path fill="rgba(0,0,0,0)" opacity="1.00" d=" M 604.49 828.21 C 614.00 827.46 623.57 827.55 633.10 827.43 C 640.13 837.93 647.06 848.97 657.36 856.67 C 659.82 858.65 662.83 859.73 665.82 860.66 C 646.53 860.02 627.23 860.52 607.94 860.39 C 606.70 849.67 606.05 838.89 604.49 828.21 Z" />
</g>
<g id="Group-000000" fill="#272525">
<path fill="#272525" opacity="1.00" d=" M 421.97 157.99 C 461.44 142.11 509.11 152.09 540.10 180.85 C 552.60 191.93 562.20 205.82 570.57 220.16 C 580.06 237.05 586.61 255.49 591.01 274.33 C 595.02 274.75 599.08 274.21 603.07 274.73 C 605.45 276.04 606.95 278.41 608.59 280.49 C 612.36 285.35 615.90 290.38 619.56 295.32 C 620.85 297.08 621.14 300.78 618.46 301.32 C 608.66 302.12 598.87 303.21 589.04 303.57 C 592.72 313.86 595.46 324.85 594.09 335.85 C 592.91 345.44 589.46 354.85 583.46 362.49 C 581.65 365.10 578.74 367.37 578.83 370.84 C 578.31 381.57 577.08 392.26 576.54 402.99 C 575.91 412.10 574.99 421.21 572.67 430.07 C 574.16 436.00 576.59 441.74 577.35 447.86 C 579.64 466.21 574.60 485.10 564.67 500.58 C 559.84 508.54 552.84 514.76 546.06 521.01 C 552.67 522.22 559.01 524.54 565.34 526.71 C 584.07 532.97 602.43 541.43 617.59 554.29 C 625.56 560.92 632.19 568.93 638.93 576.77 C 657.59 576.57 676.25 576.42 694.90 575.77 C 738.71 575.14 782.51 574.49 826.32 574.19 C 831.02 574.25 835.70 573.77 840.41 573.77 C 841.23 575.82 841.06 578.51 842.83 580.06 C 849.89 580.41 856.96 580.01 864.02 579.74 C 865.66 579.47 867.16 580.11 868.63 580.78 C 855.04 605.67 840.42 629.99 826.87 654.91 C 835.61 656.79 843.32 667.13 838.68 675.77 C 833.61 686.98 827.87 697.88 823.63 709.44 C 821.63 714.52 820.25 720.28 815.80 723.87 C 811.68 727.85 805.43 728.12 800.19 726.60 C 796.91 731.56 794.10 736.84 790.65 741.69 C 789.46 743.80 786.97 743.09 785.01 742.99 C 782.58 742.68 780.15 742.82 777.77 743.27 C 768.89 767.69 760.26 792.20 751.75 816.76 C 750.97 819.06 750.06 821.32 749.14 823.58 C 739.30 824.58 729.38 824.38 719.50 824.58 C 714.25 836.09 706.41 846.63 695.81 853.71 C 691.50 857.02 686.45 859.16 681.20 860.47 C 750.62 860.24 820.05 860.40 889.47 860.37 C 889.52 861.43 889.56 862.51 889.61 863.59 C 887.71 863.82 885.83 864.05 883.95 864.23 C 874.34 863.33 864.65 864.05 855.01 863.77 C 793.68 863.76 732.35 863.80 671.02 863.78 C 665.37 863.64 659.74 864.46 654.11 863.84 C 574.07 863.66 494.03 863.85 413.99 863.78 C 329.99 863.71 245.99 863.74 162.00 863.81 C 156.96 863.88 151.92 863.68 146.89 863.93 C 143.79 864.24 140.63 864.42 137.59 863.63 C 137.67 862.60 137.75 861.58 137.84 860.57 C 187.21 860.05 236.59 860.54 285.97 860.20 C 304.48 860.23 322.99 860.17 341.51 860.22 C 342.17 856.68 342.57 853.09 342.58 849.49 C 326.34 856.14 308.50 859.13 291.03 856.77 C 277.38 854.92 264.24 849.74 252.84 842.04 C 235.24 829.39 222.89 809.98 217.90 788.97 C 214.52 773.22 214.04 756.97 215.22 740.95 C 217.22 699.57 227.59 658.99 242.31 620.40 C 247.00 608.09 252.38 596.04 258.41 584.34 C 264.74 571.74 274.78 561.52 285.19 552.22 C 291.72 546.53 298.77 541.40 306.32 537.15 C 301.61 532.75 296.58 528.60 292.65 523.45 C 280.64 507.48 275.46 486.66 278.27 466.90 C 281.62 440.05 295.75 415.60 314.15 396.18 C 325.17 384.52 337.72 373.46 343.88 358.24 C 345.93 353.54 346.81 348.45 347.71 343.43 C 345.43 344.05 343.10 344.15 340.81 343.55 C 337.71 334.24 336.10 324.44 335.46 314.67 C 329.30 314.85 323.13 314.60 316.99 315.08 C 315.09 314.90 313.19 314.76 311.30 314.56 C 310.95 310.56 313.34 307.11 314.60 303.48 C 317.94 295.86 320.60 287.89 324.87 280.70 C 327.99 280.46 331.11 280.41 334.24 280.38 C 336.77 259.52 343.11 238.99 353.69 220.79 C 368.80 193.23 392.77 170.06 421.97 157.99 M 402.84 173.01 C 417.19 165.55 434.94 167.17 449.44 173.45 C 463.06 179.96 474.91 190.73 481.70 204.32 C 482.46 205.60 482.62 207.10 482.88 208.55 C 481.85 208.62 480.84 208.69 479.83 208.76 C 469.91 187.18 447.03 171.26 422.96 171.78 C 407.22 172.16 393.16 180.60 381.20 190.15 C 371.31 199.57 363.42 210.91 356.73 222.77 C 346.61 240.41 340.48 260.24 338.07 280.38 C 387.52 279.29 436.96 278.25 486.41 277.16 C 486.27 268.10 485.53 259.07 485.33 250.02 C 485.31 244.60 484.21 239.19 484.81 233.78 C 485.44 233.67 486.70 233.47 487.34 233.36 C 488.48 235.38 488.28 237.77 488.45 240.00 C 488.89 253.47 490.02 266.91 490.21 280.39 C 474.57 282.10 458.76 281.02 443.07 282.10 C 404.33 282.76 365.59 283.45 326.86 284.44 C 322.89 292.82 319.64 301.53 315.86 310.00 C 315.75 310.36 315.55 311.07 315.45 311.43 C 336.28 310.68 357.12 310.52 377.96 310.03 C 442.01 308.29 506.02 305.41 569.97 301.51 C 585.56 300.53 601.08 298.54 616.71 298.18 C 611.95 291.41 607.32 284.43 601.54 278.50 C 598.31 278.12 595.06 278.45 591.82 278.40 C 592.57 281.97 592.37 285.67 593.25 289.22 C 592.98 289.79 592.45 290.92 592.18 291.48 C 591.33 291.47 590.49 291.46 589.66 291.46 C 588.82 283.02 587.55 274.61 585.32 266.42 C 580.39 249.40 574.17 232.56 564.68 217.50 C 555.14 201.57 543.34 186.60 528.04 175.85 C 509.25 162.27 486.22 154.25 462.96 154.32 C 441.69 154.07 419.88 160.01 402.84 173.01 M 500.57 321.60 C 490.73 331.63 478.49 339.01 465.54 344.30 C 452.73 348.88 439.28 351.81 425.71 352.83 C 422.10 361.66 417.90 370.35 412.17 378.01 C 409.08 381.92 406.07 386.08 401.72 388.68 C 400.64 384.16 400.60 379.20 397.74 375.31 C 392.69 367.94 384.35 361.50 374.97 362.41 C 367.01 363.32 360.90 370.22 359.14 377.77 C 355.68 392.71 361.11 410.07 373.96 418.97 C 381.38 424.13 391.46 424.85 399.36 420.32 C 407.66 438.37 423.27 451.99 440.47 461.36 C 458.16 471.43 477.49 479.26 497.89 481.24 C 501.38 481.48 504.83 480.76 508.20 479.91 C 518.78 477.15 529.24 473.47 538.53 467.60 C 550.55 460.22 561.13 449.81 566.77 436.72 C 572.00 424.52 572.28 411.06 573.38 398.05 C 574.27 380.61 575.99 363.24 577.47 345.86 C 570.50 344.38 563.99 341.42 557.51 338.58 C 542.76 331.94 530.28 320.79 521.11 307.54 C 518.38 307.68 515.65 307.62 512.94 307.92 C 508.72 312.38 505.18 317.48 500.57 321.60 M 339.23 314.68 C 339.81 323.38 341.26 332.00 343.63 340.39 C 354.17 338.62 364.61 335.98 374.68 332.36 C 383.07 328.93 390.75 322.37 393.58 313.53 C 375.46 313.95 357.35 314.52 339.23 314.68 M 429.90 459.48 C 427.63 476.08 425.05 492.67 422.32 509.21 C 419.34 509.41 416.36 509.50 413.38 509.52 C 418.55 518.70 426.06 526.44 434.91 532.12 C 451.07 542.49 471.11 546.17 490.02 543.57 C 505.57 541.38 519.96 532.95 529.67 520.65 C 520.06 518.26 510.41 516.06 500.68 514.21 C 499.95 513.15 498.68 512.29 498.67 510.90 C 497.95 502.16 496.76 493.46 496.17 484.71 C 472.32 482.27 449.97 472.19 429.90 459.48 M 386.16 512.79 C 390.73 520.03 396.75 526.19 403.03 531.95 C 419.24 546.16 438.87 556.50 459.87 561.43 C 479.06 566.33 500.20 566.73 518.56 558.52 C 532.35 552.06 542.80 539.51 547.66 525.18 C 543.00 524.10 538.34 523.00 533.78 521.58 C 526.17 531.52 515.99 539.68 504.12 543.89 C 487.98 549.97 469.95 549.35 453.52 544.74 C 435.13 539.51 418.54 527.18 409.61 510.11 C 401.72 510.36 393.98 512.00 386.16 512.79 M 363.91 517.73 C 341.84 523.24 320.06 531.26 301.37 544.47 C 287.06 554.47 273.66 566.37 264.27 581.23 C 257.76 592.55 252.57 604.58 247.78 616.71 C 231.97 656.35 221.32 698.29 218.82 740.97 C 218.17 760.13 217.72 779.93 224.56 798.17 C 230.21 813.75 240.29 827.63 253.41 837.76 C 275.10 853.11 303.89 857.84 329.33 850.09 C 338.54 847.37 347.47 842.96 357.28 843.10 C 356.81 831.25 358.84 819.51 361.49 808.01 C 366.06 784.53 375.45 762.16 387.59 741.63 C 381.17 740.08 374.61 739.00 368.01 738.74 C 353.05 738.15 338.53 742.66 324.44 747.16 C 320.26 748.39 316.20 750.10 311.88 750.79 C 311.62 749.75 311.36 748.71 311.12 747.69 C 320.52 744.36 329.98 741.13 339.65 738.69 C 343.14 711.33 346.24 683.92 349.54 656.54 C 350.58 656.54 351.62 656.56 352.66 656.59 C 353.00 661.64 351.90 666.62 351.49 671.63 C 348.95 693.71 346.10 715.75 343.52 737.82 C 359.53 733.54 376.56 734.77 392.48 738.90 C 392.41 740.33 392.32 741.77 392.24 743.22 C 400.60 742.78 408.99 742.92 417.33 742.07 C 433.28 740.36 449.79 737.96 463.92 729.86 C 476.01 721.85 484.16 709.46 495.13 700.16 C 500.72 695.24 507.05 690.67 514.48 689.17 C 521.88 668.73 528.33 647.95 535.73 627.51 C 541.41 627.46 547.09 627.36 552.78 627.24 C 560.50 610.62 568.08 593.90 576.68 577.70 C 595.92 577.73 615.17 577.08 634.42 577.26 C 626.13 567.06 616.99 557.36 605.91 550.16 C 589.31 538.98 570.35 531.87 551.24 526.30 C 546.53 540.02 537.15 552.29 524.59 559.69 C 510.23 567.93 493.14 569.53 476.91 568.30 C 450.09 565.68 424.33 554.57 403.56 537.48 C 395.78 530.55 388.04 523.22 382.79 514.12 C 376.35 514.45 370.17 516.37 363.91 517.73 M 724.97 579.24 C 693.36 579.39 661.77 580.35 630.17 580.80 C 628.81 580.50 627.60 581.46 627.69 582.86 C 626.10 596.53 624.39 610.18 622.44 623.80 C 669.02 622.49 715.59 621.13 762.18 620.08 C 762.43 619.85 762.93 619.38 763.19 619.14 C 767.10 606.64 770.41 593.94 773.86 581.30 C 795.49 580.47 817.16 580.59 838.81 580.37 C 838.60 579.73 838.20 578.46 838.00 577.82 C 831.78 577.29 825.52 577.93 819.29 577.76 C 787.87 578.92 756.38 578.01 724.97 579.24 M 590.44 581.53 C 574.61 602.30 564.91 626.85 554.30 650.50 C 547.90 665.25 541.99 680.23 536.80 695.44 C 545.54 692.55 554.58 690.66 563.42 688.12 C 568.77 687.04 574.09 684.41 579.64 685.65 C 584.37 686.74 588.81 691.80 586.90 696.82 C 585.78 701.25 582.42 704.60 578.71 707.03 C 581.68 713.31 578.41 720.18 574.24 725.00 C 577.32 732.29 572.31 739.40 567.79 744.76 C 567.69 746.65 567.77 748.60 567.23 750.45 C 563.82 761.36 556.12 770.39 547.13 777.20 C 538.34 783.97 528.52 789.51 517.95 792.96 C 515.58 793.77 513.17 794.49 510.90 795.53 C 506.89 805.85 502.95 816.19 498.94 826.50 C 513.64 826.51 528.32 825.93 543.01 825.57 C 565.02 825.38 587.01 824.37 609.02 824.31 C 620.71 824.35 632.38 823.59 644.08 823.73 C 660.07 823.65 676.04 822.95 692.02 822.35 C 710.20 821.94 728.33 820.28 746.52 820.28 C 758.34 786.13 770.36 752.04 783.56 718.39 C 781.12 715.75 778.09 712.83 778.58 708.89 C 778.80 704.46 783.23 701.96 787.13 701.21 C 783.24 699.33 779.31 697.08 776.71 693.54 C 774.36 690.21 774.91 684.66 778.85 682.79 C 782.06 680.76 785.97 681.42 789.56 681.49 C 785.61 679.59 782.54 676.13 780.75 672.18 C 779.08 667.26 783.48 663.02 788.06 662.39 C 785.30 657.78 785.57 650.83 790.43 647.74 C 795.47 644.95 801.42 646.88 806.53 648.46 C 809.62 642.20 812.65 635.92 815.49 629.54 C 822.50 614.22 830.28 599.24 837.08 583.81 C 816.98 584.18 796.88 584.35 776.78 584.65 C 773.24 597.70 770.01 610.90 765.34 623.59 C 759.82 623.83 754.29 623.56 748.79 624.06 C 735.86 624.64 722.90 624.42 709.98 625.21 C 689.98 625.20 670.02 626.39 650.04 626.65 C 639.56 626.72 629.08 627.82 618.60 627.26 C 619.93 613.22 622.42 599.30 623.81 585.26 C 623.90 583.78 623.93 582.29 623.68 580.83 C 612.62 581.68 601.51 581.01 590.44 581.53 M 578.81 581.24 C 567.79 602.31 558.19 624.08 548.61 645.83 C 541.23 662.99 534.64 680.47 527.84 697.86 C 529.56 697.38 531.27 696.87 532.98 696.34 C 541.36 669.34 553.24 643.61 565.04 617.96 C 571.23 605.32 577.38 592.51 586.02 581.31 C 583.61 581.27 581.21 581.25 578.81 581.24 M 841.56 583.70 C 836.47 593.06 832.39 602.93 827.51 612.40 C 821.96 624.93 815.58 637.09 810.13 649.65 C 814.49 650.84 818.86 652.03 823.16 653.44 C 836.88 630.25 849.83 606.60 863.69 583.49 C 856.31 583.62 848.93 583.75 841.56 583.70 M 537.98 631.30 C 532.42 649.36 525.87 667.10 519.90 685.03 C 518.08 690.19 516.35 695.40 515.49 700.82 C 518.15 700.07 520.79 699.28 523.43 698.44 C 532.67 676.04 540.91 653.23 550.95 631.17 C 546.62 631.25 542.30 631.15 537.98 631.30 M 790.21 654.99 C 789.41 659.51 793.40 663.01 797.13 664.69 C 806.44 668.79 816.05 672.14 825.54 675.81 C 826.50 677.17 826.24 680.10 823.97 679.39 C 813.48 675.80 803.26 671.43 792.86 667.58 C 790.14 666.19 787.21 666.69 784.50 667.73 C 784.19 669.91 784.19 672.34 786.08 673.86 C 794.71 682.70 807.17 685.72 817.80 691.31 C 819.68 692.02 818.20 695.67 816.25 694.54 C 807.15 690.82 797.99 686.91 788.30 685.03 C 784.54 683.97 780.20 685.15 778.42 688.86 C 779.49 691.23 781.09 693.36 783.45 694.59 C 791.16 699.16 799.55 702.42 807.74 706.01 C 807.37 707.18 806.99 708.36 806.59 709.53 C 801.75 707.59 796.89 705.48 791.67 704.86 C 788.45 704.70 784.64 705.03 782.49 707.78 C 781.87 709.60 782.29 711.80 783.96 712.93 C 789.73 717.79 796.69 721.10 803.88 723.26 C 807.10 723.83 810.74 723.47 813.32 721.27 C 816.48 719.09 817.35 715.16 818.75 711.83 C 823.49 699.08 829.43 686.83 835.31 674.57 C 838.39 669.15 834.55 662.04 829.17 659.81 C 822.02 656.65 814.42 654.69 806.90 652.62 C 802.99 651.53 799.08 649.79 794.93 650.34 C 792.51 650.55 789.99 652.30 790.21 654.99 M 511.48 705.47 C 511.47 701.29 512.64 697.26 513.79 693.29 C 503.26 696.71 494.99 704.63 487.67 712.64 C 479.03 721.71 470.68 731.90 458.78 736.78 C 436.71 745.53 412.62 747.05 389.12 746.77 C 384.21 754.02 380.89 762.15 377.18 770.05 C 372.86 780.41 369.11 791.03 366.39 801.93 C 373.29 801.28 380.00 799.47 386.81 798.22 C 404.55 794.82 422.32 791.53 440.04 788.02 C 447.10 786.42 454.32 787.92 461.33 789.02 C 472.82 790.92 484.36 792.99 496.05 792.89 C 510.67 793.14 524.45 787.05 536.86 779.88 C 548.44 772.13 560.34 762.40 563.75 748.20 C 557.49 754.05 550.70 759.64 542.82 763.15 C 540.96 764.27 539.52 760.17 541.58 759.63 C 548.65 756.04 555.08 751.27 560.89 745.92 C 566.34 741.14 571.90 735.05 571.29 727.24 C 564.69 732.43 557.84 737.31 550.75 741.80 C 549.17 743.24 547.32 742.38 546.03 741.06 C 547.16 739.79 548.35 738.54 549.83 737.65 C 557.61 732.62 565.47 727.56 572.14 721.08 C 575.25 717.99 577.47 713.41 575.71 709.05 C 565.27 714.27 556.16 721.80 546.01 727.51 C 543.79 728.41 543.21 726.76 543.25 724.92 C 553.32 718.41 563.27 711.74 573.42 705.37 C 576.37 703.42 580.07 702.25 581.99 699.07 C 583.43 696.89 584.24 693.60 582.36 691.47 C 580.51 689.46 577.55 688.85 574.95 689.29 C 553.68 694.23 532.88 701.21 511.48 705.47 M 786.95 720.14 C 784.19 726.51 781.90 733.07 779.28 739.50 C 782.19 739.46 785.11 739.44 788.03 739.42 C 791.00 734.66 793.88 729.84 796.62 724.93 C 793.34 723.42 790.19 721.69 786.95 720.14 M 505.59 829.84 C 502.27 831.60 498.45 831.58 494.85 832.31 C 471.60 836.82 448.24 840.79 425.02 845.45 C 404.36 848.88 383.78 852.70 363.16 856.36 C 361.56 853.02 359.94 849.70 358.17 846.46 C 354.25 846.69 350.38 847.45 346.55 848.30 C 346.03 852.27 345.50 856.24 345.48 860.26 C 431.71 860.39 517.95 860.29 604.18 860.36 C 603.21 849.64 601.99 838.95 601.17 828.23 C 569.30 828.42 537.46 829.81 505.59 829.84 M 604.49 828.21 C 606.05 838.89 606.70 849.67 607.94 860.39 C 627.23 860.52 646.53 860.02 665.82 860.66 C 662.83 859.73 659.82 858.65 657.36 856.67 C 647.06 848.97 640.13 837.93 633.10 827.43 C 623.57 827.55 614.00 827.46 604.49 828.21 Z" />
<path fill="#272525" opacity="1.00" d=" M 451.25 354.99 C 458.90 349.07 468.86 345.97 478.49 347.71 C 481.54 348.42 485.30 348.86 486.74 352.13 L 484.87 353.61 C 478.80 352.25 472.47 351.03 466.32 352.65 C 461.50 353.57 457.52 356.54 453.21 358.63 C 451.00 358.99 451.35 356.42 451.25 354.99 Z" />
<path fill="#272525" opacity="1.00" d=" M 541.40 352.40 C 548.36 346.50 559.10 347.31 565.96 353.00 C 565.73 354.26 565.31 355.46 564.60 356.53 C 561.20 354.88 557.72 353.20 553.92 352.79 C 550.03 352.39 546.56 354.50 543.03 355.75 C 541.07 356.15 540.88 353.69 541.40 352.40 Z" />
<path fill="#272525" opacity="1.00" d=" M 550.69 372.07 C 555.29 370.80 559.70 374.75 560.61 379.09 C 562.44 384.27 559.72 391.17 554.04 392.37 C 549.65 393.42 545.06 390.22 544.10 385.91 C 542.28 380.59 544.84 373.45 550.69 372.07 Z" />
<path fill="#272525" opacity="1.00" d=" M 469.68 372.75 C 477.00 369.91 483.66 378.29 481.93 385.12 C 481.21 388.26 479.36 391.44 476.15 392.52 C 472.91 393.97 469.00 392.79 466.57 390.36 C 461.92 385.27 463.37 375.81 469.68 372.75 Z" />
<path fill="#272525" opacity="1.00" d=" M 366.34 381.37 C 372.51 374.95 384.17 375.35 389.60 382.54 C 390.25 383.93 389.47 384.92 388.14 385.42 C 385.03 383.35 381.94 380.60 377.96 380.71 C 373.82 380.25 370.67 383.53 366.75 384.03 C 366.65 383.37 366.44 382.04 366.34 381.37 Z" />
<path fill="#272525" opacity="1.00" d=" M 517.03 382.95 C 516.83 380.51 517.84 379.78 520.06 380.73 C 521.28 388.01 522.82 395.34 526.09 402.02 C 527.46 405.11 529.56 408.00 529.80 411.48 C 528.81 411.61 527.83 411.75 526.85 411.88 C 521.92 402.92 517.79 393.25 517.03 382.95 Z" />
<path fill="#272525" opacity="1.00" d=" M 495.86 429.68 C 496.38 429.69 497.41 429.71 497.92 429.72 C 500.57 432.84 502.60 436.76 506.50 438.57 C 511.92 441.46 519.22 439.82 522.78 434.77 C 524.47 432.99 525.20 428.96 528.42 430.70 C 528.77 434.60 525.51 437.52 523.03 440.10 C 516.18 445.85 505.05 444.35 499.26 437.76 C 497.42 435.53 494.44 432.82 495.86 429.68 Z" />
<path fill="#272525" opacity="1.00" d=" M 134.61 868.67 C 158.72 868.14 182.85 868.67 206.96 868.45 C 437.05 868.53 667.14 868.52 897.22 868.47 C 897.32 869.54 897.42 870.62 897.53 871.70 C 888.06 872.70 878.49 871.88 868.98 872.18 C 624.16 872.24 379.34 872.11 134.52 872.21 C 134.54 871.33 134.58 869.55 134.61 868.67 Z" />
<path fill="#272525" opacity="1.00" d=" M 139.58 885.99 C 138.84 883.76 141.83 884.58 142.98 884.24 C 310.67 884.26 478.37 884.25 646.06 884.26 C 728.95 884.33 811.84 884.10 894.72 884.38 C 894.71 885.48 894.70 886.59 894.70 887.71 C 779.13 887.96 663.56 887.70 547.99 887.83 C 541.66 887.84 535.33 887.82 529.00 887.85 C 400.30 887.79 271.61 887.78 142.91 887.85 C 141.75 887.62 138.71 888.22 139.58 885.99 Z" />
</g>
</g></svg>