<svg xmlns="http://www.w3.org/2000/svg" viewBox="0 0 1024 1024" version="1.1">
<g id="Parent-Group"><g id="Group-rgba(0,0,0,0)" fill="rgba(0,0,0,0)">
<path fill="rgba(0,0,0,0)" opacity="1.00" d=" M 0.00 0.00 L 1024.00 0.00 L 1024.00 941.86 C 1018.51 942.00 1012.99 942.34 1007.54 941.57 C 982.74 939.92 957.84 941.48 933.02 940.51 C 914.35 940.68 895.68 940.60 877.02 940.63 C 866.65 940.96 856.32 940.00 845.96 940.21 C 778.36 940.25 710.76 940.02 643.17 940.28 C 642.93 931.84 643.63 923.42 643.82 914.99 C 643.85 912.46 644.37 909.98 644.88 907.52 C 647.09 906.66 649.88 906.49 651.60 904.80 C 651.53 892.54 651.36 880.28 651.41 868.02 C 651.27 858.36 651.66 848.67 650.84 839.03 C 650.64 801.34 650.91 763.64 650.71 725.95 C 649.92 695.33 649.85 664.69 648.94 634.06 C 648.75 621.56 648.74 608.92 645.68 596.72 C 654.97 592.63 661.78 584.65 667.27 576.36 C 671.85 569.15 677.09 562.31 680.72 554.53 C 683.58 548.21 687.89 542.53 689.68 535.74 C 692.21 526.34 690.76 516.52 689.85 507.00 C 688.78 497.21 685.32 487.97 682.66 478.55 C 677.80 461.94 675.83 444.64 670.70 428.10 C 668.54 421.31 666.72 414.26 662.87 408.18 C 659.06 402.35 653.56 397.58 647.13 394.85 C 637.40 390.36 626.45 389.03 617.02 383.86 C 615.54 382.82 613.32 381.93 613.24 379.85 C 612.81 374.03 613.04 368.16 611.97 362.39 C 610.13 362.83 608.32 363.31 606.50 363.78 C 606.47 359.75 606.26 355.73 605.88 351.72 C 609.66 356.70 614.67 360.51 619.04 364.94 C 620.10 366.33 622.56 366.44 622.32 364.16 C 617.83 357.85 611.83 352.70 605.32 348.55 C 618.70 349.07 631.31 342.80 641.23 334.24 C 652.31 324.03 660.02 310.02 662.09 295.05 C 663.31 280.14 661.95 264.19 653.77 251.26 C 648.42 241.24 639.06 234.22 629.43 228.62 C 617.97 222.20 603.63 217.84 590.99 223.57 C 583.54 216.66 573.12 212.56 562.91 214.12 C 548.88 216.07 535.95 224.04 527.27 235.15 C 523.18 241.30 520.06 248.50 520.30 256.02 C 520.23 259.99 521.45 263.81 522.09 267.69 C 522.87 267.84 524.44 268.13 525.22 268.28 C 523.35 278.09 521.64 287.94 520.51 297.87 C 519.85 308.52 518.29 319.62 521.95 329.93 C 524.78 338.29 531.43 345.06 539.45 348.58 C 549.01 352.48 559.53 353.38 569.76 353.47 C 569.71 358.05 569.65 362.63 569.76 367.21 C 567.66 367.07 565.56 366.94 563.47 366.83 C 562.99 373.78 563.77 380.82 562.60 387.71 C 559.18 386.64 555.53 385.74 552.03 387.00 C 545.09 388.78 538.50 392.36 533.71 397.74 C 529.64 402.32 527.29 408.06 524.12 413.25 C 517.87 423.91 510.37 434.24 507.70 446.54 C 502.32 447.32 497.23 449.33 492.04 450.87 C 474.11 456.12 455.68 459.89 437.01 461.05 C 432.66 461.37 428.16 460.76 423.98 462.28 C 423.45 464.22 424.37 466.16 424.90 468.01 C 428.53 478.40 431.77 489.00 436.75 498.85 C 433.28 498.51 429.45 496.23 426.11 498.12 C 426.00 498.62 425.77 499.63 425.66 500.13 C 430.13 502.13 435.51 501.50 439.57 504.51 C 436.11 504.81 432.65 504.57 429.19 504.75 C 429.20 505.48 429.20 506.93 429.21 507.66 C 433.45 508.78 437.80 509.43 442.08 510.38 C 440.10 511.06 438.12 511.73 436.14 512.39 C 436.07 513.10 435.93 514.52 435.85 515.23 C 438.02 515.70 440.20 516.04 442.40 516.39 C 440.76 517.67 439.11 518.95 437.56 520.33 C 438.34 521.23 439.10 522.19 440.00 523.01 C 442.05 523.08 444.02 522.44 445.99 521.97 C 451.86 535.74 457.98 549.40 464.05 563.07 C 464.67 564.68 466.09 565.84 467.90 565.28 C 483.18 563.34 498.49 561.34 513.58 558.12 C 512.87 560.47 512.17 562.84 511.51 565.22 C 512.59 565.88 513.69 566.53 514.80 567.19 C 508.91 590.95 507.87 615.59 508.93 639.96 C 510.65 676.28 511.13 712.64 512.00 748.99 C 513.23 792.34 514.36 835.70 515.61 879.05 C 515.95 888.45 515.73 897.87 516.52 907.26 C 518.94 906.57 521.35 905.52 523.93 905.85 C 535.32 906.94 546.82 906.29 558.20 905.33 C 557.47 911.03 556.78 916.74 555.92 922.43 C 547.36 922.74 538.78 923.27 530.21 922.84 C 530.00 917.93 531.27 912.86 530.04 908.09 C 529.78 907.88 529.26 907.47 529.00 907.27 C 528.44 911.13 528.52 915.04 528.35 918.94 C 528.16 924.01 527.28 929.09 527.99 934.17 C 526.28 931.77 523.85 928.77 520.56 930.51 C 518.60 933.39 520.25 936.91 520.75 940.00 C 506.90 939.50 493.04 940.17 479.19 939.65 C 479.13 937.26 479.07 934.88 478.99 932.50 C 481.12 931.97 483.70 932.15 485.33 930.43 C 487.44 928.56 487.21 925.50 487.32 922.95 C 487.76 837.31 487.44 751.65 487.36 666.00 C 487.48 657.45 487.03 648.89 487.66 640.35 C 488.84 639.89 490.03 639.43 491.23 638.97 C 491.73 633.97 491.39 628.95 491.01 623.96 C 490.83 621.92 489.50 619.96 487.44 619.48 C 480.74 617.88 473.77 618.19 466.96 617.42 C 458.16 617.13 449.40 618.35 440.60 618.06 C 440.54 593.70 441.01 569.32 440.14 544.98 C 440.06 539.65 440.68 534.28 440.00 528.98 C 439.55 525.78 436.05 523.91 433.04 524.23 C 421.36 524.97 409.65 524.88 397.97 524.20 C 383.97 524.61 369.96 524.17 355.95 524.50 C 350.65 524.96 345.35 525.57 340.02 525.13 C 338.38 524.83 336.68 525.43 335.88 526.96 C 335.97 531.67 337.58 536.23 337.54 540.97 C 337.76 552.98 337.84 564.98 337.92 576.99 C 338.79 588.64 337.60 600.50 339.84 612.02 C 340.09 611.97 340.60 611.86 340.85 611.81 C 341.68 608.95 341.50 605.95 341.60 603.02 C 341.80 585.17 341.72 567.31 341.34 549.46 C 353.90 549.75 366.43 548.56 378.99 548.85 C 390.72 548.66 402.45 549.00 414.17 548.57 C 415.63 548.34 416.98 549.01 418.30 549.52 C 417.55 571.74 419.23 593.97 418.69 616.20 C 402.79 615.82 386.90 615.17 371.02 614.27 C 359.01 614.43 347.01 613.51 335.03 612.80 C 322.01 612.64 309.02 613.62 296.01 613.69 C 280.88 614.24 265.65 615.93 250.55 614.02 C 255.22 605.96 258.52 597.18 261.66 588.44 C 264.49 579.49 267.15 569.49 263.47 560.39 C 261.41 555.60 257.54 550.70 252.05 549.98 C 248.52 549.44 245.76 552.29 244.14 555.08 C 241.22 560.17 239.54 565.84 237.10 571.16 C 231.19 585.48 222.34 598.52 211.39 609.46 C 204.17 618.03 193.92 623.38 187.20 632.44 C 188.99 610.78 191.03 589.10 191.16 567.34 C 196.62 565.46 202.29 563.48 206.55 559.41 C 212.14 554.05 215.71 547.07 219.76 540.57 C 227.90 527.77 235.62 514.66 241.87 500.83 C 244.93 494.27 247.94 487.35 247.98 480.00 C 247.85 476.52 246.74 472.09 242.96 470.96 C 239.19 469.39 235.35 471.39 232.02 473.08 C 229.11 474.76 226.10 476.34 223.49 478.47 C 212.10 491.30 200.84 504.37 191.88 519.07 C 192.36 512.40 192.39 505.67 191.40 499.05 C 191.36 497.04 188.71 495.16 187.32 497.23 C 185.05 500.47 184.12 504.42 183.25 508.23 C 182.10 514.75 180.78 521.26 180.40 527.89 C 177.31 520.50 173.39 513.51 169.26 506.67 C 163.99 497.48 160.78 487.14 154.39 478.59 C 151.39 474.53 148.05 470.01 142.92 468.64 C 137.81 467.24 132.58 471.44 131.58 476.38 C 129.97 483.70 132.75 490.96 134.27 498.04 C 138.68 517.99 145.04 537.45 149.40 557.42 C 151.44 566.38 154.89 575.09 160.30 582.57 C 163.01 586.61 167.07 590.00 172.07 590.49 C 167.54 619.50 164.93 648.76 162.25 677.98 C 157.20 670.46 158.75 660.98 159.12 652.46 C 160.32 652.58 161.52 652.69 162.72 652.80 C 159.39 647.14 156.81 641.10 153.83 635.25 C 150.51 628.48 144.88 623.20 141.64 616.38 C 136.59 605.98 134.57 594.49 131.40 583.46 C 129.26 575.27 128.00 565.75 121.01 560.08 C 117.69 557.23 112.90 559.80 111.40 563.37 C 107.37 571.64 106.24 580.95 105.45 590.02 C 105.24 597.20 105.07 604.50 106.58 611.58 C 107.98 618.29 109.92 624.88 112.02 631.40 C 107.20 632.59 104.62 637.31 104.15 641.95 C 102.56 654.57 103.39 667.33 103.72 680.00 C 103.72 692.52 108.79 704.23 113.45 715.60 C 120.23 730.17 126.76 745.30 137.79 757.26 C 142.19 762.07 148.31 765.80 155.01 765.62 C 156.16 765.47 159.42 764.80 157.81 763.20 C 154.27 762.53 150.51 762.56 147.28 760.75 C 139.04 756.59 134.26 748.29 129.14 741.01 C 124.43 731.45 119.67 721.91 115.12 712.28 C 121.27 718.27 128.98 722.60 137.46 724.22 C 139.78 729.34 143.01 734.07 144.33 739.61 C 138.61 737.35 133.09 734.60 127.26 732.60 C 127.44 734.05 127.61 735.50 127.80 736.96 C 133.56 741.29 140.80 742.67 147.05 746.09 C 151.03 747.98 151.17 753.06 153.86 756.15 C 155.49 758.64 159.26 760.36 158.53 763.85 C 157.67 769.17 158.00 774.57 157.87 779.95 C 157.77 796.89 156.60 813.80 155.92 830.72 C 146.26 830.85 136.58 830.56 126.92 831.13 C 122.23 831.94 117.46 831.09 112.75 831.79 C 111.87 838.21 112.72 844.70 113.21 851.12 C 113.59 854.02 113.58 857.16 115.13 859.75 C 116.16 861.40 118.32 861.35 120.00 861.90 C 121.34 876.26 122.33 890.65 123.83 905.00 C 124.83 916.27 126.73 927.46 127.48 938.76 C 118.66 938.99 109.85 940.09 101.01 939.14 C 76.01 938.95 51.00 939.36 26.00 939.13 C 17.31 939.48 8.70 937.80 0.00 938.39 L 0.00 0.00 M 321.12 92.71 C 309.45 93.24 297.81 94.46 286.12 94.25 C 280.37 93.83 274.64 92.88 268.86 93.17 C 266.03 92.97 266.03 97.45 263.14 97.03 C 253.77 97.52 244.41 96.59 235.04 96.79 C 233.43 96.88 231.68 97.12 230.46 98.29 C 229.84 100.81 230.15 103.43 230.12 106.00 C 230.25 133.34 232.21 160.63 232.79 187.96 C 232.57 224.33 234.85 260.66 234.45 297.03 C 234.51 302.04 234.16 307.08 234.65 312.08 C 234.81 314.19 237.13 315.34 239.03 315.36 C 245.33 315.34 251.66 316.19 257.94 315.29 C 265.27 314.25 272.63 315.76 279.98 315.27 C 293.01 314.66 306.00 313.45 319.00 312.34 C 329.70 311.39 340.17 308.78 350.87 307.77 C 357.61 306.89 364.41 306.84 371.20 306.64 C 371.23 318.11 370.98 329.60 371.62 341.05 C 371.94 345.34 370.54 350.24 373.04 354.06 C 378.91 355.00 385.00 353.12 390.96 354.04 C 408.33 354.12 425.65 355.70 443.03 355.92 C 445.76 355.91 449.39 356.91 451.09 354.06 C 452.06 351.51 451.65 348.67 451.81 346.00 C 452.29 326.31 451.53 306.60 452.49 286.92 C 453.62 277.16 452.60 267.33 453.20 257.57 C 450.85 256.73 448.40 257.30 446.01 257.41 C 430.49 257.09 414.95 257.31 399.49 258.74 C 400.09 232.49 399.73 206.23 399.73 179.98 C 399.84 150.99 399.53 122.00 399.52 93.01 C 399.30 91.41 399.94 88.86 397.88 88.29 C 385.50 86.79 373.40 91.52 360.99 90.26 C 360.76 89.64 360.29 88.41 360.05 87.80 C 347.04 89.12 334.23 92.30 321.12 92.71 M 661.04 173.43 C 645.21 177.09 630.42 188.11 625.17 203.89 C 623.10 210.30 623.54 217.12 624.46 223.67 C 628.14 226.27 632.50 227.80 636.02 230.67 C 637.39 227.71 637.91 224.39 639.54 221.56 C 639.88 221.42 640.55 221.16 640.89 221.03 L 641.65 221.81 C 640.82 225.33 639.23 228.62 638.19 232.09 C 640.29 233.61 642.26 235.70 644.96 236.06 C 647.42 234.70 648.75 231.27 651.78 231.19 C 652.43 234.68 647.58 235.74 645.57 237.89 C 650.34 242.43 654.51 247.69 657.12 253.78 C 658.26 255.85 659.01 259.19 661.99 259.11 C 675.90 260.26 690.81 256.95 701.55 247.65 C 708.36 242.04 712.23 233.59 713.87 225.07 C 714.73 215.04 714.52 204.37 709.77 195.23 C 704.73 184.62 694.69 176.88 683.56 173.50 C 676.25 171.31 668.42 171.94 661.04 173.43 M 974.11 594.86 C 972.89 595.77 973.90 598.72 975.51 597.64 C 976.54 596.69 975.76 593.67 974.11 594.86 Z" />
<path fill="rgba(0,0,0,0)" opacity="1.00" d=" M 360.27 93.89 C 367.85 93.84 375.46 93.55 382.94 92.24 C 387.22 91.57 391.57 91.74 395.89 91.72 C 395.90 128.46 395.93 165.19 395.91 201.93 C 396.08 220.89 396.35 239.88 395.91 258.84 C 388.27 259.87 380.59 258.79 372.94 259.16 C 372.79 273.82 370.45 288.40 371.19 303.10 C 360.80 302.96 350.43 304.02 340.15 305.49 C 323.25 308.63 306.06 309.54 288.95 310.76 C 283.31 311.17 277.63 311.50 271.98 311.15 C 263.98 310.28 255.97 312.02 247.96 311.37 C 244.85 311.10 241.72 311.20 238.60 311.14 C 238.09 292.93 238.24 274.70 237.82 256.49 C 236.67 231.33 237.20 206.13 236.45 180.96 C 235.58 157.64 234.39 134.32 234.23 110.98 C 234.45 107.71 234.26 104.45 234.08 101.19 C 244.06 101.09 254.05 101.34 264.04 101.12 C 264.12 104.85 264.22 108.59 263.94 112.31 C 263.88 114.17 263.60 116.96 266.04 117.36 C 281.70 116.25 297.41 115.39 313.09 114.29 C 328.68 115.89 344.42 115.27 360.06 114.76 C 360.45 107.82 360.06 100.85 360.27 93.89 M 291.44 140.56 C 290.67 144.22 292.01 147.93 292.70 151.51 C 293.61 154.62 293.65 158.01 295.09 160.95 C 297.48 162.17 299.71 159.13 298.98 156.92 C 298.30 153.62 297.19 150.43 296.40 147.16 C 295.58 144.54 295.29 141.46 293.07 139.56 C 292.66 139.81 291.85 140.31 291.44 140.56 M 315.72 145.77 C 312.92 149.60 309.60 153.05 307.16 157.12 C 305.91 158.43 308.20 159.35 308.99 160.07 C 311.00 159.09 311.84 156.87 313.06 155.14 C 316.18 149.98 319.95 145.17 322.39 139.63 C 319.11 140.27 317.66 143.45 315.72 145.77 M 310.15 166.22 C 304.95 167.87 299.45 168.30 294.08 167.31 C 291.92 167.18 288.18 166.01 287.62 169.03 C 287.25 174.01 288.59 178.97 288.33 183.98 C 288.55 186.68 287.02 191.32 291.07 191.72 C 297.40 191.62 303.73 190.70 310.06 191.53 C 312.16 191.92 315.29 191.55 315.75 189.00 C 316.21 183.70 315.37 178.29 316.52 173.04 C 316.81 171.00 317.95 168.46 316.04 166.87 C 314.52 165.11 312.09 165.77 310.15 166.22 M 258.08 266.22 C 256.46 266.32 253.36 266.85 254.88 269.21 C 258.57 269.71 262.27 269.04 265.95 268.77 C 278.31 267.61 290.76 267.88 303.10 266.51 C 304.45 266.46 305.59 265.70 306.73 265.08 C 290.53 263.66 274.23 264.69 258.08 266.22 M 255.45 280.40 C 257.56 280.94 259.76 281.02 261.94 281.12 C 275.31 281.44 288.74 280.81 301.99 278.87 C 303.45 278.91 304.44 277.80 305.43 276.91 C 300.27 276.30 295.11 277.16 289.94 277.19 C 279.27 277.20 268.58 277.99 257.92 277.20 C 256.02 276.57 254.21 278.74 255.45 280.40 Z" />
<path fill="rgba(0,0,0,0)" opacity="1.00" d=" M 291.48 170.44 C 298.53 171.89 305.81 171.46 312.78 169.84 C 311.33 175.68 311.63 181.72 311.59 187.69 C 306.99 187.83 302.38 187.60 297.79 187.96 L 297.28 188.30 C 296.84 190.03 295.74 189.24 295.06 188.16 C 294.33 188.12 292.86 188.04 292.12 188.00 C 292.01 182.14 292.28 176.26 291.48 170.44 Z" />
<path fill="rgba(0,0,0,0)" opacity="1.00" d=" M 401.87 262.20 C 417.60 261.09 433.39 261.15 449.15 261.70 C 449.83 272.74 449.00 283.76 448.66 294.79 C 448.73 313.78 448.49 332.77 447.46 351.74 C 423.35 351.94 399.27 349.26 375.18 350.25 C 375.02 339.46 374.24 328.70 374.44 317.91 C 374.57 304.97 373.97 291.97 375.34 279.07 C 375.91 273.61 376.08 268.12 376.42 262.65 C 384.90 263.65 393.39 262.49 401.87 262.20 M 436.43 291.34 C 421.20 300.39 409.78 314.26 399.42 328.35 C 397.25 323.88 395.88 319.04 393.33 314.75 C 392.60 315.05 391.13 315.66 390.39 315.96 C 391.63 322.15 394.26 327.95 396.21 333.92 C 397.36 336.87 401.12 335.35 402.20 333.14 C 411.31 320.51 420.21 307.43 432.44 297.55 C 434.91 295.33 438.10 293.72 439.53 290.56 C 438.76 290.75 437.21 291.15 436.43 291.34 Z" />
<path fill="rgba(0,0,0,0)" opacity="1.00" d=" M 558.27 269.26 C 560.24 266.44 561.07 263.01 562.70 260.00 C 565.65 264.17 569.27 268.15 574.13 270.08 C 581.74 273.30 590.17 273.16 598.25 272.43 C 598.55 274.22 598.00 276.33 599.05 277.90 C 601.82 279.79 603.34 283.35 606.79 284.25 C 610.86 285.44 615.13 283.62 618.45 281.30 C 621.12 279.57 622.55 276.25 625.81 275.38 C 623.56 281.24 617.94 285.33 611.90 286.53 C 608.08 287.12 603.41 286.33 601.19 282.82 C 600.41 282.02 600.31 280.46 599.17 280.10 C 598.31 281.56 598.63 283.32 598.61 284.93 C 598.89 291.92 599.00 298.93 599.81 305.89 C 604.08 302.27 609.97 300.09 615.53 301.61 C 620.36 303.57 623.78 308.85 623.11 314.11 C 622.14 322.01 615.19 329.12 607.09 329.38 C 603.37 329.56 600.61 326.89 597.75 324.97 C 599.34 331.77 601.96 338.28 604.00 344.94 C 604.29 351.48 603.98 358.05 604.14 364.60 C 593.46 367.26 582.41 368.18 571.42 367.89 C 571.76 362.13 571.74 356.34 571.25 350.59 C 558.78 350.21 545.22 349.85 534.59 342.46 C 526.79 337.30 522.82 328.04 521.77 319.02 C 521.49 313.33 521.60 307.61 521.87 301.92 C 523.21 295.98 523.12 289.84 524.38 283.89 C 525.41 278.93 526.28 273.94 526.84 268.91 C 535.43 270.67 544.27 271.83 553.04 270.85 C 554.79 270.53 557.13 270.99 558.27 269.26 M 530.16 277.86 C 529.64 278.98 529.12 280.11 528.62 281.24 C 530.45 281.18 532.31 281.20 534.14 280.93 C 535.42 280.19 535.58 278.51 534.80 277.36 C 533.22 277.07 531.68 277.54 530.16 277.86 M 559.47 277.56 C 559.15 277.69 558.52 277.96 558.20 278.09 L 557.68 279.27 C 559.53 280.69 561.28 282.82 563.78 282.89 C 565.20 280.14 562.13 277.38 559.47 277.56 M 527.67 286.44 C 526.37 289.34 525.45 295.32 529.93 295.78 C 532.72 293.58 532.19 289.76 532.10 286.64 C 530.86 285.67 528.46 284.17 527.67 286.44 M 535.66 284.77 C 535.27 288.51 535.47 292.39 534.13 295.97 C 532.83 300.54 529.99 304.44 528.32 308.85 C 529.30 311.85 532.37 313.48 535.11 314.61 C 536.65 315.60 537.85 313.87 538.87 313.03 C 536.29 311.41 533.53 310.11 530.91 308.60 C 533.27 303.91 536.19 299.33 537.03 294.06 C 537.48 290.95 537.91 287.31 535.66 284.77 M 556.45 285.56 C 553.11 288.10 551.78 295.00 556.06 297.22 C 560.34 297.64 560.88 292.13 560.39 289.04 C 560.53 287.02 558.73 284.00 556.45 285.56 M 598.44 316.21 C 601.76 316.82 604.38 314.49 607.22 313.25 C 609.58 311.97 612.39 311.18 614.04 308.91 C 613.56 308.54 612.61 307.80 612.14 307.43 C 606.95 308.80 600.89 311.02 598.44 316.21 M 603.35 318.30 C 601.94 319.45 600.42 321.48 601.70 323.28 C 603.89 328.11 611.06 326.20 613.65 322.71 C 611.74 319.53 607.17 316.29 603.35 318.30 Z" />
<path fill="rgba(0,0,0,0)" opacity="1.00" d=" M 592.01 389.60 C 598.63 388.49 605.21 386.77 611.33 383.95 C 623.41 393.70 640.10 393.67 652.82 402.20 C 661.67 408.39 665.02 419.20 667.93 429.06 C 673.16 446.48 674.82 464.72 679.78 482.22 C 682.09 490.75 685.26 499.11 686.09 507.98 C 686.90 516.91 688.10 526.10 685.71 534.91 C 683.92 540.62 680.51 545.61 677.86 550.93 C 673.56 559.91 667.95 568.19 662.31 576.37 C 657.46 582.13 652.61 588.33 645.63 591.63 C 635.41 596.55 622.80 597.69 612.39 592.68 C 601.84 586.26 596.09 572.53 598.87 560.51 C 601.41 552.87 606.45 546.45 610.92 539.87 C 618.77 529.20 624.44 517.12 629.55 504.96 C 630.18 502.11 633.07 497.15 628.91 495.93 C 626.35 502.38 624.27 509.07 620.67 515.07 C 617.68 497.25 615.37 479.10 616.99 461.02 C 617.48 455.75 619.10 450.66 619.35 445.37 C 618.86 445.60 617.88 446.06 617.39 446.29 C 615.31 451.38 614.36 456.83 613.59 462.25 C 611.51 456.11 610.95 449.62 609.41 443.35 C 608.26 444.25 607.07 445.32 607.51 446.95 C 608.20 454.49 609.44 462.18 613.10 468.88 C 612.32 480.96 613.55 493.04 615.00 505.01 C 615.95 509.92 616.35 514.92 616.42 519.92 C 616.48 522.31 615.71 524.62 614.43 526.63 C 610.25 533.36 606.23 540.20 601.69 546.70 C 598.94 550.55 596.84 554.82 595.15 559.23 C 589.75 559.28 584.36 559.29 578.96 559.25 C 563.60 558.75 548.17 556.21 532.84 558.47 C 527.09 559.20 521.55 560.95 515.95 562.40 C 516.27 560.78 516.58 559.15 516.89 557.53 C 524.17 555.83 531.51 554.34 538.90 553.18 C 540.54 552.69 542.13 553.23 543.55 554.09 C 545.03 552.77 546.67 551.11 545.70 548.93 C 543.75 541.37 540.14 534.36 537.59 527.00 C 535.36 521.59 533.88 515.82 530.77 510.82 C 533.26 510.56 536.05 510.57 538.10 508.92 C 538.51 506.94 537.62 505.11 535.89 504.14 C 530.00 507.75 522.63 506.56 516.49 509.50 C 516.27 510.23 515.81 511.69 515.59 512.42 C 518.29 512.52 520.98 512.13 523.68 511.88 C 528.41 524.21 534.00 536.19 538.82 548.49 C 523.99 551.91 509.08 555.07 494.07 557.60 C 485.32 559.04 476.49 559.91 467.74 561.34 C 461.83 547.47 455.05 533.98 449.23 520.07 C 450.85 519.64 452.47 519.21 454.10 518.80 C 453.90 517.48 454.74 515.56 453.06 515.00 C 450.90 514.94 448.78 515.40 446.65 515.63 C 446.86 512.93 449.56 512.08 451.28 510.50 C 448.40 507.70 446.74 503.49 442.37 502.71 C 436.75 490.44 431.87 477.83 427.30 465.13 C 452.13 465.64 476.57 459.94 500.18 452.72 C 505.53 466.73 511.23 480.62 517.36 494.30 C 513.88 494.25 510.23 493.90 506.93 495.21 C 505.42 496.66 506.97 499.06 508.97 498.31 C 517.11 497.73 525.05 500.06 533.12 500.62 C 534.97 500.42 535.18 497.64 534.60 496.22 C 532.01 495.11 529.15 495.06 526.40 494.80 C 521.40 479.72 514.74 465.17 510.60 449.81 C 511.34 439.99 517.86 431.88 522.55 423.55 C 527.09 416.65 530.46 409.04 535.31 402.34 C 540.60 395.07 549.15 390.34 558.12 389.70 C 560.70 389.71 562.90 388.22 565.40 387.85 C 573.90 390.86 583.17 389.67 592.01 389.60 M 514.55 503.69 C 514.94 504.32 515.71 505.60 516.09 506.24 C 522.31 506.17 528.45 504.96 534.64 504.43 C 534.24 503.78 533.46 502.49 533.06 501.84 C 529.33 501.46 525.59 500.49 521.83 501.16 C 519.28 501.60 515.99 500.94 514.55 503.69 Z" />
<path fill="rgba(0,0,0,0)" opacity="1.00" d=" M 504.00 452.59 C 504.70 452.33 506.10 451.82 506.80 451.56 C 509.73 461.16 513.50 470.48 517.11 479.84 C 519.44 484.72 520.40 490.20 523.52 494.70 C 522.16 494.71 520.81 494.70 519.47 494.68 C 519.85 493.35 520.31 491.82 519.51 490.55 C 517.06 485.48 514.78 480.34 512.83 475.05 C 509.94 467.55 505.81 460.44 504.00 452.59 Z" />
<path fill="rgba(0,0,0,0)" opacity="1.00" d=" M 141.88 471.78 C 146.02 473.93 148.69 477.84 151.71 481.25 C 153.97 484.02 156.27 486.86 157.75 490.14 C 157.59 495.41 157.18 500.68 156.91 505.95 C 152.50 494.30 147.67 482.81 141.88 471.78 Z" />
<path fill="rgba(0,0,0,0)" opacity="1.00" d=" M 134.61 483.05 C 134.75 479.50 135.11 475.90 136.76 472.70 C 140.58 479.91 144.69 486.98 147.94 494.47 C 143.63 490.51 139.40 486.42 134.61 483.05 Z" />
<path fill="rgba(0,0,0,0)" opacity="1.00" d=" M 240.07 475.08 C 243.08 474.37 243.24 478.33 244.18 480.28 C 241.01 481.95 237.84 483.62 234.48 484.87 C 236.09 481.48 237.75 478.05 240.07 475.08 Z" />
<path fill="rgba(0,0,0,0)" opacity="1.00" d=" M 228.70 480.06 C 230.73 478.63 232.69 477.11 234.78 475.76 C 233.17 478.81 231.49 481.83 230.20 485.04 C 229.64 483.39 229.16 481.72 228.70 480.06 Z" />
<path fill="rgba(0,0,0,0)" opacity="1.00" d=" M 217.53 491.40 C 219.17 487.87 222.40 485.39 224.68 482.28 C 224.98 485.15 227.03 488.34 224.94 490.97 C 221.65 496.52 218.72 502.27 215.70 507.98 C 216.04 502.44 216.45 496.85 217.53 491.40 Z" />
<path fill="rgba(0,0,0,0)" opacity="1.00" d=" M 230.07 494.10 C 233.62 490.65 238.56 489.29 242.56 486.47 C 241.04 490.53 240.31 495.09 237.57 498.57 C 233.05 501.26 227.78 502.51 222.96 504.63 C 225.18 501.03 227.31 497.32 230.07 494.10 Z" />
<path fill="rgba(0,0,0,0)" opacity="1.00" d=" M 141.55 511.05 C 139.80 504.10 137.83 497.20 136.30 490.19 C 139.79 494.56 144.35 497.84 148.28 501.77 C 151.67 506.04 152.42 511.66 154.53 516.57 C 156.62 521.41 158.12 526.57 161.01 531.02 C 156.84 526.88 152.53 522.87 148.32 518.78 C 145.96 516.31 142.17 514.75 141.55 511.05 Z" />
<path fill="rgba(0,0,0,0)" opacity="1.00" d=" M 156.62 508.87 C 162.05 506.65 159.61 499.90 160.07 495.41 C 163.24 503.66 167.66 511.35 172.13 518.95 C 174.34 522.67 173.07 527.12 171.96 530.98 C 170.78 534.39 169.89 537.88 169.11 541.40 C 167.10 537.76 165.26 534.02 163.95 530.07 C 161.60 522.97 158.61 516.09 156.62 508.87 Z" />
<path fill="rgba(0,0,0,0)" opacity="1.00" d=" M 202.00 510.01 C 204.94 505.74 208.52 501.96 211.88 498.03 C 211.01 502.31 210.20 506.65 210.43 511.05 C 211.07 519.83 204.43 526.49 200.22 533.49 C 200.27 528.97 200.40 524.45 200.58 519.94 C 200.78 516.61 199.84 512.90 202.00 510.01 Z" />
<path fill="rgba(0,0,0,0)" opacity="1.00" d=" M 183.19 533.08 C 184.81 522.97 185.09 512.55 188.55 502.83 C 189.50 513.49 188.02 524.17 188.24 534.85 C 187.58 545.23 188.64 555.62 187.73 565.99 C 187.68 591.71 184.34 617.26 183.08 642.93 C 181.32 665.29 180.45 687.71 178.56 710.08 C 176.60 734.33 174.93 758.63 175.27 782.98 C 175.31 795.66 175.41 808.35 175.38 821.04 C 175.42 824.11 175.02 827.18 174.34 830.19 C 169.36 830.35 164.37 830.42 159.40 830.82 C 160.03 816.24 160.57 801.67 161.20 787.10 C 160.68 747.64 163.65 708.26 166.52 668.95 C 168.53 643.94 171.18 618.99 174.43 594.12 C 174.79 589.67 175.44 585.25 176.40 580.89 C 177.69 575.44 177.77 569.80 178.78 564.30 C 178.40 564.33 177.66 564.38 177.28 564.41 C 178.34 563.60 178.91 562.54 179.00 561.22 C 180.19 554.27 181.32 547.31 182.43 540.35 C 183.07 540.47 184.35 540.70 184.99 540.81 C 183.61 538.46 182.54 535.85 183.19 533.08 Z" />
<path fill="rgba(0,0,0,0)" opacity="1.00" d=" M 219.50 511.59 C 224.68 509.66 229.86 507.67 234.80 505.13 C 231.97 510.83 229.10 516.57 225.45 521.81 C 219.58 522.95 214.43 526.27 208.70 527.91 C 212.38 522.53 215.38 516.62 219.50 511.59 Z" />
<path fill="rgba(0,0,0,0)" opacity="1.00" d=" M 191.60 527.36 C 193.13 524.59 194.52 521.61 196.64 519.26 C 195.82 524.51 194.78 529.77 194.52 535.13 C 193.63 539.75 195.33 545.32 191.38 548.86 C 190.94 541.71 191.11 534.49 191.60 527.36 Z" />
<path fill="rgba(0,0,0,0)" opacity="1.00" d=" M 143.92 520.82 C 149.72 527.07 155.81 533.05 161.80 539.13 C 164.84 543.42 165.88 548.77 168.01 553.55 C 160.52 548.66 155.41 541.01 148.07 535.98 C 146.66 530.93 145.12 525.92 143.92 520.82 Z" />
<path fill="rgba(0,0,0,0)" opacity="1.00" d=" M 174.92 527.20 C 176.37 529.12 178.05 530.86 179.59 532.71 C 178.31 543.25 177.12 553.84 174.52 564.16 C 174.31 558.02 170.35 552.84 170.01 546.78 C 172.86 540.61 173.38 533.76 174.92 527.20 Z" />
<path fill="rgba(0,0,0,0)" opacity="1.00" d=" M 422.38 528.15 C 426.92 528.07 431.47 527.18 436.01 527.79 C 436.77 545.86 436.10 563.97 436.63 582.05 C 436.60 593.90 436.75 605.73 436.59 617.56 C 431.94 616.92 427.25 616.76 422.60 616.26 C 422.33 593.61 422.49 570.96 422.27 548.31 C 424.93 548.20 427.71 548.28 430.15 547.02 C 427.71 545.84 424.95 546.00 422.33 545.77 C 422.23 539.89 422.39 534.02 422.38 528.15 Z" />
<path fill="rgba(0,0,0,0)" opacity="1.00" d=" M 205.23 535.40 C 210.87 532.66 216.98 530.99 222.50 527.97 C 219.75 532.10 217.32 536.48 214.25 540.38 C 208.74 541.58 203.62 544.02 198.37 546.02 C 200.33 542.33 201.71 537.94 205.23 535.40 Z" />
<path fill="rgba(0,0,0,0)" opacity="1.00" d=" M 363.99 528.67 C 381.90 528.84 399.77 528.27 417.67 528.44 C 417.56 534.86 417.95 541.30 417.71 547.72 C 417.02 547.28 416.46 546.69 416.02 545.94 C 407.97 545.15 399.84 544.70 391.75 545.12 C 375.04 544.24 358.30 545.29 341.58 545.09 C 341.89 539.82 340.94 534.60 339.97 529.46 C 347.99 529.87 355.97 528.41 363.99 528.67 Z" />
<path fill="rgba(0,0,0,0)" opacity="1.00" d=" M 149.80 542.48 C 154.77 548.69 160.30 554.44 166.63 559.28 C 172.02 562.67 172.93 569.52 175.00 575.02 C 167.42 571.38 163.13 562.40 154.28 561.07 C 152.83 554.86 151.35 548.66 149.80 542.48 Z" />
<path fill="rgba(0,0,0,0)" opacity="1.00" d=" M 192.25 556.43 C 197.05 550.93 204.63 549.60 210.87 546.35 C 208.90 550.80 205.89 554.79 202.07 557.83 C 198.62 560.67 194.16 561.65 190.13 563.38 C 190.39 560.96 190.45 558.28 192.25 556.43 Z" />
<path fill="rgba(0,0,0,0)" opacity="1.00" d=" M 245.83 558.70 C 246.99 556.52 248.28 553.69 251.04 553.33 C 255.03 553.33 257.84 556.72 259.77 559.82 C 252.56 569.52 246.54 580.01 240.26 590.32 C 238.88 592.64 237.30 594.82 235.52 596.84 C 236.40 590.66 237.90 584.58 238.70 578.39 C 239.61 571.39 242.84 565.00 245.83 558.70 Z" />
<path fill="rgba(0,0,0,0)" opacity="1.00" d=" M 116.80 562.21 C 118.61 562.74 120.84 563.07 121.83 564.93 C 125.17 570.43 127.01 576.75 128.18 583.05 C 128.84 585.46 127.21 587.62 126.50 589.81 C 127.37 590.36 128.22 590.96 129.06 591.57 L 129.36 588.76 C 132.29 597.57 133.83 606.87 137.88 615.30 C 135.89 618.38 133.83 621.44 131.97 624.61 C 130.02 618.96 128.18 613.26 126.70 607.48 C 125.21 602.24 127.52 597.03 128.79 592.01 C 127.82 591.61 126.90 591.12 126.00 590.59 C 125.70 593.03 125.23 595.47 124.90 597.93 C 123.44 589.61 122.39 581.18 119.95 573.08 C 118.86 569.46 117.66 565.88 116.80 562.21 Z" />
<path fill="rgba(0,0,0,0)" opacity="1.00" d=" M 237.81 599.74 C 246.32 588.14 252.04 574.71 260.89 563.34 C 262.93 573.65 259.27 584.00 255.56 593.50 C 249.50 595.18 244.00 598.47 237.81 599.74 Z" />
<path fill="rgba(0,0,0,0)" opacity="1.00" d=" M 156.05 564.44 C 162.64 568.44 167.42 574.77 173.78 579.12 C 173.54 581.56 172.83 583.92 172.25 586.31 C 163.37 582.56 158.70 573.17 156.05 564.44 Z" />
<path fill="rgba(0,0,0,0)" opacity="1.00" d=" M 113.46 566.09 C 116.05 573.71 117.66 581.62 119.83 589.36 C 116.71 586.75 113.54 584.11 109.83 582.36 C 110.63 576.85 111.92 571.43 113.46 566.09 Z" />
<path fill="rgba(0,0,0,0)" opacity="1.00" d=" M 216.11 608.42 C 223.68 600.38 230.09 591.30 235.35 581.61 C 234.71 586.46 233.18 591.16 232.80 596.05 C 232.53 598.37 232.54 600.80 231.51 602.96 C 226.76 612.32 219.14 619.74 213.24 628.32 C 215.76 622.04 217.32 615.19 216.11 608.42 Z" />
<path fill="rgba(0,0,0,0)" opacity="1.00" d=" M 109.43 585.44 C 112.40 588.81 116.07 591.53 118.85 595.07 C 122.48 600.68 122.72 607.60 124.62 613.86 C 119.88 609.69 115.24 605.06 109.18 602.86 C 109.02 597.05 109.05 591.24 109.43 585.44 Z" />
<path fill="rgba(0,0,0,0)" opacity="1.00" d=" M 603.08 589.42 C 607.68 593.89 613.14 597.62 619.51 598.94 C 618.34 601.69 616.67 604.21 615.65 607.03 C 617.03 610.01 619.34 612.55 620.19 615.78 C 620.81 618.17 621.03 620.65 621.29 623.11 C 612.54 623.39 603.39 621.99 596.02 616.97 C 590.81 613.43 587.82 607.36 587.24 601.19 C 590.90 599.95 594.79 599.67 598.64 599.60 C 600.50 596.38 602.04 592.99 603.08 589.42 Z" />
<path fill="rgba(0,0,0,0)" opacity="1.00" d=" M 233.88 605.91 C 240.81 605.17 247.04 602.08 253.09 598.87 C 250.34 606.88 246.15 614.38 241.58 621.44 C 232.94 623.39 225.00 627.56 216.29 629.27 C 222.50 621.75 228.88 614.33 233.88 605.91 Z" />
<path fill="rgba(0,0,0,0)" opacity="1.00" d=" M 109.76 607.52 C 114.18 610.63 117.94 614.55 122.05 618.04 C 123.83 619.57 126.07 620.86 126.80 623.25 C 128.91 629.14 130.11 635.36 132.98 640.97 C 134.87 645.50 137.63 649.56 140.25 653.69 C 136.38 652.12 132.76 649.98 128.87 648.45 C 133.25 653.20 140.30 654.50 144.08 659.90 C 147.57 664.71 150.87 669.65 154.63 674.27 C 149.70 672.10 144.33 671.63 139.09 670.73 C 137.82 670.55 137.05 669.40 136.27 668.52 C 130.24 660.61 127.71 650.81 122.75 642.30 C 120.44 637.36 116.68 633.13 115.23 627.80 C 113.31 621.06 111.18 614.38 109.76 607.52 Z" />
<path fill="rgba(0,0,0,0)" opacity="1.00" d=" M 199.70 623.87 C 203.73 620.07 208.23 616.80 212.16 612.88 C 211.40 619.08 210.66 625.39 209.28 631.46 C 204.75 637.68 198.64 642.58 193.37 648.17 C 195.46 641.54 197.06 634.76 198.19 627.90 C 198.48 626.50 198.54 624.87 199.70 623.87 Z" />
<path fill="rgba(0,0,0,0)" opacity="1.00" d=" M 249.80 617.66 C 252.60 617.30 255.33 618.32 258.10 618.59 C 273.43 619.24 288.72 617.44 304.05 617.64 C 311.39 616.88 318.79 617.64 326.11 616.68 C 338.09 616.59 350.01 617.91 361.97 618.28 C 377.66 618.08 393.28 619.74 408.96 619.83 C 413.74 619.53 418.31 621.86 423.08 620.85 C 431.38 620.40 439.70 621.19 448.01 621.35 C 458.97 620.48 469.98 620.99 480.92 621.90 C 482.93 622.12 485.06 622.17 486.90 623.12 C 487.74 627.56 487.90 632.17 487.58 636.68 C 486.59 637.14 485.59 637.58 484.57 637.98 C 484.07 641.29 483.57 644.62 483.61 647.98 C 483.63 672.01 483.61 696.04 483.66 720.07 C 484.34 727.05 484.04 734.06 484.09 741.07 C 484.03 799.51 484.19 857.96 483.98 916.39 C 484.43 916.64 485.32 917.13 485.77 917.37 C 485.36 917.30 484.54 917.14 484.13 917.07 C 483.97 920.88 484.64 924.83 483.54 928.56 C 467.37 929.55 451.19 927.20 435.00 927.63 C 425.98 926.84 416.90 927.37 407.87 926.80 C 406.59 916.54 407.31 906.16 406.62 895.85 C 404.88 866.27 405.48 836.62 405.36 807.00 C 405.29 791.65 406.24 776.31 405.90 760.96 C 405.35 736.32 405.47 711.67 405.17 687.03 C 405.15 669.87 402.55 652.81 402.73 635.65 C 411.83 636.12 420.89 637.10 429.97 637.74 C 439.30 637.90 448.64 637.70 457.97 637.78 C 466.27 638.04 474.64 638.60 482.91 637.63 C 482.68 636.27 482.44 634.93 482.19 633.59 C 463.14 633.85 444.06 634.36 425.02 633.61 C 394.44 629.94 363.59 632.31 332.92 630.33 C 315.96 629.69 298.96 629.73 281.98 630.11 C 271.50 629.81 260.98 629.58 250.51 630.09 C 250.27 630.57 249.78 631.54 249.53 632.02 C 258.35 633.29 267.26 631.83 276.06 633.06 C 297.68 634.27 319.37 633.10 340.97 634.63 C 360.16 635.67 379.41 634.86 398.61 635.61 C 398.80 650.16 400.52 664.62 401.24 679.14 C 401.86 701.77 401.15 724.42 401.85 747.04 C 402.30 762.01 402.46 777.01 401.53 791.96 C 401.53 819.99 401.06 848.05 402.09 876.06 C 402.32 886.71 402.79 897.36 403.08 908.02 C 404.33 914.25 403.78 920.63 404.44 926.92 C 376.65 926.34 348.85 927.11 321.05 927.12 C 306.70 927.89 292.33 928.20 278.00 929.22 C 269.66 929.38 261.29 929.99 252.98 929.10 C 237.76 929.37 222.51 930.03 207.28 929.36 C 210.38 913.34 213.17 897.27 215.63 881.14 C 216.35 874.64 217.71 868.24 219.19 861.87 C 223.15 852.48 224.01 842.06 224.57 831.97 C 225.05 828.56 221.23 828.85 218.96 828.81 C 205.35 828.85 191.72 828.31 178.16 829.76 C 179.14 812.91 178.08 796.01 178.16 779.14 C 183.84 783.60 191.38 783.29 198.03 781.63 C 215.44 777.81 233.40 777.41 251.14 778.30 C 257.63 779.62 264.33 782.02 270.99 780.62 C 278.66 778.07 280.83 768.27 278.56 761.29 C 274.75 752.89 265.99 747.78 257.03 746.80 C 241.39 745.05 225.11 744.35 209.92 749.17 C 198.72 752.51 188.20 758.01 179.11 765.36 C 179.20 756.05 180.08 746.78 180.74 737.50 C 188.29 737.43 195.88 736.53 203.08 734.18 C 213.01 731.03 222.87 727.60 232.97 724.98 C 238.51 723.68 244.20 722.66 249.91 723.36 C 256.58 722.44 263.29 724.68 269.90 723.26 C 274.61 722.37 278.92 718.14 278.50 713.11 C 278.06 708.16 274.75 704.02 271.32 700.68 C 265.05 695.31 257.37 691.04 249.01 690.41 C 237.33 690.59 225.67 692.98 214.96 697.68 C 206.44 700.60 199.76 706.86 192.04 711.26 C 188.64 713.20 185.34 715.34 181.96 717.34 C 182.06 713.88 182.18 710.42 182.57 706.99 C 183.71 695.50 183.80 683.93 185.14 672.46 C 193.26 676.42 202.84 673.92 209.99 669.08 C 217.43 663.90 223.10 656.66 228.31 649.34 C 233.97 641.26 239.82 633.28 244.66 624.66 C 246.13 622.18 247.51 619.50 249.80 617.66 M 238.66 643.67 C 238.33 650.48 239.45 657.26 239.69 664.06 C 240.16 668.64 239.59 673.41 241.11 677.82 C 242.55 674.85 242.59 671.53 242.85 668.32 C 242.36 668.23 241.39 668.05 240.90 667.96 L 242.85 667.75 C 242.38 660.85 242.49 653.91 241.44 647.07 C 241.11 645.56 240.98 642.95 238.66 643.67 M 388.57 774.85 C 388.22 778.70 392.44 777.58 394.50 779.37 C 395.88 781.57 395.11 784.35 394.72 786.75 C 391.82 786.35 390.81 782.71 387.83 782.77 C 386.16 787.04 390.05 793.02 394.91 791.66 C 402.25 789.27 401.77 776.88 394.65 774.51 C 392.66 773.70 390.55 774.49 388.57 774.85 M 239.12 815.02 C 239.11 833.06 236.89 851.03 237.24 869.08 C 237.33 881.36 237.12 893.65 237.55 905.93 C 237.86 912.12 237.02 918.49 238.80 924.53 C 240.08 922.90 240.57 920.95 240.43 918.94 C 240.02 898.59 240.03 878.23 240.16 857.88 C 240.55 845.25 241.61 832.65 241.75 820.02 C 241.87 816.10 241.87 812.16 241.06 808.31 C 238.48 809.65 239.25 812.66 239.12 815.02 Z" />
<path fill="rgba(0,0,0,0)" opacity="1.00" d=" M 141.41 621.00 C 146.83 629.69 152.99 637.92 157.60 647.10 C 156.27 648.16 154.72 649.19 154.47 651.03 C 153.32 656.16 153.42 661.48 153.80 666.70 C 151.09 662.87 147.62 659.05 147.35 654.13 C 146.68 646.25 146.66 638.35 146.77 630.46 C 145.40 631.08 143.93 631.81 143.61 633.45 C 142.05 638.71 142.67 644.30 142.40 649.72 C 137.54 643.73 134.35 636.50 132.55 629.05 C 136.42 627.58 139.19 624.36 141.41 621.00 Z" />
<path fill="rgba(0,0,0,0)" opacity="1.00" d=" M 187.37 633.32 C 190.17 630.18 193.83 627.83 197.17 625.27 C 193.97 635.93 193.10 647.90 185.93 656.88 C 186.03 649.00 187.04 641.18 187.37 633.32 Z" />
<path fill="rgba(0,0,0,0)" opacity="1.00" d=" M 213.13 635.04 C 222.14 633.03 230.64 629.35 239.18 625.94 C 234.67 633.14 229.67 640.01 224.63 646.84 C 221.83 648.53 218.14 648.08 215.04 649.12 C 204.56 651.36 195.58 657.56 185.57 661.07 C 187.24 658.91 189.30 657.10 191.32 655.29 C 197.87 649.79 203.35 643.18 209.04 636.83 C 210.02 635.57 211.71 635.46 213.13 635.04 Z" />
<path fill="rgba(0,0,0,0)" opacity="1.00" d=" M 112.33 635.13 C 113.97 636.39 116.31 637.67 116.17 640.07 C 116.14 641.92 114.87 643.41 114.18 645.05 C 113.08 641.86 111.77 638.56 112.33 635.13 Z" />
<path fill="rgba(0,0,0,0)" opacity="1.00" d=" M 105.88 656.11 C 106.24 650.15 105.92 643.84 108.21 638.24 C 110.67 647.47 112.77 656.82 115.90 665.87 C 112.61 662.57 109.28 659.30 105.88 656.11 Z" />
<path fill="rgba(0,0,0,0)" opacity="1.00" d=" M 118.44 641.51 C 121.29 646.42 123.21 651.78 125.12 657.11 C 122.38 664.24 122.39 672.08 122.42 679.61 C 121.08 677.31 120.96 674.61 120.23 672.11 C 118.33 664.33 115.60 656.75 114.51 648.79 C 114.50 647.94 114.65 647.12 114.76 646.30 C 115.85 646.98 116.95 647.67 118.05 648.36 C 118.22 646.07 118.30 643.79 118.44 641.51 Z" />
<path fill="rgba(0,0,0,0)" opacity="1.00" d=" M 531.36 646.45 C 542.07 651.31 552.62 656.64 563.64 660.82 C 564.72 667.55 566.81 674.08 567.63 680.86 C 571.60 708.72 576.86 736.44 579.84 764.42 C 578.39 761.13 578.22 757.51 577.72 754.01 C 574.67 734.41 571.57 714.81 568.45 695.22 C 566.70 684.02 565.52 672.69 562.20 661.82 C 554.01 658.41 546.01 654.58 537.85 651.10 C 535.48 649.90 532.71 648.93 531.36 646.45 Z" />
<path fill="rgba(0,0,0,0)" opacity="1.00" d=" M 199.36 659.50 C 206.13 656.89 212.84 653.83 220.10 652.92 C 214.17 661.12 205.90 668.88 195.48 670.34 C 192.21 670.35 188.30 670.69 185.79 668.17 C 185.71 666.86 185.69 665.55 185.73 664.25 C 190.24 662.57 194.92 661.36 199.36 659.50 Z" />
<path fill="rgba(0,0,0,0)" opacity="1.00" d=" M 126.13 659.42 C 128.92 666.45 131.77 673.58 133.26 681.01 C 131.73 686.85 129.93 692.74 130.17 698.86 C 128.15 693.53 125.50 688.41 124.28 682.82 C 125.88 675.15 126.48 667.25 126.13 659.42 Z" />
<path fill="rgba(0,0,0,0)" opacity="1.00" d=" M 105.80 661.49 C 108.66 665.24 112.33 668.34 116.69 670.20 C 119.28 678.67 121.68 687.19 125.32 695.29 C 119.20 691.66 113.68 686.89 106.83 684.63 C 106.45 676.92 106.15 669.20 105.80 661.49 Z" />
<path fill="rgba(0,0,0,0)" opacity="1.00" d=" M 139.57 685.52 C 137.75 680.67 135.03 676.15 134.04 671.01 C 136.38 674.89 139.16 678.47 142.38 681.67 C 147.59 687.32 153.42 693.27 161.32 694.69 C 160.50 706.23 159.82 717.78 159.35 729.34 C 157.58 726.32 156.69 722.91 155.24 719.75 C 149.75 708.47 143.62 697.43 139.57 685.52 Z" />
<path fill="rgba(0,0,0,0)" opacity="1.00" d=" M 140.69 673.38 C 145.22 675.55 150.07 676.61 155.01 677.34 C 157.82 679.06 159.75 681.99 162.58 683.77 C 161.86 686.07 161.35 688.43 160.89 690.81 C 152.96 686.67 146.17 680.39 140.69 673.38 Z" />
<path fill="rgba(0,0,0,0)" opacity="1.00" d=" M 135.23 684.63 C 137.56 691.20 141.14 697.30 143.12 703.99 C 141.02 710.49 140.80 717.45 141.51 724.21 C 139.29 715.16 131.78 707.30 133.28 697.52 C 133.83 693.21 134.69 688.94 135.23 684.63 Z" />
<path fill="rgba(0,0,0,0)" opacity="1.00" d=" M 107.50 688.93 C 113.06 694.13 119.52 698.28 126.31 701.67 C 128.69 702.68 129.49 705.28 130.55 707.41 C 132.23 711.31 134.07 715.15 135.61 719.11 C 128.35 716.63 122.02 712.31 115.72 708.05 C 115.36 708.65 114.62 709.84 114.26 710.44 C 112.14 703.22 108.88 696.36 107.50 688.93 Z" />
<path fill="rgba(0,0,0,0)" opacity="1.00" d=" M 231.12 696.30 C 240.88 694.39 252.15 692.27 260.75 698.73 C 254.25 698.89 247.53 699.59 241.67 702.63 C 235.19 706.48 227.92 708.83 220.63 710.63 C 224.75 706.36 228.69 701.76 231.12 696.30 Z" />
<path fill="rgba(0,0,0,0)" opacity="1.00" d=" M 226.74 696.51 C 226.78 696.75 226.86 697.25 226.90 697.49 C 222.27 703.98 215.45 708.50 211.15 715.22 C 206.34 717.27 201.70 719.85 196.60 721.15 C 198.89 717.69 202.00 714.88 204.35 711.45 C 206.82 708.24 208.47 704.00 212.42 702.28 C 217.12 700.18 222.11 698.77 226.74 696.51 Z" />
<path fill="rgba(0,0,0,0)" opacity="1.00" d=" M 246.55 706.44 C 253.84 702.98 262.80 703.31 269.92 707.07 C 273.24 708.80 274.38 713.04 272.70 716.33 C 268.96 713.55 265.06 710.86 260.54 709.56 C 256.00 707.94 251.07 708.11 246.55 706.44 Z" />
<path fill="rgba(0,0,0,0)" opacity="1.00" d=" M 146.35 708.87 C 149.14 713.79 152.14 718.65 154.01 724.02 C 150.24 730.03 150.14 737.26 150.28 744.13 C 147.88 739.40 145.16 734.44 145.38 728.98 C 145.46 722.26 146.45 715.59 146.35 708.87 Z" />
<path fill="rgba(0,0,0,0)" opacity="1.00" d=" M 184.01 720.89 C 189.25 717.06 194.59 713.36 200.10 709.92 C 197.16 713.77 193.55 717.11 191.08 721.30 C 189.12 724.70 185.36 726.46 181.81 727.74 C 182.29 725.43 181.53 722.23 184.01 720.89 Z" />
<path fill="rgba(0,0,0,0)" opacity="1.00" d=" M 230.03 712.61 C 233.90 711.71 238.15 708.49 242.05 710.82 C 246.02 712.91 249.40 716.08 251.69 719.95 C 247.69 719.25 243.68 719.49 239.71 720.21 C 236.65 717.69 233.22 715.70 230.02 713.38 C 230.03 713.19 230.03 712.80 230.03 712.61 Z" />
<path fill="rgba(0,0,0,0)" opacity="1.00" d=" M 254.09 712.49 C 258.93 713.41 263.13 716.18 266.94 719.18 C 263.40 720.05 258.57 720.06 256.54 716.46 C 255.63 715.19 254.85 713.82 254.09 712.49 Z" />
<path fill="rgba(0,0,0,0)" opacity="1.00" d=" M 209.35 720.78 C 213.72 719.54 217.55 716.79 221.92 715.69 C 225.55 717.02 228.22 720.21 231.82 721.75 C 227.88 722.23 224.13 723.67 220.18 724.11 C 216.73 722.50 212.96 721.88 209.35 720.78 Z" />
<path fill="rgba(0,0,0,0)" opacity="1.00" d=" M 185.29 732.33 C 191.18 729.18 197.20 726.29 203.15 723.27 C 205.93 724.98 208.95 726.20 212.03 727.26 C 203.29 729.71 194.51 732.67 185.29 732.33 Z" />
<path fill="rgba(0,0,0,0)" opacity="1.00" d=" M 155.90 727.70 C 158.07 731.38 159.55 735.63 158.97 739.97 C 158.32 745.25 158.65 750.64 157.58 755.89 C 155.63 752.65 154.11 748.94 154.89 745.10 C 155.98 739.35 155.14 733.48 155.90 727.70 Z" />
<path fill="rgba(0,0,0,0)" opacity="1.00" d=" M 210.36 752.43 C 218.34 749.52 226.84 748.65 235.24 747.84 C 230.04 750.71 224.22 752.31 219.06 755.30 C 215.80 757.22 211.42 758.39 210.25 762.46 C 205.48 763.55 201.03 765.68 196.25 766.71 C 198.98 763.32 202.55 760.73 205.34 757.40 C 206.95 755.69 208.28 753.61 210.36 752.43 Z" />
<path fill="rgba(0,0,0,0)" opacity="1.00" d=" M 219.10 759.15 C 225.75 755.33 232.93 752.58 239.98 749.60 C 245.99 748.43 252.21 749.58 258.21 750.50 C 264.03 751.43 269.57 754.53 272.92 759.46 C 268.27 758.49 263.72 756.74 258.91 756.80 C 251.26 757.38 243.74 759.46 236.03 759.12 C 229.21 759.14 222.62 761.16 215.88 761.85 C 216.36 760.37 217.90 759.86 219.10 759.15 Z" />
<path fill="rgba(0,0,0,0)" opacity="1.00" d=" M 181.38 766.66 C 188.44 761.07 196.29 756.39 204.79 753.37 C 201.09 756.80 196.59 759.52 193.88 763.90 C 192.91 765.20 192.28 766.98 190.60 767.57 C 186.82 769.07 182.87 770.40 178.75 770.35 C 179.51 769.03 180.14 767.58 181.38 766.66 Z" />
<path fill="rgba(0,0,0,0)" opacity="1.00" d=" M 247.91 763.31 C 256.70 759.45 266.66 761.30 275.23 764.80 C 275.05 768.16 274.46 771.54 272.93 774.57 C 269.61 772.83 266.95 770.05 263.57 768.41 C 258.76 765.64 253.28 764.46 247.91 763.31 Z" />
<path fill="rgba(0,0,0,0)" opacity="1.00" d=" M 218.14 763.22 C 226.05 763.56 233.89 761.81 241.79 762.21 C 243.29 763.81 244.33 765.77 245.69 767.50 C 247.69 770.27 250.62 772.15 252.82 774.76 C 248.90 774.59 244.98 774.35 241.07 774.11 C 241.31 774.51 241.80 775.31 242.04 775.71 C 240.50 773.13 237.33 774.31 234.91 774.09 C 229.95 769.59 224.97 764.61 218.14 763.22 Z" />
<path fill="rgba(0,0,0,0)" opacity="1.00" d=" M 198.05 768.77 C 203.42 767.87 208.59 765.98 213.97 765.20 C 219.36 767.10 224.56 770.01 228.25 774.47 C 222.72 774.43 217.17 774.46 211.69 775.34 C 206.42 775.24 202.30 771.41 198.05 768.77 Z" />
<path fill="rgba(0,0,0,0)" opacity="1.00" d=" M 247.14 765.43 C 255.11 767.36 262.52 771.39 268.35 777.18 C 263.76 777.41 258.51 777.31 254.98 773.93 C 252.31 771.15 249.81 768.21 247.14 765.43 Z" />
<path fill="rgba(0,0,0,0)" opacity="1.00" d=" M 179.84 773.41 C 185.34 772.85 190.62 771.18 195.80 769.30 C 199.12 772.19 203.09 774.16 206.84 776.43 C 200.81 777.02 195.00 779.09 188.93 779.33 C 184.80 779.47 181.11 777.34 177.82 775.09 C 178.43 774.45 178.75 773.29 179.84 773.41 Z" />
<path fill="rgba(0,0,0,0)" opacity="1.00" d=" M 582.79 788.81 C 587.38 818.59 592.47 848.28 597.93 877.92 C 599.95 888.99 601.46 900.17 603.77 911.20 C 606.84 910.33 610.04 910.62 613.19 910.57 C 613.33 919.09 613.72 927.61 614.45 936.11 C 614.63 938.93 616.51 941.20 617.60 943.72 C 615.42 941.41 613.43 938.93 611.12 936.77 C 609.83 935.51 607.79 934.87 606.24 936.05 C 605.89 937.51 605.78 939.04 605.63 940.56 C 588.85 940.46 572.07 940.72 555.29 940.50 C 558.02 928.85 558.48 916.88 559.95 905.05 C 561.33 904.33 564.00 904.96 564.46 903.07 C 571.16 865.09 576.66 826.89 582.79 788.81 Z" />
<path fill="rgba(0,0,0,0)" opacity="1.00" d=" M 151.92 834.82 C 171.31 835.32 190.58 831.61 209.97 832.84 C 213.72 833.00 217.43 832.40 221.16 832.19 C 221.37 840.48 219.34 848.56 218.30 856.74 C 197.18 856.41 176.06 856.50 154.94 856.50 C 142.82 857.13 130.68 856.48 118.57 857.32 C 117.10 850.16 116.76 842.83 116.55 835.54 C 128.34 835.34 140.12 834.59 151.92 834.82 Z" />
<path fill="rgba(0,0,0,0)" opacity="1.00" d=" M 156.03 860.76 C 167.96 860.02 179.94 860.95 191.87 860.32 C 195.88 859.19 199.90 860.58 203.96 860.39 C 207.82 860.32 211.70 860.32 215.57 860.46 C 213.92 867.08 212.24 873.72 211.73 880.55 C 208.59 899.43 205.87 918.41 201.43 937.04 C 201.08 938.07 200.71 939.10 200.32 940.14 C 190.20 940.60 180.06 940.10 169.96 940.76 C 157.61 941.37 145.24 941.33 132.89 941.66 C 130.76 932.09 129.96 922.30 128.70 912.60 L 127.28 915.14 C 127.67 913.78 128.97 912.62 128.47 911.12 C 126.71 894.45 125.26 877.75 123.67 861.07 C 134.46 861.11 145.24 860.87 156.03 860.76 Z" />
<path fill="rgba(0,0,0,0)" opacity="1.00" d=" M 615.05 910.55 C 624.02 910.90 633.09 910.44 641.80 908.14 C 641.20 914.25 641.11 920.40 640.76 926.53 C 632.48 926.27 624.22 927.33 615.94 927.06 C 615.57 921.56 615.57 916.03 615.05 910.55 Z" />
<path fill="rgba(0,0,0,0)" opacity="1.00" d=" M 550.70 924.85 C 552.31 924.75 553.93 924.67 555.56 924.61 C 554.95 929.95 554.16 935.28 552.79 940.49 C 550.72 940.77 548.65 941.03 546.59 941.30 C 548.44 935.94 549.32 930.33 550.70 924.85 Z" />
<path fill="rgba(0,0,0,0)" opacity="1.00" d=" M 530.21 925.39 C 532.23 925.30 534.27 925.25 536.31 925.21 C 535.57 930.55 534.60 935.87 534.13 941.26 C 533.29 941.17 532.44 941.09 531.61 941.02 C 530.83 939.11 530.06 937.20 529.33 935.29 C 529.72 931.99 530.58 928.72 530.21 925.39 Z" />
<path fill="rgba(0,0,0,0)" opacity="1.00" d=" M 537.87 925.41 C 541.53 925.28 545.20 925.21 548.87 925.17 C 547.53 930.48 546.46 935.86 545.75 941.29 C 541.09 941.65 536.14 943.90 531.66 942.06 C 532.46 941.95 534.07 941.73 534.87 941.62 C 536.15 936.27 537.38 930.90 537.87 925.41 Z" />
<path fill="rgba(0,0,0,0)" opacity="1.00" d=" M 616.14 929.70 C 619.85 929.29 623.56 928.95 627.30 928.72 C 627.16 934.51 626.72 940.36 627.59 946.13 C 625.16 946.57 622.73 947.05 620.31 947.51 C 619.58 944.73 618.73 941.99 617.91 939.25 C 617.58 938.80 616.91 937.90 616.57 937.45 C 616.23 934.87 616.12 932.28 616.14 929.70 M 617.33 930.18 C 617.26 932.37 616.99 934.59 617.17 936.80 C 617.44 936.92 617.97 937.17 618.24 937.30 C 618.45 934.89 618.34 932.39 617.33 930.18 Z" />
<path fill="rgba(0,0,0,0)" opacity="1.00" d=" M 629.14 928.93 C 632.83 928.80 636.52 928.54 640.19 928.14 C 639.87 933.44 639.88 938.76 640.16 944.07 C 636.20 944.73 632.27 945.49 628.35 946.34 C 629.36 940.59 628.62 934.72 629.14 928.93 Z" />
<path fill="rgba(0,0,0,0)" opacity="1.00" d=" M 301.48 932.27 C 319.30 930.81 337.20 931.28 355.06 931.13 C 368.05 931.04 381.03 931.30 394.02 931.51 C 412.33 930.74 430.65 931.78 448.96 931.81 C 452.08 931.99 455.18 932.34 458.31 932.38 C 458.17 934.77 458.05 937.18 457.92 939.59 C 393.99 939.55 330.05 939.88 266.14 938.94 C 266.21 937.26 266.29 935.60 266.37 933.94 C 278.09 933.70 289.76 932.49 301.48 932.27 Z" />
<path fill="rgba(0,0,0,0)" opacity="1.00" d=" M 521.20 931.45 C 524.01 932.40 524.96 935.38 526.54 937.58 C 528.02 939.79 530.13 941.44 532.23 943.02 C 530.24 943.48 528.24 943.87 526.23 944.23 C 523.74 940.36 520.68 936.34 521.20 931.45 Z" />
<path fill="rgba(0,0,0,0)" opacity="1.00" d=" M 461.93 932.55 C 466.03 932.44 470.12 932.55 474.22 932.74 C 474.20 934.97 474.17 937.21 474.13 939.46 C 469.95 939.31 465.76 939.38 461.58 939.54 C 461.70 937.20 461.81 934.87 461.93 932.55 Z" />
<path fill="rgba(0,0,0,0)" opacity="1.00" d=" M 204.59 938.59 C 205.35 936.98 206.10 935.39 206.85 933.80 C 219.92 934.95 233.02 933.74 246.10 933.80 C 246.14 935.48 246.19 937.16 246.25 938.86 C 232.36 938.49 218.47 938.80 204.59 938.59 Z" />
<path fill="rgba(0,0,0,0)" opacity="1.00" d=" M 249.50 934.11 C 253.36 934.09 257.22 934.06 261.08 934.09 C 261.06 935.68 261.05 937.27 261.04 938.89 C 257.08 938.91 253.11 938.84 249.15 938.81 C 249.26 937.22 249.38 935.66 249.50 934.11 Z" />
<path fill="rgba(0,0,0,0)" opacity="1.00" d=" M 607.66 937.44 C 609.45 938.96 611.06 940.69 612.79 942.30 C 614.91 944.41 618.17 944.94 620.01 947.44 C 617.29 948.01 614.58 948.57 611.86 949.11 C 610.17 945.33 608.20 941.59 607.66 937.44 Z" />
<path fill="rgba(0,0,0,0)" opacity="1.00" d=" M 0.00 941.90 C 9.37 941.94 18.69 940.71 28.06 940.91 C 40.32 942.14 52.67 941.24 64.96 941.93 C 69.63 942.59 74.35 942.28 79.04 942.33 C 95.12 943.75 111.30 943.01 127.42 943.15 C 128.83 944.17 130.02 945.77 131.83 946.09 C 152.88 946.20 173.91 944.28 194.97 944.84 C 199.53 945.44 203.52 942.60 208.01 942.79 C 220.32 942.77 232.65 942.23 244.94 943.14 C 255.65 943.38 266.36 943.23 277.07 943.31 C 284.71 943.24 292.39 943.74 299.98 942.66 C 313.32 942.77 326.65 942.10 339.98 942.35 C 352.67 942.63 365.35 941.88 378.03 942.32 C 388.35 942.41 398.67 942.21 409.00 942.14 C 419.59 943.35 430.27 942.13 440.89 942.88 C 447.90 943.19 454.92 943.05 461.93 943.19 C 474.98 943.38 488.00 941.81 501.04 942.74 C 509.15 943.21 517.67 940.60 525.40 944.07 C 510.75 947.01 495.62 947.25 481.17 951.25 C 476.67 952.69 471.76 953.84 468.40 957.41 C 465.18 957.62 461.97 957.91 458.75 958.09 C 458.65 958.83 458.44 960.30 458.34 961.03 C 461.45 960.73 464.57 960.47 467.69 960.33 C 468.33 961.49 468.96 962.66 469.60 963.85 C 475.86 966.19 482.64 965.95 489.20 966.50 C 495.46 966.68 501.71 967.17 507.98 967.36 C 524.48 968.25 541.01 967.62 557.52 967.20 C 560.48 972.28 567.09 971.29 572.10 971.76 C 598.80 973.30 625.56 971.62 652.16 969.19 C 651.94 966.24 651.68 963.30 651.39 960.37 C 659.11 961.03 666.84 961.55 674.55 962.21 C 685.54 963.45 696.99 964.25 707.07 969.18 C 701.54 973.20 694.53 973.77 688.01 974.97 C 674.75 976.90 661.34 977.51 647.97 978.12 C 645.02 978.33 641.94 978.20 639.21 979.50 C 654.85 980.51 670.59 979.44 686.15 977.73 C 693.07 976.53 700.45 976.14 706.71 972.69 C 709.39 971.39 709.09 967.60 706.65 966.25 C 701.92 963.33 696.23 962.66 690.89 961.59 C 677.71 959.55 664.41 958.61 651.11 957.84 C 650.37 954.75 649.86 951.53 648.17 948.80 C 646.89 946.58 644.59 945.29 642.62 943.80 C 672.77 943.56 702.93 944.03 733.08 943.48 C 759.38 944.15 785.69 943.50 811.99 943.85 C 826.35 943.57 840.70 944.38 855.07 944.11 C 859.73 943.84 864.34 944.88 869.01 944.82 C 883.32 944.83 897.63 944.85 911.94 944.84 C 923.96 945.03 936.00 943.81 947.99 945.14 C 967.00 945.23 986.02 945.26 1005.04 945.14 C 1011.32 944.06 1017.66 944.52 1024.00 944.59 L 1024.00 1024.00 L 0.00 1024.00 L 0.00 941.90 M 440.37 962.39 C 438.43 963.32 436.00 964.60 435.85 967.05 C 436.43 969.89 439.32 971.26 441.75 972.28 C 448.60 974.78 455.91 975.71 463.13 976.49 C 479.38 978.48 495.78 978.70 512.13 978.84 C 512.62 978.67 513.60 978.35 514.10 978.18 C 510.19 977.05 506.06 977.27 502.05 976.85 C 486.27 976.20 470.46 975.32 454.85 972.79 C 448.97 971.58 442.69 970.74 437.77 967.03 C 443.55 962.77 451.03 962.08 457.96 961.30 C 457.98 960.30 458.01 959.32 458.03 958.34 C 452.08 959.31 445.97 960.02 440.37 962.39 Z" />
<path fill="rgba(0,0,0,0)" opacity="1.00" d=" M 559.64 943.45 C 575.54 943.31 591.43 943.91 607.33 943.88 C 608.44 945.69 609.55 947.50 610.65 949.34 C 600.14 951.03 589.66 952.90 579.16 954.63 C 573.94 955.54 568.74 956.63 563.73 958.35 C 563.14 953.20 562.27 947.99 559.64 943.45 Z" />
</g>
<g id="Group-000000" fill="#272525">
<path fill="#272525" opacity="1.00" d=" M 321.12 92.71 C 334.23 92.30 347.04 89.12 360.05 87.80 C 360.29 88.41 360.76 89.64 360.99 90.26 C 373.40 91.52 385.50 86.79 397.88 88.29 C 399.94 88.86 399.30 91.41 399.52 93.01 C 399.53 122.00 399.84 150.99 399.73 179.98 C 399.73 206.23 400.09 232.49 399.49 258.74 C 414.95 257.31 430.49 257.09 446.01 257.41 C 448.40 257.30 450.85 256.73 453.20 257.57 C 452.60 267.33 453.62 277.16 452.49 286.92 C 451.53 306.60 452.29 326.31 451.81 346.00 C 451.65 348.67 452.06 351.51 451.09 354.06 C 449.39 356.91 445.76 355.91 443.03 355.92 C 425.65 355.70 408.33 354.12 390.96 354.04 C 385.00 353.12 378.91 355.00 373.04 354.06 C 370.54 350.24 371.94 345.34 371.62 341.05 C 370.98 329.60 371.23 318.11 371.20 306.64 C 364.41 306.84 357.61 306.89 350.87 307.77 C 340.17 308.78 329.70 311.39 319.00 312.34 C 306.00 313.45 293.01 314.66 279.98 315.27 C 272.63 315.76 265.27 314.25 257.94 315.29 C 251.66 316.19 245.33 315.34 239.03 315.36 C 237.13 315.34 234.81 314.19 234.65 312.08 C 234.16 307.08 234.51 302.04 234.45 297.03 C 234.85 260.66 232.57 224.33 232.79 187.96 C 232.21 160.63 230.25 133.34 230.12 106.00 C 230.15 103.43 229.84 100.81 230.46 98.29 C 231.68 97.12 233.43 96.88 235.04 96.79 C 244.41 96.59 253.77 97.52 263.14 97.03 C 266.03 97.45 266.03 92.97 268.86 93.17 C 274.64 92.88 280.37 93.83 286.12 94.25 C 297.81 94.46 309.45 93.24 321.12 92.71 M 360.27 93.89 C 360.06 100.85 360.45 107.82 360.06 114.76 C 344.42 115.27 328.68 115.89 313.09 114.29 C 297.41 115.39 281.70 116.25 266.04 117.36 C 263.60 116.96 263.88 114.17 263.94 112.31 C 264.22 108.59 264.12 104.85 264.04 101.12 C 254.05 101.34 244.06 101.09 234.08 101.19 C 234.26 104.45 234.45 107.71 234.23 110.98 C 234.39 134.32 235.58 157.64 236.45 180.96 C 237.20 206.13 236.67 231.33 237.82 256.49 C 238.24 274.70 238.09 292.93 238.60 311.14 C 241.72 311.20 244.85 311.10 247.96 311.37 C 255.97 312.02 263.98 310.28 271.98 311.15 C 277.63 311.50 283.31 311.17 288.95 310.76 C 306.06 309.54 323.25 308.63 340.15 305.49 C 350.43 304.02 360.80 302.96 371.19 303.10 C 370.45 288.40 372.79 273.82 372.94 259.16 C 380.59 258.79 388.27 259.87 395.91 258.84 C 396.35 239.88 396.08 220.89 395.91 201.93 C 395.93 165.19 395.90 128.46 395.89 91.72 C 391.57 91.74 387.22 91.57 382.94 92.24 C 375.46 93.55 367.85 93.84 360.27 93.89 M 401.87 262.20 C 393.39 262.49 384.90 263.65 376.42 262.65 C 376.08 268.12 375.91 273.61 375.34 279.07 C 373.97 291.97 374.57 304.97 374.44 317.91 C 374.24 328.70 375.02 339.46 375.18 350.25 C 399.27 349.26 423.35 351.94 447.46 351.74 C 448.49 332.77 448.73 313.78 448.66 294.79 C 449.00 283.76 449.83 272.74 449.15 261.70 C 433.39 261.15 417.60 261.09 401.87 262.20 Z" />
<path fill="#272525" opacity="1.00" d=" M 291.44 140.56 C 291.85 140.31 292.66 139.81 293.07 139.56 C 295.29 141.46 295.58 144.54 296.40 147.16 C 297.19 150.43 298.30 153.62 298.98 156.92 C 299.71 159.13 297.48 162.17 295.09 160.95 C 293.65 158.01 293.61 154.62 292.70 151.51 C 292.01 147.93 290.67 144.22 291.44 140.56 Z" />
<path fill="#272525" opacity="1.00" d=" M 315.72 145.77 C 317.66 143.45 319.11 140.27 322.39 139.63 C 319.95 145.17 316.18 149.98 313.06 155.14 C 311.84 156.87 311.00 159.09 308.99 160.07 C 308.20 159.35 305.91 158.43 307.16 157.12 C 309.60 153.05 312.92 149.60 315.72 145.77 Z" />
<path fill="#272525" opacity="1.00" d=" M 310.15 166.22 C 312.09 165.77 314.52 165.11 316.04 166.87 C 317.95 168.46 316.81 171.00 316.52 173.04 C 315.37 178.29 316.21 183.70 315.75 189.00 C 315.29 191.55 312.16 191.92 310.06 191.53 C 303.73 190.70 297.40 191.62 291.07 191.72 C 287.02 191.32 288.55 186.68 288.33 183.98 C 288.59 178.97 287.25 174.01 287.62 169.03 C 288.18 166.01 291.92 167.18 294.08 167.31 C 299.45 168.30 304.95 167.87 310.15 166.22 M 291.48 170.44 C 292.28 176.26 292.01 182.14 292.12 188.00 C 292.86 188.04 294.33 188.12 295.06 188.16 C 295.74 189.24 296.84 190.03 297.28 188.30 L 297.79 187.96 C 302.38 187.60 306.99 187.83 311.59 187.69 C 311.63 181.72 311.33 175.68 312.78 169.84 C 305.81 171.46 298.53 171.89 291.48 170.44 Z" />
<path fill="#272525" opacity="1.00" d=" M 661.04 173.43 C 668.42 171.94 676.25 171.31 683.56 173.50 C 694.69 176.88 704.73 184.62 709.77 195.23 C 714.52 204.37 714.73 215.04 713.87 225.07 C 712.23 233.59 708.36 242.04 701.55 247.65 C 690.81 256.95 675.90 260.26 661.99 259.11 C 659.01 259.19 658.26 255.85 657.12 253.78 C 654.51 247.69 650.34 242.43 645.57 237.89 C 647.58 235.74 652.43 234.68 651.78 231.19 C 648.75 231.27 647.42 234.70 644.96 236.06 C 642.26 235.70 640.29 233.61 638.19 232.09 C 639.23 228.62 640.82 225.33 641.65 221.81 L 640.89 221.03 C 640.55 221.16 639.88 221.42 639.54 221.56 C 637.91 224.39 637.39 227.71 636.02 230.67 C 632.50 227.80 628.14 226.27 624.46 223.67 C 623.54 217.12 623.10 210.30 625.17 203.89 C 630.42 188.11 645.21 177.09 661.04 173.43 Z" />
<path fill="#272525" opacity="1.00" d=" M 527.27 235.15 C 535.95 224.04 548.88 216.07 562.91 214.12 C 573.12 212.56 583.54 216.66 590.99 223.57 C 603.63 217.84 617.97 222.20 629.43 228.62 C 639.06 234.22 648.42 241.24 653.77 251.26 C 661.95 264.19 663.31 280.14 662.09 295.05 C 660.02 310.02 652.31 324.03 641.23 334.24 C 631.31 342.80 618.70 349.07 605.32 348.55 C 611.83 352.70 617.83 357.85 622.32 364.16 C 622.56 366.44 620.10 366.33 619.04 364.94 C 614.67 360.51 609.66 356.70 605.88 351.72 C 606.26 355.73 606.47 359.75 606.50 363.78 C 608.32 363.31 610.13 362.83 611.97 362.39 C 613.04 368.16 612.81 374.03 613.24 379.85 C 613.32 381.93 615.54 382.82 617.02 383.86 C 626.45 389.03 637.40 390.36 647.13 394.85 C 653.56 397.58 659.06 402.35 662.87 408.18 C 666.72 414.26 668.54 421.31 670.70 428.10 C 675.83 444.64 677.80 461.94 682.66 478.55 C 685.32 487.97 688.78 497.21 689.85 507.00 C 690.76 516.52 692.21 526.34 689.68 535.74 C 687.89 542.53 683.58 548.21 680.72 554.53 C 677.09 562.31 671.85 569.15 667.27 576.36 C 661.78 584.65 654.97 592.63 645.68 596.72 C 648.74 608.92 648.75 621.56 648.94 634.06 C 649.85 664.69 649.92 695.33 650.71 725.95 C 650.91 763.64 650.64 801.34 650.84 839.03 C 651.66 848.67 651.27 858.36 651.41 868.02 C 651.36 880.28 651.53 892.54 651.60 904.80 C 649.88 906.49 647.09 906.66 644.88 907.52 C 644.37 909.98 643.85 912.46 643.82 914.99 C 643.63 923.42 642.93 931.84 643.17 940.28 C 710.76 940.02 778.36 940.25 845.96 940.21 C 856.32 940.00 866.65 940.96 877.02 940.63 C 895.68 940.60 914.35 940.68 933.02 940.51 C 957.84 941.48 982.74 939.92 1007.54 941.57 C 1012.99 942.34 1018.51 942.00 1024.00 941.86 L 1024.00 944.59 C 1017.66 944.52 1011.32 944.06 1005.04 945.14 C 986.02 945.26 967.00 945.23 947.99 945.14 C 936.00 943.81 923.96 945.03 911.94 944.84 C 897.63 944.85 883.32 944.83 869.01 944.82 C 864.34 944.88 859.73 943.84 855.07 944.11 C 840.70 944.38 826.35 943.57 811.99 943.85 C 785.69 943.50 759.38 944.15 733.08 943.48 C 702.93 944.03 672.77 943.56 642.62 943.80 C 644.59 945.29 646.89 946.58 648.17 948.80 C 649.86 951.53 650.37 954.75 651.11 957.84 C 664.41 958.61 677.71 959.55 690.89 961.59 C 696.23 962.66 701.92 963.33 706.65 966.25 C 709.09 967.60 709.39 971.39 706.71 972.69 C 700.45 976.14 693.07 976.53 686.15 977.73 C 670.59 979.44 654.85 980.51 639.21 979.50 C 641.94 978.20 645.02 978.33 647.97 978.12 C 661.34 977.51 674.75 976.90 688.01 974.97 C 694.53 973.77 701.54 973.20 707.07 969.18 C 696.99 964.25 685.54 963.45 674.55 962.21 C 666.84 961.55 659.11 961.03 651.39 960.37 C 651.68 963.30 651.94 966.24 652.16 969.19 C 625.56 971.62 598.80 973.30 572.10 971.76 C 567.09 971.29 560.48 972.28 557.52 967.20 C 541.01 967.62 524.48 968.25 507.98 967.36 C 501.71 967.17 495.46 966.68 489.20 966.50 C 482.64 965.95 475.86 966.19 469.60 963.85 C 468.96 962.66 468.33 961.49 467.69 960.33 C 464.57 960.47 461.45 960.73 458.34 961.03 C 458.44 960.30 458.65 958.83 458.75 958.09 C 461.97 957.91 465.18 957.62 468.40 957.41 C 471.76 953.84 476.67 952.69 481.17 951.25 C 495.62 947.25 510.75 947.01 525.40 944.07 C 517.67 940.60 509.15 943.21 501.04 942.74 C 488.00 941.81 474.98 943.38 461.93 943.19 C 454.92 943.05 447.90 943.19 440.89 942.88 C 430.27 942.13 419.59 943.35 409.00 942.14 C 398.67 942.21 388.35 942.41 378.03 942.32 C 365.35 941.88 352.67 942.63 339.98 942.35 C 326.65 942.10 313.32 942.77 299.98 942.66 C 292.39 943.74 284.71 943.24 277.07 943.31 C 266.36 943.23 255.65 943.38 244.94 943.14 C 232.65 942.23 220.32 942.77 208.01 942.79 C 203.52 942.60 199.53 945.44 194.97 944.84 C 173.91 944.28 152.88 946.20 131.83 946.09 C 130.02 945.77 128.83 944.17 127.42 943.15 C 111.30 943.01 95.12 943.75 79.04 942.33 C 74.35 942.28 69.63 942.59 64.96 941.93 C 52.67 941.24 40.32 942.14 28.06 940.91 C 18.69 940.71 9.37 941.94 0.00 941.90 L 0.00 938.39 C 8.70 937.80 17.31 939.48 26.00 939.13 C 51.00 939.36 76.01 938.95 101.01 939.14 C 109.85 940.09 118.66 938.99 127.48 938.76 C 126.73 927.46 124.83 916.27 123.83 905.00 C 122.33 890.65 121.34 876.26 120.00 861.90 C 118.32 861.35 116.16 861.40 115.13 859.75 C 113.58 857.16 113.59 854.02 113.21 851.12 C 112.72 844.70 111.87 838.21 112.75 831.79 C 117.46 831.09 122.23 831.94 126.92 831.13 C 136.58 830.56 146.26 830.85 155.92 830.72 C 156.60 813.80 157.77 796.89 157.87 779.95 C 158.00 774.57 157.67 769.17 158.53 763.85 C 159.26 760.36 155.49 758.64 153.86 756.15 C 151.17 753.06 151.03 747.98 147.05 746.09 C 140.80 742.67 133.56 741.29 127.80 736.96 C 127.61 735.50 127.44 734.05 127.26 732.60 C 133.09 734.60 138.61 737.35 144.33 739.61 C 143.01 734.07 139.78 729.34 137.46 724.22 C 128.98 722.60 121.27 718.27 115.12 712.28 C 119.67 721.91 124.43 731.45 129.14 741.01 C 134.26 748.29 139.04 756.59 147.28 760.75 C 150.51 762.56 154.27 762.53 157.81 763.20 C 159.42 764.80 156.16 765.47 155.01 765.62 C 148.31 765.80 142.19 762.07 137.79 757.26 C 126.76 745.30 120.23 730.17 113.45 715.60 C 108.79 704.23 103.72 692.52 103.72 680.00 C 103.39 667.33 102.56 654.57 104.15 641.95 C 104.62 637.31 107.20 632.59 112.02 631.40 C 109.92 624.88 107.98 618.29 106.58 611.58 C 105.07 604.50 105.24 597.20 105.45 590.02 C 106.24 580.95 107.37 571.64 111.40 563.37 C 112.90 559.80 117.69 557.23 121.01 560.08 C 128.00 565.75 129.26 575.27 131.40 583.46 C 134.57 594.49 136.59 605.98 141.64 616.38 C 144.88 623.20 150.51 628.48 153.83 635.25 C 156.81 641.10 159.39 647.14 162.72 652.80 C 161.52 652.69 160.32 652.58 159.12 652.46 C 158.75 660.98 157.20 670.46 162.25 677.98 C 164.93 648.76 167.54 619.50 172.07 590.49 C 167.07 590.00 163.01 586.61 160.30 582.57 C 154.89 575.09 151.44 566.38 149.40 557.42 C 145.04 537.45 138.68 517.99 134.27 498.04 C 132.75 490.96 129.97 483.70 131.58 476.38 C 132.58 471.44 137.81 467.24 142.92 468.64 C 148.05 470.01 151.39 474.53 154.39 478.59 C 160.78 487.14 163.99 497.48 169.26 506.67 C 173.39 513.51 177.31 520.50 180.40 527.89 C 180.78 521.26 182.10 514.75 183.25 508.23 C 184.12 504.42 185.05 500.47 187.32 497.23 C 188.71 495.16 191.36 497.04 191.40 499.05 C 192.39 505.67 192.36 512.40 191.88 519.07 C 200.84 504.37 212.10 491.30 223.49 478.47 C 226.10 476.34 229.11 474.76 232.02 473.08 C 235.35 471.39 239.19 469.39 242.96 470.96 C 246.74 472.09 247.85 476.52 247.98 480.00 C 247.94 487.35 244.93 494.27 241.87 500.83 C 235.62 514.66 227.90 527.77 219.76 540.57 C 215.71 547.07 212.14 554.05 206.55 559.41 C 202.29 563.48 196.62 565.46 191.16 567.34 C 191.03 589.10 188.99 610.78 187.20 632.44 C 193.92 623.38 204.17 618.03 211.39 609.46 C 222.34 598.52 231.19 585.48 237.10 571.16 C 239.54 565.84 241.22 560.17 244.14 555.08 C 245.76 552.29 248.52 549.44 252.05 549.98 C 257.54 550.70 261.41 555.60 263.47 560.39 C 267.15 569.49 264.49 579.49 261.66 588.44 C 258.52 597.18 255.22 605.96 250.55 614.02 C 265.65 615.93 280.88 614.24 296.01 613.69 C 309.02 613.62 322.01 612.64 335.03 612.80 C 347.01 613.51 359.01 614.43 371.02 614.27 C 386.90 615.17 402.79 615.82 418.69 616.20 C 419.23 593.97 417.55 571.74 418.30 549.52 C 416.98 549.01 415.63 548.34 414.17 548.57 C 402.45 549.00 390.72 548.66 378.99 548.85 C 366.43 548.56 353.90 549.75 341.34 549.46 C 341.72 567.31 341.80 585.17 341.60 603.02 C 341.50 605.95 341.68 608.95 340.85 611.81 C 340.60 611.86 340.09 611.97 339.84 612.02 C 337.60 600.50 338.79 588.64 337.92 576.99 C 337.84 564.98 337.76 552.98 337.54 540.97 C 337.58 536.23 335.97 531.67 335.88 526.96 C 336.68 525.43 338.38 524.83 340.02 525.13 C 345.35 525.57 350.65 524.96 355.95 524.50 C 369.96 524.17 383.97 524.61 397.97 524.20 C 409.65 524.88 421.36 524.97 433.04 524.23 C 436.05 523.91 439.55 525.78 440.00 528.98 C 440.68 534.28 440.06 539.65 440.14 544.98 C 441.01 569.32 440.54 593.70 440.60 618.06 C 449.40 618.35 458.16 617.13 466.96 617.42 C 473.77 618.19 480.74 617.88 487.44 619.48 C 489.50 619.96 490.83 621.92 491.01 623.96 C 491.39 628.95 491.73 633.97 491.23 638.97 C 490.03 639.43 488.84 639.89 487.66 640.35 C 487.03 648.89 487.48 657.45 487.36 666.00 C 487.44 751.65 487.76 837.31 487.32 922.95 C 487.21 925.50 487.44 928.56 485.33 930.43 C 483.70 932.15 481.12 931.97 478.99 932.50 C 479.07 934.88 479.13 937.26 479.19 939.65 C 493.04 940.17 506.90 939.50 520.75 940.00 C 520.25 936.91 518.60 933.39 520.56 930.51 C 523.85 928.77 526.28 931.77 527.99 934.17 C 527.28 929.09 528.16 924.01 528.35 918.94 C 528.52 915.04 528.44 911.13 529.00 907.27 C 529.26 907.47 529.78 907.88 530.04 908.09 C 531.27 912.86 530.00 917.93 530.21 922.84 C 538.78 923.27 547.36 922.74 555.92 922.43 C 556.78 916.74 557.47 911.03 558.20 905.33 C 546.82 906.29 535.32 906.94 523.93 905.85 C 521.35 905.52 518.94 906.57 516.52 907.26 C 515.73 897.87 515.95 888.45 515.61 879.05 C 514.36 835.70 513.23 792.34 512.00 748.99 C 511.13 712.64 510.65 676.28 508.93 639.96 C 507.87 615.59 508.91 590.95 514.80 567.19 C 513.69 566.53 512.59 565.88 511.51 565.22 C 512.17 562.84 512.87 560.47 513.58 558.12 C 498.49 561.34 483.18 563.34 467.90 565.28 C 466.09 565.84 464.67 564.68 464.05 563.07 C 457.98 549.40 451.86 535.74 445.99 521.97 C 444.02 522.44 442.05 523.08 440.00 523.01 C 439.10 522.19 438.34 521.23 437.56 520.33 C 439.11 518.95 440.76 517.67 442.40 516.39 C 440.20 516.04 438.02 515.70 435.85 515.23 C 435.93 514.52 436.07 513.10 436.14 512.39 C 438.12 511.73 440.10 511.06 442.08 510.38 C 437.80 509.43 433.45 508.78 429.21 507.66 C 429.20 506.93 429.20 505.48 429.19 504.75 C 432.65 504.57 436.11 504.81 439.57 504.51 C 435.51 501.50 430.13 502.13 425.66 500.13 C 425.77 499.63 426.00 498.62 426.11 498.12 C 429.45 496.23 433.28 498.51 436.75 498.85 C 431.77 489.00 428.53 478.40 424.90 468.01 C 424.37 466.16 423.45 464.22 423.98 462.28 C 428.16 460.76 432.66 461.37 437.01 461.05 C 455.68 459.89 474.11 456.12 492.04 450.87 C 497.23 449.33 502.32 447.32 507.70 446.54 C 510.37 434.24 517.87 423.91 524.12 413.25 C 527.29 408.06 529.64 402.32 533.71 397.74 C 538.50 392.36 545.09 388.78 552.03 387.00 C 555.53 385.74 559.18 386.64 562.60 387.71 C 563.77 380.82 562.99 373.78 563.47 366.83 C 565.56 366.94 567.66 367.07 569.76 367.21 C 569.65 362.63 569.71 358.05 569.76 353.47 C 559.53 353.38 549.01 352.48 539.45 348.58 C 531.43 345.06 524.78 338.29 521.95 329.93 C 518.29 319.62 519.85 308.52 520.51 297.87 C 521.64 287.94 523.35 278.09 525.22 268.28 C 524.44 268.13 522.87 267.84 522.09 267.69 C 521.45 263.81 520.23 259.99 520.30 256.02 C 520.06 248.50 523.18 241.30 527.27 235.15 M 558.27 269.26 C 557.13 270.99 554.79 270.53 553.04 270.85 C 544.27 271.83 535.43 270.67 526.84 268.91 C 526.28 273.94 525.41 278.93 524.38 283.89 C 523.12 289.84 523.21 295.98 521.87 301.92 C 521.60 307.61 521.49 313.33 521.77 319.02 C 522.82 328.04 526.79 337.30 534.59 342.46 C 545.22 349.85 558.78 350.21 571.25 350.59 C 571.74 356.34 571.76 362.13 571.42 367.89 C 582.41 368.18 593.46 367.26 604.14 364.60 C 603.98 358.05 604.29 351.48 604.00 344.94 C 601.96 338.28 599.34 331.77 597.75 324.97 C 600.61 326.89 603.37 329.56 607.09 329.38 C 615.19 329.12 622.14 322.01 623.11 314.11 C 623.78 308.85 620.36 303.57 615.53 301.61 C 609.97 300.09 604.08 302.27 599.81 305.89 C 599.00 298.93 598.89 291.92 598.61 284.93 C 598.63 283.32 598.31 281.56 599.17 280.10 C 600.31 280.46 600.41 282.02 601.19 282.82 C 603.41 286.33 608.08 287.12 611.90 286.53 C 617.94 285.33 623.56 281.24 625.81 275.38 C 622.55 276.25 621.12 279.57 618.45 281.30 C 615.13 283.62 610.86 285.44 606.79 284.25 C 603.34 283.35 601.82 279.79 599.05 277.90 C 598.00 276.33 598.55 274.22 598.25 272.43 C 590.17 273.16 581.74 273.30 574.13 270.08 C 569.27 268.15 565.65 264.17 562.70 260.00 C 561.07 263.01 560.24 266.44 558.27 269.26 M 592.01 389.60 C 583.17 389.67 573.90 390.86 565.40 387.85 C 562.90 388.22 560.70 389.71 558.12 389.70 C 549.15 390.34 540.60 395.07 535.31 402.34 C 530.46 409.04 527.09 416.65 522.55 423.55 C 517.86 431.88 511.34 439.99 510.60 449.81 C 514.74 465.17 521.40 479.72 526.40 494.80 C 529.15 495.06 532.01 495.11 534.60 496.22 C 535.18 497.64 534.97 500.42 533.12 500.62 C 525.05 500.06 517.11 497.73 508.97 498.31 C 506.97 499.06 505.42 496.66 506.93 495.21 C 510.23 493.90 513.88 494.25 517.36 494.30 C 511.23 480.62 505.53 466.73 500.18 452.72 C 476.57 459.94 452.13 465.64 427.30 465.13 C 431.87 477.83 436.75 490.44 442.37 502.71 C 446.74 503.49 448.40 507.70 451.28 510.50 C 449.56 512.08 446.86 512.93 446.65 515.63 C 448.78 515.40 450.90 514.94 453.06 515.00 C 454.74 515.56 453.90 517.48 454.10 518.80 C 452.47 519.21 450.85 519.64 449.23 520.07 C 455.05 533.98 461.83 547.47 467.74 561.34 C 476.49 559.91 485.32 559.04 494.07 557.60 C 509.08 555.07 523.99 551.91 538.82 548.49 C 534.00 536.19 528.41 524.21 523.68 511.88 C 520.98 512.13 518.29 512.52 515.59 512.42 C 515.81 511.69 516.27 510.23 516.49 509.50 C 522.63 506.56 530.00 507.75 535.89 504.14 C 537.62 505.11 538.51 506.94 538.10 508.92 C 536.05 510.57 533.26 510.56 530.77 510.82 C 533.88 515.82 535.36 521.59 537.59 527.00 C 540.14 534.36 543.75 541.37 545.70 548.93 C 546.67 551.11 545.03 552.77 543.55 554.09 C 542.13 553.23 540.54 552.69 538.90 553.18 C 531.51 554.34 524.17 555.83 516.89 557.53 C 516.58 559.15 516.27 560.78 515.95 562.40 C 521.55 560.95 527.09 559.20 532.84 558.47 C 548.17 556.21 563.60 558.75 578.96 559.25 C 584.36 559.29 589.75 559.28 595.15 559.23 C 596.84 554.82 598.94 550.55 601.69 546.70 C 606.23 540.20 610.25 533.36 614.43 526.63 C 615.71 524.62 616.48 522.31 616.42 519.92 C 616.35 514.92 615.95 509.92 615.00 505.01 C 613.55 493.04 612.32 480.96 613.10 468.88 C 609.44 462.18 608.20 454.49 607.51 446.95 C 607.07 445.32 608.26 444.25 609.41 443.35 C 610.95 449.62 611.51 456.11 613.59 462.25 C 614.36 456.83 615.31 451.38 617.39 446.29 C 617.88 446.06 618.86 445.60 619.35 445.37 C 619.10 450.66 617.48 455.75 616.99 461.02 C 615.37 479.10 617.68 497.25 620.67 515.07 C 624.27 509.07 626.35 502.38 628.91 495.93 C 633.07 497.15 630.18 502.11 629.55 504.96 C 624.44 517.12 618.77 529.20 610.92 539.87 C 606.45 546.45 601.41 552.87 598.87 560.51 C 596.09 572.53 601.84 586.26 612.39 592.68 C 622.80 597.69 635.41 596.55 645.63 591.63 C 652.61 588.33 657.46 582.13 662.31 576.37 C 667.95 568.19 673.56 559.91 677.86 550.93 C 680.51 545.61 683.92 540.62 685.71 534.91 C 688.10 526.10 686.90 516.91 686.09 507.98 C 685.26 499.11 682.09 490.75 679.78 482.22 C 674.82 464.72 673.16 446.48 667.93 429.06 C 665.02 419.20 661.67 408.39 652.82 402.20 C 640.10 393.67 623.41 393.70 611.33 383.95 C 605.21 386.77 598.63 388.49 592.01 389.60 M 504.00 452.59 C 505.81 460.44 509.94 467.55 512.83 475.05 C 514.78 480.34 517.06 485.48 519.51 490.55 C 520.31 491.82 519.85 493.35 519.47 494.68 C 520.81 494.70 522.16 494.71 523.52 494.70 C 520.40 490.20 519.44 484.72 517.11 479.84 C 513.50 470.48 509.73 461.16 506.80 451.56 C 506.10 451.82 504.70 452.33 504.00 452.59 M 141.88 471.78 C 147.67 482.81 152.50 494.30 156.91 505.95 C 157.18 500.68 157.59 495.41 157.75 490.14 C 156.27 486.86 153.97 484.02 151.71 481.25 C 148.69 477.84 146.02 473.93 141.88 471.78 M 134.61 483.05 C 139.40 486.42 143.63 490.51 147.94 494.47 C 144.69 486.98 140.58 479.91 136.76 472.70 C 135.11 475.90 134.75 479.50 134.61 483.05 M 240.07 475.08 C 237.75 478.05 236.09 481.48 234.48 484.87 C 237.84 483.62 241.01 481.95 244.18 480.28 C 243.24 478.33 243.08 474.37 240.07 475.08 M 228.70 480.06 C 229.16 481.72 229.64 483.39 230.20 485.04 C 231.49 481.83 233.17 478.81 234.78 475.76 C 232.69 477.11 230.73 478.63 228.70 480.06 M 217.53 491.40 C 216.45 496.85 216.04 502.44 215.70 507.98 C 218.72 502.27 221.65 496.52 224.94 490.97 C 227.03 488.34 224.98 485.15 224.68 482.28 C 222.40 485.39 219.17 487.87 217.53 491.40 M 230.07 494.10 C 227.31 497.32 225.18 501.03 222.96 504.63 C 227.78 502.51 233.05 501.26 237.57 498.57 C 240.31 495.09 241.04 490.53 242.56 486.47 C 238.56 489.29 233.62 490.65 230.07 494.10 M 141.55 511.05 C 142.17 514.75 145.96 516.31 148.32 518.78 C 152.53 522.87 156.84 526.88 161.01 531.02 C 158.12 526.57 156.62 521.41 154.53 516.57 C 152.42 511.66 151.67 506.04 148.28 501.77 C 144.35 497.84 139.79 494.56 136.30 490.19 C 137.83 497.20 139.80 504.10 141.55 511.05 M 156.62 508.87 C 158.61 516.09 161.60 522.97 163.95 530.07 C 165.26 534.02 167.10 537.76 169.11 541.40 C 169.89 537.88 170.78 534.39 171.96 530.98 C 173.07 527.12 174.34 522.67 172.13 518.95 C 167.66 511.35 163.24 503.66 160.07 495.41 C 159.61 499.90 162.05 506.65 156.62 508.87 M 202.00 510.01 C 199.84 512.90 200.78 516.61 200.58 519.94 C 200.40 524.45 200.27 528.97 200.22 533.49 C 204.43 526.49 211.07 519.83 210.43 511.05 C 210.20 506.65 211.01 502.31 211.88 498.03 C 208.52 501.96 204.94 505.74 202.00 510.01 M 183.19 533.08 C 182.54 535.85 183.61 538.46 184.99 540.81 C 184.35 540.70 183.07 540.47 182.43 540.35 C 181.32 547.31 180.19 554.27 179.00 561.22 C 178.91 562.54 178.34 563.60 177.28 564.41 C 177.66 564.38 178.40 564.33 178.78 564.30 C 177.77 569.80 177.69 575.44 176.40 580.89 C 175.44 585.25 174.79 589.67 174.43 594.12 C 171.18 618.99 168.53 643.94 166.52 668.95 C 163.65 708.26 160.68 747.64 161.20 787.10 C 160.57 801.67 160.03 816.24 159.40 830.82 C 164.37 830.42 169.36 830.35 174.34 830.19 C 175.02 827.18 175.42 824.11 175.38 821.04 C 175.41 808.35 175.31 795.66 175.27 782.98 C 174.93 758.63 176.60 734.33 178.56 710.08 C 180.45 687.71 181.32 665.29 183.08 642.93 C 184.34 617.26 187.68 591.71 187.73 565.99 C 188.64 555.62 187.58 545.23 188.24 534.85 C 188.02 524.17 189.50 513.49 188.55 502.83 C 185.09 512.55 184.81 522.97 183.19 533.08 M 219.50 511.59 C 215.38 516.62 212.38 522.53 208.70 527.91 C 214.43 526.27 219.58 522.95 225.45 521.81 C 229.10 516.57 231.97 510.83 234.80 505.13 C 229.86 507.67 224.68 509.66 219.50 511.59 M 191.60 527.36 C 191.11 534.49 190.94 541.71 191.38 548.86 C 195.33 545.32 193.63 539.75 194.52 535.13 C 194.78 529.77 195.82 524.51 196.64 519.26 C 194.52 521.61 193.13 524.59 191.60 527.36 M 143.92 520.82 C 145.12 525.92 146.66 530.93 148.07 535.98 C 155.41 541.01 160.52 548.66 168.01 553.55 C 165.88 548.77 164.84 543.42 161.80 539.13 C 155.81 533.05 149.72 527.07 143.92 520.82 M 174.92 527.20 C 173.38 533.76 172.86 540.61 170.01 546.78 C 170.35 552.84 174.31 558.02 174.52 564.16 C 177.12 553.84 178.31 543.25 179.59 532.71 C 178.05 530.86 176.37 529.12 174.92 527.20 M 422.38 528.15 C 422.39 534.02 422.23 539.89 422.33 545.77 C 424.95 546.00 427.71 545.84 430.15 547.02 C 427.71 548.28 424.93 548.20 422.27 548.31 C 422.49 570.96 422.33 593.61 422.60 616.26 C 427.25 616.76 431.94 616.92 436.59 617.56 C 436.75 605.73 436.60 593.90 436.63 582.05 C 436.10 563.97 436.77 545.86 436.01 527.79 C 431.47 527.18 426.92 528.07 422.38 528.15 M 205.23 535.40 C 201.71 537.94 200.33 542.33 198.37 546.02 C 203.62 544.02 208.74 541.58 214.25 540.38 C 217.32 536.48 219.75 532.10 222.50 527.97 C 216.98 530.99 210.87 532.66 205.23 535.40 M 363.99 528.67 C 355.97 528.41 347.99 529.87 339.97 529.46 C 340.94 534.60 341.89 539.82 341.58 545.09 C 358.30 545.29 375.04 544.24 391.75 545.12 C 399.84 544.70 407.97 545.15 416.02 545.94 C 416.46 546.69 417.02 547.28 417.71 547.72 C 417.95 541.30 417.56 534.86 417.67 528.44 C 399.77 528.27 381.90 528.84 363.99 528.67 M 149.80 542.48 C 151.35 548.66 152.83 554.86 154.28 561.07 C 163.13 562.40 167.42 571.38 175.00 575.02 C 172.93 569.52 172.02 562.67 166.63 559.28 C 160.30 554.44 154.77 548.69 149.80 542.48 M 192.25 556.43 C 190.45 558.28 190.39 560.96 190.13 563.38 C 194.16 561.65 198.62 560.67 202.07 557.83 C 205.89 554.79 208.90 550.80 210.87 546.35 C 204.63 549.60 197.05 550.93 192.25 556.43 M 245.83 558.70 C 242.84 565.00 239.61 571.39 238.70 578.39 C 237.90 584.58 236.40 590.66 235.52 596.84 C 237.30 594.82 238.88 592.64 240.26 590.32 C 246.54 580.01 252.56 569.52 259.77 559.82 C 257.84 556.72 255.03 553.33 251.04 553.33 C 248.28 553.69 246.99 556.52 245.83 558.70 M 116.80 562.21 C 117.66 565.88 118.86 569.46 119.95 573.08 C 122.39 581.18 123.44 589.61 124.90 597.93 C 125.23 595.47 125.70 593.03 126.00 590.59 C 126.90 591.12 127.82 591.61 128.79 592.01 C 127.52 597.03 125.21 602.24 126.70 607.48 C 128.18 613.26 130.02 618.96 131.97 624.61 C 133.83 621.44 135.89 618.38 137.88 615.30 C 133.83 606.87 132.29 597.57 129.36 588.76 L 129.06 591.57 C 128.22 590.96 127.37 590.36 126.50 589.81 C 127.21 587.62 128.84 585.46 128.18 583.05 C 127.01 576.75 125.17 570.43 121.83 564.93 C 120.84 563.07 118.61 562.74 116.80 562.21 M 237.81 599.74 C 244.00 598.47 249.50 595.18 255.56 593.50 C 259.27 584.00 262.93 573.65 260.89 563.34 C 252.04 574.71 246.32 588.14 237.81 599.74 M 156.05 564.44 C 158.70 573.17 163.37 582.56 172.25 586.31 C 172.83 583.92 173.54 581.56 173.78 579.12 C 167.42 574.77 162.64 568.44 156.05 564.44 M 113.46 566.09 C 111.92 571.43 110.63 576.85 109.83 582.36 C 113.54 584.11 116.71 586.75 119.83 589.36 C 117.66 581.62 116.05 573.71 113.46 566.09 M 216.11 608.42 C 217.32 615.19 215.76 622.04 213.24 628.32 C 219.14 619.74 226.76 612.32 231.51 602.96 C 232.54 600.80 232.53 598.37 232.80 596.05 C 233.18 591.16 234.71 586.46 235.35 581.61 C 230.09 591.30 223.68 600.38 216.11 608.42 M 109.43 585.44 C 109.05 591.24 109.02 597.05 109.18 602.86 C 115.24 605.06 119.88 609.69 124.62 613.86 C 122.72 607.60 122.48 600.68 118.85 595.07 C 116.07 591.53 112.40 588.81 109.43 585.44 M 603.08 589.42 C 602.04 592.99 600.50 596.38 598.64 599.60 C 594.79 599.67 590.90 599.95 587.24 601.19 C 587.82 607.36 590.81 613.43 596.02 616.97 C 603.39 621.99 612.54 623.39 621.29 623.11 C 621.03 620.65 620.81 618.17 620.19 615.78 C 619.34 612.55 617.03 610.01 615.65 607.03 C 616.67 604.21 618.34 601.69 619.51 598.94 C 613.14 597.62 607.68 593.89 603.08 589.42 M 233.88 605.91 C 228.88 614.33 222.50 621.75 216.29 629.27 C 225.00 627.56 232.94 623.39 241.58 621.44 C 246.15 614.38 250.34 606.88 253.09 598.87 C 247.04 602.08 240.81 605.17 233.88 605.91 M 109.76 607.52 C 111.18 614.38 113.31 621.06 115.23 627.80 C 116.68 633.13 120.44 637.36 122.75 642.30 C 127.71 650.81 130.24 660.61 136.27 668.52 C 137.05 669.40 137.82 670.55 139.09 670.73 C 144.33 671.63 149.70 672.10 154.63 674.27 C 150.87 669.65 147.57 664.71 144.08 659.90 C 140.30 654.50 133.25 653.20 128.87 648.45 C 132.76 649.98 136.38 652.12 140.25 653.69 C 137.63 649.56 134.87 645.50 132.98 640.97 C 130.11 635.36 128.91 629.14 126.80 623.25 C 126.07 620.86 123.83 619.57 122.05 618.04 C 117.94 614.55 114.18 610.63 109.76 607.52 M 199.70 623.87 C 198.54 624.87 198.48 626.50 198.19 627.90 C 197.06 634.76 195.46 641.54 193.37 648.17 C 198.64 642.58 204.75 637.68 209.28 631.46 C 210.66 625.39 211.40 619.08 212.16 612.88 C 208.23 616.80 203.73 620.07 199.70 623.87 M 249.80 617.66 C 247.51 619.50 246.13 622.18 244.66 624.66 C 239.82 633.28 233.97 641.26 228.31 649.34 C 223.10 656.66 217.43 663.90 209.99 669.08 C 202.84 673.92 193.26 676.42 185.14 672.46 C 183.80 683.93 183.71 695.50 182.57 706.99 C 182.18 710.42 182.06 713.88 181.96 717.34 C 185.34 715.34 188.64 713.20 192.04 711.26 C 199.76 706.86 206.44 700.60 214.96 697.68 C 225.67 692.98 237.33 690.59 249.01 690.41 C 257.37 691.04 265.05 695.31 271.32 700.68 C 274.75 704.02 278.06 708.16 278.50 713.11 C 278.92 718.14 274.61 722.37 269.90 723.26 C 263.29 724.68 256.58 722.44 249.91 723.36 C 244.20 722.66 238.51 723.68 232.97 724.98 C 222.87 727.60 213.01 731.03 203.08 734.18 C 195.88 736.53 188.29 737.43 180.74 737.50 C 180.08 746.78 179.20 756.05 179.11 765.36 C 188.20 758.01 198.72 752.51 209.92 749.17 C 225.11 744.35 241.39 745.05 257.03 746.80 C 265.99 747.78 274.75 752.89 278.56 761.29 C 280.83 768.27 278.66 778.07 270.99 780.62 C 264.33 782.02 257.63 779.62 251.14 778.30 C 233.40 777.41 215.44 777.81 198.03 781.63 C 191.38 783.29 183.84 783.60 178.16 779.14 C 178.08 796.01 179.14 812.91 178.16 829.76 C 191.72 828.31 205.35 828.85 218.96 828.81 C 221.23 828.85 225.05 828.56 224.57 831.97 C 224.01 842.06 223.15 852.48 219.19 861.87 C 217.71 868.24 216.35 874.64 215.63 881.14 C 213.17 897.27 210.38 913.34 207.28 929.36 C 222.51 930.03 237.76 929.37 252.98 929.10 C 261.29 929.99 269.66 929.38 278.00 929.22 C 292.33 928.20 306.70 927.89 321.05 927.12 C 348.85 927.11 376.65 926.34 404.44 926.92 C 403.78 920.63 404.33 914.25 403.08 908.02 C 402.79 897.36 402.32 886.71 402.09 876.06 C 401.06 848.05 401.53 819.99 401.53 791.96 C 402.46 777.01 402.30 762.01 401.85 747.04 C 401.15 724.42 401.86 701.77 401.24 679.14 C 400.52 664.62 398.80 650.16 398.61 635.61 C 379.41 634.86 360.16 635.67 340.97 634.63 C 319.37 633.10 297.68 634.27 276.06 633.06 C 267.26 631.83 258.35 633.29 249.53 632.02 C 249.78 631.54 250.27 630.57 250.51 630.09 C 260.98 629.58 271.50 629.81 281.98 630.11 C 298.96 629.73 315.96 629.69 332.92 630.33 C 363.59 632.31 394.44 629.94 425.02 633.61 C 444.06 634.36 463.14 633.85 482.19 633.59 C 482.44 634.93 482.68 636.27 482.91 637.63 C 474.64 638.60 466.27 638.04 457.97 637.78 C 448.64 637.70 439.30 637.90 429.97 637.74 C 420.89 637.10 411.83 636.12 402.73 635.65 C 402.55 652.81 405.15 669.87 405.17 687.03 C 405.47 711.67 405.35 736.32 405.90 760.96 C 406.24 776.31 405.29 791.65 405.36 807.00 C 405.48 836.62 404.88 866.27 406.62 895.85 C 407.31 906.16 406.59 916.54 407.87 926.80 C 416.90 927.37 425.98 926.84 435.00 927.63 C 451.19 927.20 467.37 929.55 483.54 928.56 C 484.64 924.83 483.97 920.88 484.13 917.07 C 484.54 917.14 485.36 917.30 485.77 917.37 C 485.32 917.13 484.43 916.64 483.98 916.39 C 484.19 857.96 484.03 799.51 484.09 741.07 C 484.04 734.06 484.34 727.05 483.66 720.07 C 483.61 696.04 483.63 672.01 483.61 647.98 C 483.57 644.62 484.07 641.29 484.57 637.98 C 485.59 637.58 486.59 637.14 487.58 636.68 C 487.90 632.17 487.74 627.56 486.90 623.12 C 485.06 622.17 482.93 622.12 480.92 621.90 C 469.98 620.99 458.97 620.48 448.01 621.35 C 439.70 621.19 431.38 620.40 423.08 620.85 C 418.31 621.86 413.74 619.53 408.96 619.83 C 393.28 619.74 377.66 618.08 361.97 618.28 C 350.01 617.91 338.09 616.59 326.11 616.68 C 318.79 617.64 311.39 616.88 304.05 617.64 C 288.72 617.44 273.43 619.24 258.10 618.59 C 255.33 618.32 252.60 617.30 249.80 617.66 M 141.41 621.00 C 139.19 624.36 136.42 627.58 132.55 629.05 C 134.35 636.50 137.54 643.73 142.40 649.72 C 142.67 644.30 142.05 638.71 143.61 633.45 C 143.93 631.81 145.40 631.08 146.77 630.46 C 146.66 638.35 146.68 646.25 147.35 654.13 C 147.62 659.05 151.09 662.87 153.80 666.70 C 153.42 661.48 153.32 656.16 154.47 651.03 C 154.72 649.19 156.27 648.16 157.60 647.10 C 152.99 637.92 146.83 629.69 141.41 621.00 M 187.37 633.32 C 187.04 641.18 186.03 649.00 185.93 656.88 C 193.10 647.90 193.97 635.93 197.17 625.27 C 193.83 627.83 190.17 630.18 187.37 633.32 M 213.13 635.04 C 211.71 635.46 210.02 635.57 209.04 636.83 C 203.35 643.18 197.87 649.79 191.32 655.29 C 189.30 657.10 187.24 658.91 185.57 661.07 C 195.58 657.56 204.56 651.36 215.04 649.12 C 218.14 648.08 221.83 648.53 224.63 646.84 C 229.67 640.01 234.67 633.14 239.18 625.94 C 230.64 629.35 222.14 633.03 213.13 635.04 M 112.33 635.13 C 111.77 638.56 113.08 641.86 114.18 645.05 C 114.87 643.41 116.14 641.92 116.17 640.07 C 116.31 637.67 113.97 636.39 112.33 635.13 M 105.88 656.11 C 109.28 659.30 112.61 662.57 115.90 665.87 C 112.77 656.82 110.67 647.47 108.21 638.24 C 105.92 643.84 106.24 650.15 105.88 656.11 M 118.44 641.51 C 118.30 643.79 118.22 646.07 118.05 648.36 C 116.95 647.67 115.85 646.98 114.76 646.30 C 114.65 647.12 114.50 647.94 114.51 648.79 C 115.60 656.75 118.33 664.33 120.23 672.11 C 120.96 674.61 121.08 677.31 122.42 679.61 C 122.39 672.08 122.38 664.24 125.12 657.11 C 123.21 651.78 121.29 646.42 118.44 641.51 M 531.36 646.45 C 532.71 648.93 535.48 649.90 537.85 651.10 C 546.01 654.58 554.01 658.41 562.20 661.82 C 565.52 672.69 566.70 684.02 568.45 695.22 C 571.57 714.81 574.67 734.41 577.72 754.01 C 578.22 757.51 578.39 761.13 579.84 764.42 C 576.86 736.44 571.60 708.72 567.63 680.86 C 566.81 674.08 564.72 667.55 563.64 660.82 C 552.62 656.64 542.07 651.31 531.36 646.45 M 199.36 659.50 C 194.92 661.36 190.24 662.57 185.73 664.25 C 185.69 665.55 185.71 666.86 185.79 668.17 C 188.30 670.69 192.21 670.35 195.48 670.34 C 205.90 668.88 214.17 661.12 220.10 652.92 C 212.84 653.83 206.13 656.89 199.36 659.50 M 126.13 659.42 C 126.48 667.25 125.88 675.15 124.28 682.82 C 125.50 688.41 128.15 693.53 130.17 698.86 C 129.93 692.74 131.73 686.85 133.26 681.01 C 131.77 673.58 128.92 666.45 126.13 659.42 M 105.80 661.49 C 106.15 669.20 106.45 676.92 106.83 684.63 C 113.68 686.89 119.20 691.66 125.32 695.29 C 121.68 687.19 119.28 678.67 116.69 670.20 C 112.33 668.34 108.66 665.24 105.80 661.49 M 139.57 685.52 C 143.62 697.43 149.75 708.47 155.24 719.75 C 156.69 722.91 157.58 726.32 159.35 729.34 C 159.82 717.78 160.50 706.23 161.32 694.69 C 153.42 693.27 147.59 687.32 142.38 681.67 C 139.16 678.47 136.38 674.89 134.04 671.01 C 135.03 676.15 137.75 680.67 139.57 685.52 M 140.69 673.38 C 146.17 680.39 152.96 686.67 160.89 690.81 C 161.35 688.43 161.86 686.07 162.58 683.77 C 159.75 681.99 157.82 679.06 155.01 677.34 C 150.07 676.61 145.22 675.55 140.69 673.38 M 135.23 684.63 C 134.69 688.94 133.83 693.21 133.28 697.52 C 131.78 707.30 139.29 715.16 141.51 724.21 C 140.80 717.45 141.02 710.49 143.12 703.99 C 141.14 697.30 137.56 691.20 135.23 684.63 M 107.50 688.93 C 108.88 696.36 112.14 703.22 114.26 710.44 C 114.62 709.84 115.36 708.65 115.72 708.05 C 122.02 712.31 128.35 716.63 135.61 719.11 C 134.07 715.15 132.23 711.31 130.55 707.41 C 129.49 705.28 128.69 702.68 126.31 701.67 C 119.52 698.28 113.06 694.13 107.50 688.93 M 231.12 696.30 C 228.69 701.76 224.75 706.36 220.63 710.63 C 227.92 708.83 235.19 706.48 241.67 702.63 C 247.53 699.59 254.25 698.89 260.75 698.73 C 252.15 692.27 240.88 694.39 231.12 696.30 M 226.74 696.51 C 222.11 698.77 217.12 700.18 212.42 702.28 C 208.47 704.00 206.82 708.24 204.35 711.45 C 202.00 714.88 198.89 717.69 196.60 721.15 C 201.70 719.85 206.34 717.27 211.15 715.22 C 215.45 708.50 222.27 703.98 226.90 697.49 C 226.86 697.25 226.78 696.75 226.74 696.51 M 246.55 706.44 C 251.07 708.11 256.00 707.94 260.54 709.56 C 265.06 710.86 268.96 713.55 272.70 716.33 C 274.38 713.04 273.24 708.80 269.92 707.07 C 262.80 703.31 253.84 702.98 246.55 706.44 M 146.35 708.87 C 146.45 715.59 145.46 722.26 145.38 728.98 C 145.16 734.44 147.88 739.40 150.28 744.13 C 150.14 737.26 150.24 730.03 154.01 724.02 C 152.14 718.65 149.14 713.79 146.35 708.87 M 184.01 720.89 C 181.53 722.23 182.29 725.43 181.81 727.74 C 185.36 726.46 189.12 724.70 191.08 721.30 C 193.55 717.11 197.16 713.77 200.10 709.92 C 194.59 713.36 189.25 717.06 184.01 720.89 M 230.03 712.61 C 230.03 712.80 230.03 713.19 230.02 713.38 C 233.22 715.70 236.65 717.69 239.71 720.21 C 243.68 719.49 247.69 719.25 251.69 719.95 C 249.40 716.08 246.02 712.91 242.05 710.82 C 238.15 708.49 233.90 711.71 230.03 712.61 M 254.09 712.49 C 254.85 713.82 255.63 715.19 256.54 716.46 C 258.57 720.06 263.40 720.05 266.94 719.18 C 263.13 716.18 258.93 713.41 254.09 712.49 M 209.35 720.78 C 212.96 721.88 216.73 722.50 220.18 724.11 C 224.13 723.67 227.88 722.23 231.82 721.75 C 228.22 720.21 225.55 717.02 221.92 715.69 C 217.55 716.79 213.72 719.54 209.35 720.78 M 185.29 732.33 C 194.51 732.67 203.29 729.71 212.03 727.26 C 208.95 726.20 205.93 724.98 203.15 723.27 C 197.20 726.29 191.18 729.18 185.29 732.33 M 155.90 727.70 C 155.14 733.48 155.98 739.35 154.89 745.10 C 154.11 748.94 155.63 752.65 157.58 755.89 C 158.65 750.64 158.32 745.25 158.97 739.97 C 159.55 735.63 158.07 731.38 155.90 727.70 M 210.36 752.43 C 208.28 753.61 206.95 755.69 205.34 757.40 C 202.55 760.73 198.98 763.32 196.25 766.71 C 201.03 765.68 205.48 763.55 210.25 762.46 C 211.42 758.39 215.80 757.22 219.06 755.30 C 224.22 752.31 230.04 750.71 235.24 747.84 C 226.84 748.65 218.34 749.52 210.36 752.43 M 219.10 759.15 C 217.90 759.86 216.36 760.37 215.88 761.85 C 222.62 761.16 229.21 759.14 236.03 759.12 C 243.74 759.46 251.26 757.38 258.91 756.80 C 263.72 756.74 268.27 758.49 272.92 759.46 C 269.57 754.53 264.03 751.43 258.21 750.50 C 252.21 749.58 245.99 748.43 239.98 749.60 C 232.93 752.58 225.75 755.33 219.10 759.15 M 181.38 766.66 C 180.14 767.58 179.51 769.03 178.75 770.35 C 182.87 770.40 186.82 769.07 190.60 767.57 C 192.28 766.98 192.91 765.20 193.88 763.90 C 196.59 759.52 201.09 756.80 204.79 753.37 C 196.29 756.39 188.44 761.07 181.38 766.66 M 247.91 763.31 C 253.28 764.46 258.76 765.64 263.57 768.41 C 266.95 770.05 269.61 772.83 272.93 774.57 C 274.46 771.54 275.05 768.16 275.23 764.80 C 266.66 761.30 256.70 759.45 247.91 763.31 M 218.14 763.22 C 224.97 764.61 229.95 769.59 234.91 774.09 C 237.33 774.31 240.50 773.13 242.04 775.71 C 241.80 775.31 241.31 774.51 241.07 774.11 C 244.98 774.35 248.90 774.59 252.82 774.76 C 250.62 772.15 247.69 770.27 245.69 767.50 C 244.33 765.77 243.29 763.81 241.79 762.21 C 233.89 761.81 226.05 763.56 218.14 763.22 M 198.05 768.77 C 202.30 771.41 206.42 775.24 211.69 775.34 C 217.17 774.46 222.72 774.43 228.25 774.47 C 224.56 770.01 219.36 767.10 213.97 765.20 C 208.59 765.98 203.42 767.87 198.05 768.77 M 247.14 765.43 C 249.81 768.21 252.31 771.15 254.98 773.93 C 258.51 777.31 263.76 777.41 268.35 777.18 C 262.52 771.39 255.11 767.36 247.14 765.43 M 179.84 773.41 C 178.75 773.29 178.43 774.45 177.82 775.09 C 181.11 777.34 184.80 779.47 188.93 779.33 C 195.00 779.09 200.81 777.02 206.84 776.43 C 203.09 774.16 199.12 772.19 195.80 769.30 C 190.62 771.18 185.34 772.85 179.84 773.41 M 582.79 788.81 C 576.66 826.89 571.16 865.09 564.46 903.07 C 564.00 904.96 561.33 904.33 559.95 905.05 C 558.48 916.88 558.02 928.85 555.29 940.50 C 572.07 940.72 588.85 940.46 605.63 940.56 C 605.78 939.04 605.89 937.51 606.24 936.05 C 607.79 934.87 609.83 935.51 611.12 936.77 C 613.43 938.93 615.42 941.41 617.60 943.72 C 616.51 941.20 614.63 938.93 614.45 936.11 C 613.72 927.61 613.33 919.09 613.19 910.57 C 610.04 910.62 606.84 910.33 603.77 911.20 C 601.46 900.17 599.95 888.99 597.93 877.92 C 592.47 848.28 587.38 818.59 582.79 788.81 M 151.92 834.82 C 140.12 834.59 128.34 835.34 116.55 835.54 C 116.76 842.83 117.10 850.16 118.57 857.32 C 130.68 856.48 142.82 857.13 154.94 856.50 C 176.06 856.50 197.18 856.41 218.30 856.74 C 219.34 848.56 221.37 840.48 221.16 832.19 C 217.43 832.40 213.72 833.00 209.97 832.84 C 190.58 831.61 171.31 835.32 151.92 834.82 M 156.03 860.76 C 145.24 860.87 134.46 861.11 123.67 861.07 C 125.26 877.75 126.71 894.45 128.47 911.12 C 128.97 912.62 127.67 913.78 127.28 915.14 L 128.70 912.60 C 129.96 922.30 130.76 932.09 132.89 941.66 C 145.24 941.33 157.61 941.37 169.96 940.76 C 180.06 940.10 190.20 940.60 200.32 940.14 C 200.71 939.10 201.08 938.07 201.43 937.04 C 205.87 918.41 208.59 899.43 211.73 880.55 C 212.24 873.72 213.92 867.08 215.57 860.46 C 211.70 860.32 207.82 860.32 203.96 860.39 C 199.90 860.58 195.88 859.19 191.87 860.32 C 179.94 860.95 167.96 860.02 156.03 860.76 M 615.05 910.55 C 615.57 916.03 615.57 921.56 615.94 927.06 C 624.22 927.33 632.48 926.27 640.76 926.53 C 641.11 920.40 641.20 914.25 641.80 908.14 C 633.09 910.44 624.02 910.90 615.05 910.55 M 550.70 924.85 C 549.32 930.33 548.44 935.94 546.59 941.30 C 548.65 941.03 550.72 940.77 552.79 940.49 C 554.16 935.28 554.95 929.95 555.56 924.61 C 553.93 924.67 552.31 924.75 550.70 924.85 M 530.21 925.39 C 530.58 928.72 529.72 931.99 529.33 935.29 C 530.06 937.20 530.83 939.11 531.61 941.02 C 532.44 941.09 533.29 941.17 534.13 941.26 C 534.60 935.87 535.57 930.55 536.31 925.21 C 534.27 925.25 532.23 925.30 530.21 925.39 M 537.87 925.41 C 537.38 930.90 536.15 936.27 534.87 941.62 C 534.07 941.73 532.46 941.95 531.66 942.06 C 536.14 943.90 541.09 941.65 545.75 941.29 C 546.46 935.86 547.53 930.48 548.87 925.17 C 545.20 925.21 541.53 925.28 537.87 925.41 M 616.14 929.70 C 616.12 932.28 616.23 934.87 616.57 937.45 C 616.91 937.90 617.58 938.80 617.91 939.25 C 618.73 941.99 619.58 944.73 620.31 947.51 C 622.73 947.05 625.16 946.57 627.59 946.13 C 626.72 940.36 627.16 934.51 627.30 928.72 C 623.56 928.95 619.85 929.29 616.14 929.70 M 629.14 928.93 C 628.62 934.72 629.36 940.59 628.35 946.34 C 632.27 945.49 636.20 944.73 640.16 944.07 C 639.88 938.76 639.87 933.44 640.19 928.14 C 636.52 928.54 632.83 928.80 629.14 928.93 M 301.48 932.27 C 289.76 932.49 278.09 933.70 266.37 933.94 C 266.29 935.60 266.21 937.26 266.14 938.94 C 330.05 939.88 393.99 939.55 457.92 939.59 C 458.05 937.18 458.17 934.77 458.31 932.38 C 455.18 932.34 452.08 931.99 448.96 931.81 C 430.65 931.78 412.33 930.74 394.02 931.51 C 381.03 931.30 368.05 931.04 355.06 931.13 C 337.20 931.28 319.30 930.81 301.48 932.27 M 521.20 931.45 C 520.68 936.34 523.74 940.36 526.23 944.23 C 528.24 943.87 530.24 943.48 532.23 943.02 C 530.13 941.44 528.02 939.79 526.54 937.58 C 524.96 935.38 524.01 932.40 521.20 931.45 M 461.93 932.55 C 461.81 934.87 461.70 937.20 461.58 939.54 C 465.76 939.38 469.95 939.31 474.13 939.46 C 474.17 937.21 474.20 934.97 474.22 932.74 C 470.12 932.55 466.03 932.44 461.93 932.55 M 204.59 938.59 C 218.47 938.80 232.36 938.49 246.25 938.86 C 246.19 937.16 246.14 935.48 246.10 933.80 C 233.02 933.74 219.92 934.95 206.85 933.80 C 206.10 935.39 205.35 936.98 204.59 938.59 M 249.50 934.11 C 249.38 935.66 249.26 937.22 249.15 938.81 C 253.11 938.84 257.08 938.91 261.04 938.89 C 261.05 937.27 261.06 935.68 261.08 934.09 C 257.22 934.06 253.36 934.09 249.50 934.11 M 607.66 937.44 C 608.20 941.59 610.17 945.33 611.86 949.11 C 614.58 948.57 617.29 948.01 620.01 947.44 C 618.17 944.94 614.91 944.41 612.79 942.30 C 611.06 940.69 609.45 938.96 607.66 937.44 M 559.64 943.45 C 562.27 947.99 563.14 953.20 563.73 958.35 C 568.74 956.63 573.94 955.54 579.16 954.63 C 589.66 952.90 600.14 951.03 610.65 949.34 C 609.55 947.50 608.44 945.69 607.33 943.88 C 591.43 943.91 575.54 943.31 559.64 943.45 Z" />
<path fill="#272525" opacity="1.00" d=" M 258.08 266.22 C 274.23 264.69 290.53 263.66 306.73 265.08 C 305.59 265.70 304.45 266.46 303.10 266.51 C 290.76 267.88 278.31 267.61 265.95 268.77 C 262.27 269.04 258.57 269.71 254.88 269.21 C 253.36 266.85 256.46 266.32 258.08 266.22 Z" />
<path fill="#272525" opacity="1.00" d=" M 255.45 280.40 C 254.21 278.74 256.02 276.57 257.92 277.20 C 268.58 277.99 279.27 277.20 289.94 277.19 C 295.11 277.16 300.27 276.30 305.43 276.91 C 304.44 277.80 303.45 278.91 301.99 278.87 C 288.74 280.81 275.31 281.44 261.94 281.12 C 259.76 281.02 257.56 280.94 255.45 280.40 Z" />
<path fill="#272525" opacity="1.00" d=" M 530.16 277.86 C 531.68 277.54 533.22 277.07 534.80 277.36 C 535.58 278.51 535.42 280.19 534.14 280.93 C 532.31 281.20 530.45 281.18 528.62 281.24 C 529.12 280.11 529.64 278.98 530.16 277.86 Z" />
<path fill="#272525" opacity="1.00" d=" M 559.47 277.56 C 562.13 277.38 565.20 280.14 563.78 282.89 C 561.28 282.82 559.53 280.69 557.68 279.27 L 558.20 278.09 C 558.52 277.96 559.15 277.69 559.47 277.56 Z" />
<path fill="#272525" opacity="1.00" d=" M 527.67 286.44 C 528.46 284.17 530.86 285.67 532.10 286.64 C 532.19 289.76 532.72 293.58 529.93 295.78 C 525.45 295.32 526.37 289.34 527.67 286.44 Z" />
<path fill="#272525" opacity="1.00" d=" M 535.66 284.77 C 537.91 287.31 537.48 290.95 537.03 294.06 C 536.19 299.33 533.27 303.91 530.91 308.60 C 533.53 310.11 536.29 311.41 538.87 313.03 C 537.85 313.87 536.65 315.60 535.11 314.61 C 532.37 313.48 529.30 311.85 528.32 308.85 C 529.99 304.44 532.83 300.54 534.13 295.97 C 535.47 292.39 535.27 288.51 535.66 284.77 Z" />
<path fill="#272525" opacity="1.00" d=" M 556.45 285.56 C 558.73 284.00 560.53 287.02 560.39 289.04 C 560.88 292.13 560.34 297.64 556.06 297.22 C 551.78 295.00 553.11 288.10 556.45 285.56 Z" />
<path fill="#272525" opacity="1.00" d=" M 436.43 291.34 C 437.21 291.15 438.76 290.75 439.53 290.56 C 438.10 293.72 434.91 295.33 432.44 297.55 C 420.21 307.43 411.31 320.51 402.20 333.14 C 401.12 335.35 397.36 336.87 396.21 333.92 C 394.26 327.95 391.63 322.15 390.39 315.96 C 391.13 315.66 392.60 315.05 393.33 314.75 C 395.88 319.04 397.25 323.88 399.42 328.35 C 409.78 314.26 421.20 300.39 436.43 291.34 Z" />
<path fill="#272525" opacity="1.00" d=" M 598.44 316.21 C 600.89 311.02 606.95 308.80 612.14 307.43 C 612.61 307.80 613.56 308.54 614.04 308.91 C 612.39 311.18 609.58 311.97 607.22 313.25 C 604.38 314.49 601.76 316.82 598.44 316.21 Z" />
<path fill="#272525" opacity="1.00" d=" M 603.35 318.30 C 607.17 316.29 611.74 319.53 613.65 322.71 C 611.06 326.20 603.89 328.11 601.70 323.28 C 600.42 321.48 601.94 319.45 603.35 318.30 Z" />
<path fill="#272525" opacity="1.00" d=" M 514.55 503.69 C 515.99 500.94 519.28 501.60 521.83 501.16 C 525.59 500.49 529.33 501.46 533.06 501.84 C 533.46 502.49 534.24 503.78 534.64 504.43 C 528.45 504.96 522.31 506.17 516.09 506.24 C 515.71 505.60 514.94 504.32 514.55 503.69 Z" />
<path fill="#272525" opacity="1.00" d=" M 974.11 594.86 C 975.76 593.67 976.54 596.69 975.51 597.64 C 973.90 598.72 972.89 595.77 974.11 594.86 Z" />
<path fill="#272525" opacity="1.00" d=" M 238.66 643.67 C 240.98 642.95 241.11 645.56 241.44 647.07 C 242.49 653.91 242.38 660.85 242.85 667.75 L 240.90 667.96 C 241.39 668.05 242.36 668.23 242.85 668.32 C 242.59 671.53 242.55 674.85 241.11 677.82 C 239.59 673.41 240.16 668.64 239.69 664.06 C 239.45 657.26 238.33 650.48 238.66 643.67 Z" />
<path fill="#272525" opacity="1.00" d=" M 388.57 774.85 C 390.55 774.49 392.66 773.70 394.65 774.51 C 401.77 776.88 402.25 789.27 394.91 791.66 C 390.05 793.02 386.16 787.04 387.83 782.77 C 390.81 782.71 391.82 786.35 394.72 786.75 C 395.11 784.35 395.88 781.57 394.50 779.37 C 392.44 777.58 388.22 778.70 388.57 774.85 Z" />
<path fill="#272525" opacity="1.00" d=" M 239.12 815.02 C 239.25 812.66 238.48 809.65 241.06 808.31 C 241.87 812.16 241.87 816.10 241.75 820.02 C 241.61 832.65 240.55 845.25 240.16 857.88 C 240.03 878.23 240.02 898.59 240.43 918.94 C 240.57 920.95 240.08 922.90 238.80 924.53 C 237.02 918.49 237.86 912.12 237.55 905.93 C 237.12 893.65 237.33 881.36 237.24 869.08 C 236.89 851.03 239.11 833.06 239.12 815.02 Z" />
<path fill="#272525" opacity="1.00" d=" M 617.33 930.18 C 618.34 932.39 618.45 934.89 618.24 937.30 C 617.97 937.17 617.44 936.92 617.17 936.80 C 616.99 934.59 617.26 932.37 617.33 930.18 Z" />
<path fill="#272525" opacity="1.00" d=" M 440.37 962.39 C 445.97 960.02 452.08 959.31 458.03 958.34 C 458.01 959.32 457.98 960.30 457.96 961.30 C 451.03 962.08 443.55 962.77 437.77 967.03 C 442.69 970.74 448.97 971.58 454.85 972.79 C 470.46 975.32 486.27 976.20 502.05 976.85 C 506.06 977.27 510.19 977.05 514.10 978.18 C 513.60 978.35 512.62 978.67 512.13 978.84 C 495.78 978.70 479.38 978.48 463.13 976.49 C 455.91 975.71 448.60 974.78 441.75 972.28 C 439.32 971.26 436.43 969.89 435.85 967.05 C 436.00 964.60 438.43 963.32 440.37 962.39 Z" />
</g>
</g></svg>